<?xml version="1.0" encoding="UTF-8"?>
<svg id="Capa_2" data-name="Capa 2" xmlns="http://www.w3.org/2000/svg" xmlns:xlink="http://www.w3.org/1999/xlink" viewBox="0 0 150.26 313.13">
  <defs>
    <style>
      .cls-1 {
        fill: none;
      }

      .cls-2 {
        fill: #40721d;
      }

      .cls-3 {
        fill: #5b903b;
      }

      .cls-4 {
        fill: #d93143;
      }

      .cls-5 {
        fill: #a5d186;
      }

      .cls-6 {
        fill: #fcac33;
      }

      .cls-7 {
        clip-path: url(#clippath);
      }
    </style>
    <clipPath id="clippath">
      <rect class="cls-1" x="11.79" width="126.59" height="280.18" rx="18.02" ry="18.02"/>
    </clipPath>
  </defs>
  <g id="Capa_1-2" data-name="Capa 1">
    <g class="cls-7">
      <g>
        <path class="cls-2" d="M92.39,306.58c-.04.11-.05.24-.11.33-.67.08-1.01.76-1.56,1.24-3.84,3.37-9.31,4.19-14.26,4.55-.7.05-1.6-.5-1.93.23-.36-.05-.82-.02-1.18,0-1.25-.7-2.83-.79-4.25-.56-.19.03-.4-.05-.6-.04-.61-.51-1.47-.54-2.32-.76-2.57-.67-4.67-2.07-6.79-3.36-.27-.08-.48-.56-.7-.66-1.88-3.63-2.79-3.57-3.06-8.46-.16-2.91,1.31-11.28,1.11-14.15-.03-.41-.04-.81.04-1.22,3.53-.29,7.07-.82,10.83-.97,4.1-.17,8.03-.35,12.11-.11l7.86.45c1.71.1,3.33.43,5.2.29.84,3.62,2.02,14.09,1.7,17.54-.19,2.1-1.46,3.81-2.11,5.68Z"/>
        <path class="cls-3" d="M56.75,284.93c.19,2.87-1.28,11.24-1.11,14.15.27,4.89,1.18,4.83,3.06,8.46-.39-.19-.75-.36-1.07-.78-2.51-3.28-3.01-7.24-2.42-11.29.19-1.3,1.27-10.57,1.15-10.46.09-.08.2-.24.39-.08Z"/>
        <path class="cls-3" d="M92.28,306.91c-2.72,4.83-12.47,6.69-17.75,6.02.33-.73,1.23-.18,1.93-.23,4.94-.35,10.41-1.17,14.26-4.55.55-.48.89-1.16,1.56-1.24Z"/>
        <path class="cls-3" d="M68.51,312.32c-2.62.1-8.1-1.9-9.11-4.12,2.13,1.29,4.22,2.69,6.79,3.36.85.22,1.71.26,2.32.76Z"/>
        <path class="cls-3" d="M73.36,312.93c.76.57-5.77-.18-4.25-.56,1.42-.23,3-.14,4.25.56Z"/>
        <path class="cls-3" d="M86.58,142.33l6.22,7.51c2.41,2.92,4.78,5.73,7.72,8.13,1.66,1.35,5.13,4.33,3.42,6.52-.32.4-1.45.98-1.11,1.59,1.24,1.15,2.21,2.89,1.1,4.41-.71.97-1.86,1.26-2.88,1.95,2.68,3.33,5.45,6.03,8.62,8.76,1.72,1.48,4.03,3.29,3.96,5.84s-2.93,3.31-4.93,4.01c1.36,2.46,5.12,4.15,5.05,7.4-.02.84-.88,1.37-.99,2.31,2.61,3.5,14.32,10,8.59,14.79-1.54,1.29-3.46,1.84-5.69,2.37,2.19,3.8,8.46,5.57,7.02,11.65,3.4,4.49,10.03,8.4,12.68,12.93,1.56,2.67,1.12,5.35-1.38,7.25-2.15,1.63-4.82,2.12-7.74,2.84,1.25,1.96,2.9,3.16,4.44,4.5,2.14,1.87,3.53,4.03,5.19,6.26.85,1.15,2.26,1.95,3.23,3.08,2.69,3.15,8.4,6.03,10.75,12.28.92,2.43.28,4.77-1.74,6.36-4.17,3.28-13.49,3.32-18.7,2.8l-10.18-1.02-19.6-2.56c-1.98-.26-3.73-.75-5.84-.55.27,3.84.65,7.53,1.17,11.31.49,3.55.33,7.12-1.39,10.28-.31.57-.63,1.13-1.18,1.26.65-1.87,1.92-3.58,2.11-5.68.32-3.45-.86-13.92-1.7-17.54-1.87.15-3.49-.19-5.2-.29l-7.86-.45c-4.09-.23-8.01-.06-12.11.11-3.76.16-7.29.69-10.83.97l-5.99.48-16.25,2.18c-5.47.73-17.15,2.09-22.17,1.6-3.09-.3-6.06-.6-8.82-1.97s-4.25-4-3.24-6.98c1.77-5.23,7.75-9.82,11.97-13.54,3.41-3,2.33-3.28,4.71-5.5.55.8-.42,1.93,1.79,6.3-1.96-.24-1.16-3.35-2.55-4.27-.6.96-1.51,1.69-1.91,2.65-1.83,4.45,3.69,7.44,7.35,8.29,10.69,2.48,23.11-.01,33.33-3.74,6.59-2.4,12.49-5.83,18.3-9.95,2.4,5.32,8.46,7.94,13.98,6.04.11.62.61.74,1.25,1.05,9.32,4.51,19.33,7.17,29.75,7.57,5.17.2,14.9-.52,17.46-5.67,1.39-2.8-.27-4.38-2.26-7-1.17-1.54-2.57-2.93-3.96-4.29l-4.32-4.24c-.33-.32-1.15-.1-1.49-.15.01-.36.32-.55.62-.83,3.31-3.06,4.59-7.62,3.08-11.94-1.39-3.96-4.83-6.41-9.06-7.49.87-.8,2.06-1.04,3.17-1.83,2.98-5.73-4.29-8.7-6.93-12.42-3.69.08-7.12.33-10.67-.15-5.23-.71-13.68-2.34-17.87-5.21-3.54-1.05-6.38-3.05-9.33-5.23-.43-.32-1.43-1.11-2.01-.7-4.31,3.08-8.81,5.7-13.79,7.5-.71.26-1.11.61-.94,1.32-2.25-3.79-6.75-5.59-11.05-5.17-4.94.48-8.76,4.06-9.55,8.61-.05-.41-.29-.89-.89-.9l-3.22-.07c.03-.42-.36-.87-.91-.84-1.62.12-2.73-1.11-4.04-1.59-1.62-.59-2.14-1.42-2.22-3.03-.07-1.56.73-2.11,1.58-3.21s1.47-2.19,2.84-3c1.5-.89,3.95-4.17,5.39-5.46,2.93,1.36,6.01,1.78,9.45,1.74,9.4-.13,18.45-3.06,26.18-8.35.49-.33,1.24-1.37,1.91-.9,2.15,1.48,6.21,4.48,8.53,4.73-.63,3.45-.39,7.27,1.45,10.42,3.77,6.47,11.85,8.99,18.29,5.54,3.59-1.92,6.06-4.77,7.03-8.66.35-1.39.86-2.81.59-4.16.86-.79,2.02-2.23,1.7-3.57-.6-2.5-2.79-3.98-4.56-5.61-.73-.67-1.22-1.28-2.16-.89-.43-.47-.97-1-1.59-1.01.19-.17.02-.27-.07-.4-.18-.26-.48-.15-.66-.24-3.05-1.38-6.3-2.17-9.82-1.16-1.34.38-3.27.72-4.38,1.5l-.15-.62c-5.32-1.61-10.12-4.13-14.65-7.49-.84.82-1.51,1.34-2.37,1.35.13-4.42-3-8.37-7.49-8.79-2.79-.27-5.26.55-7.02,2.4-3.6,3.77-2.87,9.55,1.24,13.02l-5.7,1.09c-3.7.71-7.32.98-11.02.23-.95,1.68-3.54,3.52-3.73,4.01-.22.58-.86.77-1.35.75.7-2.58,3.77-3.31,3.8-4.55.03-1.03-3.05-.68-4.42-3.03-1.68-2.89,2.54-6.16,4.45-7.84,2.55-2.23,4.77-4.68,7.16-7.09,1.73-1.74-2.06-1.25-2.69-3.68-.53-2.02,1.62-3.2,1.48-4s-1.93-1.12-1.44-3.22c.38-1.62,1.52-2.4,2.62-3.4,2.29-2.07,4.52-4.1,6.52-6.46l8.18-9.66c1.29.99-1.27,7.56-.07,9.59.68,1.15,4.13-1.07,4.92-1.38l4.08-1.61c4.45-1.76,7.87,2,13.25,3.88.84.29,1.6-1.12,1.5-1.85-.17-1.25-1.76-9.81-.32-9.28ZM75.15,165.4c6.95,5.19,14.95,7.55,23.15,7.13,1.28-.07,2.24-.51,3.16-1.32,1.01-.3,1.94-.91,2.03-1.81.1-1.06-.04-1.65-.83-2.48-.4-.41-.61-1.13-1.47-.82-7.96,2.01-19.43-1.56-26.09-6.73-6.99,5.55-18.23,8.62-27.02,6.65.36,1.5-1,1.68-1.34,2.19-1.02,1.5.81,2.58,1.88,3.01,1,.4,1.62,1.39,2.9,1.26,8.46.7,16.79-2.14,23.64-7.07Z"/>
        <path class="cls-6" d="M86.58,142.33c-1.44-.53.15,8.03.32,9.28.1.73-.66,2.14-1.5,1.85-5.38-1.89-8.8-5.65-13.25-3.88l-4.08,1.61c-.78.31-4.23,2.53-4.92,1.38-1.2-2.02,1.36-8.6.07-9.59.24-2.18-.9-4.4-2.62-5.94-.74-.67-4.66-4.91-4.66-5.33,0-.58-.23-1.8.58-1.96l9.02-1.78c1.49-.29,2.99-1.24,3.78-2.63l4.22-7.39c.33-.58,1.01-.87,1.51-.89.6-.02,1.24.42,1.58,1.07l2.19,4.11c1.03,1.93,1.95,4.14,3.94,5.27,3.84,2.19,10.65,1.36,11.34,3.72.13.44-.14.99-.5,1.37l-1.96,2.13c-2.37,2.57-5.46,4.39-5.07,7.59Z"/>
        <path class="cls-2" d="M89.8,189.95c-2.41,1.68-5.29,5.44-5.8,8.22-2.33-.25-6.39-3.25-8.53-4.73-.68-.47-1.43.56-1.91.9-7.73,5.29-16.78,8.22-26.18,8.35-3.45.05-6.52-.38-9.45-1.74.21-.67-.4-1.24-.6-1.97-.26-.95.27-1.85.12-2.7-.02-.11.1-.27.13-.38.48.02,1.12-.17,1.35-.75.19-.49,2.78-2.33,3.73-4.01,3.7.75,7.32.48,11.02-.23l5.7-1.09c2.91,1.18,5.74,1.91,8.72.23,2.31-1.3,4.46-3.84,4.55-6.85.86,0,1.53-.52,2.37-1.35,4.52,3.36,9.33,5.88,14.65,7.49l.15.62Z"/>
        <path class="cls-2" d="M39.38,219.04l-.22,1.28c-.55.49-.63,1.55,0,1.97,0,.28.03.56.01.84-.02.23-.1.5-.02.79.05.18.25.5.54.29l.42,1.78c.14.58.16,1.44.92,1.37.01.07,0,.16,0,.23-.02.21-.05.51.16.64.13.08.33.04.46.04.38.43.81.89,1.24,1.25.04.18.05.46.24.56.15.08.35.02.45.08,1.45.92,2.88,1.86,4.59,2.1-4.82.99-9.73,1.65-14.93.21-1.78-.49-3.53-1.12-4.95-2.28-1.14-4.93.74-4.67,2.58-8.22.16-.1.39-.34.56-.38,1.16-.24,1.78-1.45,2.6-2.26.25-.25.58-.42.6-.84.17-.12.56-.17.64-.44l3.22.07c.6.01.84.49.89.9Z"/>
        <path class="cls-3" d="M17.5,258c0,.23.08.56.07.83,0,.25-.14.8-.59.57-.06-.23-.06-.55-.07-.83,0-.25.14-.79.59-.57Z"/>
        <path class="cls-3" d="M17.79,256.72c.01.26.09.73-.28.75-.14-.1-.28-.29-.21-.45.09-.2.35-.23.49-.29Z"/>
        <path class="cls-2" d="M118.34,232.33c-.51-.13-1.36.09-1.88.04-.74-.57-2.35-.34-2.66.61l-2.44.44c-12.77,2.29-37.07-11.41-36.66-11.71-4.89,3.55-10.08,6.37-15.8,8.32-.5.17-.88.05-1.16-.22,3.62-3.81,5.05-9.49,2.25-14.2-.17-.71.23-1.06.94-1.32,4.98-1.8,9.48-4.42,13.79-7.5.58-.41,1.58.38,2.01.7,2.95,2.18,5.79,4.18,9.33,5.23,4.19,2.87,12.63,4.5,17.87,5.21,3.54.48,6.98.22,10.67.15,2.64,3.72,9.9,6.69,6.93,12.42-1.11.79-2.3,1.03-3.17,1.83Z"/>
        <path class="cls-2" d="M83.15,243.32c-3.75.15-7.19,2.16-9.16,5.35s-2.23,7.17-.69,10.59c-5.81,4.13-11.71,7.55-18.3,9.95-10.22,3.73-22.64,6.22-33.33,3.74-3.66-.85-9.18-3.84-7.35-8.29.4-.96,1.31-1.69,1.91-2.65,1.39.93.59,4.04,2.55,4.27,1.87,3.71,7.99,6.11,12.46,4.5,1.85-.67,3.66-1.36,5-2.88,3.25-3.7,3.97-8.98,1.53-13.28-.39-.69-.92-1.2-.92-1.91,14.16-1.94,26.68-6.13,38.28-15.04,2.74,2.09,5.33,3.8,8.03,5.64Z"/>
        <path class="cls-2" d="M109.1,251.72c1.17.29,1.88,1.45,3.07,1.92,7.04,2.81,10.72-1.17,11.52-1.06.34.05,1.16-.18,1.49.15l4.32,4.24c1.39,1.37,2.79,2.75,3.96,4.29,2,2.62,3.65,4.2,2.26,7-2.55,5.15-12.28,5.87-17.46,5.67-10.42-.39-20.43-3.06-29.75-7.57-.64-.31-1.14-.43-1.25-1.05,3.37-1.16,6-3.85,7.08-7.25s.5-7.11-1.58-10.02c4.25.89,12.32,4.05,16.31,3.69Z"/>
        <path class="cls-4" d="M104,189.61c-.17.24.05.49.24.58.17.07.34.05.49.06.62.02,1.16.54,1.59,1.01,2.12,2.32,3.99,4.91,4.65,8.22l.37,1.84c.27,1.35-.24,2.77-.59,4.16-.97,3.89-3.44,6.74-7.03,8.66-6.43,3.45-14.51.93-18.29-5.54-1.84-3.15-2.08-6.97-1.45-10.42.51-2.78,3.39-6.54,5.8-8.22,1.11-.78,3.04-1.12,4.38-1.5,3.53-1.01,6.77-.22,9.82,1.16Z"/>
        <ellipse class="cls-6" cx="83.6" cy="254.61" rx="11.3" ry="11.31"/>
        <path class="cls-5" d="M118.34,232.33c4.23,1.08,7.67,3.54,9.06,7.49,1.51,4.32.23,8.88-3.08,11.94-.3.28-.61.47-.62.83-.8-.11-4.48,3.87-11.52,1.06-1.19-.47-1.9-1.63-3.07-1.92-4.54-5.21-4.56-12.85,1.24-17.15.45-.33.92-.68,1.02-1.15l2.44-.44c.89-.16,1.86-.16,2.66-.61.52.05,1.37-.18,1.88-.04Z"/>
        <path class="cls-5" d="M59.98,215.61c2.79,4.71,1.37,10.39-2.25,14.2-2.74,2.84-6.33,1.8-9.57,2.47-1.72-.24-3.15-1.17-4.59-2.1.09-.15.05-.31-.04-.42-.18-.21-.43-.25-.65-.22-.43-.36-.85-.82-1.24-1.25-.08-.09-.02-.33-.08-.46-.1-.19-.3-.3-.54-.23,0-.07,0-.16,0-.23-.09-.57-.22-1.39-.92-1.37l-.42-1.78c-.05-.23.1-.5.01-.79-.05-.17-.24-.51-.53-.29.02-.28-.01-.56-.01-.84.37-.56.49-1.47,0-1.97l.22-1.28c.79-4.55,4.61-8.14,9.55-8.61,4.29-.41,8.79,1.38,11.05,5.17Z"/>
        <path class="cls-2" d="M75.15,165.4c-6.85,4.93-15.18,7.77-23.64,7.07-1.28.13-1.9-.86-2.9-1.26-1.08-.43-2.9-1.51-1.88-3.01.34-.51,1.7-.69,1.34-2.19,8.79,1.98,20.03-1.1,27.02-6.65,6.66,5.17,18.14,8.74,26.09,6.73.86-.3,1.08.41,1.47.82.8.83.93,1.42.83,2.48-.08.9-1.02,1.51-2.03,1.81-.91.81-1.87,1.25-3.16,1.32-8.2.43-16.2-1.94-23.15-7.13Z"/>
        <path class="cls-6" d="M72.64,183.19c-.09,3.01-2.24,5.55-4.55,6.85-2.98,1.68-5.81.95-8.72-.23-4.11-3.47-4.84-9.25-1.24-13.02,1.76-1.85,4.23-2.66,7.02-2.4,4.49.43,7.62,4.37,7.49,8.79Z"/>
        <path class="cls-2" d="M111.35,201.32l-.37-1.84c-.67-3.31-2.54-5.9-4.65-8.22.93-.39,1.43.22,2.16.89,1.77,1.63,3.96,3.11,4.56,5.61.32,1.34-.84,2.78-1.7,3.57Z"/>
        <path class="cls-2" d="M104.73,190.24c-.15,0-.32.02-.49-.06-.2-.09-.42-.34-.24-.58.18.08.48-.02.66.24.08.12.25.23.07.4Z"/>
        <path class="cls-3" d="M111.35,233.41c-.1.48-.57.82-1.02,1.15-5.8,4.3-5.78,11.94-1.24,17.15-3.99.36-12.06-2.79-16.31-3.69-2.22-3.1-5.84-4.87-9.64-4.72-2.69-1.84-5.29-3.55-8.03-5.64-11.6,8.91-24.12,13.1-38.28,15.04-.33-.27-1.1-.54-1.26-1.04-.35-1.05-1.41-1.86-2.55-1.85-.09,0-.18-.02-.27,0,.56-1.47-9.54-1.9-9.26,0-.15-.04-.39.15-.53.08-.68-.35-.95.4-1.39.73-1.11.85-2.34-.1-3.31-.46-1.28-.47-1.84-1.22-2.62-2.31-.45-.63-1.09-1.03-1.16-1.68-.1-.83.42-1.21.68-1.88,2.17-5.54,4.9-6.06,5.73-7l2.38-2.7c1.47-1.67,3.4-2.89,4.99-4.4,1.42,1.16,3.17,1.79,4.95,2.28,5.2,1.44,10.12.78,14.93-.21,3.24-.66,6.82.37,9.57-2.47.28.28.66.4,1.16.22,5.72-1.95,10.91-4.78,15.8-8.32-.41.3,23.88,13.99,36.66,11.71Z"/>
        <path class="cls-4" d="M37.76,254.63c-.39-.69-.92-1.2-.92-1.91-.33-.28-1.1-.54-1.26-1.04-.35-1.05-1.41-1.86-2.54-1.85-.09,0-.18-.02-.27,0,.56-1.47-9.54-1.9-9.26,0-.15-.04-.39.15-.53.08.05.55-.59.55-1,.86-.77.57-1.32,1.33-1.92,1.94-1.08,1.09-1.89,2.55-2.26,4.03.01.26.09.73-.28.75v.53c0,.23.07.56.06.83,0,.25-.14.8-.59.57.05.16-.08.46,0,.6.55.8-.42,1.93,1.78,6.3,1.87,3.71,7.99,6.11,12.46,4.5,1.85-.67,3.66-1.36,5-2.88,3.25-3.7,3.97-8.98,1.53-13.28Z"/>
        <path class="cls-3" d="M39.15,222.29c-.63-.43-.54-1.49,0-1.97.48.51.37,1.41,0,1.97Z"/>
        <path class="cls-3" d="M41.02,227.37c-.76.07-.78-.79-.92-1.37.7-.02.82.8.92,1.37Z"/>
        <path class="cls-3" d="M39.68,224.22c-.29.21-.5-.11-.54-.29-.08-.29,0-.56.02-.79.29-.22.48.12.53.29.09.29-.06.56-.01.79Z"/>
        <path class="cls-3" d="M41.64,228.29c-.13,0-.33.04-.46-.04-.21-.13-.17-.44-.16-.64.23-.07.44.03.54.23.07.13,0,.37.08.46Z"/>
        <path class="cls-3" d="M43.57,230.17c-.1-.06-.3,0-.45-.08-.19-.1-.2-.38-.24-.56.22-.03.48.01.65.22.09.11.13.26.04.42Z"/>
        <path class="cls-3" d="M116.45,232.37c-.8.44-1.76.45-2.66.61.31-.94,1.91-1.17,2.66-.61Z"/>
      </g>
    </g>
  </g>
</svg>