<?xml version="1.0" encoding="UTF-8"?>
<svg id="Capa_2" data-name="Capa 2" xmlns="http://www.w3.org/2000/svg" viewBox="0 0 80.23 80">
  <defs>
    <style>
      .cls-1 {
        fill: #e2242c;
      }

      .cls-2 {
        fill: #376b59;
        opacity: .6;
      }

      .cls-3 {
        opacity: .04;
      }

      .cls-3, .cls-4 {
        fill: #c1272d;
      }

      .cls-5 {
        fill: #366e54;
      }
    </style>
  </defs>
  <g id="Capa_1-2" data-name="Capa 1">
    <g>
      <path class="cls-4" d="M75.15,27.97c-2.64,4.08-7.38,6.08-12.13,5.27-1-.17-2.26-.55-3.14-1.06-2.21-1.28-4.28-3.11-5.34-5.5-1.68-3.79-1.32-8.18,1.05-11.63,2.24-3.26,6.01-5.16,10.13-5.06-.9-1.9-2.14-3.31-3.7-4.45-.21-.16-.4-.28-.42-.52,3.02-5.48,10.49-6.7,15.19-2.59,4.74,4.14,4.58,11.54-.49,15.53,1,3.33.76,7.06-1.15,10Z"/>
      <path class="cls-5" d="M43.44,14.3c-.15,2,.37,4.11,1.21,5.9-1.87.59-3.52,1.69-5.27,2.8-4.33,2.73-8.35,5.72-12.32,8.95l-6.39,5.21c-.73.6-.78,1.66-.2,2.34.53.63,1.55.83,2.31.22,6.27-5.09,14.63-12.02,21.61-15.8.7-.38,1.41-.6,1.99-1.04,1.74,1.78,3.89,3,6.29,3.62-.39.8-1.03,1.47-1.52,2.29-4.38,7.23-.21,6.31-1.16,8.61-.38.92-1.28,1.06-2.18,1.11-4.74.22-9.4,2.54-12.61,6.1-.98,1.09-1.65,2.36-1.77,3.76-.08,1.02-.73,1.78-1.82,1.78-4.01,0-7.8,1.6-10.53,4.54-1.09,1.18-1.97,2.68-3.5,1.95s-.15-2.12-2.09-3.19c-3.54-1.95-9.46-1.15-13.25-.05-.91.26-1.77-.13-2.11-.92s-.05-1.58.65-2.1c3.41-2.53,5.44-6.15,6.47-10.21,1.74-6.85-1.63-7.61-.19-9.45.27-.35.79-.64,1.36-.65,4.02-.12,7.52-1.91,10.27-4.75s4.5-6.34,4.71-10.35c.03-.62.44-1.17.89-1.4.55-.28,1.21-.28,1.72.1,2.93,2.18,14.04,2.46,17.44.63Z"/>
      <path class="cls-1" d="M61.6,5.03c.01.23.2.36.42.52,1.55,1.14,2.8,2.55,3.7,4.45-4.12-.1-7.89,1.79-10.13,5.06-2.37,3.45-2.74,7.84-1.05,11.63-.6-.06-1.26-.03-1.85-.18-2.4-.62-4.55-1.83-6.29-3.62-.67-.68-1.33-1.82-1.73-2.68-.84-1.8-1.36-3.9-1.21-5.9.29-3.93,2.56-7.46,5.75-9.33,3.73-2.19,8.03-2.15,11.64-.18.3.16.51.28.77.24Z"/>
      <path class="cls-2" d="M54.53,26.68c1.06,2.39,3.14,4.21,5.34,5.5-2.11,6.25-1.86,16.3-1.16,22.92.1.93,1.07,1.46,1.83,1.34.81-.13,1.52-.83,1.45-1.77-.54-6.44-.92-15.35,1.02-21.43,4.75.81,9.49-1.19,12.13-5.27.14,1.19.19,2.4.72,3.53,1.39,2.99,3.57,1.16,4.25,3.07.21.6.09,1.31-.38,1.79-2.67,2.7-4.22,6.02-5.09,9.68-.67,2.83-.48,5.64,1.2,8.11.46.68.47,1.66-.2,2.28-3.4,3.18-4.98,7.61-4.5,12.26.09.85-.28,1.66-.91,1.99-.68.36-1.44.21-2.02-.33-1.36-1.25-3.96.29-5.2,1.21-2.67,2-4.74,4.59-6.43,7.46-.47.79-1.26,1.15-2.09.87-2.84-.97,1.58-4.95-3.42-13.84-3.38-6.01-6.19-4.46-6.63-6.5-.11-.51.02-1.16.45-1.59,3.24-3.16,4.97-7.32,5.13-11.85.1-2.83-.64-5.37-2.22-7.61.9-.04,1.8-.19,2.18-1.11.95-2.3-3.22-1.38,1.16-8.61.5-.82,1.13-1.49,1.52-2.29.59.15,1.25.12,1.85.18Z"/>
      <path class="cls-3" d="M63.01,33.24c-1.94,6.09-1.56,15-1.02,21.43.08.94-.63,1.65-1.45,1.77-.76.12-1.73-.41-1.83-1.34-.71-6.62-.95-16.67,1.16-22.92.88.51,2.14.89,3.14,1.06Z"/>
    </g>
  </g>
</svg>