<?xml version="1.0" encoding="UTF-8"?>
<svg id="Capa_2" data-name="Capa 2" xmlns="http://www.w3.org/2000/svg" viewBox="0 0 114.43 127.16">
  <defs>
    <style>
      .cls-1 {
        fill: #c94833;
      }

      .cls-2 {
        fill: #fba370;
      }

      .cls-3 {
        fill: #fdf4de;
      }

      .cls-4 {
        fill: #fdefd2;
      }

      .cls-5 {
        fill: #452c1b;
      }

      .cls-6 {
        fill: #d79b45;
      }

      .cls-7 {
        fill: #cd6c40;
      }

      .cls-8 {
        fill: #5d8960;
      }

      .cls-9 {
        fill: #903524;
      }

      .cls-10 {
        fill: #d34f3a;
      }

      .cls-11 {
        fill: #b03c2b;
      }

      .cls-12 {
        fill: #fcf6ed;
      }

      .cls-13 {
        fill: #534336;
      }

      .cls-14 {
        fill: #486f4b;
      }

      .cls-15 {
        fill: #edd5ab;
      }

      .cls-16 {
        fill: #fdb98d;
      }
    </style>
  </defs>
  <g id="Capa_1-2" data-name="Capa 1">
    <g>
      <g>
        <g>
          <path class="cls-7" d="M94.9,33.41c-.15,0-.37.04-.43-.14.15,0,.37-.04.43.14Z"/>
          <path class="cls-7" d="M97.46,33.41h-.14c.04-.06.1-.06.14,0Z"/>
          <path class="cls-7" d="M96.18,33.41h-.14c.04-.06.1-.06.14,0Z"/>
          <path class="cls-9" d="M37,14.65c-.57-.15-1.15-.31-1.69-.56.54-.74,3.55-4.61,4.49-3.88.16.13.36.69.19.93-.91,1.25-1.97,2.39-2.99,3.52Z"/>
          <g>
            <path class="cls-1" d="M50.08.23s.11.01.16.01c1.94,1.08.63.02,2.56.84.71.3,1.44.53,2.05,1.1.14.13.37.16.49.1,1.67,1.04,3.22,2.37,4.56,3.81.04.06.09.11.14.14.26.11.43.33.57.56.04.14.14.25.28.29,3.22,3.1,5.7,6.92,7.85,10.91.24.45.31.91.68,1.2-.12.11-.2.44-.44.44-.68-.3-1.55-.43-2.26-.45-.05,0-.1,0-.14,0-.04-.41-2.36-.24-2.56-.57.11,0,.27.07.29-.14h-1.86c-.15,0-.29.03-.28.14-.25,0-.52.06-.71-.14.14-.03.37.11.43-.14h-6.27c.06.25.3.11.43.14-.15.15-.43.2-.7.15-.49-.09-2.8.23-3.29.28-.21-.65-6.29,1.08-6.45,1.17-.09.05-.12.17-.1.28-.04.02-.1,0-.14.01-.18-.11-.37-.25-.59-.31-.29-.08-.46-.32-.72-.55-1.91-1.71-3.84-3.31-6.11-4.53-.31-.17-.69-.23-.98-.31,1.02-1.12,2.08-2.27,2.99-3.52.17-.24-.03-.8-.19-.93-.94-.73-3.95,3.14-4.49,3.88-1.2,1.65-1.87,3.67-2.29,5.67-.06-.01-.13.02-.21,0s-.28-.01-.16.14c.05.06.17.1.22.15-.02.08.04.21,0,.28-.5-.09-.09.45-.47.76-.03.03-1.97.35-2.22.21,0-.52-.22-.93-.58-1.27-.04-.38-.26-.63-.57-.7-.04-.05-.1-.09-.14-.14.03-.33-.3-.46-.57-.57l-.14-.12c-.36-.3-.83-.44-1.12-.84,2.55-5.1,7.49-11.43,12.35-14.52.1.12,2.1-1.12,2.42-1.29.44-.24.99-.28,1.43-.57.38-.25.84-.23,1.22-.37.8-.31,1.56-.55,2.38-.46.95-.42,2.44-.06,3.21-.21Z"/>
            <path class="cls-11" d="M50.08.23c-.77.16-2.26-.21-3.21.21-.82-.09-1.58.16-2.38.46-.38.15-.83.12-1.22.37-.44.29-.99.33-1.43.57-.32.17-2.32,1.42-2.42,1.29C41.99,1.22,45.11.21,48.38.03c.62-.03,1.22-.1,1.7.2Z"/>
            <path class="cls-11" d="M32.88,20.33c-.19.32-.18.65-.23.98-.85-.11-1.77.46-2.58.27-.19-.86-.57-1.59-1.03-2.25.31.07.53.32.57.7.37.34.57.75.58,1.27.24.14,2.18-.19,2.22-.21.38-.31-.03-.84.47-.76Z"/>
            <path class="cls-11" d="M55.35,2.29c-.12.06-.35.03-.49-.1-.61-.57-1.35-.8-2.05-1.1-1.93-.82-.63.23-2.56-.84,1.84.16,3.59,1,5.11,2.04Z"/>
            <path class="cls-11" d="M60.91,7.09c-.14-.04-.25-.15-.28-.29.1.06.2.21.28.29Z"/>
            <path class="cls-11" d="M60.05,6.24c-.06-.03-.11-.08-.14-.14.04.04.09.12.14.14Z"/>
            <path class="cls-11" d="M33.02,19.76c-.02.11,0,.25-.14.28-.06-.04-.17-.08-.22-.15-.12-.15.08-.16.16-.14s.15,0,.21,0Z"/>
            <path class="cls-11" d="M61.47,18.48h-5.41c-.14-.03-.37.11-.43-.14h6.27c-.06.25-.3.11-.43.14Z"/>
            <path class="cls-11" d="M64.03,18.62h-1.85c-.01-.11.13-.15.28-.15h1.86c-.02.21-.18.15-.29.15Z"/>
          </g>
          <g>
            <g>
              <path class="cls-9" d="M25.88,56.33c.44,1.36.98,2.61,1.97,3.7-.23.21-.23.56-.39.82-.94,1.52-1.78,3.11-2.58,4.71-.71,1.42-1.12,3-1.42,4.56l-11.35.12c-1.15.01-2.31.05-3.51.09l-4.1.14c-1.38.05-2.78.09-4.15.03-.37-.02-.39-.71-.32-.96.07-.22.3-.42.55-.56-.12.19-.37.62-.39.85.08.74.89.59,1.44.5,1.26-.2,2.51.04,3.78-.09,2.6-.27,3.43.07,6.22-.33.35-.05.77.25,1.1,0,.12-.09.12-.36.24-.48l2.68-2.66v-12.57c0-.62-.19-.06-.78.21l.63-.79c1.16-.17,2.33-.08,3.57-.08h5.16c.37,0,.7-.04.86-.35-.15,1.15.47,2.17.79,3.14Z"/>
              <path class="cls-9" d="M98.7,53.62s.03.09.03.13c-.09.13-.17.33-.17.57v9.5c-.02,1.02-.17,2.03.05,3.01.93,1.26,2.2,2.03,3.1,3.27l-9.23.05c-.29,0-.52-.06-.7-.17.12-1.19-2.32-7.3-3.83-8.54-.12-.15-.13-.41-.29-.56s.08-.47.21-.62c1.29-1.46,2.08-3.21,2.33-5.07.21.18.56.48.87.54.6.12.72-.58.83-.99s.28-.8.43-1.21l6.36.1Z"/>
              <path class="cls-11" d="M100.74,55.74c.08.11.11.28.28.29.34.22.63.52.85.86.04.05.09.1.14.14.13.07.22.16.28.28.05.06.1.1.17.13,1.26,1.34,2.65,2.57,3.82,3.99.25.31.47.67.85.86.06.03.09.1.15.14.07.13,1.16,1.41,1.28,1.28.04.05.09.1.14.14.04.06.09.1.14.14.16.02.18.21.29.28.16.3.41.56.71.71.03.05.1.1.14.14,1.05,1.19,2.13,2.4,3.38,3.38.3.23.54.42.74.75-.01.29.04.64-.03.96-.62.43-1.29.09-1.95.07l-1.63-.05c-1.02-.03-2.02.11-3.02-.05-.25-.04-3.24-.22-3.05.07-.09,0-.19,0-.28,0-.23-.18-.61-.35-.85-.14h-.14c-.26-.28-.78-.21-1.05.05-.13.05-.26-.06-.38-.06-.9-1.23-2.17-2.01-3.1-3.27-.21-.98-.06-1.99-.06-3.01v-9.5c.02-.25.09-.44.18-.57.78.5,1.44,1.25,2,1.99Z"/>
              <path class="cls-11" d="M.59,68.98c.51-.62,1.34-1.46,1.99-1.99.05-.04.1-.09.14-.14.09-.19.24-.34.43-.43.05-.04.1-.09.14-.14.04-.04.11-.09.14-.14.1.02.24,0,.25-.09l.03-.2c.05-.31.42-.53.71-.71.05-.04.1-.09.14-.14.22-.33.51-.64.85-.86.18-.11.36-.21.43-.43l.14-.14c.25-.03.3-.28.43-.43,1.24-1.44,2.57-2.83,3.96-4.12.31,0,.55-.26.6-.56.23-.21.57-.74.85-.86.06-.04.1-.09.14-.14.04-.15.18-.19.28-.28.15-.04.25-.15.28-.3.05-.02.1-.1.13-.14.34-.12.49-.28.56-.59.08-.35.52-.54.71-.83.1.02.22.02.28-.07.04-.06.01-.15.04-.2.14-.25.35-.51.62-.63.59-.27.78-.82.78-.21v12.57s-2.68,2.66-2.68,2.66c-.12.12-.12.39-.24.48-.33.24-.75-.05-1.1,0-2.79.4-3.61.06-6.22.33-1.28.13-2.53-.11-3.78.09-.55.09-1.36.24-1.44-.5.02-.23.26-.66.39-.85Z"/>
              <path class="cls-9" d="M106.14,70.4c-.01-.06-.07-.14-.14-.14h-1.56c-.2-.29,2.8-.11,3.05-.07,1,.16,1.99.02,3.02.05l1.63.05c.66.02,1.33.35,1.95-.07.07-.32.02-.67.03-.96.13.21.42.28.3.66-.06.19-.1.6-.46.61-1.58.04-3.13-.08-4.71-.1l-3.1-.03Z"/>
              <path class="cls-9" d="M113.36,68.51c-1.25-.98-2.33-2.19-3.38-3.38,1.17,1.08,2.31,2.2,3.38,3.38Z"/>
              <path class="cls-9" d="M103.15,70.12h-.57c-.07,0-.13.08-.14.14h-.32c-.09,0-.09-.05-.02-.1.27-.25.79-.33,1.05-.05Z"/>
              <path class="cls-9" d="M104.14,70.26c-.28-.03-.67.13-.85-.14.24-.21.63-.03.85.14Z"/>
              <path class="cls-9" d="M13.22,56.14c-.07.31-.23.48-.56.59.19-.2.26-.55.56-.59Z"/>
              <path class="cls-9" d="M10.37,59.01l.6-.56c-.05.3-.29.55-.6.56Z"/>
              <path class="cls-9" d="M108.56,63.71c-.13.13-1.21-1.14-1.28-1.28.48.37.91.81,1.28,1.28Z"/>
              <path class="cls-9" d="M3.43,66.13c.07-.12.15-.24.28-.28l-.03.2c-.02.09-.15.11-.25.09Z"/>
              <path class="cls-9" d="M13.93,55.31c.08-.12.19-.22.32-.27-.03.05,0,.14-.04.2-.07.09-.19.09-.28.07Z"/>
              <path class="cls-9" d="M5.98,63.57c.1-.18.24-.34.43-.43-.13.15-.18.4-.43.43Z"/>
              <path class="cls-9" d="M5.42,64.14c.08-.19.24-.33.43-.43-.06.22-.25.32-.43.43Z"/>
              <path class="cls-9" d="M108.84,63.99c-.06-.04-.11-.09-.14-.14.04.03.09.14.14.14Z"/>
              <path class="cls-9" d="M109.84,64.99c-.3-.16-.56-.41-.71-.71.27.2.53.42.71.71Z"/>
              <path class="cls-9" d="M4.43,65.14s.11-.1.14-.14c-.04.05-.09.1-.14.14Z"/>
              <path class="cls-9" d="M3.15,66.42c.05-.03.1-.1.14-.14-.04.05-.09.1-.14.14Z"/>
              <path class="cls-9" d="M2.58,66.99s.12-.09.14-.14c-.04.05-.09.1-.14.14Z"/>
              <path class="cls-9" d="M107.13,62.29c-.37-.19-.59-.55-.85-.86.33.23.63.52.85.86Z"/>
              <path class="cls-10" d="M102.44,70.26c.01-.06.07-.14.14-.14-.02.06-.07.14-.14.14Z"/>
              <path class="cls-11" d="M106.14,70.4c-.07,0-.13-.08-.14-.14.07,0,.13.08.14.14Z"/>
              <path class="cls-9" d="M11.82,57.59s.13-.09.14-.14c-.04.06-.08.11-.14.14Z"/>
              <path class="cls-9" d="M102.46,57.44c-.07-.03-.12-.07-.17-.13.03.06.12.08.17.13Z"/>
              <path class="cls-9" d="M12.24,57.17c.1-.09.14-.24.28-.3-.03.15-.14.26-.28.3Z"/>
              <path class="cls-9" d="M102.01,57.03c-.05-.04-.1-.09-.14-.14.03.04.1.12.14.14Z"/>
              <path class="cls-9" d="M101.02,56.03c-.17-.01-.2-.19-.28-.29.16.01.18.23.28.29Z"/>
            </g>
            <g>
              <path class="cls-11" d="M25.92,49.83c-.32.14-.85.8-.43,1.5-.26.56-.32,1.24-.4,1.86-.15.31-.49.34-.86.34h-5.16c-1.24.01-2.41-.08-3.57.09.03-.22-.05-.44-.13-.7l-1.42-4.43c.19-.14.11-.35.03-.59l-1.41-4.29c-.29-.89-.56-1.79-.86-2.68l-.5-1.5c-.19-.57-.39-1.03-.55-1.59l-.55-1.87c-.15-.51-.21-1.06-.6-1.56-.16-.2-.11-.56-.01-.7.12-.17.37-.19.63-.19l6.97.15c.73.02,1.26.07,2.01-.09.3-.06.92.03,1.25.03l2.29-.02c.77,0,1.47.1,2.26,0-.71.09,3.48-.04,2.97.03.78-.1,3.76.08,3.28-.39h.13s.02,2,.02,2c-1.76,2.34-3.08,4.85-4.32,7.49-.84,1.78-3.31,2.24-3.44,3.29-.17,1.29,2.45,1.62,3.29,1.95-.36.7-.8,1.21-.92,1.83ZM29.46,34.05s-.03-.07-.07-.07-.07.03-.07.07.03.07.07.07.07-.03.07-.07Z"/>
              <path class="cls-11" d="M104.86,33.69c.15.07.22.34.13.6l-4.65,13.92c-.08-.22-.25-.1-.17.12-.31.55-.3,1.19-.56,1.72-.13.27-.24.37-.25.68-.02.49-.77,1.8-.34,1.75-.16.35-.22.77-.32,1.14l-6.36-.1c.12-.33.06-.69.09-1.02.11-1.68-.62-3.27-1.66-4.68.8-.59,2.76-.54,2.94-1.42.25-1.2-1.64-1.48-2.61-2.63-.63-.74-.96-1.63-1.33-2.53-1.18-2.88-2.3-5.15-4.06-7.63l18.42-.06c.32,0,.53.05.73.15Z"/>
              <path class="cls-9" d="M31.16,33.26c.48.47-2.5.29-3.28.39.51-.07-3.68.06-2.97-.03-.78.1-1.49,0-2.26,0l-2.29.02c-.34,0-.95-.09-1.25-.03-.76.15-1.28.1-2.01.09l-6.97-.15c-.26,0-.5.02-.63.19-.1.14-.15.5.01.7.39.49.45,1.04.6,1.56l.55,1.87c.16.56.36,1.02.55,1.59l.5,1.5c.3.89.57,1.79.86,2.68l1.41,4.29c.08.24.17.45-.03.59l-2.25-6.85-2.43-7.36c-.07-.2.06-.54.13-.66s.31-.2.58-.2l21.18-.17Z"/>
              <path class="cls-9" d="M86.79,33.27c0,.17.15.17.14,0h1.14c0,.17.15.17.14,0h.85c0,.17.15.17.14,0h5.26c.06.18.27.14.43.14h9.1c.31,0,.77-.08.86.28-.2-.1-.41-.15-.73-.15l-18.42.06c-.11-.07-.22-.13-.34-.19v-.14c.48-.13.97.23,1.42,0Z"/>
              <path class="cls-9" d="M100.34,48.21c-.07.8-.5,1.52-.74,2.35-.19.68-.31,1.32-.58,1.91-.43.05.32-1.26.34-1.75.01-.3.12-.41.25-.68.26-.53.25-1.17.56-1.72-.08-.22.08-.34.17-.12Z"/>
              <path class="cls-7" d="M89.07,33.27h.14c0,.17-.15.17-.14,0Z"/>
              <path class="cls-7" d="M88.07,33.27h.14c0,.17-.15.17-.14,0Z"/>
              <path class="cls-7" d="M86.79,33.27s.1,0,.14,0c0,.17-.15.17-.14,0Z"/>
              <circle class="cls-9" cx="29.39" cy="34.05" r=".07"/>
            </g>
          </g>
        </g>
        <g>
          <g>
            <path class="cls-10" d="M32.69,100.56c.4,0,.8.08,1.19-.02.24-.06.33.06.47.28.95,1.5,2.5,2.36,4.39,2.26,2.01-.11,4.19-.3,6.09-.97-.23.32-.42.71-.67,1.02l-3.97,4.92c-1.68,2.08-3.52,3.9-5.38,5.8-.14.14-.08.41-.07.56s.16.37.42.38l6.75.03c.72,1.93,1.05,3.84,1.52,5.79.07.28.15.54.36.6.24.07.56.05.74-.17l1.86-2.14c2.32-2.67,3.97-5.76,5.7-8.78.1.26.16.55.16.83l.02,16.04-38.27.04c-.15,0-.19.07-.18.13-.65,0-1.27-.59-1.45-1.14l.04-25.12c-.14-.09-.23-.06-.29-.05l.02-.26h.13s20.43-.02,20.43-.02Z"/>
            <path class="cls-10" d="M82.38,100.58h19.62s0,24.68,0,24.68c0,.3-.3.59-.02.76-.3.64-.94,1.14-1.67,1.14,0-.11-.1-.14-.31-.14h-36.53s-.02-15.79-.02-15.79c.19-.24.22-.56.31-.84.78,1.81,2.07,3.37,3.15,5.1,1.27,2.03,2.78,3.78,4.37,5.54.18.2.53.17.72.08.16-.07.28-.35.33-.61.39-1.93.73-3.79,1.47-5.69l6.88-.04c.26,0,.4-.23.41-.38s.06-.38-.09-.53c-3.2-3.19-6.21-6.46-8.98-10.04-.23-.3-.5-.54-.73-.72l-.81-1.27c2.13.63,4.35.98,6.64,1.13s3.31-.83,4.32-2.46c.31.09.63.1.94.06Z"/>
            <path class="cls-1" d="M12.36,126.02c-.06-.18-.26-.26-.26-.59v-24.59c.07,0,.15-.04.3.05l-.04,25.12Z"/>
            <path class="cls-11" d="M52.26,126.98h.11s-.01.18-.01.18H13.82c-.01-.06.03-.13.18-.13l38.27-.04Z"/>
            <path class="cls-11" d="M100.3,127.16h-36.84v-.14h36.53c.21,0,.31.03.31.14Z"/>
            <path class="cls-11" d="M101.98,126.02c-.28-.17.02-.45.02-.76v-24.68s.16-.02.16-.02v24.45c0,.45-.04.71-.18,1.02Z"/>
          </g>
          <g>
            <path class="cls-8" d="M31.01,89.3c-.1,3.84.37,7.64,1.68,11.26l-20.43.02c.12-.2.14-.43.14-.73v-10.21c-.01-.15-.13-.34-.22-.29,0-.03,0-.07,0-.1l18.83.06Z"/>
            <path class="cls-14" d="M12.26,100.58h-.13s.05-11.24.05-11.24c.09-.05.21.14.21.29v10.21c.01.3-.01.54-.13.73Z"/>
            <polygon class="cls-14" points="102.15 100.56 102 100.58 102 89.19 102.15 89.18 102.15 100.56"/>
            <path class="cls-14" d="M31.88,89.27c.18.06.28.17.25.42-.15.97-.05,1.91,0,2.9.14,2.32.48,4.56,1.29,6.73.16.44.45.79.45,1.21-.39.11-.8.02-1.19.02-1.31-3.62-1.78-7.41-1.68-11.26.29,0,.58-.13.87-.03Z"/>
            <path class="cls-8" d="M102,89.19v11.38s-19.62,0-19.62,0l.4-.36c.73-.67,1.83-9.43,1.45-10.99l17.77-.04Z"/>
            <path class="cls-14" d="M84.23,89.23c.38,1.56-.72,10.33-1.45,10.99l-.4.36c-.32.04-.64.03-.94-.06.41-.65.61-1.45.81-2.28.73-2.93,1.02-5.97.83-8.95.38-.05.77-.06,1.15-.06Z"/>
          </g>
          <g>
            <path class="cls-10" d="M23.46,70.12c.89,0,1.8.11,2.7.02.39-.04.8.08,1.19-.03.04-.01.09,0,.13,0,.24.03.57-.09.71.15.21.28.09.62.04,1-.18,1.36.3,2.69,1.1,3.7.08.11.2.22.3.3.17.29.39.54.69.71.04.02.12.09.15.13.14.38.7.4,1,.59.59.39,1.28.67,1.99.69.12.07.29.11.43.14-.24.53,1.9.42,2.28.43,1.3.02,2.64.04,3.69-.6.41-.25.92-.36,1.38-.59,1.64-.82,2.61-2.2,3.03-3.9-.03.12.52-2.26-.14-2.02-.04-.08.02-.2,0-.28.07.02.13-.03.14-.08.03-.13-.08-.19-.18-.21-.03-.06-.08-.11-.11-.17h.13s8.37.07,8.37.07c-.17.72-.19,1.43-.19,2.26l-.06,15.9c-.94-.65-2.59-2.16-3.52-2.94-3.25-2.72-6.9-5.31-11.22-5.28-1.6.01-2.62.9-3.29,2.12-1.06,1.92-1.67,4.04-1.95,6.3-.04.31-.09.63-.34.77-.29-.1-.59.03-.87.03l-18.83-.06c0-.07-.07-.14-.07-.21.07.02.29.04.29-.16v-18.43c-.14-.09-.22-.06-.29-.05v-.17s11.35-.12,11.35-.12Z"/>
            <path class="cls-1" d="M12.11,89.03v-18.63c.07,0,.15-.04.28.05v18.43c0,.2-.21.18-.28.16Z"/>
            <polygon class="cls-11" points="102.15 89.18 102 89.19 102.12 70.27 102.15 89.18"/>
            <path class="cls-10" d="M101.71,70.1c.12,0,.25.12.38.06-.07.05-.07.09.02.11l-.12,18.92-17.77.04c-.38,0-.77.02-1.15.06-.15-2.35-.85-4.66-1.82-6.77-.77-1.67-2.15-2.62-4.19-2.47-5.92.43-9.43,4.5-13.58,8.02l-.03-17.67,7.68-.02c.29,0,.48-.08.68.15s-.05.4-.11.7c-.39,2.15.31,1.09.12,2.18-.02.1.23.27.26.41.03.12-.04.25-.2.37.28.35.61.52.88.78.05.05.11.08.16.14.18.19.18.59.43.76-.14-.09,2.02,1.31,1.45,1.13l1.02.31c.68.21,1.8.71,2.61.55.23-.04.52.24.81.21l1.35-.11c.35-.03.57-.15.92-.14.29,0,.58-.33.96-.27.45.07,1.06-.04,1.19-.47,2.46-1.35,3.62-2.3,3.94-5.25.33-.28.32-.98-.11-1.14v-.14c.03-.09.14-.14.29-.14l3.95-.02c.06-.02.03-.22.04-.26v-.14c.19.12.42.18.71.17l9.23-.05Z"/>
            <path class="cls-10" d="M87.64,70.26l-.28.14c-.02-.1.04-.23,0-.33h.12s.16.19.16.19Z"/>
          </g>
          <path class="cls-11" d="M91.77,70.12s.03.25-.04.26l-3.95.02c-.15,0-.26.06-.29.14l-.13-.14.28-.14h.85l.14-.14h3.13Z"/>
        </g>
        <g>
          <g>
            <polygon class="cls-14" points="63.46 127.02 63.46 127.16 52.37 127.16 52.38 126.99 63.46 127.02"/>
            <path class="cls-14" d="M52.21,88.31c.27.19.54.99,1.08.67,1.67-1.01,3.32-.76,5.47-.77,1.35,0,2.61.18,3.83.71.43-.08.66-.63.9-.84,4.15-3.52,7.66-7.59,13.58-8.02,2.04-.15,3.42.8,4.19,2.47-1.18,1.88-2.81,3.37-4.9,4.35-2.79,1.31-5.65,2.21-8.67,2.84l-4.36.92c.28,1.2.32,2.38.28,3.64l6.11.02c.41,0,.55.48.53.77-.01.28-.32.62-.7.62h-5.92c-.07.95-.22,1.72-.5,2.7,1.4.94,2.88,1.8,4.5,2.39.98.36,1.89.78,2.83,1.05l.81,1.27c-.12.09-.28.12-.47.07-3.08-.73-5.49-2-8.19-3.68-.72.75-1.48,1.04-2.53,1.32.62,1.79,1.05,3.51,1.78,5.19l1.88,4.38c-.09.29-.11.6-.31.84-.53-.35-.72-1.02-1.07-1.61-1.58-2.69-2.77-5.52-3.51-8.56l-2.15-.06c-.76,3.14-2.05,6.05-3.71,8.86-.25.42-.39.84-.76,1.09,0-.28-.06-.57-.16-.83.14-.24.14-.57.28-.88,1.3-2.74,2.35-5.54,3.07-8.45-1.05-.32-1.77-.76-2.67-1.19-2.55,1.57-4.79,2.78-7.75,3.45-.32.07-.58.27-.86.07.25-.31.44-.7.67-1.02,2.61-.92,5.06-2.28,7.51-3.73-.13-.97-.27-1.69-.3-2.65l-6.2-.02c-.41,0-.69-.34-.71-.63-.03-.33.14-.76.56-.77l6.34-.05.22-3.64c-.8-.31-1.53-.37-2.35-.5-3.62-.61-7.09-1.52-10.42-3.09-1.81-.85-4.94-2.84-5.29-4.8.67-1.21,1.69-2.1,3.29-2.12,4.32-.03,7.98,2.56,11.22,5.28.93.78,2.58,2.28,3.52,2.94ZM53.73,98.5c1.62,1.42,4.57,1.3,6.43.94.97-.19,1.75-.8,1.95-1.79.5-2.44.57-5.01-.14-7.43-.41-.55-1.51-.64-2.14-.64h-2.92c-1.51.02-3.31-.13-3.47,1.53-.13,1.3-.57,6.63.3,7.39Z"/>
            <path class="cls-8" d="M44.83,102.1c-1.9.67-4.08.86-6.09.97-1.89.1-3.44-.76-4.39-2.26-.14-.22-.23-.35-.47-.28,0-.42-.29-.78-.45-1.21-.81-2.17-1.15-4.4-1.29-6.73-.06-1-.15-1.93,0-2.9.04-.25-.07-.35-.25-.42.25-.13.3-.45.34-.77.28-2.26.89-4.38,1.95-6.3.35,1.96,3.48,3.95,5.29,4.8,3.32,1.57,6.79,2.48,10.42,3.09.82.14,1.56.19,2.35.5l-.22,3.64-6.34.05c-.42,0-.58.44-.56.77.02.29.3.63.71.63l6.2.02c.03.96.17,1.69.3,2.65-2.44,1.45-4.9,2.81-7.51,3.73Z"/>
            <path class="cls-8" d="M63.44,111.23l.02,15.79-11.08-.02h-.11s-.02-16.05-.02-16.05c.36-.24.51-.67.76-1.09,1.66-2.81,2.95-5.71,3.71-8.86l2.15.06c.74,3.04,1.92,5.88,3.51,8.56.35.59.54,1.27,1.07,1.61Z"/>
            <path class="cls-8" d="M52.09,110.11c-1.73,3.02-3.38,6.1-5.7,8.78l-1.86,2.14c-.19.21-.5.24-.74.17-.21-.06-.29-.32-.36-.6-.47-1.95-.8-3.85-1.52-5.79l-6.75-.03c-.27,0-.41-.23-.42-.38s-.07-.42.07-.56c1.87-1.9,3.71-3.72,5.38-5.8l3.97-4.92c.28.2.55,0,.86-.07,2.96-.67,5.2-1.88,7.75-3.45.9.43,1.61.87,2.67,1.19-.71,2.91-1.77,5.71-3.07,8.45-.14.31-.14.64-.28.88Z"/>
            <path class="cls-8" d="M83.08,89.29c.19,2.98-.1,6.03-.83,8.95-.21.83-.41,1.62-.81,2.28-1.01,1.62-2.13,2.61-4.32,2.46s-4.51-.51-6.64-1.13c-.94-.28-1.85-.7-2.83-1.05-1.62-.59-3.11-1.46-4.5-2.39.27-.97.42-1.74.5-2.7h5.92c.38,0,.69-.34.7-.62.01-.29-.12-.77-.53-.77l-6.11-.02c.04-1.26,0-2.44-.28-3.64l4.36-.92c3.02-.64,5.88-1.53,8.67-2.84,2.09-.98,3.72-2.47,4.9-4.35.97,2.11,1.67,4.41,1.82,6.77Z"/>
            <path class="cls-8" d="M71.28,103.11c.22.18.49.42.73.72,2.77,3.57,5.79,6.84,8.98,10.04.15.15.1.39.09.53s-.15.38-.41.38l-6.88.04c-.74,1.91-1.08,3.77-1.47,5.69-.05.26-.17.53-.33.61-.19.09-.54.12-.72-.08-1.59-1.76-3.1-3.51-4.37-5.54-1.08-1.73-2.37-3.29-3.15-5.1l-1.88-4.38c-.72-1.68-1.16-3.4-1.78-5.19,1.05-.28,1.8-.58,2.53-1.32,2.7,1.68,5.12,2.95,8.19,3.68.2.05.36.02.47-.07Z"/>
            <path class="cls-8" d="M53.22,70.12c-.09.15-.33.08-.43.28h10.67s.03,17.68.03,17.68c-.25.21-.47.76-.9.84-1.22-.53-2.48-.72-3.83-.71-2.16,0-3.8-.24-5.47.77-.54.33-.8-.47-1.08-.67l.06-15.9c0-.83.03-1.54.19-2.26l.75-.04Z"/>
            <path class="cls-8" d="M53.73,98.5c-.87-.76-.43-6.09-.3-7.39.17-1.66,1.96-1.51,3.47-1.52h2.92c.63-.01,1.73.08,2.14.63.71,2.42.64,4.99.14,7.43-.2.99-.98,1.6-1.95,1.79-1.86.36-4.81.48-6.43-.94Z"/>
          </g>
          <path class="cls-1" d="M64.88,70.12c-.02.13.11.15.21.15s.24-.02.21-.15h3.27c0,.17.15.17.14,0h3.28c.03.07.11.09.15.14-.56,1.58-.14,3.24.62,4.72-.27-.26-.6-.44-.88-.78.16-.13.22-.25.2-.37-.03-.14-.28-.31-.26-.41.2-1.1-.51-.03-.12-2.18.05-.3.3-.48.11-.7s-.39-.15-.68-.15l-7.68.02v-.14c.25.02.52.04.71-.14h.71Z"/>
          <path class="cls-14" d="M55.64,70.12c.12.23.59.23.71,0h.28c0,.17.21.16.35.15.08,0,.24-.01.22-.15h1.28c.12.23.59.23.71,0h.43c.23.24.77.24,1,0h1.28c.28.25.86.25,1.14,0h.28c.02.06.07.14.14.14v.14h-10.67c.09-.2.33-.14.43-.28h2.42Z"/>
          <path class="cls-8" d="M63.03,70.12c-.28.25-.86.25-1.14,0h1.14Z"/>
          <path class="cls-8" d="M60.62,70.12c-.23.24-.77.24-1,0h1Z"/>
          <path class="cls-8" d="M56.35,70.12c-.12.23-.59.23-.71,0h.71Z"/>
          <path class="cls-8" d="M59.19,70.12c-.12.23-.59.23-.71,0h.71Z"/>
          <path class="cls-8" d="M57.2,70.12c.02.14-.14.14-.22.15-.14,0-.34.02-.35-.15h.57Z"/>
          <path class="cls-10" d="M65.31,70.12c.02.13-.11.15-.21.15s-.24-.02-.21-.15h.43Z"/>
          <path class="cls-10" d="M88.5,70.26c.04-.05.09-.1.14-.14l-.14.14Z"/>
          <path class="cls-11" d="M87.6,71.83l-.11-1.14c.43.16.44.87.11,1.14Z"/>
          <g>
            <g>
              <path class="cls-6" d="M37,14.65c.29.08.67.14.98.31,2.27,1.22,4.2,2.83,6.11,4.53.26.23.43.48.72.55-.02.27.34.33.44.45.04.3.39.36.56.53,1.45,1.46,2.87,2.96,3.98,4.7.03.05,0,.15.02.21.06.15.19,0,.33-.02l3.01-.12c.89-.03,1.84-.05,2.71-.07.09.22.04.48.19.56-.1,1.29-.25,2.59-.51,3.93l-.2,1.05c-.97,5.07-2.85,10.9-6.73,14.59-1.75,1.67-3.73,2.85-6.05,3.5l-6.22,1.74c-2.81.78-8.82,2.87-10.46,5.22-.32-.97-.94-1.99-.79-3.14.08-.62.14-1.3.4-1.86.21.09.51.19.79.06,2.14-1.02,4.36-1.65,6.7-1.99,1.46-.21,2.83-.05,4.3-.06.48,0,.72-1.22.24-1.36-1.47-.45-2.99-.32-4.51-.18-2.55.23-4.84,1.07-7.1,2.04.12-.63.57-1.13.92-1.83-.84-.34-3.46-.67-3.29-1.95.14-1.05,2.61-1.51,3.44-3.29,1.24-2.64,2.56-5.16,4.32-7.49l-.02-2c0-1.04.11-2.07.16-3.11.06,0,.16.03.21,0-.02.02.43-2.79.08-2.55v-.28c.24.7.6-2.26.28-1.85l.62-4.14c.05-.33.04-.66.23-.98.04-.08-.02-.2,0-.28.14-.03.12-.18.14-.28.42-2,1.09-4.02,2.29-5.67.54.25,1.12.41,1.69.56ZM36.72,31.63c2.29-1.84,4.67-3.27,7.33-4.37.33-.14.89-.55.9-.92-1.89-2.99-4.27-5.52-7.16-7.51-.28-.2-.65-.29-.95-.18-.21.08-.47.34-.57.67-.78,2.65-1.28,5.33-1.47,8.11-.07,1.03-.3,4.38,1,4.59.3.05.61-.15.92-.4ZM49.26,40.34c-.34-.82-1.09-1.63-2.03-1.55-.29.03-.8.13-1.08.24-1.58.64-2,3.54-.77,5.06.5.63,1.15.94,1.93.89,1.93-.13,2.75-2.72,1.95-4.64Z"/>
              <path class="cls-7" d="M31.45,30.14c.05-.86.28-1.71.28-2.56.35-.24-.1,2.57-.08,2.55-.05.03-.15,0-.21,0Z"/>
              <path class="cls-7" d="M31.74,27.3l.28-1.85c.32-.41-.04,2.55-.28,1.85Z"/>
              <path class="cls-16" d="M36.72,31.63c-.31.25-.62.45-.92.4-1.31-.21-1.07-3.56-1-4.59.18-2.78.68-5.46,1.47-8.11.1-.33.36-.59.57-.67.3-.11.66-.01.95.18,2.89,1.98,5.27,4.52,7.16,7.51,0,.37-.56.78-.9.92-2.66,1.09-5.04,2.52-7.33,4.37Z"/>
              <path class="cls-5" d="M49.26,40.34c.8,1.92-.02,4.52-1.95,4.64-.78.05-1.42-.26-1.93-.89-1.23-1.53-.81-4.43.77-5.06.28-.11.78-.21,1.08-.24.94-.09,1.69.73,2.03,1.55Z"/>
              <path class="cls-5" d="M25.48,51.33c-.41-.7.11-1.37.43-1.5,2.26-.97,4.55-1.81,7.1-2.04,1.53-.14,3.05-.27,4.51.18.48.15.24,1.36-.24,1.36-1.47.01-2.84-.15-4.3.06-2.35.34-4.57.97-6.7,1.99-.28.14-.58.03-.79-.06Z"/>
              <path class="cls-7" d="M56.06,26.3c-.15-.08-.11-.34-.19-.56-.87.02-1.82.04-2.71.07l-3.01.12c-.14,0-.27.17-.33.02-.03-.06,0-.17-.02-.21.79.05,1.57-.12,2.42-.13l2.28-.04c.54,0,1.01-.2,1.57-.09.01.31.03.57,0,.83Z"/>
              <path class="cls-11" d="M45.39,20.36c-.05.05-.1.1-.15.14-.1-.13-.46-.19-.44-.45.21.06.4.2.59.31Z"/>
            </g>
            <g>
              <path class="cls-13" d="M82.95,13.22c-.15-.01-.15.21-.11.37l.46,1.73c.22.82.26,2.43.64,2.17.16.81.18,2.02.34,2.56-.15.03.02,2.45.37,1.99l.14,1.71c-.1,0-.23-.03-.29.07-.04.07.01.17.07.21.04.03.18-.02.22.01.1.15.1.36.12.54-.19-.03-.49.04-.51.26.16.08.37.12.43.26.1.21-.19.49-.15.65.15.59.29.99.22,1.59-.03.25.13.63.14.96l.05,2.14c.02,1.04-.05,2.08.28,2.98.12.06.23.12.34.19,1.76,2.48,2.88,4.75,4.06,7.63.37.9.7,1.79,1.33,2.53.97,1.15,2.86,1.43,2.61,2.63-.19.88-2.14.83-2.94,1.42,1.04,1.42,1.77,3,1.66,4.68-.32-.09-.55-.34-.77-.58-.33-.36-.94-.76-1.45-.97l-2.08-.87c-1.34-.56-2.8-.88-4.18-.87-.25,0-.62.08-.85,0l.3-.29c-.71.12-2.98-.43-3.29,0-.09.02-.19,0-.28,0,.19-.53-.99-.14-2.38-.33-.26-.04-.55.12-.81-.06s-.38.08-.51.1c-.38.06-.77-.14-1.14-.14h-.28c.02-.07,0-.25-.14-.28-1.12-.26-2.11-.76-3.12-1.3-.05-.17-.17-.12-.15.02-.31-.31-.85-.42-1-.85-.08-.24-.31-.42-.57-.43-.1-.01-.2-.02-.29-.08-.12-.07-.12-.23-.14-.35,0-.05-.1-.13-.14-.14-.3.01-.49-.29-.57-.57-.04-.14-.06-.44-.28-.43-.26.02-1.23-1.55-1.58-1.98s-.44-.97-.72-1.41c-.02-.19-.04-.43-.19-.66-.75-1.13-1.03-2.67-1.35-2.92-.04-.03-.12-.09-.14-.14.52-.2-.54-.97.14-1.22-.79-.14-.3-.86-.85-1.06-.13-.05-.09-.2-.14-.28.19,0,.13-.21.13-.33,0-.18-.21-.25-.27-.38-.43-.9-.54-1.9-.85-2.85.36-.35.07-.9-.05-1.36-.28-1.11-.34-2.17-.57-3.4.81-.26,1.65-.33,2.48-.08.27.08,1.56-.14,2.71-.04h.14c-.04.18-.01.31.21.33.17.02.23-.17.36-.3.12.03.3-.02.43,0-.36.52,2.48.4,3.13-.58.03-.05.1-.09.14-.13.15-.12.89-.71.45-.85.07-.13.12-.33.23-.43.01.19.14.32.37.4,2.82.96,5.33,2.43,7.66,4.26.35.27.73.59,1.14.67.32.06.46-.42.5-.64.04-.19.03-.38.03-.57l.29.14v-2.69c-.01-.29-.11-.57-.29-.72v-.28c.24.22.12-1.61.12-1.86-.18.12-.11.3-.15.44-.34-2.26-.51-4.56-1.27-6.76-.17-.48-.61-.85-.96-.98-.54-.21-.96.12-1.41.36-.06.03-.1.1-.15.14s-.09.13-.15.14l-.19.04c-.11.02-.07.17-.11.25-.11.25-.31.45-.56.57-.05.02-.12.1-.14.14-.13.24-.32.45-.57.57-.06.03-.1.1-.15.14-.05.04-.09.09-.13.13-.18.17-.62.33-.48.59-1.07,1.28-2.11,2.56-3.02,3.95l-.06-.69c-.25-.39-.54-.85-1-1.01-.08-.03-.21-.11-.28-.15-.67-.41-1.43-.62-2.15-.94.24,0,.32-.33.44-.44l.98-.87c.28-.25.67-.46.74-.84.32-.37.9-1.01,1.26-1.29.14-.04.25-.15.28-.29.37-.48,1.19-1.32,1.71-1.7.04-.03.17.06.28-.07.03-.03-.01-.14-.11-.09,1.65-1.47,3.2-3.26,5.63-3.49,1.81-.17,2.32,1.2,2.73,2.65ZM73.15,44.16c.97-1.13.99-2.54.51-3.88-.45-1.26-1.92-2.18-3.18-1.37-1.68,1.09-1.9,3.58-.7,5.08.46.57,1.01.88,1.59.95.68.08,1.29-.22,1.78-.78ZM90.36,46.86c.42-.16.4-.96.07-1.11-.66-.32-1.35-.28-2.05-.41-2.08-.38-4.18-.39-6.18.28-.34.11-.55.3-.6.57-.04.2.02.77.39.72,2.33-.32,4.6-.4,6.95,0,.43.07,1,.12,1.44-.05Z"/>
              <path class="cls-5" d="M84.91,24.57l.39,5.06c.1,1.24.06,2.44.06,3.64v.14c-.33-.91-.25-1.94-.28-2.98l-.05-2.14c0-.34-.17-.71-.14-.96.07-.6-.07-1-.22-1.59-.04-.16.25-.44.15-.65-.06-.14-.27-.17-.43-.26.02-.21.33-.29.51-.26Z"/>
              <path class="cls-5" d="M83.94,17.48c-.38.26-.43-1.35-.64-2.17l-.46-1.73c-.04-.16-.04-.38.11-.37.39,1.4.71,2.84,1,4.27Z"/>
              <path class="cls-5" d="M84.66,22.03c-.34.45-.52-1.96-.37-1.99.19.63.31,1.34.37,1.99Z"/>
              <path class="cls-5" d="M84.8,23.74v.29s-.17.02-.22-.01c-.06-.04-.11-.14-.07-.21.05-.1.18-.08.29-.07Z"/>
              <path class="cls-5" d="M74.41,14.21l.17-.15c.09-.05.13.06.11.09-.11.12-.24.04-.28.07Z"/>
              <path class="cls-5" d="M70.42,18.33l.74-.84c-.07.39-.46.6-.74.84Z"/>
              <path class="cls-5" d="M72.42,16.2c.08-.06.22-.21.28-.29-.04.14-.14.25-.28.29Z"/>
              <path class="cls-5" d="M73.15,44.16c-.49.56-1.1.86-1.78.78-.58-.07-1.14-.38-1.59-.95-1.2-1.5-.98-3.99.7-5.08,1.26-.81,2.73.11,3.18,1.37.48,1.34.46,2.75-.51,3.88Z"/>
              <path class="cls-5" d="M90.36,46.86c-.43.16-1.01.12-1.44.05-2.34-.41-4.62-.33-6.95,0-.37.05-.43-.52-.39-.72.06-.27.27-.46.6-.57,2-.67,4.1-.66,6.18-.28.7.13,1.39.09,2.05.41.33.16.36.95-.07,1.11Z"/>
              <path class="cls-5" d="M67.03,25.98c-1.15-.1-2.44.12-2.71.04-.82-.26-1.66-.19-2.48.08.24,1.23.3,2.29.57,3.4.11.46.41,1.01.05,1.36-.25-.74-.4-2.68-.71-3.13,0-.05,0-.1,0-.14l-.14-2.04c1.52,0,3.03.01,4.55.26.32.05.66-.08.86.18Z"/>
              <path class="cls-12" d="M76.12,48.64c.56.32,1.28.29,1.99.28h1.71c.09,0,.19.02.28,0,.11-.02,2.69.18,2.99.28.23.08.61,0,.85,0,2.55.67,5.24,1.19,7.54,2.7,0,.15-.07.15-.19.06-2.57-1.71-7-2.52-10.04-2.76-.57-.04-4.76-.23-4.28-.15l-1.72-.27c-.12-.02-.22-.03-.26-.09-.04-.05-.02-.14-.01-.2.37,0,.76.2,1.14.14Z"/>
              <path class="cls-5" d="M91.66,51.92h-.17c-2.3-1.53-4.99-2.05-7.54-2.72,1.38,0,2.84.31,4.18.87l2.08.87c.51.22,1.12.62,1.45.97Z"/>
              <path class="cls-5" d="M79.82,48.92h-1.71c-.71,0-1.43.04-1.99-.28.13-.02.27-.27.51-.1s.55.02.81.06c1.39.19,2.58-.2,2.38.33Z"/>
              <path class="cls-5" d="M81.81,28.15v-3.27c.17.15.27.43.28.72v2.69s-.28-.14-.28-.14Z"/>
              <path class="cls-5" d="M83.09,49.2c-.3-.1-2.88-.31-2.99-.28.31-.43,2.58.11,3.29,0l-.3.29Z"/>
              <path class="cls-5" d="M64.31,36.97c-.3-.73-.59-1.49-.71-2.28.56.2.07.91.85,1.06-.68.24.37,1.02-.14,1.22Z"/>
              <path class="cls-5" d="M74.7,48.49c-1.16,0-2.44-.59-3.27-1.42l-.14-.14c-.02-.14.11-.19.15-.02,1.01.54,2,1.04,3.12,1.3.15.03.16.21.14.28Z"/>
              <path class="cls-5" d="M63.46,34.41c-.12-.22-.17-.46-.14-.71.06.13.27.2.27.38,0,.12.06.32-.13.33Z"/>
              <path class="cls-5" d="M70.29,46.08c-.27,0-.47-.19-.57-.43.26,0,.48.18.57.43Z"/>
              <path class="cls-5" d="M66,40.69c-.4-.51-1.45-2.88-1.55-3.57.32.24.6,1.79,1.35,2.92.15.23.17.46.19.66Z"/>
              <path class="cls-5" d="M68.58,44.51c-.2-.05-.29-.23-.28-.43.22-.02.25.29.28.43Z"/>
              <path class="cls-5" d="M69.29,45.22c-.05-.04-.1-.09-.14-.14.04.02.14.09.14.14Z"/>
              <g>
                <path class="cls-2" d="M81.78,23.17c.05.33.04.67.04,1-.05-.02-.14.05-.14.15v4.25c0,.1.05.17.11.15-.04.21-.19.69-.5.64-.42-.08-.8-.4-1.14-.67-2.34-1.83-4.84-3.3-7.66-4.26-.23-.08-.36-.2-.37-.4.07-.51.42-1.06.38-1.59.91-1.39,1.96-2.67,3.02-3.95.16-.2.36-.37.48-.59.04-.04.08-.09.13-.13.06-.03.11-.08.15-.14.25-.12.43-.33.57-.57.05-.04.1-.09.14-.14.25-.12.44-.32.56-.57.14-.05.25-.15.3-.28.06-.01.1-.1.15-.14.07-.02.13-.06.15-.14.45-.24.87-.57,1.41-.36.35.13.79.5.96.98.76,2.2.93,4.51,1.27,6.76Z"/>
                <path class="cls-16" d="M81.81,24.6v3.56c0,.19.01.38-.03.57-.06.02-.11-.06-.11-.15v-4.25c0-.1.09-.17.14-.15v.43Z"/>
                <path class="cls-5" d="M81.81,24.6v-.43c0-.33.01-.67-.04-1,.05-.14-.03-.32.15-.44,0,.25.12,2.08-.12,1.86Z"/>
                <path class="cls-5" d="M77.83,16.06c-.05.14-.16.24-.3.28.04-.08,0-.23.11-.25l.19-.04Z"/>
                <path class="cls-5" d="M76.12,17.77c.05-.04.09-.12.15-.14-.04.06-.08.11-.15.14Z"/>
                <path class="cls-5" d="M76.83,17.06s.09-.12.14-.14c-.04.05-.09.1-.14.14Z"/>
                <path class="cls-5" d="M75.51,18.49c-.14-.26.3-.42.48-.59-.12.23-.32.4-.48.59Z"/>
                <path class="cls-5" d="M77.98,15.92c.05-.04.09-.1.15-.14-.02.07-.08.12-.15.14Z"/>
              </g>
            </g>
            <g>
              <path class="cls-3" d="M66.59,19.19s.1,0,.14,0c.54.39,1.26.34,1.91.65.81.39,1.69.49,2.5.74.08.05.2.13.28.15.03.54.44.13.75,1.15l.24-.14.06.69c.05.52-.31,1.08-.38,1.59-.11.1-.16.3-.23.43-.15.28-.33.55-.45.85-.05.04-.11.08-.14.13-.99.5-2.02.69-3.13.58-.13-.01-.3.03-.43,0-.18-.1-.38-.01-.57-.03h-.14c-.19-.27-.53-.14-.86-.19-1.53-.25-3.03-.26-4.55-.26l.14,2.04c-.55-.74.12-2.11-.85-2.12h-4.49c-.22.68-.14,1.31-.23,1.96l-.51,3.59c-.02.11-.07.2-.12.25s-.13.03-.19.02l.2-1.05c.26-1.34.41-2.64.51-3.93.02-.26,0-.52,0-.83-.56-.11-1.03.09-1.57.09l-2.28.04c-.84.01-1.63.18-2.42.13-1.12-1.74-2.53-3.24-3.98-4.7.08-.19.11-.45.22-.58.15-.19.42-.07.61-.17,1.45-.78,5.68-1.19,7.42-1.36l1.45-.14c2.08-.2,4.15-.13,6.25,0l2.13.14c.94.06,1.82.37,2.7.25Z"/>
              <path class="cls-12" d="M61.47,18.48c.19.2.46.14.71.14h1.85c.2.33,2.52.16,2.56.57-.88.12-1.77-.19-2.7-.25l-2.13-.14c-2.1-.14-4.17-.2-6.25,0l-1.45.14c-1.75.16-5.98.58-7.42,1.36-.19.1-.46-.02-.61.17-.11.14-.13.39-.22.58-.18-.18-.52-.23-.56-.53.05-.04.1-.09.15-.14.04-.01.1,0,.14-.01,2.11-.77,4.31-1.24,6.54-1.44.48-.04,2.8-.37,3.29-.28.27.05.54,0,.7-.15h5.41Z"/>
              <path class="cls-12" d="M68.99,19.64c.71.32,1.48.53,2.15.94-.81-.25-1.69-.35-2.5-.74-.65-.31-1.36-.26-1.91-.65.71.02,1.58.15,2.26.45Z"/>
              <path class="cls-5" d="M71.28,25.43c-.65.98-3.49,1.11-3.13.58,1.11.11,2.14-.08,3.13-.58Z"/>
              <path class="cls-5" d="M67.73,26.02c-.13.13-.19.31-.36.3-.22-.02-.25-.15-.21-.32.19.02.39-.07.57.03Z"/>
              <path class="cls-12" d="M72.42,21.75l-.24.14c-.31-1.02-.72-.62-.75-1.15.45.16.74.62,1,1.01Z"/>
              <path class="cls-5" d="M71.43,25.31c.12-.3.3-.57.45-.85.43.15-.3.73-.45.85Z"/>
              <path class="cls-11" d="M52.08,18.91c-2.24.2-4.43.67-6.54,1.44-.02-.11,0-.23.1-.28.15-.08,6.24-1.82,6.45-1.17Z"/>
            </g>
            <path class="cls-10" d="M64.17,70.12c-.19.18-.46.16-.71.14v-.14h.71Z"/>
            <path class="cls-8" d="M63.46,70.26c-.07,0-.13-.08-.14-.14h.14v.14Z"/>
            <path class="cls-10" d="M68.58,70.12s.1,0,.14,0c0,.17-.15.17-.14,0Z"/>
            <g>
              <path class="cls-4" d="M61.75,27.58s0,.1,0,.14c-.02,2.52,2.06,8.75,3.18,11.33,1.31,3.01,3.54,6.28,6.31,8.08.1.09.2.08.18-.06.83.83,2.12,1.42,3.27,1.42h.28c0,.06-.02.15.01.2.05.06.15.07.26.09l1.72.27c-.48-.07,3.72.11,4.28.15,3.04.24,7.47,1.06,10.04,2.76.12.09.2.08.19-.06h.17c.22.25.45.5.77.59-.02.33.04.69-.09,1.02-.15.4-.32.79-.43,1.21-.18.03-.3-.09-.46-.23-1.52-1.34-3.23-2.36-5.08-3.02l.13-.26c-1.65-.58-3.21-1.11-4.95-1.24-.39-.03-.89.65-.81.99.16.72.94.92,1.5.73.03.02.1.02.14.02.02.1.12.16.27.19,1.94.37,3.75,1.04,5.42,1.98.62.35,1.18.92,1.87,1.24.06.68-.18,1.13-.36,1.7-.4,1.3-.94,2.51-1.92,3.48-.18.17-.38.3-.31.55-.81.88-1.79,1.66-2.94,2.16-.31.13-.46.29-.44.59.13,1.55,4.34-1.66,3.99-2.19,1.51,1.24,3.95,7.35,3.83,8.54v.14h-3.14c-.05.04-.1.09-.14.14h-.85l-.16-.19c.27-.17.59-.07,1.03-.1-1.41-5.88-9.72-6.94-13.92-4.24-1.58,1.02-2.78,2.51-3.41,4.2.41.08.68-.03.82.2h-3.28s-.09-.01-.14-.01h-15.36l-.75.04-8.37-.06c.18-.23.48-.05.9-.15-.64-1.15-1.24-2.29-2.21-3.21-1.75-1.65-4.08-2.38-6.49-2.36-1.89.02-3.73.3-5.4,1.18-1.46.77-3.51,2.89-3.54,4.55-.39.11-.8,0-1.19.03-.05-1.58.33-3.12.73-4.72.07-.26.01-.56-.17-.71-.51-.41-1.37.78-1.83.85.8-1.6,1.64-3.19,2.58-4.71.25.8,3.55,3.73,4.18,2.57.09-.16.11-.57-.18-.67-1.52-.54-2.58-1.59-3.61-2.72s-1.53-2.34-1.97-3.7c1.64-2.35,7.66-4.43,10.46-5.22l6.22-1.74c2.32-.65,4.3-1.84,6.05-3.5,3.88-3.69,5.76-9.52,6.73-14.59.06.01.15.02.19-.02s.1-.13.12-.25l.51-3.59c.09-.65,0-1.27.23-1.97h4.49c.98.01.3,1.39.85,2.13ZM58.89,48.78v2.99c-.39,1.26-1.4,2.1-2.74,2.36-1.43.27-2.83-.17-3.53-1.51-.2-.38-.59-.54-1.01-.36-1.13.49.5,2.63,2.31,3.18.67.21,1.41.23,2.13.17,1.39-.12,2.64-.78,3.51-1.91.39.48.66.8,1.04,1.03.02.07.07.16.14.16h.14c.84.86,3.12.85,4.13.54,1.76-.54,3.36-2.61,2.25-3.17-1.3-.65-.91,1.82-3.52,1.94-1.59.07-2.8-.8-3.42-2.15v-.15s0-.57,0-.57v-2.59c1.24-.03,2.81-2.09,2.24-2.98-.66-1.02-4.23-.64-5.39-.42-.62.12-.95.7-.81,1.31.33,1.41,1.62,1.68,2.52,2.13ZM29.46,57.38c2.57-2.12,5.27-3.55,8.43-4.31.29-.07.27-.58.25-.78s-.24-.56-.58-.49c-1.59.35-3.14.87-4.56,1.67l-1.01.57c-1.26.7-2.39,1.54-3.49,2.45-.3.25-.2.79.02.97.27.22.62.18.93-.07Z"/>
              <path class="cls-3" d="M62.46,30.85c.31.95.42,1.95.85,2.85-.02.25.02.49.14.71.05.09.02.24.14.28.12.79.41,1.54.71,2.28.02.05.1.11.14.14.09.69,1.14,3.06,1.55,3.57.28.44.37.96.72,1.41s1.32,2,1.58,1.98c0,.19.09.38.28.43.08.28.27.58.57.57.04.05.09.1.14.14.02.12.02.28.14.35.09.05.19.06.29.08.1.24.3.43.57.43.15.43.69.55,1,.85l.14.14c.01.14-.08.15-.18.06-2.77-1.8-5-5.08-6.31-8.08-1.12-2.58-3.2-8.8-3.18-11.33.31.45.47,2.39.71,3.13Z"/>
              <path class="cls-6" d="M26.16,70.13c-.9.09-1.8-.03-2.7-.02.31-1.57.72-3.15,1.42-4.56.47-.07,1.32-1.26,1.83-.85.18.15.23.45.17.71-.4,1.6-.78,3.14-.73,4.72Z"/>
              <path class="cls-15" d="M27.46,60.85c.16-.26.16-.6.39-.82,1.03,1.13,2.1,2.17,3.61,2.72.29.1.27.51.18.67-.63,1.16-3.94-1.76-4.18-2.57Z"/>
              <path class="cls-5" d="M86.36,51.48c1.85.66,3.56,1.68,5.08,3.02.16.14.28.26.46.23-.11.41-.23,1.11-.83.99-.31-.06-.66-.36-.87-.54-.65-.54-1.38-1.03-2.13-1.42-1.8-.93-3.65-1.86-5.69-2.02-.04,0-.11,0-.14-.02-.27-.19-.61-.18-1.01-.26s-.32-.68-.19-.97c.26-.58,1.26-.12,2.45.04,1.05.14,1.96.62,2.88.95Z"/>
              <path class="cls-15" d="M87.67,60.87c.16.15.17.41.29.56.35.53-3.86,3.74-3.99,2.19-.03-.3.13-.46.44-.59,1.15-.5,2.13-1.28,2.94-2.16h.33Z"/>
              <path class="cls-3" d="M90.2,55.18c-.25,1.87-1.04,3.61-2.33,5.07-.13.15-.37.47-.21.62h-.33c-.06-.25.14-.38.31-.55.98-.97,1.52-2.18,1.92-3.48.18-.57.43-1.02.36-1.7-.69-.32-1.25-.89-1.87-1.24v-.14c.75.39,1.49.88,2.13,1.42Z"/>
              <path class="cls-5" d="M29.46,57.38c-.31.26-.67.29-.93.07-.22-.18-.33-.72-.02-.97,1.1-.91,2.24-1.74,3.49-2.45l1.01-.57c1.42-.79,2.97-1.32,4.56-1.67.33-.07.55.3.58.49s.05.71-.25.78c-3.16.76-5.87,2.18-8.43,4.31Z"/>
              <path class="cls-12" d="M86.36,51.48c-.92-.33-1.83-.8-2.88-.95-1.19-.16-2.19-.62-2.45-.04-.13.28-.2.89.19.97s.74.07,1.01.26c-.56.19-1.35-.02-1.5-.73-.07-.34.42-1.02.81-.99,1.74.13,3.3.67,4.95,1.24l-.13.26Z"/>
              <path class="cls-12" d="M88.07,53.76v.14c-1.67-.94-3.48-1.6-5.42-1.98-.15-.03-.25-.08-.27-.19,2.04.17,3.89,1.09,5.69,2.02Z"/>
              <g>
                <path class="cls-7" d="M60.33,48.75c-.19-1.1-.23,3.22,0,2.59v.57c-.16,0-.16.12,0,.15.62,1.35,1.83,2.23,3.42,2.15,2.6-.12,2.22-2.59,3.52-1.94,1.11.55-.49,2.63-2.25,3.17-2.21.26-4.07-.54-4.13-.54h-.14c-.05-.05-.08-.12-.14-.16-.39-.23-.65-.56-1.04-1.03-.87,1.12-2.12,1.78-3.51,1.91-.07-.32-.77.03-1.86-.28-.12-.03-.3.02-.28.11-1.81-.56-3.44-2.7-2.31-3.18.42-.18.81-.02,1.01.36.7,1.34,2.09,1.78,3.53,1.51,1.34-.25,2.34-1.1,2.72-2.36.25.57.25-3.59.01-2.99-.91-.46-2.2-.72-2.52-2.13-.14-.61.19-1.19.81-1.31,1.15-.22,4.73-.6,5.39.42.57.89-1,2.95-2.24,2.98Z"/>
                <path class="cls-1" d="M65.03,55.44c-1.01.31-3.28.32-4.13-.54.05,0,1.92.81,4.13.54Z"/>
                <path class="cls-1" d="M58.88,51.77v-2.99c.25-.6.25,3.56,0,2.99Z"/>
                <path class="cls-1" d="M60.33,48.75v2.59c-.23.63-.19-3.69,0-2.59Z"/>
                <path class="cls-1" d="M56.06,55.61c-.72.06-1.46.04-2.13-.17-.02-.09.16-.15.28-.11,1.08.31,1.79-.04,1.86.28Z"/>
                <path class="cls-1" d="M60.33,52.06c-.17-.03-.16-.16,0-.15v.15Z"/>
                <path class="cls-1" d="M60.76,54.89c-.07,0-.12-.09-.14-.16.06.04.09.11.14.16Z"/>
              </g>
            </g>
            <g>
              <path class="cls-4" d="M43.97,70.08c.03.06.08.11.11.17.02.09.01.19.04.28.02.08-.04.21,0,.28.3.62.07,1.34.14,2.02-.42,1.69-1.39,3.08-3.03,3.9-.46.23-.98.34-1.38.59-.24.04-.47.14-.71.13.08-.28.46-.18.72-.41.38-1.55.41-3.16.06-4.71-.08-.34-.48-.39-.69-.37-.34.03-.43.35-.37.71.27,1.59.32,3.2-.34,4.67.22.06.42-.02.51.13-1.5.38-3.03.48-4.54.16.05-.31-.11-.58-.22-.91-1.02-3.14.15-5.09-1.15-4.91-.33.04-.37.34-.37.72-.01.91-.04,4.42.77,4.72.11.04.11.11-.05.12-.71-.02-1.41-.3-1.99-.69-.28-.28-.57-.65-1-.59-.03-.04-.11-.1-.15-.13-.1-.33-.39-.56-.69-.71-.1-.08-.21-.19-.3-.3.16-.32-.22-.4-.34-.72-.49-1.27-.73-2.88-.5-4.26.27-1.58,1.71-2.97,3.23-3.6,2.96-1.23,6.37-1.02,9.27.32,1.47.68,2.4,2.03,3,3.4Z"/>
              <path class="cls-15" d="M44.1,70.09h-.13c-.6-1.38-1.52-2.72-3-3.4-2.89-1.34-6.3-1.55-9.27-.32-1.52.63-2.96,2.02-3.23,3.6h-.13c-.29.05-.68-.12-.88.13-.04,0-.09-.01-.13,0,.03-1.66,2.07-3.78,3.54-4.55,1.67-.88,3.51-1.16,5.4-1.18,2.41-.02,4.74.71,6.49,2.36.97.91,1.58,2.06,2.21,3.21-.42.1-.71-.08-.9.15Z"/>
              <path class="cls-15" d="M34.47,77.64l-.59-.12c-.14-.03-.31-.08-.43-.14.16-.02.17-.08.05-.12-.81-.3-.78-3.81-.77-4.72,0-.38.03-.67.37-.72,1.3-.17.13,1.77,1.15,4.91.11.33.27.6.22.91Z"/>
              <path class="cls-11" d="M39.84,77.33c-1.06.65-2.39.62-3.69.6-.38,0-2.52.1-2.28-.43l.59.12c1.51.31,3.04.22,4.54-.16.04,0,.08,0,.12,0,.24,0,.47-.09.71-.13Z"/>
              <path class="cls-3" d="M29.32,74.95c-.8-1.01-1.28-2.33-1.1-3.7.05-.38.18-.72-.04-1,.09-.06.14-.16.17-.27h.13c-.23,1.37.01,2.98.5,4.25.12.32.5.4.34.72Z"/>
              <path class="cls-11" d="M44.25,72.85c-.06-.68.16-1.4-.14-2.02.66-.23.11,2.14.14,2.02Z"/>
              <path class="cls-3" d="M30.31,75.96c-.3-.17-.52-.42-.69-.71.3.15.58.38.69.71Z"/>
              <path class="cls-3" d="M31.45,76.68c-.3-.2-.85-.21-1-.59.42-.05.72.31,1,.59Z"/>
              <path class="cls-4" d="M28.35,69.99c-.03.11-.08.21-.17.27-.14-.24-.47-.12-.71-.15.2-.25.59-.09.88-.12Z"/>
              <path class="cls-11" d="M44.11,70.54c-.02-.09-.02-.19-.04-.28.1.01.21.07.18.21-.01.05-.07.1-.14.08Z"/>
              <path class="cls-15" d="M39.13,77.47s-.08,0-.12,0c-.09-.15-.3-.07-.51-.13.66-1.46.62-3.07.34-4.67-.06-.36.03-.68.37-.71.2-.02.61.03.69.37.36,1.55.32,3.16-.06,4.71-.25.23-.63.13-.72.41Z"/>
            </g>
            <g>
              <path class="cls-15" d="M87.49,70.07h-.12c-.48-1.69-1.72-2.95-3.36-3.72-1.77-.83-3.7-.86-5.65-.7-2.83.23-5.05,1.93-6.21,4.45-.06-.05-.11-.03-.14.04-.14-.23-.41-.12-.82-.2.63-1.69,1.83-3.18,3.41-4.2,4.2-2.7,12.51-1.64,13.92,4.24-.45.03-.77-.07-1.03.1Z"/>
              <path class="cls-4" d="M87.37,70.07c.03.1-.03.23,0,.33l.13.14v.14s.11,1.14.11,1.14c-.33,2.95-1.48,3.91-3.94,5.25-.51.2-1.04.24-1.55.34l.38-.53c.21-.3,1.32-5.93-.26-5.01-.6.35.12,2.54-.8,4.83-.14.34-.42.59-.41.92-.6.05-3.09.32-3.47-.26-.56-1.45-.65-3.03-.34-4.61.08-.41-.1-.74-.45-.78-.39-.05-.66.13-.72.57-.09.72-.4,4.42.52,4.55.15.03.17.13.02.15-1.42-.24-2.66-1.09-3.64-2.14-.05-.05-.11-.09-.16-.14-.76-1.48-1.18-3.13-.62-4.72.02-.05.06-.12,0-.17,1.15-2.52,3.37-4.22,6.21-4.45,1.95-.16,3.88-.13,5.65.7,1.65.78,2.88,2.03,3.36,3.72Z"/>
              <path class="cls-1" d="M76.58,77.25c.27.04.61.28.97.12.38.58,2.87.31,3.47.26.41-.03.73-.13,1.09-.21.51-.1,1.04-.14,1.55-.34-.13.43-.74.54-1.19.47-.38-.06-.66.28-.96.27-.35,0-.57.11-.92.14l-1.35.11c-.29.02-.58-.26-.81-.21-.81.16-1.93-.35-2.61-.55l-1.02-.31c.58.18-1.58-1.22-1.45-1.13-.25-.17-.25-.57-.43-.76.98,1.05,2.22,1.9,3.64,2.14Z"/>
              <path class="cls-10" d="M72.15,70.26s-.11-.08-.15-.13c.03-.06.09-.08.14-.04s.02.11,0,.17Z"/>
              <path class="cls-15" d="M77.54,77.37c-.35.16-.7-.08-.97-.12.15-.02.13-.12-.02-.15-.92-.13-.62-3.83-.52-4.55.06-.44.33-.62.72-.57.35.04.53.37.45.78-.31,1.58-.22,3.16.34,4.61Z"/>
              <path class="cls-15" d="M82.11,77.42c-.36.07-.69.17-1.09.21-.01-.34.28-.58.41-.92.92-2.29.2-4.48.8-4.83,1.59-.92.48,4.71.26,5.01l-.38.53Z"/>
            </g>
          </g>
        </g>
        <g>
          <path class="cls-11" d="M28.18,18.5l-.99-.49c-.1-.05-.2-.07-.22-.17-.01-.07.06-.11.09-.18.28.4.75.54,1.12.84Z"/>
          <path class="cls-11" d="M28.89,19.19c-.18-.2-.37-.4-.57-.57.27.11.6.24.57.57Z"/>
        </g>
      </g>
      <path class="cls-7" d="M104,33.41h-.14c.04-.05.1-.05.14,0Z"/>
      <circle class="cls-4" cx="24.53" cy="22.8" r="6.46"/>
    </g>
  </g>
</svg>