<?xml version="1.0" encoding="UTF-8"?>
<svg id="Capa_2" data-name="Capa 2" xmlns="http://www.w3.org/2000/svg" viewBox="0 0 121.49 126.55">
  <defs>
    <style>
      .cls-1, .cls-2 {
        fill: #396b54;
      }

      .cls-3 {
        fill: #ff9100;
      }

      .cls-4 {
        fill: #a82a4b;
      }

      .cls-2 {
        opacity: .6;
      }

      .cls-5 {
        fill: #c1272d;
      }
    </style>
  </defs>
  <g id="Capa_1-2" data-name="Capa 1">
    <g>
      <path class="cls-5" d="M86.12,73.87c1.94-2.2,3.82-4.49,5.52-6.88,3.91.51,7.42,1.88,9.52,5.63l3.83,6.85c.69,1.24.5,2.72-.3,3.7s-2.1,1.52-3.42,1.12l-7.76-2.39c-4.01-1.23-6.08-4.45-7.38-8.04Z"/>
      <path class="cls-1" d="M103.01,0c-2.58,2.12-4.94,4.59-7.03,7.36-1.51,2.84-3.05,5.5-4,8.39-1.25,3.79-1.94,7.56-1.94,11.52v10.13c-.02,2-.35,3.81-.56,5.62-.37,3.2-1.32,5.96-2.32,8.71-3.31,9.09-9.96,16.95-18.23,21.47-2.76,1.5-5.19,2.96-8.13,3.86-4.41,1.35-8.61,2.25-13.25,2.26l-9.84.02c-2.82,0-5.78-.11-8.42.53-2.99.73-6.03,1.46-8.63,2.77C8.01,89,.03,101.22.01,115.31v11.24s4.5-.01,4.5-.01l-.02-11.49c0-5.18,1.38-9.8,3.62-14.08,1.55-2.97,3.21-5.31,5.4-7.61,5.75-6.03,13.56-9.61,21.91-9.57l9.62.05c2.91.02,6.1.19,8.97-.34,10.46-1.93,19.51-6.45,27.01-13.74,2.03-1.97,4.2-4.56,5.58-6.79,5.1-8.18,7.94-17.03,7.94-26.45v-8.92c0-11.73,6.43-22.18,15.94-27.6h-7.48Z"/>
      <path class="cls-3" d="M101.26,36.58v-9.05c3.49-1.82,6.69-3.14,10.86-1.48l7.22,2.88c1.4.56,2.2,1.84,2.15,3.25-.05,1.27-.83,2.45-2.15,2.98l-7.22,2.88c-4.15,1.66-7.38.34-10.86-1.48Z"/>
      <path class="cls-2" d="M95.98,7.36c-1.51,2.84-3.05,5.5-4,8.39-.04-.25-.24-.45-.57-.56l-5.17-1.69,2.77-8.5c2.44.77,4.77,1.41,6.98,2.36Z"/>
      <polygon class="cls-2" points="101.26 27.53 101.26 36.58 94.55 36.52 94.55 27.6 101.26 27.53"/>
      <path class="cls-3" d="M66.05,67.41l-7.92,3.81c-3.59-2.06-6-4.85-6.37-9.35l-.6-7.31c-.12-1.47.59-2.72,1.66-3.3,1.26-.69,2.76-.57,3.84.39l5.82,5.15c3.36,2.98,3.77,6.55,3.59,10.62Z"/>
      <path class="cls-2" d="M54.01,83.5v7.06s-9.01,0-9.01,0l.04-6.71c2.91.02,6.1.19,8.97-.34Z"/>
      <path class="cls-5" d="M26.4,73.35c-2.83.8-5.46,2.22-8.12,3.33-3.13-2.17-5.61-5.12-5.71-9.3l-.17-7.77c-.03-1.48.75-2.71,1.92-3.24,1.26-.58,2.73-.36,3.75.66l5.47,5.49c3.09,3.11,3.47,6.82,2.86,10.83Z"/>
      <path class="cls-4" d="M12.6,104.85l5.75-6.49c8.32,1.02,9.29,6.16,12.81,12.99.62,1.21.38,2.63-.44,3.6-.74.88-2.11,1.51-3.4,1.05l-7.64-2.72c-3.98-1.42-6.05-4.69-7.09-8.43Z"/>
      <path class="cls-2" d="M18.35,98.37l-5.75,6.49c-1.62-1.12-3.04-2.54-4.48-3.89,1.55-2.97,3.21-5.31,5.4-7.61-.26.86,4.66,4.05,4.83,5.01Z"/>
      <path class="cls-2" d="M26.4,73.35c1.21,2.03,1.99,4.32,2.86,6.52-2.99.73-6.03,1.46-8.63,2.77l-2.36-5.97c2.67-1.11,5.3-2.52,8.12-3.33Z"/>
      <path class="cls-2" d="M66.05,67.41l2.86,5.79c-2.76,1.5-5.19,2.96-8.13,3.86l-2.65-5.84,7.92-3.81Z"/>
      <path class="cls-2" d="M91.64,67c-1.7,2.39-3.58,4.67-5.52,6.88-1.78-1.25-3.48-2.65-5.1-4.12,2.03-1.97,4.2-4.56,5.58-6.79,1.79,1.17,3.44,2.59,5.03,4.03Z"/>
      <path class="cls-4" d="M82.75,41.01l-2.66,8.41-2.45.36c-3.06.46-6.04-.35-8.39-2.32l-5.97-5c-1.14-.96-1.51-2.42-1.02-3.74.44-1.19,1.55-2.07,3-2.16l7.59-.48c4.24-.27,7.59,1.82,9.9,4.93Z"/>
      <path class="cls-2" d="M89.47,43.02c-.37,3.2-1.32,5.96-2.32,8.71l-7.06-2.31,2.66-8.41,6.72,2.01Z"/>
    </g>
  </g>
</svg>