<?xml version="1.0" encoding="UTF-8"?>
<svg id="Capa_2" data-name="Capa 2" xmlns="http://www.w3.org/2000/svg" viewBox="0 0 142.51 103.46">
  <defs>
    <style>
      .cls-1 {
        fill: #c1272d;
      }
    </style>
  </defs>
  <g id="Capa_1-2" data-name="Capa 1">
    <g id="oNkidz">
      <g>
        <path class="cls-1" d="M49.72,78.45c-1.23-1.1-.33,1.18-3.17-.82.37-.86,1.23-.86,1.92-1.12l2.22-.87,1.18-1.58-6.42,2.28c-.11-.41.34-.66.73-.8,3.8-1.37,7.49-2.79,11.16-4.58.19-.09.26.19.23.25-.03.09-.02.28-.21.37-1.2.56-2.33,1.13-3.59,1.57-.18.06-.4-.1-.5.04-.56.77.88.44.66,1.99-.11.77.1,1.69-.39,2.38s-1.73,1.49-2.46,2.23c-.27.27-.89.24-.69.85,1.46-.48,2.45-1.5,3.58-2.5.23.7.23,1.23,1,1.24-.54,0-.7-4.08-.69-4.41,0-.27.52-.44.29-.82-.17-.29-.49-.47-.66-.86,2.11-.61,4.11-1.01,5.99-2.01.22-.12-.03-.59-.06-.85-.44.06-1.7.94-2.05.84-1.38-.41,3.62-1.62,2.98-2.68-.41-.67-1.68.78-2.12.18l1.29-.73c-.53-1.27-2.2-1.61-3-2.84.56,0,.82.42,1.41.31-.58-1.03-.79-.22-1.13-1.44-.79-.08-2.45.15-2.32-.71.39-.41,1.37-.52,1.75-1.24-.73.28-1.5.75-2.34.82-.14-.02-.28-.39-.51-.32-.17.05-.23.47-.37.49-1.9.27-4.87-3.23-7.86-1.17-.17.12-.39-.15-.4-.27-.05-.82,1.59-.51,1.84-.86.34-.48-.54-.66-1.04-1.17-.2.15-.36.34-.5.32-.25-.04-.39-.27-.49-.53l-.19.51c-.06.16-.66.15-.65-.02.15-1.78,2.71-.12,2.83-.87-.37-.43-1.06-.54-1.23-1.01.1-.35.61-.33.93-.21s.45.42.47.7c.42-.06.69-.1.78-.4.3-.98-.56-.57-.2-1.69.06-.18.51-.35.7-.17.31,1.43.49,2.91,1.48,4.07,1.25,1.46,3.26,1.93,5.06,1.53-.3-.14-.27-.5-.42-.66-.25-.25-.6.22-.86.23-.31,0-2.18-.19-2.12-.85.06-.59,1.21.2,1.97.04,0-.53-1.44-.91-.89-1.47.15-.15.53-.16.72.07,1.18,1.47,3.17,1.99,4.78.88.42-.29.51-.93.96-1.18.37-.21.9.14,1.27.2l-1.5,1.39c.94-.13,1.76.04,2.7.17l2.69.4c-.07.46-.08,1.1-.48,1.3l-2.6,1.32c1.18.53,2.48.66,3.53,1.27.15.44.11,1.09.46,1.54.15.19.29.17.5.01.23-.18-.05-.42-.04-.77.02-.58.66.24,1.07.24,2.43.02,4.78-.34,7.2-.51,2.64-.18,9.38-1.78,12.17-2.67-.04.41-.42.57-.75.67-3.94,1.19-7.84,1.94-12.05,2.47.43.53,1.09.81,1.62,1.06.23-.2.5-.36.83-.4,1.74-.24,3.39-.49,5.08-.92.34-.09.59-.04.85.23.41-.87,1.32-.62,1.91-.66,1.13-.84.22.07,2.54-.88,1.96-.81,4.01-1.24,5.89-2.25.28-.15.24-.82.77-.87.11,0,0-.28-.07-.32-.27-.19-4.66,1.87-5.57,1.95.03-.3.25-.52.52-.61,1.62-.56,3.16-1.1,4.76-1.84-1.23-2.19-3.69-2.27-3.97-4.6-1.12.21-2.2.5-3.25,1-1.48.7-.6,1.61-1.21,1.68-.66.07-.26-.97-.28-1.55-.99.2-1.5,1.13-2.24,1.27-.17.03-.63-.22-.47-.45.39-.55,1.05-.74,1.48-1.18-.71-.02-1.33.13-1.98-.04-.18-.05-.15-.46.02-.54.41-.19.76-.11,1.2-.26-.31-.41-1.97-.42-1.71-1.1.3-.78,1.96,1.19,5.81.74,1.14-.13,2.36-.48,3.01-1.56-3.41,1.91-3.67,1.45-6.97-.02-3.5-1.56-5.04,1.05-4.69-.23.04-.14.19-.37.42-.42l1.52-.34c-.21-1.53-2.78-.32-2.84-1.18.49-1.35,2.29.06,2.76-.57-.45-.5-1.54-.66-1.2-1.22s1.51.61,1.96.75c.33-.68-.41-1.58-.05-2.24.08-.15.65-.33.68-.1.61,4.03,1.55,3.85,2.72,5.18.72.82,1.55,1.58,2.78,1.43-1.34-.54-.3-.19-1.34-.95,1.47-.06,1.79.28,2.65-.18-.81.04-.96-.5-1.3-.69-.26.75-2.94-.21-2.28-.67.44-.31,1.1.42,1.86.13l-.81-.78c-.2-.19-.18-.48-.04-.63.17-.18.56-.18.78.11,1.13,1.46,3.45,1.99,4.87.61,1.04-1,1.15-2.55,1.63-3.89.21.13.37.42.68.35.09.32-.14.55-.19.92.47-.3.97-.53,1.38-.05-.26.38-.66.5-.79.93h1.53c-.25.71-1.1.78-1.72.47-.77,1.07-1.17.83-1.95,1.87,1.23-.28,2.19.12,3.26.25l2.09.26c.06.55-.2.97-.39,1.3-.27.46-.83.28-1.23.48-.48.23-.88.64-1.46.83,1.42.51,2.66.77,3.9,1.35,2.34,1.09,1.42,1.74,3.24,1.41,8.53-1.57,17.04-3,25.47-6.07-1.26-3.15-3.88-2.71-4.38-5.32,0-.24.48-.3.21-.63-.84,1.21-2.69.64-4.15,2.03-.35.33-.39.89-.82,1.16-.24-.57,0-1,.11-1.56-.76.16-1.13.6-1.66.94-.14-.29-.2-.5-.28-.73-.06-.19.32-.28.48-.53-.27-.04-1.8.13-1.93-.1-.06-.1-.11-.34.03-.45.32-.23.72-.12,1.17-.38-.52-.39-1.85-.34-1.63-1.04.05-.16.35-.27.6-.15,2.31,1.17,6.27,1.68,8.16-.43-1.27.33-2.31,1.23-3.58,1.02-2.8-.47-4.79-3.01-7.71-1.07-.14.09-.32-.44-.25-.55.36-.52,1.21-.26,1.82-.64.49-.31-1.2-.79-.65-1.55.04-.05.27,0,.33,0,.1,0,.23-.07.19-.24-.08-.36-1.25-.53-1.14-1.06.17-.92,1.79.79,2.04.5.28-.7-.39-1.37-.08-2.05.08-.18.71-.37.74-.13.63,3.87,1.72,5.47,5.82,5.74,1.93.12.91-1.51,2.22-1.46,3.08.13,2.91-4.51,3.74-4.79.2-.07.42,0,.47.23.07.38-.17.71-.22.9-.16.57,1.23-.54,1.21.34,0,.29-1.13.92-.49.88l1.31-.07c.04,1.03-1.71.32-3.14,1.87-.37.4-.79.51-1.4.61.74.65,1.37-.64,3.38,0,.49.16,2.16.28,2.88.43.08,1.98-1.59,1.54-3.02,2.65,1.66.53,3.25.9,4.7,1.77,1.79,1.08,1.09,1.48,2.29,2.62,1.1-.51,1.92-1.22,2.88-1.91,1.73-1.24,2.46.08,3.96.76s1.3,2.09,2.53,3.7c-.63.28-1.01-.13-1.47-.39-.33-.19-.82.02-1.05-.29-.83-1.12.07-2.2-1.72-2.63-2.15-.52-1.31.8-2.18.01-.24,1.39-1.38,1.82-1.97,3.31l2.57-1.08c.23-.1.52-.1.68,0,.45.27.56,2.76.5,3.07-.31,1.5-1.02,2.83-1.71,4.2-.37-.25-.84-.64-.81-.99l.16-1.75c.09-.97,1.9-2.2,1.06-2.82-.38-.28-.79-.17-1.12.2l-2.73,3.1c-1.22,1.38-2.67,2.6-4.56,3.02-.77.17-1.67-.02-2.43-.09-.34-.03-.21-.67-.47-.84-.21.27.14.48.16.82-1.52.28-2.94.05-4.14,1.43-1.46,1.7-2.31,3.99-3.95,4.95-1.98,1.16-3.9.81-4.58,2.85-.77,2.27-1.79,2.55-3.64,3.61-.15-.52-.12-.87-.33-1.34.5-.17.77-.51,1.01-.96.19-.36.72-.26,1.02-.46.87-.59.51-2.08,1.34-2.78l1.82-1.53c-2.04-1.21-3.26,2.12-4.11,1.89.04.31-.16.5-.41.72-.73.67-1.37.95-2.36,1.08-.48.06-1.19.81-1.72.4-.22-.47.31-1.39.73-1.75s.92,0,1.3-.17c2.37-1.09,1.34-.22,2.87-2.6.44-.68,1.2-1.25,2.04-1.01.22.06.25.5.68.35-.69-1.22,1.6-1.1,1.52-4.14-.49.29-.69.59-1.14.55-.74-.06-1.61-.86-1.61-.85-.08-.66,1.66-.98,2.04-1.22.83-.52,1.59-.68,2.59-.58-.38-.66-.27-.92.13-1.47l-8.61,1.95c.85,1.6.77,1.81,1.7,3.22-.72.29-1.17-.25-1.75-.4-2.28-.58.24-1.69-2.46-3-.13.26.05.58-.16.63l-2.23.47c-.93.2-1.39,1.51-1.83,2.37l2.11-.97c.33.3,1.05,1.86,1.56,1.12.62,1.87-.61,4-1.55,5.85-.32.09-.63-.3-.75-.51-.16-.29,0-.76,0-1.08l.03-1.13c.02-.7,1.67-1.83,1.17-2.65-.35-.57-1.33.2-1.78.73-1.58,1.83-3.98,5.05-6.4,5.33-.2.02-.34-.53-.56-.41-.19.11-.21.37-.48.61-.33-.38.14-.85-.01-1.32-.06-.19-.3-.2-.46-.12-.48.24-.15.8-.37,1.18-.26.43-1.58.16-2.08.05-.25-.06-.53.25-.79.28-1.22.14-2.22.76-2.89,1.77l-2.06,3.11c-.55.83-1.26,1.1-2.02,1.52-1.91,1.07-2.73.58-3.84,2.17-.15,0-.3-.12-.45-.14,0-.34.17-.6-.02-.98-.46.44-.77.87-.78,1.56.25.02.39-.18.65-.31.02.15.21.35.32.51-.36,1.54-1.66,2.56-3.09,3.16-.71.3-1.05,1.14-2.02,1.28,0-.71.27-1.45.4-2.22.48-.25.94-.21,1.48-.32.1-.96.84-.97,1.45-1.3.67-.36.56-1.51.84-2.12.3-.65.95-.97,1.41-1.45,1.09-1.16,2.2.19,1.58-.8-1.31.29-.94-.67-2.34-1.43,1.25-.75,2.23-1.92,2.09-3.55-1.45,1.06-2.78-.45-2.77-.48.06-.56,1.8-.94,2.33-1.26.59-.36,1.16-.56,1.87-.52.2-2.39,4.09-2.69,6.15-3.45.17.39-.37.54.01.97.54-2.14,2.36-1.07,3.01-2.53-5.35,2.11-10.79,3.61-16.61,4.46,1.18,1.47.6,1.5,1.87,3.34.54.79-2.08-.27-2.45-.67-.59-.63-.3-1.64-.81-2.43-3.28-.02-3.2.47-5.13,3.24l2.72-1.11c.23-.09.51-.08.67.03.38.25.52,2.53.46,2.88-.26,1.55-1.03,2.93-1.71,4.35-.97-.25-.86-1.04-.79-1.76.08-.9.12-1.6.88-2.34.3-.29.78-1.11.27-1.42-.57-.35-1.25.32-1.64.76-1.34,1.48-2.48,3.06-4.1,4.26-.51.37-3.13,1.86-3.75,1.1-.22-.24.1-.79-.31-.94-.28.25-.24.79-.54.96-.64.16-1.34.04-1.98.08-3.37.2-3.83,2.87-5.86,5.36-.08.1-.42.09-.55.15-.11.06-.04.25-.12.48-.86.54-1.81.85-2.78,1.13-3.47,1-1.21,3.46-5.57,5.26-.68.28-1.03,1.15-1.96,1.2.02-.62.19-1.24.3-1.84.17-.97,1.4,0,1.96-1.35.09-.23.35-.37.55-.39.23-.02.28.34.59.49l.99-3.06c.27-.84,1.47-1.13,2.04-1.88-.96-.88-2.67.62-3.31,1.54-.19.27-.67.56-.9.25-.13-.18-.22-.78-.13-.99,1.77-3.93,3.89-1.49,5.69-3.11-.66-.06-1.1.22-1.69,0,.81-1.13.6-1.5,1.31-2.35ZM80.64,52.82c.01-.8-.58-1.1-1.24-1.17.27.6.66.96,1.24,1.17ZM92.57,59.24c-.87-1.26.04-1.05-.52-1.96.1.55-.18,2.01.06,2.09.11.04.55,0,.47-.13ZM123.24,54.77c.09.46-.18.7.2.76.02-1.6,1.68-.88,1.56-1.66-.03-.17.07-.59-.16-.6-.55-.02-1.06.52-1.46.38-.61-.22-.63.24-1.04.37-5.47,1.71-10.97,2.81-16.68,3.94.42.44.96.63,1.54.94,5.48-1,10.79-2.43,16.05-4.13ZM130.98,54.7c-.34-.4-.79,0-1.18-.08-.12-.26-.11-.52-.34-.53-.3-.01-.75.15-.47.41.49.45,1.37.19,1.99.2ZM132.25,54.1c-.79-.41-1.49-.23-2.03.14.77.17,1.43.05,2.03-.14ZM102.39,58.54c-1.09.13-1.88.16-2.76.47.16.39.28.65.35,1.11.89-.51,1.75-.89,2.41-1.59ZM104.56,59.52c.17-.03.24-.25.45-.37-.26-.12-.44-.25-.75-.51-.05.42-.31.53-.58.7.35.07.64.22.88.18ZM61.79,66.62c.19.02.31.16.38.01.22-.45-1.13-.27-2.56-.69-.19-.06-.43-.05-.53.03-.13.12-.13.35-.07.46.24.44,1.35,0,2.78.18ZM71.04,66.17c-1.45.1-2.57.16-4.04.19.2.38.37.73.58,1.04,2.31-.19,1.58.32,3.46-1.23ZM124.58,58.34c.12.18.06.4.26.64l.09-.98c-2.36-.29-3.91.9-6.18,1.26.47.37,1.05.43,1.42.3-.15-.93,4.35-1.31,4.41-1.22ZM66.22,68.74c.45-.69.36-1.49-.04-2.01-.18.73-.22,1.36.04,2.01ZM94.45,64.56c-.13-.49-.51-.72-.85-.98-.06.67-.13,1.26.44,1.28.12,0,.49,0,.41-.3ZM118.1,62.32c-.32-.55-.86-.83-1.38-.5.17.46.64.49.76.91.07.25.17.38.3.39.24.02.39-.03.46-.14.12-.19,0-.42-.13-.65ZM115.55,64.29c.55-.64.53-1.42-.12-1.77-.24.61-.31,1.21.12,1.77ZM95.84,66.45c.13-.11.61-.02.49-.31-.06-.14.08-.62-.24-.55-.81.19-1.17,1.06-1.14,1.83.55-.14.54-.68.89-.97ZM66.04,71.88l-1.5-.61c-1.15.29,1.59,1.05,1.5.61ZM68.75,71.64c-.28-.35-2.29-1.11-2.56-.14.81.29,1.57.31,2.03.88.09.11.16.4.28.27.25-.28.51-.69.25-1.01ZM61.72,72.71c.05.72-.05,3.13.7,2.91s-.34-2.3-.7-2.91ZM55.77,75.75c-.12-.57-.23-.78-.09-1.18-.59.12-.77.5-.86.93.42-.02.6.22.95.25ZM117.85,65.71c-.24.09-2.72.58-1.92.95-.13-.06,1.74-.45,1.92-.95Z"/>
        <path class="cls-1" d="M21.61,23.7c-1.32,1.02-2.26,2.4-3.45,3.63-.6.62-2.4-.16-1.9,1.01.42-.43.92-.46,1.34-.3l-2.46,3.24c-.21-.13-.19-.41-.54-.36.43.55.25.81-.02,1.22l-2.18,3.3c-.38-.11-.35-.69-.81-.55.12.31.82.46.6.85l-1.23,2.24c-.3-.14-.45-.34-.8-.17.13.18.48.31.57.56-1.12,2.07-2.17,4.1-3.03,6.3-.62.5-1.28.78-1.84,1.33-.16.15-.74.17-.65-.07,1.22-3.32,2.61-6.45,4.32-9.47.34.27.38.57.69.65.22-.49-.28-.77-.37-1.13.1-.35.41-1,.71-1.22.38-.28.25-.49.42-.79,1.76-3.03,3.81-5.93,6.11-8.61.3.14.58.58.83.28l-.52-.32c-.2-.12-.07-.36.12-.56.09-.11.27-.24.55.09.1-.2-.14-.29-.11-.57C26.44,14.46,37.44,7.18,49.81,3.26c.99-.31,1.7.71,1.34-.39,3.79-1.15,7.63-1.91,11.61-2.38.19.37.21.7.13,1.15-12.27,1.5-23.86,6.21-33.64,13.76.6.28.78-1.06,1.79-.33.14-.31-.12-.27-.37-.44,1.93-1.4,4-2.61,6.16-3.83.25-.04.43.31.72.3-.06-.57.15-.78.53-.97,4.27-2.19,9.24-4.04,13.82-5.5.65-.21,1.08-.17,1.58.41.17-.45-.3-.3-.41-.73,3.26-1.06,5.63-1.39,8.98-2.01,3.07-.57,6.1-.69,9.23-.87.12.51.05.95-.11,1.43-1.96-.04-3.84.03-5.83.11-1.48.06-2.94.56-4.38.5-.48-.02-.52.05-.95.16l-6.48,1.53c-5.75,1.36-11.06,3.88-16.04,7.01l-1.02.64c-8.16,5.12-15.21,11.8-20.73,19.75-.22-.17-.51-.69-.33-.97.79-1.2,1.62-2.28,2.5-3.41.09-.11.37,0,.42-.08.08-.12.03-.39.12-.5l3.17-3.9ZM7.67,43.68c-.54.32-.9.73-1.38,1.11-.18.14.31,1.05,1.38-1.11Z"/>
        <path class="cls-1" d="M141.79,66.83c-.02-.2-.73.04-.64.33l-.02,4.98-.27-5.33c-.11-2.08-.42-4.04-.84-6.08-.48-2.34-.63-4.64-1.39-6.85.26,1.05-.05,1.92-.13,2.89-.12,1.46.22,2.95.39,4.44.12,1.06.06,2.24.32,3.23.34.22,1.09.38.85.96-.1.23-.51.13-.83.16.16,3.4.25,6.73.03,10.14.35,0,.59-.19.74.09-.24.18-.52.09-.78.25-.28,5.53-1.5,10.76-3.01,16.06-.91,3.18-1.93,6.21-3.51,9.1-.23.41-.6.68-.77,1.17l-.39,1.07h2.11s.05-.09.07-.14c.45-1.05,1.45-2.26,1.67-3.42.11-.59.25-.67.55-1.12.65-.97.95-2.22,1.4-3.27.04-.1-.34-.17-.32-.24.02-.09.44-.1.47-.19.68-1.75,1.32-3.73,1.82-5.59l.45-1.68c1.37-5.14,2.02-9.7,2.15-15.09.05-1.99.1-3.91-.11-5.89Z"/>
        <path class="cls-1" d="M110.24,103.46c.4-.72.75-1.39,1.71-.65l.83.65h2.12c-.68-.55-1.34-1.11-1.98-1.71-.33-.31-.49-.65-.48-1.02,0-.37.43-.49.62-.8.52-.86.9-1.74,1.67-2.46-.19.27,2.55.96,2.53.78.12-.15.23-.39.43-.41.14-.01.36.12.27.32-.03.08-.16.18-.17.36l7.1,2c.53.15.98.02,1.21-.35.25-.4.18-.83-.21-1.2-2.59-2.51-5.19-4.92-7.66-7.57-.36-.38.72-1.91.64-1.87.24-.13.56-.14.8-.05l3.83,1.32c.28.1.49-.4.71-.4.32,0,.15.37-.04.6.57.24,1.21.61,1.86.65.44.03.6.02,1.04.32.48.32.98.68.6,1.31-.29.48-.42,1.22.05,1.67.34.32.87.02,1.01-.37.27-.74.7-1.37.86-2.1l.4-1.76c.2-.9,1.99-3.6,1.12-4.59-.66-.76-1.54-.22-1.86-.43-.1-.07.12-.45,0-.52-.6-.35-1.99-1.04-2.39-.33-.1.18-.04.47.18.73,1.03,1.18,2.61.76,2.43,2.18-.11.83-1.1,3.09-1.06,3.05-.56.54-2.45-.23-3.2-.61-.31-.16-.52-.15-.93.06.36-1.14-.33-1.61.37-2.08.75-.49,1.41.17,2.23-.08.22-.07.3-.41.22-.53-.33-.46-2.36-.94-3.45-1.35-.58-.22-1.28-.3-1.66.31.4.53.97.45,1.41.89.22.51.02,1.85-.67,1.95-.71.11-3.33-1.14-3.31-1.1-.31-.45.61-2.82.89-3.56.54-1.39,1.23-.53,3.52-.43.32.01.48-.18.53-.41.03-.15.1-.45-.17-.52l-2.53-.66c-.08-.23-.08-.67.14-.85l8.63,1.6c.45.16.28.97.27,1.34-.01.43,1.02.62,1.12.32.33-1.29.66-2.67.78-3.95.04-.39-.41-.75-.65-.71-.78.14-.35,1.02-.98,1.44-.29.2-3.21-.21-3.74-.66-.46-.39-.22-1.48.16-1.86.62-.61,1.4-.66,2.18-.91.02-.39-.07-1.22-.42-1.33-.72-.19-1.31.33-1.97.59-.45-1.39-1.57-2.67-3.04-2.68-3.9,0-3.6,4.53-3.9,7.28-.16.38-.65.55-.78.93l-2.43,7.22c-.11.34.29.7.06.99-.13-.15-.23-.42-.37-.39-.03,0-1.31,1.6-.94,2.32.6-.16,1.11-.45,1.55-1.08,2.06,2.02,4.24,3.9,6.22,6.27-.77.1-1.47-.08-2.13-.29l-6.15-1.91.23-1.4c-.04-.33-.35-.33-.36.04.03.28-.14.43-.44.47-.15.02-.09-.12-.27-.48-.36.65-.85,1.3-1.01,2.05-.14.69-.79.97-1.2,1.49l-3.61,4.49c-.08.1-.14.25-.18.42h1.82ZM121.91,77.84c.41-1.01,1.16-1.36,2.15-1.29.76.05,1.46.59,1.67,1.61.16.73.15,1.97-.4,2.59-.83.36-1.99-.13-2.89-.17-1.24-.05-.55-2.71-.54-2.73Z"/>
        <path class="cls-1" d="M11.28,103.46c-.17-.3-.35-.61-.52-.91-.77-.05-1.34.23-1.97.48-.19.08-.71-.04-.8.26.03.06.06.11.09.17h3.19Z"/>
        <path class="cls-1" d="M39.02,99.12c.06.05.3-.2.39-.14.22.13-.12.21-.19.54,1.27,1.41,2.62,2.72,4.05,3.95h1.64c-.04-.06-.09-.1-.16-.16-2.58-2.16-4.74-4.64-6.89-7.25-.27-.14-.78.29-1.01.52.63.88,1.32,1.87,2.18,2.55Z"/>
        <path class="cls-1" d="M84.26,3.31c-2.26-.44-4.36-.73-6.6-.71l1.74.36c-.43.2-.81.41-1.22.37-2.19-.24-4.29-.35-6.51-.46-.04-.52.03-1.1.31-1.41l6,.05c-4.54-.62-9.28-.39-14.04-.04-.26.02-.4-.88-.16-1.07,4.76-.56,9.61-.5,14.35-.05.44.04.68.08.87.56.08-.17.16-.32.33-.39.38-.15.72.49.87.5.08,0,.15-.35.25-.35,1.49.06,2.89.49,4.32.74,1.09.19,2.11.36,3.22.71-.04.61-.14,1.21-.25,1.86l-3.48-.68Z"/>
        <path class="cls-1" d="M97.32,103.46c2.01-1.49,3.84-3.1,5.44-5.05.58-.71,1.27-1.22,1.78-2.04.41-.65,1.24-1.03.96-2.06.59.89,1.2-1.26,1.82-1.57-.54,1.26-1.35,2.27-2.08,3.42-.13.21-.11.33.12.45.43.22,4.22-6.49,4.38-7.3-.19-.1-.32-.26-.24-.28l.36-.06c1.02-.16,4.95-16.76,3.89-19.36-.38.88-1.05,1.57-1.17,2.35-.23,1.55-.34,3.11-.37,4.67-.02,1.02.23,2.04-.58,2.91.31.12.54.06.58.15.06.14,0,.39-.03.4l-.57.08s-.87,3.22-1.48,4.54c-.82,1.78-1.37,3.52-2.31,5.24-2.56,4.73-5.9,8.89-10.05,12.34-.49.41-1,.79-1.51,1.17h1.05Z"/>
        <path class="cls-1" d="M73.09,19.2c.22.89.89.2,2.5,1.12-.13,1.67-3.15,1.12-4.38.94-.57-.08-2.51.04-2.27-1.11s2.68.14,2.76-1.41l.25-5.03c.01-.23.05-.46.13-.58.14-.2.49-.19.76-.3-.08-.42-.51-.41-.75-.71-.01-.41.33-1.34-.1-1.47l-1.73-.5c.18-.19.37-.12.54-.19s.02-.27-.14-.48c.47-.43,1.04-.09,1.63-.02,2.96.34,4.68-.69,6.04,3.01-.2.3-.39.33-.5.6.12.05.55-.03.56.13.11,1.64-1.47,3.7-3.19,3.4-.34-.06-.61-.14-.95.1-.15-.32.06-.8-.2-.94-.31-.17-.37.42-.17.68-.24.15-.49.15-.86.25-.15.81-.12,1.68.08,2.5ZM76.7,14.29c.1-.47.26-.95.29-1.37.09-1.47-1.39-2.41-2.75-2.23-.25-.24-.22-.55-.54-.72-.45.67-.35,1.38-.35,2.13,0,.93-.29,1.94.04,2.83.23.6,3.05.59,3.31-.64Z"/>
        <path class="cls-1" d="M27.49,48.67c-2.5,3.72-9.95.43-10.82-2.99-.15-.57,0-1.11-.39-1.62.22-1.1.86-2.19,1.95-2.65,2.83-1.2,6.36.17,8.45,2.25,1.33,1.33,1.81,3.53.82,5.01ZM26.05,47.88c.49-.65.49-1.44.35-2.31-.63-1.21-1.76-1.89-2.86-2.57-.3-.18-.35-.14-.72-.25-1.51-.46-3.33-.86-4.66.26-1.01.85-.5,2.24-.04,3.19.25.52.27.45.73.73,1.8,1.11,5.34,3.43,7.2.96Z"/>
        <path class="cls-1" d="M97.75,26.91c1.5.37,1.78-1.1,2.95-2.85.16-.24.45-.33.62-.31,1.24.14-.8,2.98-1.11,3.6s-.59,1.16-1.14,1.52-.84-.1-1.26-.27c-1.4-.59-2.61-1.4-3.88-2.21-.12-.08-2.68-1.11-2.54-1.73.25-1.11,2-.38,2.67.15.47-.23.58-.68.8-1.11l3.38-6.45c-.47-.97-2.18-1.18-1.86-1.98.09-.22.49-.5.85-.31l4.59,2.48c.28.15.6.43.57.68-.04.29-.37.6-.7.56-.58-.08-.99-.51-1.46-.81-.85-.54-1.27,1.25-1.59,1.37l-.31-.05c-.08-.01-.18.14-.22.23-.03.08.38.18.34.25l-2.57,4.45c-.15.26-.55,0-.77.06.04.39.37.32.57.49-.65,1.18,1.48,2.09,2.08,2.24Z"/>
        <path class="cls-1" d="M86.28,23.01c-.08,0-.07-.39-.1-.44-.06-.1-.18-.09-.25.06-.05.1.08.23.14.42-.86.42-1.99.02-2.79-.7-1.26-1.13-1.57-2.84-1.41-4.53.22-2.3,1.02-4.64,3.03-5.96.4-.26,1.18-.47,1.6-.58,1.71-.45,3.15.83,3.65,2.3s.58,2.69.29,4.12c-.44,2.15-1.74,5.06-4.15,5.31ZM86.75,21.43c.13.1.31.45.4.39.12-.08.28-.29.04-.64.66-.64,1.17-1.44,1.58-2.31.1-.22.41-.27.44-.48.02-.17-.23-.45-.19-.64.34-1.49.31-2.96-.34-4.33-.05-.11.2-.44.02-.54-.09-.05-.29.04-.43-.04-.34-.22-.48-.92-.99-.89-.12,0-.06.4-.16.46,0,0-1.37-.1-2.28,1.05-.75.94-1.04,2.06-1.44,3.16-.13.35-.71.2-.87.46,1.42.17.2.92.82,2.73.5,1.48,1.97,2.18,3.41,1.63Z"/>
        <path class="cls-1" d="M124.65,72.57c-.76.3-1.59.38-2,1.05-.17.28.31,1.45-.43,1.63-1.26.3-.9-2.45-.91-2.86,0-.33-.14-.81.11-1.04.18-.17.55-.53.84-.35.34.21.25.78.54,1.12l2.69-1.12c.1-.04.4.31.49.13.23-.45.61-.56,1.03-.9l-4.15-1.68-.59,1.15c-1.25.09-.89-1.8-1.01-3.21-.03-.37.01-.71.34-.87.23-.11.69-.3.94.06.29.42.04.91-.1,1.37l3.89,1.78c1.79.82,3.69,1.17,5.6.57.16-.85.19-2.36,1.13-2.47,1.04-.13.29,3.02.51,4.09-.2.09-.34-.15-.53.08.64.54.87,1.92.05,2.36-1.11.61-.57-2.29-1.51-2.42-3.98-.57-4.28.46-6.93,1.52Z"/>
        <path class="cls-1" d="M2.77,76.97c-1.47.52-1.07,1.07-1.63,1.19-.46.1-.46-2.6-.45-3.07.02-.87,1.43.09,1.5-1.94-.58-.02-.6.42-1.05.82.19-.35-.49-.69-.52-1-.14-5.21.39-10.36,1.49-15.52.35.54.78.97,1.1,1.35,0,.9-.22,1.84-.4,2.72-.07.36-.3.5-.09.96.13.3-.08.95-.52.8-.4-.13-.32-.69-.75-.94.17.89.38,1.82,1.12,2.42-.34,4.1-.18,8.03.19,12.2Z"/>
        <path class="cls-1" d="M99.27,7.74c-.19-.08-.34-.07-.39-.14-.04-.06.15-.19.15-.28-.02-.38-2.86-1.27-3.14-.94-.24.06-.61-.25-.96-.34.37-.11.81-1.52,1.43-1.27,5.38,2.16,10.48,4.85,15.15,8.3.49.36.27.93,1.18.92.57-.01,1.21.98,1.44,1.46.27.57.8.79.82,1.5-4.86-3.73-10-6.82-15.67-9.21Z"/>
        <path class="cls-1" d="M76.98,88.97c-.42.67.56,1.67-.05,2.11-.14.1-.18.36-.1.52.05.1.26-.04.48-.02.38,1.01.47,2.07.79,3.13.25.81,1.01.37,1.07.77.09.63-1.28.74-2.14.93-.22.05-.3-.22-.28-.4.06-.42.78-.21.59-1.01l-1.33-5.73c-.08-.35-.66-.24-.87-.39-.25-.18-.07-.49.09-.61.22-.17,1.86-.81,2.29-.01l1.91,3.6c.28-1.42-.29-2.92.15-4.38.19-.61,1.46-.75,1.99-.64.2.04.2.43.13.53-.09.12-.31.22-.6.36l1.34,5.85c.08.33.27.58.47.65.33.12.63.02.94-.21.58.87-2.54,1.64-2.75,1.17-.27-.59.84-.41.62-1.34l-1.39-5.79c-.44,1.58.1,3.04-.16,4.55-.02.12-.38.21-.41.33-.05.2.1.38.17.65-.98.34-2.06-3.88-2.94-4.63Z"/>
        <path class="cls-1" d="M126.47,27.12c2.91,3.58,5.41,7.33,7.51,11.4-.13.45-.51.9-.45,1.36.55.48.72,1.17.54,1.87l-1.97-3.71c-2.7-5.07-5.79-9.75-9.68-14.11.42-.22,1.16-.31,1.47.14.17.25-.22.78.13.88.07.02.18-.06.33-.23.65.54,1.21,1.21,1.7,1.93-.01.11-.06.22-.07.28-.04.18.38.05.5.19Z"/>
        <g>
          <path class="cls-1" d="M6.61,101.01c-.78-.04-4.76,1.34-4.99.45s5.69-2.42,5.64-2.42c.27-.03.36.28.61.42.43.24.54-.49.69-.7.56-.49,1.34-.42,2.01-.71,1.57-.68-.93-4.72-.38-4.09l-.97-1.12c-.07-.08.02-.25,0-.36-.01-.16-.33.08-.4.01l-3.69-3.68c-.76-.76-1.5-1.43-2.35-2.06-.11-1.06-.64.2-2.26-1.97-.64-.86,1.2-1.2.82-2.36-.41.16-.23.55-.49.77-.32-.32-.48-.7-.73-1.07l1.25-1.1c-.56-.02-1.08-.1-1.28-.5-.21-.44-.01-1.04.3-1.34.63-.6,1.53.3,1.63.28.23-.06-.07-1.12.44-1.43.74-.45,1.52.08,1.75.93.31-.07.51-.32.83-.5.52.29.8.8,1.06,1.33.09-.72-.28-1.3-.12-1.94.09-.4.54-.56.8-.77-.27-.23-.4-.42-.44-.63-.06-.27.06-.6.43-.65.52-.07.85.36,1.26.65.24-.32.45-.73.9-.75.2,0,.31.25.36.36.07.17-.11.42-.19.65.28.19.67.28,1.11.52.28-.94.56-1.74,1.11-2.56.14-.21.21-.85,0-.95-.37-.17-1.11.48-1.46.27-.1-.06-.16-.19-.3-.41-.34.82-.82-.08-2.38-.41-.9-.19-1.03.87-1.65.33-.2-.17-.2-.61.15-.67.11-.02.24.21.33.24.31.08-.13-1.21,2.9-.55.27.06,2.17-.61,1.83-1.65s-.06-2.37.94-2.96c.09-.06,3.22-1.22,3.97-.35.49.58.74,1.26,1.51,1.61.41.19.52.75.36,1.14-.47,1.13.52,1.16-.37,2.1.5.13.91-.04,1.21.29s.25.87.53,1.23c.46.57.71,1.22.41,1.93l.55.67c-.76.61-2.47-.3-2.2.83h1.61c.45,0,.73-.21.81-.66.85.8.81,1.45,2.08,2.19.54.31,2.12-.09,2.24-.6.07-.29-.15-.46-.4-.61l1.6-.35c.11-.42.18-1.21.7-1.32.76-.16,1.22.63,1.36,1.25.44,1.83,1.88.57,1.08,1.61l1.18.74c1.73-.23,3.41-.49,5.14-.91.22-.05.22.28.2.38,0-.02-2.87.79-3.36.85-.9.53,1.17-.21,1.6.27.34.38,0,.96.1,1.38,1.81.64-.45,1.98,1.11,2.07.17,0,.78-1.21,1.63-.68.31.19.37.77.08,1.15-.2.26-.03.42.02.67.07.31.33-.02.56.11.88.5,1.6,1.35,1.96,2.2-.14.18-.46.28-.47.44-.04.68.96.62.98,1.55.03,1.49-.72,2.87-1.98,3.62-.07.04-.31-.11-.41-.1-.14.01.07.37-.01.43-1.37.9-2.84,1.47-4.46,1.97l-18.63,5.67c-.32-.25-.21-.63-.41-.92-.52.18-.56.61-.53,1.18-1.02.23-8.98,2.91-9.17,1.63.67-.91,1.82-1.01,2.8-1.53ZM26.92,79.8l-1.1-1.15c.1.5.13.86-.22,1.16.53.11.88.14,1.31-.02ZM25.65,86.76c1.12-.34,1.78-.85,2.43-1.57.97-1.43.98-3.54-.45-4.66-.92-.19-2.1-.01-3.06-.07-.14,1.3.5,2.73-.02,3.6.83.67,1.06,1.61,1.1,2.71ZM17.99,86.46c-.12-.42-.86-.76-1.08-.54-.32.32.09.77.37.76.19,0,.81.17.71-.22ZM31.1,84.43c-.21-.27-.94-.07-1.12.1.28.55,1.21.35,1.12-.1ZM31.57,91.63c1.2-.17,2.43-.85,3.36-1.7,1.76-1.6.13-5.36-1.64-5.67,1,3.13.48,4.52-2.11,6.17-.22.22.08,1.06.4,1.2ZM24.18,89.22c-.56-.44-.88-.65-.8-1.23-.36-.27-.72-.4-1.13-.58-.1.46-.17,1.01.17,1.34.45.43,1.18.7,1.75.46ZM32.36,87.1l-.71.19.3,1.13.71-.19-.3-1.13ZM38.12,89.34c-.24-.95-.45-2.04-1.27-2.96,1.1,3.33-1.01,5.13-3.83,6.4,1.84.32,4.58-1.45,5.1-3.45ZM15.35,91.62c.28-.11.09-.65-.09-.83-.22-.23-.69-.38-.85.03-.2.5.47.85.94.8ZM30.35,89.7c-.17,0-.52,1.02-.49,1.1.08.25.47.16.61.05.25-.21.29-1.16-.12-1.15ZM23.17,94.5l2.41-.7c.07.17.04.31.11.33.11.04.3-.07.32-.14.01-.05-.07-.14-.09-.26.41-.43,2.58-.35,2.16-1.73-.73.16-2.52,1.57-2.79.51-.42.04-.35.6-.6.81-.5.43-1.24.35-1.78.74-.07.07,0,.51.25.44ZM13.01,97.4c.07-.66-.06-1.19-.69-1.55,0,.58.08,1.19.69,1.55ZM18.88,95.67c.4-.12.78-.27.79-.71-1.69.35-3.21.76-4.86,1.01-.3.05-.53.17-.48.42.04.2.05.63.4.53l4.16-1.26ZM30.28,93.89c-2.2.59-4.39,1.22-6.55,2.03.73.2,6.03-1.41,6.55-2.03ZM21.58,96.62c-2.16.38-4.23,1.12-6.24,1.84,2.27-.39,4.17-1.15,6.24-1.84ZM10.6,100.04c.28-.58.3-1.26-.25-1.53-.17.55-.07,1.04.25,1.53Z"/>
          <path class="cls-1" d="M6.23,97.15c.63-.12.96-.6,1.52-.84.27.45.46.87.63,1.44-.83.31-1.64.53-2.53.75-1.21-2.99-2.2-5.91-2.97-8.96.47-.21.66-.43,1-.81,2.06,2.1,1.69,1.27,2.49,4.02.05.18-.29.43-.19.65.09.19.39.2.53.39.5.65.62,1.57,1.02,2.3-.48.47-1.13.38-1.49,1.05ZM5.68,96.14c.39-.46.3-1.27-.33-1.54-.05.55.05.96.33,1.54Z"/>
        </g>
        <g>
          <path class="cls-1" d="M110.73,28.05c.39-.25.34.6.24.83-.37.84-1.5-.08-1.47.67.34.03.56-.12.89.06-.61.57-1.97,2.76-2.53,2.46-.22-.12-.31-.37-.18-.61l.67-1.25c.27-.51-.1-1.07-.65-1.18-.35-.07-.7,0-1.02-.15.06-.5.57-.33.76-.52.4-.4-.11-.96-.31-1.31.35-.88,2.87-2.47,1.99-3.3-.6-.57-1.37-1.15-.8-1.7.18-.17.58-.25.91.04l4.78,4.22s-.1.32-.08.36c.05.13.27-.13.41-.09.41.14.93.99.66,1.48-.61,1.1-1.38,2.01-2.12,3.01-.18.24-.57-.05-.66-.19-.11-.17-.08-.45.06-.69l1.24-2.13c.21-.35-.18-.74-.44-.97l-2.13-1.86c-.16-.14-.63-.34-.81-.13-.7.83-1.65,1.48-2.17,2.46-.06.56,1.1,1.53,1.54,1.26l1.23-.77Z"/>
          <path class="cls-1" d="M106.28,35.56l-1.12-1.06.78-.3c.17-.06-.07-.27-.16-.33-.15-.09-.29.14-.38.23-.54.52-.71-.22-1.02-.43-1.09-.76-2.06-1.49-2.97-2.5-.24-.27-.78-.63-.43-1.08.73-.96,1.93.68,2.13.7,1.08.13,1.35-1.21,2.13-1.65.64,1.53-.69,1.53-.56,2.98.04.38.35.37.68.67.22.2,1.8,2.08,2.63,1.36.53-.46,1.91-1.91,2.54-1.22.59.64-1.58,2.43-2.15,2.96-.68.62-1.47.28-2.11-.32Z"/>
        </g>
        <path class="cls-1" d="M4.08,66.9c-.45,0-.74-.5-.71-.93.21-3.2.64-6.32,1.3-9.46.02-.11.29-.07.32-.12.06-.1-.22-.26-.18-.43.69-3.1,1.55-6.31,2.72-9.2.04-.09.34.19.43.07.08-.1-.23-.29-.23-.36-.02-.7.4-1.83,1.5-1.82-2.45,6.21-4.2,13.03-4.86,19.56-1.67.66.53.06-.28,2.69Z"/>
        <path class="cls-1" d="M51.55,99.99c-.2.24-.36.91-.29,1.19.1.42,1.07.24,1.22.62.07.17-.04.4-.27.46l-2.25.55c-.24.06-.45-.07-.53-.26-.16-.36.82-.79,1.15-.98-.07-2.36-.09-4.67.01-7.04.01-.33.26-.66.48-.74.26-.1.62,0,.77.32l2.85,5.8c.57,1.16,1.34.02,1.65.84.08.22-.12.5-.42.57-1.97.46-2.07.79-2.37,0-.1-.25.26-.31.37-.58.12-.31-.17-1.12-.56-1.16-.59-.06-1.23.14-1.81.43ZM51.53,98.84c.16.3,1.17.04,1.28-.27.29-.5-.96-2.82-1.32-3.38-.45.21-.75.65-.61,1.18.19-.02.2-.19.36-.33.19.85-.18,1.88.28,2.8Z"/>
        <path class="cls-1" d="M102.23,86.19c.68-.43,1.39,3.06,1.08,3.82-.11.28-2.89.85-3.58.95s-1.4.54-2.16.34c-.17-.05-.17-.39-.12-.51.19-.49,1.14-.54,1.54-.86l-1.4-5.59c-.5-.36-1.65.33-1.83-.17-.32-.86,3.79-1.39,4.35-1.43.13-.01.14.33.14.41.05.42-1.31.51-1.71.78l1.02,4.93c.05.26.19.78.53.87.55.14,1.76-.05,2.1-.59.5-.79-.61-2.55.03-2.95Z"/>
        <path class="cls-1" d="M66.94,95.8c-.04-.17-.56-.11-.66-.26-.31-.51.24-.97-.18-.87-.09.02-.15.3-.24.34-1.32.7-1.7.13-2.04,1-.35-1.17-.61-2.31-.84-3.57-.44.04-.87.24-1.23-.04-.21-.16-.08-.44.06-.62.11-.14,2.85-.91,3.48-1.01,1.23-.19,2.45.64,2.55,1.9.06.81-.42,1.46-.99,2.05,1.31.74,1.13,2.14,1.83,2.57.33.2.64-.32,1.02-.19.18.06.32.27.27.5-.12.6-.72.8-1.26.85-.49.05-.96-.31-1.17-.85l.22-.47c-.74-.11-.68-.73-.81-1.33ZM66.82,93.01c.05-.53-.1-1.18-.78-1.38-.55-.16-1.87-.05-2.09.55-.13.38.21,2.48,1.14,2.44-.31.01,1.63-.6,1.73-1.62Z"/>
        <path class="cls-1" d="M2.84,54.08c.43-.43,0-1.28.58-2.37.14,0,.32.03.38.05.13.06.31-.14.19-.32-.11-.17-.29-.24-.35-.4-.07-.19.14-.36.2-.58.16-.62.05-1.36.63-1.77.16-.11.28-.22.36-.36.1-.19-.23-.28-.25-.4-.14-.68.54-.84,1.03-1.04.53-.22.78-.87,1.53-.91-1.62,3.95-2.78,7.88-3.68,12.03-.66-.19-.4-.9-1.14-1.43-.1-.42.17-.92.23-1.36.38.03.7.16.99.06-.34-.23-.67-.13-.83-.34-.14-.18-.05-.67.13-.85Z"/>
        <path class="cls-1" d="M88.77,91.98c.54,1.07,1.2.04,1.58.69.1.17.07.52-.23.6-.84.23-3.01,1.06-2.74.05.05-.18.33-.29.52-.47.25-.24-.06-1.15-.43-1.23-.6-.13-1.41.07-1.9.46-.33.26-.24,1.26.11,1.4.29.11,1,.02.82.52s-1.02.46-1.52.53c-.12-.66-.37-1.19-.37-1.81l-.02-5.15c0-.55.24-1.65.44-1.72.99-.36,1.2,1.1,1.4,1.8.05.18.46.24.34.45-.1.18-.36.51-.56.3-.35-.35-.34-.88-.79-1.16-.21.82.03,1.54-.12,2.33-.06.31-.49.9-.16,1.26s1.34.2,1.68-.15c.47-.48-.96-1.49.13-2.31l1.83,3.61Z"/>
        <path class="cls-1" d="M27.44,103.46c-.05-.33-.14-.64-.19-.97-.15-1.06.46-1.92,1.66-1.98,1.43-.07,2.85,1.52,2.41,2.95h2.19c.06-.19.05-.37-.09-.56-.12-.16-.61-.07-.85-.16-.28-1.58-1.75-3.71-3.55-2.92-.1-.19-.02-.34-.15-.51-.66.32-1.32.24-1.78.73.52.12.89-.28,1.36-.11-.43.69-1.46.45-2.01.88-.76.58-.49,1.76-.28,2.66h1.28Z"/>
        <path class="cls-1" d="M95.78,92.12c-1.19.25-4.46,1.3-4.72.6-.05-.14.06-.58.25-.37.13.14.25.33.36.34.09,0,.29,0,.31-.14.02-.11-.11-.27-.19-.48.32-.33.82-.28,1.23-.61l-1.27-5.55c-.25-1.09-1.51.34-2.31-.24-.31-.23.09-.81.43-.89l3.81-.87c.22-.05.75.02.72.37-.06.79-1.42.68-1.61.99-.37.62.92,4.97,1.24,6.01.83.16,2-.59,2.16.18.04.19-.1.59-.43.66Z"/>
        <path class="cls-1" d="M136.42,47.56c-.54-1.54-1.04-2.92-1.75-4.35l-.62-4.47c1.59,2.9,2.85,5.87,3.95,9.04l-1.58-.22Z"/>
        <path class="cls-1" d="M73.27,79.23c-.29.16-.62.2-.92-.08.54-.4.44-1.01.66-1.47.23-.5.96-.17,1.34-.32l1.9-.77c-.03.24-.2.52,0,.64.14.08.47.2.54-.08.1-.46.27-.82.36-1.36-.33.08-.23.53-.68.37.54-.68,1.31-2.82,2.02-1.93.09-.23.13-.36.19-.44.37-.44,1,.56,1.38,1.06-.98.32-1.68.95-2.25,1.65-.3-.17-.59-.3-.72-.09-.11.18.19.32.31.46-.25.52-.84.9-1.34,1.19-.07-.1.15-.57-.09-.43-.62.36-.16.77-.47.86-.79.23-1.51.35-2.24.75Z"/>
        <path class="cls-1" d="M94.35,5.87l-2.09-.71c.12-.23.41-.22.55-.4-.68-.64-1.37-.14-2.08-.1-.81.05-1.56-.43-2.41-.47-.09-.7,0-1.27.17-1.94l3.89,1.08-.43.61c.48.27,3.6-.2,3.19.73-.14.31-.21.63-.7.52-.11.04-.02.28-.08.67Z"/>
        <path class="cls-1" d="M139.56,55.4c.62.08.75.36.84.79.29,1.42,1.85,9.86,1.18,10.35-.87.65-.56-1.68-.68-2.58-.57-4.34-1.27-8.53-2.57-12.68,1,.15-.24.89,1.4,2.48.33.32.28.92.36,1.34-.25.04-.45-.1-.53.31Z"/>
        <path class="cls-1" d="M60.04,99.22c.49.14,1.91-.41,2.13.14.06.15,0,.57-.24.63l-2.64.64c-.25.06-.5.18-.69,0-.15-.14-.33-.4-.34-.69,0-.23.5-.3.68-.5l-1.01-4.94c-.04-.22.74-.25.81-.05.49,1.59.69,3.19,1.29,4.76Z"/>
        <path class="cls-1" d="M123.12,23.3c-.25.15-.79.43-1.04.26-1.92-1.93-3.75-3.86-5.88-5.57l-.79-1.93c2.73,2.26,5.31,4.73,7.71,7.24Z"/>
        <path class="cls-1" d="M130.05,78.42c-.26-.28-.27-1.01-.14-1.36.92-.09,1.86.03,2.58-.6.25-.22-.39-.61-.46-.83-.1-.32.34-.56.56-.57.3-.01.62.08.82.46.42.81.26,2.18-.62,2.68-.82.46-1.88.37-2.74.22Z"/>
        <path class="cls-1" d="M4.29,77.32c-.53.08-.84-.34-.85-.85-.04-1.1-.22-2.15-.14-3.23.01-.15.26-.34.3-.44.1-.22-.34-.33-.35-.52-.11-1.25-.04-2.46-.02-3.73,0-.52.2-1.09.81-1.21.01,1.4.1,2.77-.09,4.08-.07.45.01.66.04,1.1l.31,4.79Z"/>
        <path class="cls-1" d="M10.49,41.66c-.05.19-1.11,3.43-2,2.41.85-1.66,1.4-3.3,2.33-4.81.79-1.29.6-1.51,1.53-2.81.15-.1.52.24.62.45l-2.07,3.89c-.08.16-.38.18-.49.33-.1.14.12.35.07.55Z"/>
        <path class="cls-1" d="M58.85,93.22c-.17.25-.09.59-.28.68-1.18.56-.66-.78-1.6-.39-.44.18-1.13.48-1.58.11-.27-.22.19-.85.54-.91,1.19-.22,2.28-.61,3.49-.75.29-.03.64.37.92.04.22,1.09-1.25.84-1.51,1.22Z"/>
        <g>
          <path class="cls-1" d="M51.35,65.03l-.96.43c-.28.13-.34.59-.65.72-.29.12-.94-.07-.74-.45.27-.53,1.22-.61,1.27-1.37-.69.17-1.62.6-1.96-.08.09-.48.93-.39,1.41-.56l-.87-.4.42-.58c.36.73,3.5.79,4.17.69.46-.06,1.08.28,1.07.82-.64.4-1.49.55-2.09,1.06-.19.39-.12.85-.43,1.27-1.12-.26.45-2.03-.63-1.54Z"/>
          <path class="cls-1" d="M61.08,58.2c.55.14.96-.17,1.46.02-.27.74-1.25.73-1.93.51l-1.34-.42c.36-.7.51-2.2.83-2.41.12-.08.45-.16.55-.02.3.44-.09.87-.16,1.44.53-.31.97-.58,1.37-.07-.23.39-.67.47-.78.94Z"/>
          <path class="cls-1" d="M43.1,86.53l-1.42.28-.58-1.47c.34-.18.72.1,1.08-.05l1.85-.74.13.67c.03.14.16.08.48.23-.52.37-.88.95-1.54,1.08Z"/>
        </g>
        <g>
          <path class="cls-1" d="M52.75,21.81c-.63-.14-.99-2.03-1.46-2.24-.61-.28-3.41.93-3.58,1.46-.06.93.69,1.88,1.03,2.72.16.39.35.99.79,1.01.49.03.96-.39,1.48-.17.29.12.5.32.53.6.06.68-1.82,1-3.43,1.94-.4.23-.96.08-1.15-.28-.41-.78.81-1.29.89-1.54.2-.64-.67-1.49.23-1.77.03-.06-.18-.25-.26-.23-.09.02-.12.22-.27.4-.42-.88-.97-1.79-1.2-2.84-.03-.14.15-.37.03-.52-.06-.07-.19-.02-.36-.06l-1.66-3.4c-.59.21-1.45.65-1.72.2-.67-1.09,2.15-1.68,2.74-1.89.25-.09.36-.58.74-.56.45.02.96.32.68.81-.24.44-.93.47-1.25.86-.22-.02,1.33,3.65,1.49,3.21.45.36,4.4-1.69,3.68-1.62.09,0,.16.2.25.17.16-.06.16-.3.12-.37s-.41,0-.46-.08c-.48-.76-.72-1.59-1.14-2.49.36-.15.65-.06,1.13-.17l3.25,7.18c.57,1.25,1.69-.35,2.07.72.12.34,0,.69-.4.87-1.09.48-3.08,1.7-3.53.85-.33-.61.83-1.19.86-1.24.27-.35-.43-1.14-.1-1.53Z"/>
          <path class="cls-1" d="M50.41,14.68c-1.54-.45-2.03.65-2.7.1-.98-.81,2.88-2.1,3.68-1.78.86.35-1.43,1.17-.98,1.68Z"/>
        </g>
        <path class="cls-1" d="M41.73,77.47c-1.26.52-2.47.72-3.73,1.09-.23.07-.36-.06-.38-.21-.01-.13.05-.32.26-.37,1.91-.49,3.75-.99,5.65-1.6.16-.05.27.01.29.07.29.74-1.41.73-2.1,1.02Z"/>
        <path class="cls-1" d="M87.15,4.74c-2.52-.5-4.97-.98-7.45-1.29.02-.22.02-.31.07-.39.18-.37,6.1,1.01,6.89,1.21.23.06.47.19.49.47Z"/>
        <g>
          <path class="cls-1" d="M39.38,32.81c-.3.22-.67.07-.81-.08-.7-.77,1.21-1.73,1.48-2.27.05-1.03-.89-1.64-1.25-2.46-.13-.3.45-1.06-.26-1.22-.1-.02-.2-.18-.32-.18-.1,0-.16.14-.27.32l-2.91-3.65c-.26-.33-.81,0-1.02.18-.7.6-.2,1.45.33,2.26-.33.09-.93.3-1.29.04-.5-.35-.84-1.05-1.06-1.62-.11-.28.28-.62.47-.77l3.49-2.8c.22-.18,1.2-1.51,2.13-.64.09.09-.05,1.44.25.85l.2-.4,2.57,2.64c.23.24.24.7.02.89-.16.14-.59.23-.87.04-1.71-1.1-2.38-3.14-3.57-2.55-.35.17-.94.79-.58,1.27l4.52,5.91c.23.31.58.83.94.64l1.18-.62c.04.26,0,.55.32.63-.09-.57-.06-.99.44-1.12.39-.1.86,0,.99.47.1.37-.2.78-.63.95-.82.31-1.33.89-1.94,1.47-.75.72-1.67,1.17-2.55,1.82ZM40.98,31.22c.17-.68.23-1.26-.17-1.77-.28.66-.26,1.29.17,1.77Z"/>
          <path class="cls-1" d="M34.61,26.25c.24.21,1.39,1.68.84,2.15-.86.75-1.32-1.2-2.08-2.03.29-.21.94-.39,1.24-.13Z"/>
        </g>
        <path class="cls-1" d="M13.86,35.52c-.33.01-.52-.18-.75-.4.57-1.05,1.19-1.97,1.86-2.93.27.27.49.71.31,1.01l-1.42,2.32Z"/>
        <path class="cls-1" d="M105.22,97.05c-.18.24-3.65,5.07-3.89,3.87.87-.92,1.65-1.89,2.5-2.89.14-.16.57-.12.58-.36s.02-.41.1-.53c.16-.22.57-.34.7-.08Z"/>
        <g>
          <path class="cls-1" d="M31.99,40.85c-.3-.99-1.07-.66-1.45-.87-1.16-.66-2-1.74-3.06-2.55.52-.22.86.26,1.11-.23-.51-.23-.98,0-1.62-.16.25-.42.63-.7.84-1.21-.45.13-.57.48-.91.83-.54-.57-.09-.88-.84-1.15-.17-.06-.37.14-.58.25l-1.49-1.23c-.24.3-.35.56-.62.77-.15.12-.3-.01-.41-.11-.08-.07.07-.2-.07-.5-.26.2-.23.49-.5.8-.57-.57-.14-.97.17-1.39,1.71-2.33,3.4-5.58,6.44-4.16,1.36.63,1.88,2.27,1.47,3.87.79.01,1.5.02,2.13.49.56.41,1.24.64,1.87.95.87.43.77-.89,1.37-.67-.02-.19-.1-.28-.05-.36.1-.16.4-.15.54-.06.68.44.46,1.22.11,1.79-1.45,2.39-3.29-.23-5.31-.67-.5-.11-1.23-.15-1.57.12-.31.25-1.01.93-.72,1.39.58.92,1.64,1.46,2.4,2.21.61.6,1.27-.84,1.79-.68.3.09.52.47.38.79-.31.71-.79,1.1-1.46,1.75ZM27.78,35.32c1.32-1.09,2.06-2.89.85-3.91-.54-.45-1.41-.78-2.08-.33s-1.86,1.66-1.68,2.52c-.04-.19,2.24,2.27,2.9,1.72Z"/>
          <path class="cls-1" d="M31,42.06c-.29.32-.67.32-.93.04-.51-.54.43-1.08.54-1.87.53.21.85.49,1.12.93-.2.3-.43.57-.73.9Z"/>
        </g>
        <path class="cls-1" d="M113.03,62.34c.44.22-.04.69-.19.89-.2.26-.66.4-.95.07-.37-.41-.39-1.05-.46-1.71.51.34,1,.46,1.61.76Z"/>
        <path class="cls-1" d="M65.16,98.11c-.32.01-.59.04-.9.14l-.4-2.12c.27-.07.36.04.47.03.18-.02.15-.21.27-.45.18.3.18.66-.06.96.42.36.52.77.63,1.44Z"/>
        <path class="cls-1" d="M66.37,98.51c.5.52-2.45.86-2.83.92-.2.03-.32-.16-.36-.25-.24-.53,2.79-.6,3.19-.67Z"/>
        <path class="cls-1" d="M37.48,95.52c-.49.12-.83,0-1.28-.02-.32-.16-.53-.41-.57-.76.28-.16.67-.52,1-.36.39.19.49.69.85,1.13Z"/>
        <path class="cls-1" d="M99.05,9.11c-1.47-.42-2.93-1.1-4.45-1.78,1.56.3,2.98.87,4.45,1.78Z"/>
        <g>
          <path class="cls-1" d="M119.07,44.47c-.62-.04-2.33-.29-2.52-.77-.04-.12.04-.33.24-.38.44-.13.66.57,1.13.48,1.43-.29-.91-.99-.28-1.69.51-.57,1.37,1.14,2.74,1.47-.05.61-.69.01-1.31.9Z"/>
          <path class="cls-1" d="M108.57,73.19c-.05.6-.42,1.06-1.07.96l.27-1.61c.05-.3.17-.54.49-.74.36.41.35.88.31,1.39Z"/>
          <path class="cls-1" d="M110.36,42.84c-.04.22-1.23.42-1.25.01-.03-.55.86-1.03,1.22-.72.2.17.06.57.03.7Z"/>
        </g>
        <path class="cls-1" d="M35.66,79.07c-.23-.11-.29-.26-.28-.46.59-.16,1.09-.35,1.75-.42.19-.02.25.41.07.5-.49.24-.94.29-1.53.38Z"/>
        <path class="cls-1" d="M57.65,99.96s.49,1.08.4.7c.05.23-.21.35-.5.31s-.5-.08-.52-.35c-.03-.41.35-.66.62-.66Z"/>
        <g>
          <path class="cls-1" d="M90.48,34.31c-.61-.17-1.14-.45-1.74-.74-8.73-4.21-18.47-5.15-27.88-2.89-.35.08-.53.12-.9.23-6.14,1.78-11.72,4.71-16.52,8.94-.44.39-.77.85-1.26,1.13-.1.06-.26-.25-.32-.2-.1.08,0,.41-.03.48-.31.63-.97,1.01-1.39,1.56-.33-.01-.53-.13-.87-.04.02.31.17.41.28.68-3.08,3.51-5.6,7.39-7.22,11.74-.45-.14-.54-.03-.18.28-.16.69-.48,1.5-.77,2.2-.26.06-.53-.31-.43-.57-.12-.07-.22-.06-.32.02.1.38.56.8.55,1.24-.53,1.92-.99,3.79-1.31,5.76-.09.57.09,1.1.04,1.66-.18,2.18-.47,4.28-.45,6.46,0,.19-.37.38-.3.55.21.57.46,1.1.33,1.79l-.32-.82c-.19.38.94,3.01.55,3.41-.61.63-1.47-1.47-1.37-.8-.71-5.02-.46-10.13.73-15.02.18-.73.43-1.26.53-1.99.12-.89.56-1.73.8-2.6.08-.29.57.03.65-.1.16-.27-.23-.52-.32-.71.66-1.95,1.64-3.77,2.6-5.63,7.49-14.44,22.98-23.31,39.25-22.79.42.01.66.15.77.4.1-.12.37-.51.63-.35.46.29.9.12,1.39.14,1.43.07,2.83.31,4.21.64.14.03.18.43.28.48.15.08.43-.36.57-.33,13.97,3.11,25.52,13.28,30.47,26.73-.03.24-.86.43-.96.17-2.06-5.38-5.16-10.18-9.13-14.29.23-.21.58-.46.39-.61-.28-.23-.56.17-.68.37-1.7-1.86-3.65-3.24-5.54-4.78-1.18-.96-8.06-4.84-9.88-4.96,5.09,2.02,9.76,4.75,13.75,8.49,0,.15-.03.31.03.36.08.06.27.08.38.12.65.26.92.84,1.4,1.33,3.94,4,6.99,8.72,9.01,14.02.08.2-.58.35-.69.1-1.19-2.73-2.66-5.2-4.37-7.63-.1-.14-.34-2.79-.69-1.08-.68-.41-.95-1.25-1.51-1.82l-2.87-2.93c-4.17-4.26-8.3-5.96-9.58-7.11-1.86-1.68,4.38,2.17,4.17,2.03l2.86,2.02c-.88-1.14-2.24-1.65-3.32-2.58-.33-.28-.37-.42-.78-.55-.73-.24-1.38-.84-2.11-1.18-.09-.04-.11-.38-.17-.47-.1-.14-.28.06-.46.01Z"/>
          <g>
            <path class="cls-1" d="M76.56,42.48c.08-.17.31-.07.35-.12.06-.06.15-.19.02-.3-.06-.05-.18.03-.31-.02-.15-.06-.07-.35.01-.46.15-.22.59-.16.68.15.21.65.8,2.71-.1,3.02-.57.2-3.22.68-3.15.73-.11-.07-.04-.27-.23-.42-.1.96-2.06.92-2.23.8-.89-.62,1.49-1.15,1.54-1.32-.86-1.79-.93-3.99-1.61-5.89-.49-.19-1.43.42-1.66-.1-.1-.23.02-.56.34-.64l4.8-1.2c.52-.13.98.25,1.1.72.18.7.54,1.29.67,2,.05.27-.53.36-.67.1-.33-.65-.51-1.28-.95-1.85-1.01.06-1.89.28-2.86.68.14.74.07,1.67.54,2.3.33.45,1.39,0,1.43-.54.02-.27-.26-.64,0-.84.7.18.91,1.13.61,1.72.53.42.8,1.15.35,1.69-.55-.16-.57-1.29-1.14-1.32-.27-.01-.7.12-.78.53-.13.69-.02,1.9.64,2.39.62.21,1.81-.13,2.38-.47.45-.27.05-.94.23-1.34Z"/>
            <path class="cls-1" d="M70.33,44.52c.01,2.28-2.46,2.36-4.74,3.01-.24.07-.6-.12-.7-.24-.17-.21.07-.56.35-.65l1.14-.38-1.42-6.16c-.62-.18-1.69.56-1.83-.05s.94-.47,2.52-1.12c1.43-.59,3.41,0,3.86,1.39.14.42-.41,1.28.41,1.44-.13-.48.15-.58.13-.2.56,1.04.28,2,.29,2.96ZM69.28,41.52c-.17-.84-.29-1.17-1.01-1.66-.86-.58-1.94-.62-2.55.28l1.14,4.79c.15.62.22,1.12.91,1.34,1.95-1.46,1.97-2.53,1.51-4.77Z"/>
            <path class="cls-1" d="M78.41,41.17c1.04.21,1.49,1.53,2.23,1.67.97.19,1.72-.85,1.85-1.73.06-.41.15-.95.6-1.06.64-.16,1.14,1.69-.53,3.44-.23.24-.9.39-1.23.49-1.57-.27-2.71-1.5-3.08-2.96-.44-1.71-.94-5.01,1.47-5.54.49-.11,1.07.15,1.55-.04.22-.09.42-.39.66-.31.18.05.35.38.33.63-.14,1.63.78,2.16.7,2.51-.27,1.15-1.62-1.49-1.62-1.48-.23-.3-1.07-.59-1.43-.42-1.35.65-1.62,2.29-1.15,3.61.17.49.21.87-.35,1.19Z"/>
          </g>
          <path class="cls-1" d="M87.61,33.95c-4.8-1.91-9.69-3.07-14.82-3.27-.21,0-.12-.33-.11-.49,5.23.12,10.4,1.3,15.28,3.37.1.11.09.15.07.2-.03.08-.16.29-.42.19Z"/>
          <path class="cls-1" d="M44.3,75.01c-1.58.74-13.9,3.79-14.51,3.44-.09-.05-.13-.31.1-.35,4.76-.8,9.35-1.95,13.93-3.39.23-.07.39-.03.48.3Z"/>
          <g>
            <path class="cls-1" d="M52.4,51.78c-.36-.1-.16-.71-.01-.86.47-.47,1.08.02,2.97-2.65.18-.25.59-.2.73-.63-1.01.13-.35-2.07-2.05-2.22s-1.95,1.38-2.21,1.49c-.71.28-1.03-1.5-.97-2.07.02-.21.39-.16.53-.13.23.06.33.34.48.65.53-.5,1.09-.83,1.86-.81.22.1-.78.61-.77.3.58.67,1.65,0,2.32.21,1.39.69,1.46,2.78.67,4.04s-2.03,2.32-3.55,2.69Z"/>
            <path class="cls-1" d="M45.74,50.35c-.32,1.57,4.39-.95,4.37.3,0,.22-.12.47-.41.54l-3.56.88c-.32.08-.7.17-.99.02-.22-.11-.41-.49-.48-.85-.24-1.16.57-1.93,1.26-2.66l1.25-1.33c.33-.35.66-.29,1.1.06-.65,1.24-2.31,1.92-2.54,3.04Z"/>
            <path class="cls-1" d="M48.89,46.06c.01.41-.35.65-.57.71-.2.06-.54,0-.63-.23.22-.61.16-1.37-.3-1.79-.53-.48-1.2-.54-1.87-.25-1.37.59-.34,2.12-1.08,2.32-.31.08-.58-.07-.63-.47-.2-1.59,1.19-3.16,2.86-2.82.31.06.85.21,1.13.37.69.38,1.07,1.41,1.09,2.17Z"/>
            <path class="cls-1" d="M51.5,43.17c-.3.17.1.87-.01,1.14-.14.2-.55.06-.69-.03-.37-.23-.53-1.32-.43-1.57.07-.17.32-.31.59-.38l3.24-.82c.18-.04.42.12.54.2.13.09.04.3,0,.41-.08.21-.3.35-.57.26-1.36-.46-.06,0-2.65.79Z"/>
          </g>
          <path class="cls-1" d="M58.25,69.38c-1.19.6-7.68,3.63-8.4,3.54-.1-.01-.18-.09-.12-.29,2.97-1.11,5.75-2.36,8.63-3.8.24.08.1.44-.12.55Z"/>
          <path class="cls-1" d="M69.9,30.51c-1.08-.15-2.1.2-3.1.36l-4.31.39c3.12-.86,6.35-1.14,9.63-1.09-.24,0,1.36.81-2.21.33Z"/>
          <path class="cls-1" d="M45.56,74.61c-.24-.23-.01-.43.18-.54l3.57-1.19c.08-.03.27.17.23.2s-.11.14-.21.18l-3.78,1.36Z"/>
          <rect class="cls-1" x="88.7" y="33.58" width=".52" height="1.42" transform="translate(20.78 100.94) rotate(-65.43)"/>
        </g>
        <g>
          <path class="cls-1" d="M22.55,63.29c-.18.28-.57.07-.73-.04-.67-.49.53-1.58-.75-1.89l-6.5-1.61c-.76-.19-1.67-.35-2.29.09,0,.25.11.63-.06.81-.13.14-.45.4-.65.15,0-.32.46-.66.18-.95l-.52.18c.14-1,.26-2.61,1.46-2.78,1.87-.27,3.67-.54,5.52-.61.1.29.16.44.28.51.21.14.59.09.71-.14.58-1.16,1.79-.25,2.6-1.03-.35-.51-1.8-.38-1.62-.79.05-.12.16-.31.36-.27s.33.15.49.15c.17,0,.31-.23.46-.4.84.21,2.01.29,2.78.82.5.35.14.97-.11,1.24-.34.37-.98.29-1.36.29-.31,0-.73.3-1.21.35l-8.13.81c1.07.75,3.41.82,4.55,1.37-.02.17-.15.34-.12.43.1.28.78.4,1.03.43.27.04.32-.5.53-.53.53-.07,1.11.19,1.62.3,1.59.34,1.09-1.42,2.13-1.21.29.06.55.45.19.72-.19.14-.35.26-.45.47-.12.23.29.29.3.54-1.06.1.53.57-.72,2.58Z"/>
          <path class="cls-1" d="M19.1,54.09c.21-.13.45.28.45.45s.01.7-.27.64l-5.36-1.12c-.36.16-.44,1.36-1,1.32-.29-.02-.59-.29-.51-.64.19-.82.71-3.66,1.3-3.6.9.09.19,1.32.59,1.68l3.75,1.07c.38.11.47.55,1.05.18Z"/>
        </g>
      </g>
    </g>
  </g>
</svg>