<?xml version="1.0" encoding="UTF-8"?>
<svg id="Capa_2" data-name="Capa 2" xmlns="http://www.w3.org/2000/svg" viewBox="0 0 120.37 138.55">
  <defs>
    <style>
      .cls-1 {
        fill: #af7469;
      }

      .cls-2 {
        fill: #cb423a;
      }

      .cls-3 {
        fill: #f6e8d7;
      }

      .cls-4 {
        fill: #35301f;
        opacity: .2;
      }

      .cls-5 {
        fill: #fefefe;
      }

      .cls-6 {
        fill: #f6eedd;
      }

      .cls-7 {
        fill: #1c1914;
      }
    </style>
  </defs>
  <g id="Capa_1-2" data-name="Capa 1">
    <g>
      <path class="cls-4" d="M120.35,42.02c0-.11.01-.22.02-.33l-7.89-17.43c-2.04-4.51-7.35-6.51-11.85-4.47L5.27,62.95c-4.51,2.04-6.51,7.35-4.47,11.85l26.47,58.48c2.04,4.51,7.35,6.51,11.85,4.47l81.23-36.77v-58.97Z"/>
      <g>
        <path class="cls-5" d="M119.99,26.7c0-.46.06-.89.15-1.29l-9.02-19.02c-2.42-5.12-8.54-7.3-13.65-4.87L10.03,42.96c-5.12,2.42-7.3,8.54-4.87,13.65l27.74,58.52c2.42,5.11,8.54,7.3,13.65,4.87l73.44-34.81V26.7Z"/>
        <g>
          <path class="cls-6" d="M119.99,42.24c-.21-.12-.35-.3-.28-.63.02-.13.14-.22.28-.28v-2.97c-1.47.5-.94,1.15-1.85.67.13-.91.68-1.63.72-2.41,0-.06-.02-.12-.02-.18-.41-.03-.65-.39-.76-.8l-.64-2.37c-.18-.69-.7-1.1-.41-1.8-1.36.01-1.22-2-2.11-2.85-.7-.05-1.01-.55-1.23-1-.36-.74.02-1.35.21-1.83-.36-.62-1.08-1.26-1.05-2.08-.21-.06-.26-.49-.39-.63-.65-.04-.86-.74-.73-1.52.06-.39.94-.23,1.29-.22.22,0,.52-.01.76-.02.28-.01.85-.17.88.24l.48-.02c.03-.37.61-.47.74-.82.2-.55-.49-.7-.71-.99h-.51c.2.28-1.39.7-1.53.55-.12-.13-.04-.39-.09-.51h-.57c-.21.2-.42.51-.65.54-.43.06-.47-.49-.64-.65-.25-.23-.52-.38-.71-.82l-1.42-3.19c1.69,0,3.09.37,4.54.61l.03-.31c.04-.41-.05-.84-.23-1.28-.46-1.14-4.07-.34-4.99-1.06-.94-.66-1.04-2.21-1.76-3.29,1.49-.5,2.81-.1,4.39-.02-1.21-2.37.17-3.16-1.44-3.29.15.26.22.58.21,1.03l-4.54-.16c-.45-1.26-.85-2.35-1.51-3.31-.39.28-.19,1.03-.7,1.23-.29.11-1.02.26-1.07-.13-.16-1.16.2-2.19.72-3.19.75.51.64,1.29,1.04,1.86-.27-1.22,3.73.06,4.53.18.45.59.59,1.22,1.04,1.67.2-3.56-.59-.99-2.03-4-2.17-.85-3.88.28-5.37-1.35-.68,0-1.29.46-1.67.84.05,1.84.04,3.64-.44,5.56-1.78.18-4.88,3.05-4.46,1.06l1.05-5c-1.14.16-1.98,1.16-3.25,1.54.31,1.66.33,3.16-.08,4.62-.32,1.1-1.35,1.02-2.06,1.44-.72.43-1.37,1.38-2.42.88.09-1.75.79-3.21.54-4.94-2.32,1.34-3.18.02-3.65,1.47,1.51-1.18.67,5.12.35,5.31-1.2,1.05-3,1.49-4.56,2.22.14-2.2.58-4.09,1.35-5.91.82-.52,1.81-.71,2.35-1.37-1.61.08-3.11.86-4.16,2.24-2.72.15-1.41,3.29-2.07,5.88-.09.36-3.76,2.52-4.58,2.19.38-1.25.25-2.56.74-3.69.14-.33.74-.53.52-.94-.62-1.17-2.6.5-3.18.43,0,.07-.02.15,0,.22.23,1.63.18,3.67-.21,5.3-1.32,1.07-3.21,1.54-4.59,2.33-.13-2.03.65-3.68.9-5.49-.22-.08-.31-.31-.28-.53-.18.02-.37-.03-.55,0,.02.19.04.39-.04.61-.07.21-.32.13-.49.2-2.82,1.08-.78,3.75-1.98,5.89-.46.83-3.29,1.99-3.47,2.04-1.84.47-.1-3.51-.11-4.84-1-.52-1.82.59-2.67.78-6.48,1.44-2.68,1.93-7.39,3.53-.79,1.6-.09,3.6-.66,5.27-.48,1.41-3.2,1.91-4.37,1.52l.67-3.71c.32-1.78-1.38.15-1.87-1.21-.18.49-.4.73-.8.89-.04.28.13.5.14.73.02,1.5-.05,3.06-.11,4.63-.03.81-.44,1.05-1.09,1.27-1.3.44-2.45,1.15-3.66,1.67-.63-.66,1.01-5.38,1.21-6.18-1.05.38-1.97,1.1-3.06,1.68-.44,1.77-.49,3.53-.42,5.43-.58.68-1.58.33-2.22.99-.41.42-1.89,1.01-2.09.15-.31-1.34.41-2.86.3-4.37-1.04.28-1.97.75-2.68,1.36-.13.88.04,1.8-.07,2.77l-.3,2.59c-1.53.79-2.93,1.59-4.7,2.27-.1-1.06.65-6.14,1.71-6.29.27-.82-3.27,1.82-3.87,2.02-.23,1.71-.02,3.51-.51,5.27-.34.77-2.55,1.17-3.96,1.97-.33-1.58-.3-3.19.43-4.97-1.12-.27-2.06.37-2.77,1,0,1.81.08,3.53-.35,5.57l-4.64,2.08c-.02-2.09.55-3.91,1.1-5.83.73-.29,1.24-.79,1.85-1.03-.55-.25-1.4-.39-1.8.28-1.36,2.24-3.01.98-2.96,2.86.04,1.45-.09,2.82-.62,4.25-.46.45-6.35-.86-5.32.67.32.48.77.83,1.1,1.24,1.87.06,3.79.56,5.65,1.16.51,1.05.83,1.92,1.27,3.14-1.73-.03-3.46.2-5.13-.34-.41-.17-.42-1.21-.9-1.36-.31.56.23,1.09.05,1.84,1.03.03,1.46,1.05,1.93,1.68,1.61.28,3.59.24,5.24.83.19.39,1.94,3.24.98,3.27l-4.31.16c.21.89.58,1.43.8,2.02-.64-1.25,5.17.38,5.58.73.51.97.76,1.88,1.15,2.96-1.54.68-2.95-.29-4.85-.03.25.42.22,1.29.89,1.54,1.54.58,3.42.33,4.88,1.17.98.57,1.2,2.12,1.39,3.09-1.65.32-2.93-.09-4.61-.25.12.92.51,1.61.96,2.18,1.77.15,3.72.28,5.39,1.11.55.85.96,2.1,1.35,3.07-1.75.43-3.31-.19-4.91,0,.21.66.52,1.31.92,2.02,1.9-.1,3.67.1,5.32.93.41.95,1.45,2.19.61,3.05-.74.76-3.33-.62-4.07.05.03-.03.37,2.45.88,2.23-.45-1.15,4.29-.02,5.21.64.85.61,1.02,2.01,1.43,2.94-1.67.18-3.09.05-4.67-.09-.21-.15-.47-.49-.61-.64-.97.98,1.59,2.44,1.93,2.51,1.39.3,3.16.06,4.32.94.85.64,1.02,1.99,1.54,2.91-1.65.23-2.83-.03-4.46.02.18.76.37,1.57.89,2.09,1.11-.06,2.14.12,3.3.48,1.67.51,1.69-.58,3.19,3.74-1.79.04-3.2-.14-4.62.05.3,3.98,5.86-.53,7.15,5.7l-4.26.21c.29.54.11,1.09-.04,1.6.6.94.59,2.16,1.34,2.26-.24-.61-.17-1.39-.72-2.1,1.9.05,3.76.25,5.34,1.13l1.21,2.88c-1.45.3-2.74,0-4.17.07-.5.03-.75-.5-1.03-.73-.03,1.49,1.5,2.49,2.94,2.53,1.05.03,2,.65,3.04.35.51-.14-.07-.72-.16-1.03.56-.61,1.78-1.34,2.69-1.15.84.17-.09,2.84.18,4.1.99-.15,3.75.04,3.35-1.28-.5.02-.77.36-1.33.23.25-1.93.66-3.62,1.29-5.32l3.72-1.82c.02,1.75.15,3.33-.36,4.94-.4.35-.87.54-1.18.91.24.78,1.33-.65,2.06-.02-.01-2.1,1-.84,1.32-2.97.7-4.66.34-3.82,4.4-5.92.58,1.58,0,2.86.28,4.4,2.83-1.15,4.93-.38,6.79-3.17-1.45.73-2.84,1.45-4.46,2.14.21-1.86.29-3.85,1.33-5.33.84-.96,2.44-1.33,3.75-2.01.08,1.89-.3,3.5-.4,5.18.45,0,.63-.39,1.2-.81.06.55.8,1.08,1.16.75,0-1.8.2-3.52.74-5.27.26-.82.24-1.45,1.18-1.81,1.03-.39,1.92-1.24,3.14-1.31l-.47,4.39c.98.45,1.53-.46,2.11-.72.24-1.79.46-3.79,1.43-5.44.95-.82,2.42-1.4,3.53-1.89.06,1.79.2,4.69-.74,5.46.39-.17.92.38,1.38-.57.24-.51,1.35-.77,1.43-1.64.12-1.37-.12-3.06.79-4.35.72-1.03,2.34-1.53,3.65-2.13.75.81-.6,4.55.16,4.73.88-.18,1.56-.76,2.23-1.12.05-1.87.55-3.67,1.18-5.56l3.74-1.75c.54.96.02,1.87-.05,2.92-.05.73.29,1.91-.4,2.33,1.08.75,1.06-.57,2.7-1.66.59-4.69-.07-5.18,4.46-6.93,1.11,3.88-.92,3.35-.53,4.24.15.34.72.87,1.26.56.64-.37,1.13-.97,1.84-1.19l-.37-.08c.16-1.85.65-3.72,1.29-5.45-.15-.6.51-.75.88-1.13.97-1.02,2.27-1.34,3.5-.42-.98,1.3-.15,2.58-.79,2.58,0,.24.09.62.01.84.2.23.19.52.58.83.11-.75.73-1.06,1.06-1.67.23-.42.15-1.06.65-1.11-.01-.25,0-.51.05-.76-.28-.1-.63-.27-.73-.49-.29-.71,1.84-2.31,1.23-1.96,1.18-.68,2.43-1.31,3.77-1.83.34.23.17.82.19,1.07l.06.82c.32-.06.37.36.02.31,0,.07-.01.15,0,.22.11.62.15,1.18.65,1.58,2.02-2.99-.2-4.05,2.04-4.16.06-.5.41-1.02.53-1.61l3.43-1.84c-.04-.2-.11-.81.17-.85.67.08,1.18.25,1.71.14v-33.16ZM54.61,23.23l3.73-1.82c.03,1.79.38,3.61-.32,5.31-.33.8-3.36,1.8-4.64,2.25.2-2.08.59-3.91,1.22-5.74ZM62.17,79.31c-.31.14-.82.04-1.07-.35-2.53-3.96-4.44-8.19-6.5-12.44-1.03-2.11.72-.94-1.93-4.14l-4.85,3.22c-.13.08-.39.14-.51.11-.94-.28,3.83-3.14,4.08-3.3.57-.35.85-.72.65-1.52l1.4.16,8.23-4.85c.16-.1.3.12.34.21.04.1-.07.25-.27.35-2.81,1.52-5.36,3.2-8.18,5.02,3.4,5.2,7.19,10.74,8.94,16.55.12.44-.01.84-.31.98ZM63.39,68.91c-.1.79-1.02,1.65-1.88,1.37-1.39-.45-1.58-2.15-.88-3.21.08-.12-.04-.42.17-.47.21-.05.4-.04.59-.02.5-.25.95-.39,1.39-.27.25.07.38.63.74.79,1.06.47,1.72-.59,2.45-1.32.61,2.03-2.36,1.33-2.58,3.12ZM92.88,54.29c-.79.8-1.01,1.87-2.13,2.43-.57.28-.83.94-1.46.99-.71.06-1.42-.39-2.01-.69-.92.46-1.72,1.86-2.85,1.56l-1.95-.53c-.34.76-.32,1.39-.74,2.13-.84-.47-1.33.02-1.93.27-.94.39-1.59.66-1.92,1.71-.23.74-1.03,1.07-1.74.76-.36-.16-.48.17-.56.34-.46.97,1.23.51,2.81,1.65.74.54,1.08,1.57.26,2.33-1.3,1.21-3.95,2.17-5.1,1.02-1.06-1.05.25-2.82.37-3.89-1.86-.37-3.59-.4-5.31-.89-2.19-.63-3.51-2.52-3.01-4.86.79-3.69,3.47-6.96,7.02-8.28,2.88-1.07,5.49.85,5.01,1.55-.7,1.03-2.35-2.91-6.12-.46-2.48,1.61-4.24,4.18-4.98,7.06-.47,1.84.47,3.55,2.31,4.13,1.71.53,3.71.88,5.5.86,1.93-1.13,1.9-4.98,3.59-4.39-.14.39-.26.44-.34.55-.81,1.16,2.46.03,2.32.12.35-.23.28-.87.51-1.27.15-.17.8.18.98-.1.33-.5.53-.96,1.03-1.12.56-.18,1.08-.04,1.73.41.7.49,2.62-.51,2.33-1.38-.56-1.66-1.78-3-2.23-4.77l-2.23.42c.37-.81,1.27-.64,1.75-1.32-.05-.82-1.16-2.61-.93-3.08.75-1.54,1.62,2.45,2.08,2.62,1.22-.23,1.99-1.16,3.33-1.19-.82,1.09-2.07,1.04-3.11,1.92.52,1.5,2.63,6.52,4.44,5.85,1.38-.52-.09-3.29,2.05-4.44.14-.08.37,0,.49.05.09.04.07.1-.08.31-.2.17-.28.34-.27.49.04.53.57.12.81.13,1.07.01,1.76-.16,2.46-1.19.35,1.71-1.45,1.47-2.15,2.17ZM107.53,25.23c.34.55-.26.68-.49,1.03-.56.83-.15-.03-2.28,1.36-.16.1-.38-.12-.61-.29-.19.48-.29.77-.59.98-.23.16-.69-.13-.96.04-.23.14-.22.57-.36.82-.13.25-.48.2-.77.22-.17.17-.14.81-.58.78-.4-.03-.75-.02-.99.08-.45.17-.31.9-.46,1.21-.54.12-1.28-.36-1.82-.16-1.28.48-.49-.37-2.3-.04-.54-.74-.5-1.89-1.09-2.56-.49-.56-.35-.9-.34-1.61,0-.28-.84-.48-.88-.75-.07-.46,0-.97.49-1.1,0-.09-.04-.17-.05-.26-.22-.11-.78-.01-.87-.43-.05-.24.24-.57.21-.78-.12-.92-1.17-.78-1.42-1.6-.07-.24.29-.82.12-1-.33-.34-.93-.28-1.14-.61-.28-.45.31-.79.33-1.24.02-.37-.69-.48-.82-.75-.18-.39-.05-.96.05-1.34.49-1.95,3-2.19,3.07-2.24.4-.33,3.5-2.24,4.13-2.31.64-.07,1.08-1.51,1.86-1.32.59.14,1.29-.26,1.74-.31,1.47.32,2.33,2.43,2.21,3.76.3.3.68.54.93.98.16.28-.25.73-.2,1.08,1.1,1.12,1.85,2.54,2.21,3.93.66-.03.67.69,1.01,1.19.49.7,1.34,1.37.67,2.18.23.29-.16.88,0,1.13Z"/>
          <path class="cls-6" d="M119.99,77.99v-1.72c-.35.38-.64,1.05-1.38.83-.09.44-.27.86-.22,1.34.15-.03.21.07.22.15.02.19-.06.53-.27.4-.04.25.04.54-.04.77.24.24.8.32.96.01-.35-.79.12-1.33.74-1.79Z"/>
          <path class="cls-3" d="M119.84,82.62c.05-.12.09-.28.15-.39v-.36c-.06.01-.13.03-.19.04-.26.04-.6-.16-.33-.48.14-.17.34-.06.52.03v-3.47c-.62.46-1.08,1-.74,1.79-.16.31-.72.22-.96-.01-.12.33,0,1.12-.42,1.39-1.35.87-2.76,1.47-4.32,2.2-.11-1.56.44-2.6.59-3.8-2.23.11-.02,1.18-2.04,4.16-.5-.4-.55-.96-.65-1.58-.59.31-.19,1.3-.56,1.79-.52.7-.66,1.08-.74,1.86-.06.6-.87,1.14-.45,1.96.3.57.85.8,1.5.87,1.08.12.9-1.05,1.5-1.5.69-.52,2.4-.38,1.84-1.86-.31.47-.63.79-1.46.54.22-.24.42-.6.65-.99.67.36,1.39.57,1.83-.26.17.94.96.75,1.69.72.08-.22.41-.56.22-.88-.36-.6-1.02-.75-1.55-.91-.02.22-.15.77-.37.73-.35-.16-.45-.54-.38-.79.06-.24.29-.37.51-.5.23-.15.5-.18.75-.27l.61-.22c.32-.31.78-.28,1.22-.2.1.02.25-.06.43-.02.15.04.21.26.2.45.08.09.19.15.25.24.18.26.48.36.71.53l.06-.49c-.21-.15-.13-.2-.08-.33ZM110.54,87.94c-.49-.28-.59-.89-.27-1.32.25.38.05.67.16.92.15.33.63.05,1.31.31-.09.72-.82.31-1.2.09ZM112.51,85.36c-.16,0-.29-.13-.29-.29s.13-.29.29-.29.29.13.29.29-.13.29-.29.29Z"/>
          <path class="cls-3" d="M118.28,34.44c.57-.21,1.14-.24,1.71-.24v-2.56c-1.02,0-2.02-.2-2.97-.19-.29.7.23,1.11.41,1.8l.64,2.37c.11.41.35.78.76.8-.04-.64-.67-1.15-.55-1.99Z"/>
          <path class="cls-3" d="M119.48,28.25c.12.45.31.83.51,1.16v-2.01c-.13-.25-.3-.5-.57-.78.16-.44.72-1.12.41-1.49-2.15-.31-2.05-1.37-3.39-.19-.71.63-2.22.45-2.77-.31-.33-.44-.4-.82-.82-.94-.03.82.69,1.47,1.05,2.08-.19.48-.57,1.09-.21,1.83.22.45.54.95,1.23,1-.01-.31-.18-.59-.26-1.17,1.6-.04,3.2.41,4.82.82ZM117,26.07c.34.2.88.55,1.1,1.22-1.04.05-2.24-.02-2.72-.74.02-.64,1.18-.73,1.61-.48Z"/>
          <path class="cls-2" d="M30.62,34.78c-.13.88.04,1.8-.07,2.77l-.3,2.59c-1.53.79-2.93,1.6-4.7,2.27-.1-1.06.65-6.14,1.71-6.29.45,0,.69-.36,1.01-.57s.9-.13,1.12-.54c.27-.18.96,0,1.23-.23Z"/>
          <path class="cls-2" d="M44.45,28.16c.02,1.5-.05,3.06-.11,4.63-.03.81-.44,1.05-1.09,1.27-1.3.44-2.45,1.15-3.66,1.67-.63-.66,1.01-5.38,1.21-6.18.43-.16.83-.46,1.26-.59.5-.09.95-.1,1.34-.49.25-.21.77-.13,1.05-.31Z"/>
          <path class="cls-2" d="M16.58,41.41c0,1.81.08,3.53-.35,5.57l-4.64,2.08c-.02-2.09.55-3.91,1.1-5.83.73-.29,1.24-.79,1.85-1.03l2.03-.78Z"/>
          <path class="cls-2" d="M84.95,8.54c.12-.07.46-.07.51-.24,1.51-1.18.67,5.12.35,5.31-1.2,1.05-3,1.49-4.56,2.22.14-2.2.58-4.09,1.35-5.91.82-.52,1.81-.71,2.35-1.37Z"/>
          <path class="cls-2" d="M100.24,1.66c.05,1.84.04,3.64-.44,5.56-1.78.18-4.88,3.05-4.46,1.06l1.05-5c.07-.01.16-.02.23-.05,1.11-.54,2.47-1.28,3.62-1.57Z"/>
          <path class="cls-2" d="M90.32,95.35c-1.11.39-2.24.99-3.23,1.61-.37.1-.85.1-1.04.48-.06-.01-.12,0-.18-.01.05-1.87.55-3.67,1.18-5.56l3.74-1.75c.54.96.02,1.87-.05,2.92-.05.73.29,1.91-.4,2.33Z"/>
          <path class="cls-2" d="M76.24,102.5l-4.22,1.87c.24-1.79.46-3.79,1.43-5.44.95-.82,2.42-1.4,3.53-1.89.06,1.79.2,4.69-.74,5.46Z"/>
          <path class="cls-2" d="M62.95,109.14c-.06,0-.16,0-.21.03-1.45.73-2.84,1.45-4.46,2.14.21-1.86.29-3.86,1.33-5.33.84-.96,2.44-1.33,3.75-2.01.08,1.89-.3,3.5-.4,5.18Z"/>
          <path class="cls-2" d="M47.88,116.85c-.17.18-.5.05-.52.23-.22,0-.47.04-.58.26-.48.08-.81.34-1.05.58-.5.02-.77.36-1.33.23.25-1.93.66-3.62,1.29-5.32l3.72-1.82c.02,1.75.15,3.33-.36,4.94-.41.35-.87.54-1.18.91Z"/>
          <path class="cls-2" d="M104.55,85.86c0,.24.09.62.01.84-.14.37-.06,1.09-.43,1.41-1.18,1.03-2.92,1.14-3.88,2.28l-.21-.02-.37-.08c.16-1.85.65-3.72,1.29-5.45l3.59-1.71c.11,1.1-.02,1.9,0,2.73Z"/>
          <path class="cls-2" d="M5.84,54.09c-.06-.31-.18-.71-.31-1.02-.17-.39-.26-.82-.56-1.16-.02-.14-.04-.28-.02-.42,1.87.06,3.79.56,5.65,1.16.51,1.05.83,1.92,1.27,3.14-1.73-.03-3.46.2-5.13-.34-.41-.17-.42-1.21-.9-1.36Z"/>
          <path class="cls-2" d="M17.75,79.47c-.03-.08-.17-.2-.25-.23.01-.21-.04-.43-.24-.53.06-.37-.11-.75-.33-1.04-.31-.42-.34-1.03-.77-1.36-.11-.29-.04-.75-.23-1,1.77.15,3.72.28,5.39,1.11.55.85.96,2.1,1.35,3.07-1.75.43-3.31-.19-4.91,0Z"/>
          <path class="cls-2" d="M12.41,67.56c-.25-.43-.54-.83-.75-1.29-.3-.66-.5-1.44-1.1-1.87-.05-.15.01-.35-.04-.5-.64-1.25,5.17.38,5.58.73.51.97.76,1.88,1.15,2.96-1.54.68-2.95-.29-4.85-.03Z"/>
          <path class="cls-2" d="M22.76,90.61l-1.35-2.85c-.45-1.15,4.29-.02,5.21.64.85.61,1.02,2.01,1.43,2.94-1.67.18-3.09.05-4.67-.09-.21-.15-.47-.49-.61-.64Z"/>
          <path class="cls-2" d="M28.86,103.37c-.13-.16-.16-.38-.27-.55-.61-.93-.78-2.12-1.59-2.91.08-.23-.02-.56,0-.81,1.11-.06,2.14.13,3.3.48,1.67.51,1.69-.58,3.19,3.74-1.79.04-3.2-.14-4.62.05Z"/>
          <path class="cls-2" d="M33.69,114.38c.02-.65-.34-.83-.64-1.25-.24-.61-.17-1.39-.72-2.1,1.9.05,3.76.25,5.34,1.13l1.21,2.88c-1.45.3-2.74,0-4.17.07-.5.03-.75-.5-1.03-.73Z"/>
          <path class="cls-2" d="M109.3,6.17c.1.22.15.59.29.82.15.26.22.58.21,1.03l-4.54-.16c-.45-1.26-.85-2.35-1.51-3.31-.02-.07.02-.18-.02-.23-.27-1.22,3.73.06,4.53.18.45.59.59,1.22,1.04,1.67Z"/>
          <path class="cls-3" d="M106.85,84.75c.4.6.5,1.35.17,2.11-.51,1.16-1.88.44-2.48,1.79-.09.2.09.48.38.75-.83.6-1.7.49-2.73.44-.37-.02-.27.96-.49,1.1-.52.32-1.23.2-1.93.14.31-.21.48-.42.48-.69.96-1.14,2.7-1.25,3.88-2.28.37-.32.3-1.04.43-1.41.2.23.2.52.58.83.11-.75.73-1.06,1.06-1.67.23-.42.15-1.06.65-1.11Z"/>
          <path class="cls-6" d="M118.27,82.23c-.16.21.11.35.24.4.14.05.27.05.39.04.08.09.19.14.26.24.27.72,0,1.17-.39,1.68-.47.63-.8.65-1.5.68.08-.22.41-.56.22-.88-.36-.6-1.02-.75-1.55-.91-.09-.18-.17-.37-.24-.56.23-.15.5-.18.75-.27-.06.15.06.26.18.3.17.05.33.02.39-.13.04-.1,0-.26.04-.38.32-.31.78-.28,1.22-.2Z"/>
          <path class="cls-3" d="M111.37,80.78c-.71-.36-1.36-.2-2.01.37-.95.85-.25-.9-2.46,2.84-.28-.1-.63-.27-.73-.49-.29-.71,1.84-2.31,1.23-1.96,1.18-.68,2.43-1.31,3.77-1.83.34.23.17.82.19,1.07Z"/>
          <path class="cls-3" d="M115.13,21.52c.03-.37.61-.47.74-.82.2-.55-.49-.7-.71-.99.65.25-1.37-3.6-1.58-3.46l.03-.31c1.35.17.37,1.12,2.65,2.31-1.59,1.84,1.57,2.13.22,3.59-.27.29-1.13.07-1.34-.32Z"/>
          <path class="cls-3" d="M72.22,14.65c0,.07-.02.15,0,.22l-2.52,1.19c-.49.23-1.12.54-1.38.94-.22-.08-.31-.31-.28-.53,1.08-.79,2.73-2.53,4.18-1.82Z"/>
          <path class="cls-3" d="M101.91.82c-.68,0-1.29.46-1.67.84-1.16.29-2.51,1.03-3.62,1.57.48-1.37,2.03-1.78,3.38-2.17.4-.12.29-1.24,1-1.03.42.12.85.23.91.8Z"/>
          <path class="cls-3" d="M113.02,21.32c-.2.6-.73,1.09-.56,1.74-.65-.04-.86-.74-.73-1.52.06-.39.94-.23,1.29-.22Z"/>
          <path class="cls-6" d="M11.66,66.27c-.31-.19-.8-.17-1.13-.48-.41-.4-.27-1.06.03-1.39.59.42.8,1.21,1.1,1.87Z"/>
          <path class="cls-6" d="M16.93,77.66c-.51.11-.7-.02-.79-.54-.05-.3-.43-.6.02-.82.43.34.46.94.77,1.36Z"/>
          <path class="cls-6" d="M28.58,102.81c-.83-.12-.75-1.09-1.26-1.69l-.54-.63c-.16-.18.03-.4.21-.59.81.79.98,1.98,1.59,2.91Z"/>
          <path class="cls-6" d="M43.39,28.47c-.38.39-.84.39-1.34.49,0-.31.19-.57.49-.64s.58.08.85.15Z"/>
          <path class="cls-6" d="M29.39,35.01c-.22.41-.8.33-1.12.54-.01-.32.21-.57.52-.69.17-.07.56-.21.59.16Z"/>
          <path class="cls-6" d="M4.97,51.91c.29.34.38.77.56,1.16-.3-.1-.58-.26-.88-.59-.16-.17-.07-.52.33-.57Z"/>
          <path class="cls-6" d="M87.09,96.97c-.02.26-.08.59-.39.57-.26-.02-.46-.04-.65-.09.19-.38.67-.38,1.04-.48Z"/>
          <path class="cls-3" d="M114.65,21.54c-.16.19-.43.31-.65.22-.2-.08-.4-.27-.23-.46.28-.01.85-.17.88.24Z"/>
          <path class="cls-3" d="M66.96,17.28c-.03-.36.15-.73.53-.81.02.19.03.39-.04.61-.07.21-.32.13-.49.2Z"/>
          <path class="cls-6" d="M17.49,79.24h-.44c-.14,0-.18-.18-.11-.34.05-.1.29-.1.31-.19.2.1.25.32.24.53Z"/>
          <path class="cls-6" d="M47.36,117.07c.02.41-.09.65-.32.52-.09-.05-.18-.18-.26-.26.11-.22.36-.26.58-.26Z"/>
          <path class="cls-3" d="M111.46,81.91l-.02-.31c.32-.06.37.36.02.31Z"/>
          <path class="cls-2" d="M58.03,26.72c-.33.8-3.36,1.8-4.64,2.25.2-2.08.59-3.91,1.22-5.74l3.74-1.82c.03,1.79.38,3.61-.32,5.31Z"/>
          <path class="cls-2" d="M68.31,17c.25-.4.88-.71,1.38-.94l2.52-1.19c.23,1.63.18,3.67-.21,5.3-1.32,1.07-3.2,1.54-4.59,2.33-.13-2.03.65-3.68.9-5.49Z"/>
          <path class="cls-2" d="M118.61,77.1c-.09.44-.27.86-.22,1.34.02.18-.02.38-.05.55-.04.25.04.54-.04.77-.12.33,0,1.12-.42,1.39-1.35.87-2.76,1.47-4.32,2.2-.11-1.56.44-2.6.59-3.8.06-.5.41-1.02.53-1.61l3.43-1.84c.27.12.57.68.5,1Z"/>
          <path class="cls-2" d="M119.99,29.41c-.2-.33-.39-.71-.51-1.16-1.62-.41-3.23-.85-4.82-.82.08.58.25.86.26,1.17.89.85.75,2.86,2.11,2.85.94,0,1.95.19,2.97.19v-2.23Z"/>
          <path class="cls-2" d="M113.58,16.25c.2-.14,2.23,3.71,1.58,3.46h-.51s-1.62.05-1.62.05h-.57c-.43-.07-.86-.1-1.29-.11-.25-.23-.52-.38-.71-.82l-1.42-3.19c1.69,0,3.09.37,4.54.61Z"/>
          <path class="cls-5" d="M103.74,4.32c.04.06,0,.17.02.23-.39.28-.19,1.03-.7,1.23-.29.11-1.02.26-1.08-.13-.16-1.16.2-2.19.72-3.19.75.51.64,1.29,1.04,1.86Z"/>
          <path class="cls-3" d="M104.55,85.86c-.01-.83.12-1.63,0-2.73l-3.59,1.71c-.15-.6.51-.75.88-1.13.97-1.02,2.27-1.34,3.5-.42-.98,1.3-.15,2.58-.79,2.58Z"/>
          <path class="cls-3" d="M114.65,19.7c.2.28-1.39.7-1.53.56-.12-.13-.05-.39-.09-.51l1.62-.05Z"/>
          <path class="cls-3" d="M112.46,19.75c-.21.2-.41.51-.65.55-.43.06-.47-.49-.64-.65.43,0,.86.04,1.29.1Z"/>
          <g>
            <path class="cls-1" d="M96.89,15.95c-.06.45-.31.51-.54.53,0-.31.22-.55.54-.53Z"/>
            <path class="cls-1" d="M101.9,23.14c-.75-.1-.37-.45-.51-.84.32.3.59.29.51.84Z"/>
            <path class="cls-1" d="M96.1,16.55s.11-.05.25-.07c0,.29-.27.35-.25.07Z"/>
            <path class="cls-1" d="M101.39,21.01c.02.32-.22.71,0,1.3-.67-.64-1.21-1.17-2.19-1.31l-.04-1.95c-.5.98-1.19,1.28-2.3,1.17-.54-.05-1.34.04-1.31-.61.95.03,1.83.7,2.56-.05.29-.29.48-.69.77-.72.55-.05.77.19.9.48.18.38-.21.94-.14,1.23.25.53,1.21.44,1.74.47Z"/>
            <path class="cls-1" d="M103.77,24.42c-.31-.09-.44-.2-.55-.31.33.05.46.18.55.31Z"/>
            <path class="cls-1" d="M105.85,20.73c-.38.22-1.01.28-.81.77.12.3.24,1.23.53.92.63-.67.91.1,1.3.41.43.34.13.85-.22,1.24.4.18.63.03.87.02.23.29-.16.88,0,1.13-.49.08-.48.62-.49,1.03-.56.83-.15-.03-2.28,1.36-.16.1-.38-.12-.61-.29-.19.48-.29.77-.59.98-.23.16-.68-.13-.96.04-.23.14-.22.57-.36.83s-.49.2-.77.22c.11-.33-.28-.19-.38-.11-.09.07-.15.3-.36.38-.21.06-.11-.5-.14-.85-.01-.19.36-.2.57-.08l.54.3c.27-.43.3-.88.49-1.41-.28-.05-.39.15-.52,0-.22-.58,2.52-1.68,2.84-1.68-.25.36-.24.67-.67.8.34.29.55.46.96.59.03-.37-.12-.95.22-1.02.37-.08.76.26.88-.3-.57-.07-.98-.06-1.4-.06.25-.36.11-.49-.17-1.03.54.05,1.01.51,1.69-.06l-5.36-12.43c-.48-1.11-1.61.45-2.14.73l-7.47,4.11,3.47,8.46c-.44-.14-.7-.59-1.1-.79-.22-.11-.78-.01-.87-.43-.05-.24.24-.57.21-.78-.12-.92-1.17-.78-1.42-1.6-.07-.24.29-.82.12-1-.33-.34-.93-.28-1.14-.61-.28-.45.31-.79.33-1.24.02-.37-.69-.48-.82-.75-.18-.39-.05-.96.05-1.34.49-1.95,3-2.19,3.07-2.24.4-.33,3.5-2.24,4.13-2.31s1.08-1.51,1.86-1.32c.59.14,1.29-.26,1.74-.31,1.47.32,2.33,2.43,2.21,3.76.3.3.68.54.93.98.16.28-.25.73-.2,1.08,1.1,1.12,1.85,2.54,2.21,3.93Z"/>
            <path class="cls-1" d="M99.27,28.92c-.06.34-.41.33-.53.29.1-.24.32-.24.53-.29Z"/>
            <path class="cls-1" d="M101.67,27.63c-.11.2-.35.21-.55.23.1-.11.23-.19.55-.23Z"/>
            <path class="cls-1" d="M95.55,19.6c-.31.08-.47.21-.44.32.02.09.03.41.16.48.77.43.26,1.4.52,1.88s.86.47.83,1.08c-.38-.17-.77-.35-1.04-.5-.5-.26-.17-1.13-.32-1.57-.35-1.01-.88-2.16.09-3.01-.01.45.11.88.21,1.31Z"/>
            <path class="cls-1" d="M101.39,21.01c-.07-.98-.57-2.49-1.37-2.56l-3.13-.25c-.5-.04-1.19-.22-1.55.09l.07-2.35c0-.2.34-.16.43-.08.12.11.19.35.26.69-.42.18-.36.58-.29.82.27.91,3.48.73,4.58.49.06-.95-1.81-1.78-2.05-1.4-.06.1-.29.41-.44.38-.5-.09-.59-.74-1.01-.89l.07-.38c.02-.13.11-.3.27-.22.23.11.56.82.62.85.41.19.81-1.05,1.02-.71l.34.54c.19.31.84.14,1.1.33.87.64-.21,1.42.57,2.27.2.21.64.02,1.01.08.63.11.79.81.72,1.28-.1.61-.61,1.04-1.22,1Z"/>
            <path class="cls-1" d="M94.54,25.75c.53,1.29,1.59,2.55,1.94,4.16,1.66-.65.81-2.33,1.99-2.57-.04.52-.34.96-.6,1.63.24.27.65.18.87.25-.2.48-.68.53-1.35.83.19.21.48.32.42.51l-.21.73c-1.28.48-.49-.37-2.3-.04-.54-.74-.5-1.89-1.09-2.56-.49-.56-.35-.9-.34-1.61,0-.28-.84-.48-.88-.75-.07-.46,0-.97.49-1.1l-.03.55c-.02.31-.02.59.16.69.19.12.43.15.67.1.25-.05.25-.6.25-.81Z"/>
            <path class="cls-1" d="M98.47,27.33c.04-.58.24-.85.57-1.04-.19.43-.19.96-.57,1.04Z"/>
            <path class="cls-1" d="M100.9,24.52c-.56.57-1.04,1.3-1.85,1.77.33-.74.53-2.1-.56-2.37-.51-.13-1.93.53-1.87-.57,2.23.98,1.73-.59,3.48-1.17-.2.51-.92.65-1.01,1.21s.45,1.07.76,1.56c.39-.27.74-.3,1.05-.45Z"/>
            <path class="cls-1" d="M103.22,24.11c-.75-.12-1.47,0-2.33.41.52-.52.92-.82,1-1.38.47.06.95.55,1.33.97Z"/>
            <path class="cls-1" d="M104.35,24.92c-.44-.04-.5.07-.57-.5.55-.06.48.31.57.5Z"/>
            <path class="cls-1" d="M101.12,27.86c-.38.64-1.15.9-1.85,1.06.13-.74.95-.98,1.85-1.06Z"/>
            <path class="cls-3" d="M94.54,25.75c0,.2,0,.76-.25.81s-.48.01-.67-.1c-.17-.1-.17-.38-.16-.69l.03-.55c0-.09-.04-.17-.05-.26.4.21.66.65,1.1.79Z"/>
            <path class="cls-3" d="M103.22,24.11c.1.11.23.22.55.31.07.57.13.46.57.5.28.54.42.68.17,1.03-.32,0-3.06,1.1-2.84,1.68-.32.04-.45.12-.55.23-.9.08-1.72.32-1.85,1.06-.21.05-.43.05-.53.29-.21-.07-.62.02-.87-.25.26-.67.56-1.11.6-1.63.38-.08.38-.61.57-1.04.82-.47,1.29-1.2,1.85-1.77.85-.42,1.58-.54,2.33-.41Z"/>
            <path class="cls-3" d="M104.52,25.95c.42,0,.83-.01,1.4.06-.13.56-.51.22-.88.3-.35.07-.19.65-.22,1.02-.41-.12-.62-.3-.96-.59.44-.13.42-.43.67-.8Z"/>
            <path class="cls-3" d="M101.39,21.01c-.53-.03-1.49.06-1.74-.47-.07-.29.32-.85.14-1.23-.14-.28-.36-.53-.9-.48-.29.03-.48.43-.77.72-.74.75-1.61.08-2.56.05-.1-.43-.22-.87-.21-1.31.35-.31,1.04-.13,1.55-.09l3.13.25c.8.06,1.3,1.58,1.37,2.56Z"/>
            <path class="cls-3" d="M104.35,24.92c-.1-.19-.02-.56-.57-.5-.09-.13-.21-.26-.55-.31-.37-.42-.86-.9-1.33-.97.08-.55-.19-.54-.51-.84-.22-.59.02-.97,0-1.3.62.03,1.12-.4,1.22-1,.08-.47-.08-1.16-.72-1.28-.37-.07-.81.13-1.01-.08-.78-.85.29-1.64-.57-2.27-.26-.19-.91-.02-1.1-.33l-.34-.54c-.22-.34-.61.89-1.02.71-.06-.03-.39-.74-.62-.85-.15-.07-.25.1-.27.22l-.07.38c-.32-.02-.55.21-.54.53-.15.03-.22.06-.25.07-.06-.34-.14-.58-.26-.69-.09-.08-.43-.12-.43.08l-.07,2.35c-.97.84-.44,2-.09,3.01.15.44-.18,1.31.32,1.57.28.14.67.33,1.04.5-.06,1.09,1.35.44,1.87.57,1.09.27.88,1.62.56,2.37-.33.19-.52.46-.57,1.04-1.18.24-.33,1.92-1.99,2.57-.36-1.6-1.41-2.86-1.94-4.16l-3.47-8.46,7.47-4.11c.52-.29,1.66-1.84,2.14-.73l5.36,12.43c-.69.57-1.16.11-1.69.06Z"/>
            <path class="cls-3" d="M101.46,29.39c-.17.17-.14.81-.58.78-.4-.03-.75-.02-.99.08-.45.17-.31.9-.46,1.21-.54.12-1.28-.36-1.82-.16l.21-.73c.05-.19-.23-.31-.42-.51.67-.3,1.15-.35,1.35-.83.12.04.47.05.53-.29.71-.16,1.47-.42,1.85-1.06.2-.02.44-.04.55-.23.13.16.24-.05.52,0-.19.53-.22.98-.49,1.41l-.54-.3c-.22-.12-.59-.11-.57.08.02.35-.07.91.14.85.21-.09.27-.31.36-.38.1-.08.49-.22.38.11Z"/>
            <path class="cls-3" d="M101.39,22.3c.15.39-.23.74.51.84-.08.56-.48.86-1,1.38-.31.15-.67.18-1.05.45-.31-.49-.85-1-.76-1.56s.82-.7,1.01-1.21c-1.75.58-1.25,2.15-3.48,1.17.03-.61-.58-.61-.83-1.08s.25-1.45-.52-1.88c-.13-.07-.13-.39-.16-.48-.03-.12.12-.24.44-.32-.03.65.77.56,1.31.61,1.1.11,1.8-.19,2.3-1.17l.04,1.95c.98.14,1.52.68,2.19,1.31Z"/>
            <path class="cls-3" d="M96.1,16.55c-.02.28.26.22.25-.07.23-.02.48-.08.54-.53.42.15.51.8,1.01.89.14.03.38-.29.44-.38.24-.38,2.11.45,2.05,1.4-1.09.25-4.3.42-4.58-.49-.07-.24-.13-.64.29-.82Z"/>
            <path class="cls-3" d="M107.53,24.09c-.24,0-.47.16-.87-.02.35-.39.64-.9.22-1.24-.39-.31-.67-1.08-1.3-.41-.29.31-.41-.62-.53-.92-.2-.49.43-.56.81-.77.66-.03.67.69,1.01,1.19.49.7,1.34,1.37.67,2.18Z"/>
            <path class="cls-3" d="M107.03,26.26c.01-.41,0-.95.49-1.03.34.55-.26.68-.49,1.03Z"/>
          </g>
          <path class="cls-5" d="M115.93,83.47c-.02.22-.15.77-.37.73-.35-.16-.45-.54-.38-.79s.29-.37.51-.5c.07.19.15.38.24.56Z"/>
          <path class="cls-5" d="M111.74,87.85c-.09.72-.82.31-1.2.09-.49-.28-.59-.89-.27-1.32.25.38.05.67.16.92.15.33.63.05,1.31.31Z"/>
          <path class="cls-5" d="M118.9,82.66c-.11.01-.24,0-.39-.04-.13-.04-.4-.19-.24-.4.1.02.25-.06.43-.02.15.04.21.26.2.45Z"/>
          <circle class="cls-5" cx="112.51" cy="85.06" r=".29"/>
          <path class="cls-5" d="M117.05,82.43c-.03.13,0,.28-.04.38-.06.15-.22.19-.39.13-.12-.04-.24-.15-.18-.3l.61-.22Z"/>
          <path class="cls-6" d="M118.1,27.3c-1.04.05-2.24-.02-2.72-.74.02-.64,1.18-.73,1.61-.48.34.2.88.55,1.1,1.22Z"/>
          <path class="cls-3" d="M118.34,78.99c.03-.17.07-.38.05-.55.15-.03.21.07.22.15.02.19-.06.53-.27.4Z"/>
          <g>
            <path class="cls-7" d="M78.65,67.25c-1.3,1.21-3.95,2.17-5.1,1.02-1.06-1.05.25-2.82.37-3.89-1.86-.37-3.59-.4-5.31-.89-2.19-.63-3.51-2.52-3.01-4.86.79-3.69,3.47-6.96,7.02-8.28,2.88-1.07,5.49.85,5.01,1.55-.7,1.03-2.35-2.91-6.12-.46-2.48,1.61-4.24,4.18-4.98,7.06-.47,1.84.47,3.55,2.31,4.13,1.71.53,3.71.88,5.5.86,1.93-1.13,1.9-4.98,3.59-4.39-.14.39-.26.44-.34.55-.81,1.16,2.46.03,2.32.12.35-.23.28-.87.51-1.27.15-.17.8.18.98-.1.33-.5.53-.96,1.03-1.12.56-.18,1.08-.04,1.73.41.7.49,2.62-.51,2.33-1.38-.56-1.66-1.78-3-2.24-4.77l-2.23.42c.37-.81,1.27-.64,1.75-1.32-.05-.82-1.16-2.61-.93-3.08.75-1.54,1.62,2.45,2.08,2.62,1.22-.23,1.99-1.16,3.33-1.19-.82,1.09-2.07,1.04-3.11,1.92.52,1.5,2.63,6.52,4.44,5.85,1.38-.52-.09-3.29,2.05-4.44.14-.08.37,0,.49.05.09.04.07.1-.08.31-.2.17-.28.34-.27.49.04.53.57.12.81.13,1.07.01,1.76-.16,2.47-1.19.35,1.71-1.45,1.47-2.15,2.17-.79.8-1.01,1.87-2.13,2.43-.57.28-.83.94-1.46.99-.71.06-1.42-.39-2.01-.69-.92.46-1.72,1.86-2.85,1.56l-1.95-.53c-.34.76-.32,1.39-.74,2.13-.84-.47-1.33.02-1.93.27-.94.39-1.59.66-1.92,1.71-.23.74-1.03,1.07-1.74.76-.36-.16-.48.17-.56.34-.46.97,1.23.51,2.81,1.65.74.54,1.08,1.57.26,2.33ZM91.85,53.68c0-.07-.06-.13-.13-.13s-.13.06-.13.13.06.13.13.13.13-.06.13-.13ZM91.63,54.37c-.06-.33-.29-.33-.35,0,.04.61.32.61.35,0ZM77.23,61.76c.03-.64.14-.77.33-.99-.32-.05-.48.22-.52.36-.05.18-.1.64.19.63ZM77.99,66.22c-.16-1.03-2.21-1.74-2.97-1.41s-1.24,2.16-.62,2.83c.9.97,3.83.14,3.59-1.41Z"/>
            <path class="cls-7" d="M54.6,66.52c-1.03-2.11.72-.94-1.93-4.14l-4.85,3.22c-.13.08-.39.14-.51.11-.94-.28,3.83-3.14,4.08-3.3.57-.35.85-.72.65-1.52l1.4.16,8.23-4.85c.16-.1.3.12.34.21.05.1-.07.25-.27.35-2.81,1.52-5.36,3.2-8.18,5.02,3.4,5.2,7.19,10.74,8.93,16.55.12.44-.01.84-.31.98-.31.14-.82.04-1.07-.35-2.53-3.96-4.44-8.19-6.5-12.44ZM60.59,76.2c-.62-2.89-2-4.93-3.5-6.84.97,2.57,2.18,4.86,3.5,6.84Z"/>
            <path class="cls-7" d="M60.64,67.07c.98-.55.12,2.91,1.53,2.37.67-.25.45-1.73-.06-1.99-.47-.24-.86-.41-.71-.86.5-.25.95-.39,1.39-.27.25.07.38.63.74.79,1.06.47,1.71-.59,2.45-1.32.61,2.03-2.36,1.33-2.58,3.13-.1.79-1.02,1.65-1.87,1.37-1.39-.45-1.58-2.15-.88-3.21Z"/>
            <path class="cls-3" d="M61.39,66.59c-.15.46.24.62.71.86.51.26.73,1.74.06,1.99-1.41.54-.56-2.92-1.53-2.37.08-.12-.04-.42.17-.47s.4-.04.59-.02Z"/>
            <path class="cls-3" d="M77.99,66.22c.24,1.56-2.69,2.38-3.59,1.41-.62-.67-.16-2.5.62-2.83s2.8.39,2.97,1.41Z"/>
            <path class="cls-6" d="M91.63,54.37c-.04.61-.32.61-.35,0,.06-.33.29-.33.35,0Z"/>
            <path class="cls-6" d="M77.23,61.76c-.29.02-.24-.45-.19-.63.04-.15.2-.41.52-.36-.2.22-.3.35-.33.99Z"/>
            <circle class="cls-6" cx="91.72" cy="53.68" r=".13"/>
            <path class="cls-3" d="M60.59,76.2c-1.33-1.97-2.53-4.26-3.5-6.84,1.5,1.9,2.88,3.95,3.5,6.84Z"/>
          </g>
        </g>
      </g>
    </g>
  </g>
</svg>