<?xml version="1.0" encoding="UTF-8"?>
<svg id="Capa_2" data-name="Capa 2" xmlns="http://www.w3.org/2000/svg" viewBox="0 0 165.02 112.13">
  <defs>
    <style>
      .cls-1 {
        fill: #fef4dd;
      }

      .cls-2 {
        fill: #dcd3c4;
      }

      .cls-3 {
        fill: #cc8b33;
      }

      .cls-4 {
        fill: #d34232;
      }

      .cls-5 {
        fill: #fff;
      }

      .cls-6 {
        opacity: .2;
      }

      .cls-6, .cls-7 {
        fill: #35301f;
      }

      .cls-8 {
        fill: #f7f7f7;
      }

      .cls-9 {
        fill: #f0e8db;
      }

      .cls-10 {
        fill: #fefefe;
      }

      .cls-11 {
        fill: #d79032;
      }
    </style>
  </defs>
  <g id="Capa_1-2" data-name="Capa 1">
    <g>
      <ellipse class="cls-6" cx="82.51" cy="102.79" rx="82.51" ry="9.34"/>
      <g>
        <path class="cls-4" d="M61.83,46.3c.99-.41,1.79-1,2.6-1.7.7-.61,1.33-1.08,2.15-1.56s1.64-.97,2.49-1.39c.45-.23.72-.34,1.18-.48s.83-.22,1.22-.24c.78-.04,1.54-.66,1.5-1.5-.03-.77-.66-1.55-1.5-1.5-2.19.12-4.08,1.17-5.94,2.25-.91.53-1.79,1.1-2.6,1.78-.36.3-.7.61-1.06.9-.14.11-.16.13-.41.3-.09.06-.18.11-.28.17-.03.02-.32.16-.15.09-.75.31-1.28.99-1.05,1.85.19.71,1.09,1.36,1.85,1.05h0Z"/>
        <path class="cls-4" d="M71.77,41.1c.33.06.62.19.87.42.22.2.53.11.63-.17.06-.16.08-.32.09-.49l-.64.27c.15.16.3.4.53.44.18.03.31-.03.42-.17.08-.1.08-.22.05-.34s-.14-.24-.26-.26h-.02c-.19-.05-.41.05-.46.26-.1.43-.09.86.04,1.28l.72-.2c-.19-.49-.51-.89-.96-1.17-.36-.22-.77.3-.45.59.45.42.64.99.77,1.58.16.71.26,1.44.33,2.16.14,1.49.11,3-.11,4.48-.06.42.43.65.69.29.17-.24.5-.36.73-.54.3-.23.49-.53.53-.92.04-.41-.08-.82-.17-1.22-.1-.44-.21-.89-.32-1.33-.44-1.83-.91-3.65-1.38-5.47l-.55.42c.5.28.61.94.72,1.45.17.79.35,1.59.52,2.38s.39,1.55.48,2.33c.07.61,0,1.35-.58,1.7l.55.42c.26-1.88-.11-3.75-.62-5.55s-1.17-3.46-1.98-5.09c-.22-.43-.86-.05-.65.38.77,1.54,1.4,3.15,1.88,4.81s.9,3.48.65,5.25c-.04.3.24.61.55.42,1.62-.97.81-3.22.49-4.66-.2-.91-.39-1.82-.6-2.74-.15-.68-.39-1.4-1.03-1.76-.29-.16-.63.1-.55.42.44,1.72.88,3.43,1.3,5.15.1.43.21.85.31,1.28.09.38.23.78.24,1.17.01.35-.17.51-.45.68s-.53.35-.73.62l.69.29c.23-1.62.28-3.26.11-4.89-.08-.78-.19-1.56-.38-2.32-.16-.65-.43-1.28-.92-1.74l-.45.59c.28.17.5.42.62.72.17.44.87.27.72-.2-.09-.29-.11-.58-.04-.88l-.46.26h.02c-.09-.08-.17-.17-.26-.26v.03c.02-.1.03-.19.04-.29l-.02.02.42-.17.08.05-.1-.11-.17-.19c-.23-.26-.62-.04-.64.27,0,.11-.03.19-.07.29l.63-.17c-.34-.31-.74-.52-1.2-.61s-.67.63-.2.72h0Z"/>
        <g>
          <g>
            <path class="cls-10" d="M61.96,9.61c-.15-.04-.26-.15-.3-.3h.3v.3Z"/>
            <g>
              <g>
                <path class="cls-2" d="M130.91,83.85c-2.42,5.05-5.45,9.83-9.08,14.15-1.47,1.75-3.24,2.87-5.48,3.25-2.01.34-6.48.57-7.77-1.32-.81-1.18-.58-2.73.24-3.85,1-1.35,2.54-1.93,4.21-1.98,1.11-1.65,2.12-3.24,2.92-4.93,3.24-2.38,6.12-5.21,8.79-8.28.32-.36.6-.35.97-.11,1.58,1.04,3.23,1.87,4.91,2.75.17.09.25.21.29.33Z"/>
                <path class="cls-2" d="M131.29,104.43c-.33-.01-.7.07-1.04.07-1.39-2.74.78-5.25,1.34-4.78.82.68-1.83,1.29-.3,4.71Z"/>
                <path class="cls-2" d="M127.44,104.27c-.37-.13-.89.03-1.2-.32-.35-1.23-.55-2.47.16-3.67.11-.18.34-.3.47-.25.93.37-1.16,1.69.58,4.24Z"/>
                <path class="cls-8" d="M107.99,80.14c.22-1.13.33-2.28.47-3.42.24.11.2.49.16.78l-.32,2.33c-.02.13,0,.25-.09.3-.05.04-.16.01-.23,0Z"/>
                <path class="cls-11" d="M120.91,66.3c-.08-.23-.07-.58-.18-.78.11-.09.27-.17.33-.31-.05.36.16.84-.16,1.09Z"/>
                <path class="cls-8" d="M105.65,86.5c-.09.17-.01.33-.29.44-.24.1-.29-.03-.32-.26l.61-.18Z"/>
              </g>
              <g>
                <g>
                  <path class="cls-3" d="M95.7,53.07c-.29.16-.19,2.84,0,3.42.32.99.33,2.07.57,3.14.86,3.91,3.32,6.94,7.01,8.44,1.4.57,2.72,1.36,3.63,2.58s1.23,2.76,1.55,4.22c.08.37-.04.94.05,1.21.05.15-.04.47-.06.64-.14,1.15-.24,2.29-.47,3.42-.02.1-.01.21-.03.31-.41,1.46-.81,2.94-1.39,4.36-.24.6-.61,1.13-.93,1.69l-.61.18c-.36-.02-.35-.4-.59-.8-.64,1.47-1.24,2.91-2.19,4.24-.53.74-2.66,3.44-3.63,2.67-.34-.27-.12-.77-.39-1.21-.48,1.2-3.44,5.5-4.99,4.25-.53-.42-.31-1.1-.69-1.83-2.22,2.43-4.85,4.29-7.98,4.85-4.25.77-1.85-6.63-3.54-5.02-.68.65-3.64,3.86-4.45,2.79-.79-1.04-1-2.39-1.06-3.72-.14-2.88.85-5.55,2.29-7.93.23-.21.43-.46.47-.78.06-.02.1-.12.16-.16.21-.06.32-.26.31-.47l.16-.16c.21-.06.33-.25.33-.47l.14-.16c.21-.06.32-.26.31-.47.06-.05.1-.1.16-.16.49-.46.92-1.08,1.09-1.73.02-.08.17-.18.17-.28.36-.24.49-.71.62-1.1.04-.13.08-.33.14-.44.77-1.42,1.09-3.08,1.24-4.69,0-.1-.02-.21,0-.31.23-1.11.06-2.26-.08-3.43-.04-.34.09-.73-.24-.93.02-.05,0-.11,0-.16v-.31c0-.22-.06-.42-.14-.62-.04-.09.01-.22-.02-.31h.16c.18.19.33.45.61.49.04.3.46.42.63.6,1.48,1.55,1.93-3.08-.16-6.38-.41-.64-.82-1.3-1.37-1.99.67-.05,1.67-.02,1.98-.66.55-1.16-3.82-4.54-6.21-4.63,3.23-.7,7.25-4.2,9.52-6.69,1.45-1.59,2.83-3.17,4.05-4.86,2.91,1.17,3.85,6.58,3.85,9.34Z"/>
                  <path class="cls-8" d="M84.03,68.94c.25.03.53.02.73-.13.25-.18.21-.48.22-.81.07-1.85-.3-3.6-1.24-5.19-.07-.12,0-.29.12-.25,2.08,3.29,1.63,7.93.16,6.38Z"/>
                  <path class="cls-8" d="M106.57,84.81c.58-1.42.98-2.89,1.39-4.36.62-.62-1.2,5.33-1.39,4.36Z"/>
                  <path class="cls-11" d="M95.7,56.49c-.19-.58-.29-3.27,0-3.42v3.42Z"/>
                </g>
                <g>
                  <path class="cls-3" d="M140.72,29.9c3.22,2.67,5.85,6.07,7.73,9.82,1.7,3.4,2.53,7.24,2.87,11.03.26,2.88.03,5.56-.45,8.37-.04.25-.22.4-.41.4-.16,0-.32-.07-.46.04-.05,0-.11-.01-.16,0-4.62.99-5.23,11.65-14.11,15.67-4.97,2.25-10.41.81-12.9-4.04-.82-1.6-1.4-3.23-1.93-4.89.32-.25.1-.73.16-1.09l.14-.31c.57-.01,1.1-1.7,1.28-2.17.91-2.47.79-6.11.01-8.59-.08-.27-.23-.45-.38-.59l-1.97-4.35c-.7-1.54-1.21-3.21-.84-4.9.4-1.84,1.62-3.39,3.12-4.47l3.07-2.24c1.6-1.17,2.72-2.58,3.79-4.12,1.15-1.66,1.68-3.59,1.39-5.77-.02-.11.12-.33.03-.49-.04-.08-.14-.14-.3-.1-.18-.85-.24-1.75-.81-2.47,3.98.98,7.92,2.64,11.13,5.29Z"/>
                  <path class="cls-8" d="M149.85,59.55s.11,0,.16,0c.02.25-.18.24-.16,0Z"/>
                  <g>
                    <path class="cls-7" d="M129.59,24.61c.57.73.63,1.63.81,2.47.46,2.16-.17,4.38-1.12,6.37-1.07,1.54-2.19,2.95-3.79,4.12l-3.07,2.24c-1.49,1.09-2.71,2.64-3.12,4.47-.37,1.68.14,3.36.84,4.9l1.97,4.35c-.02.63.34,1.23.44,1.89l.29,1.78c.43,2.68-.58,5.29-1.64,7.69l-.14.31c-.06.14-.22.21-.33.31l-.58-1.09c-.14-.26-.35-.43-.58-.46-.25-.03-.5.07-.72.27-2.15,2-3.69,4.43-4.83,7.13-.51,1.22-1.14,2.28-1.81,3.33-.41.63-1.71,1.84-2.84.92l-.92-.75c-.32-1.46-.6-2.96-1.55-4.22s-2.23-2.01-3.63-2.58c-3.7-1.5-6.16-4.53-7.01-8.44-.24-1.07-.24-2.15-.57-3.14v-3.42c0-2.76-.95-8.17-3.85-9.34,3.98-5.52,7.75-10.18,13.4-14.25s11.88-5.87,18.61-5.75c2.08.04,3.86.42,5.73.88Z"/>
                    <path class="cls-7" d="M148.45,39.72c-1.88-3.75-4.51-7.14-7.73-9.82.17-.19.42-.22.71-.32,3.78-1.3,6.75-4.24,7.78-8.12.78-2.94.26-6.04-1.76-8.3s-5.5-3.24-7.31-5.44c-1.26-1.53-1.44-3.7,0-5.14.28-.28.54-.62.85-.89,1.13-.97,2.67-1.48,4.17-1.62,9.75-.9,18.4,6.01,19.68,15.71,1.45,10.94-6.49,20.55-16.4,23.93Z"/>
                    <path class="cls-8" d="M108.51,76.08c-.09-.28.03-.85-.05-1.21l.92.75c1.13.92,2.44-.29,2.84-.92.43-.07-.93,1.51-1.93,1.49-.54-.01-.93-.63-1.48-.72-.1.28-.05.62-.3.62Z"/>
                    <path class="cls-11" d="M121.2,64.9c1.06-2.39,2.07-5.01,1.64-7.69l-.29-1.78c-.11-.66-.46-1.26-.44-1.89.14.14.29.32.38.59.78,2.49.9,6.12-.01,8.59-.18.48-.71,2.16-1.28,2.17Z"/>
                    <path class="cls-11" d="M129.28,33.45c.95-1.99,1.58-4.21,1.12-6.37.16-.04.25.02.3.1.09.16-.05.38-.03.49.3,2.19-.24,4.12-1.39,5.77Z"/>
                  </g>
                </g>
              </g>
              <g>
                <path class="cls-9" d="M44.35,54.94c-.25.05-.28.31-.37.56-.84,2.22-1.04,4.54.99,5.98,1.91,1.35,5.86.68,8.84,4.38l3.41,4.22c.83,1.03,1.78,1.92,2.99,2.43.41.17,1.1.42,1.39.04.42-.55.01-1.27.19-2.02.86.9,2.89,2.56,3.96,1.85.77-.52.15-2.03-.11-2.86,1.35,1.04,2.96,1.52,4.36.81,2.11-1.08,3.47-3.12,4.84-5.08.07-.1.31,0,.17-.35l.12-.16c.16-.21.43-.41.56-.73.55-1.31,1.5-3.7,1.42-5.06l-.11-1.68-.54-2.06,1.82.07c2.39.09,6.76,3.47,6.21,4.63-.3.64-1.31.61-1.98.66.54.69.96,1.34,1.37,1.99-.13-.03-.2.13-.12.25.94,1.59,1.31,3.34,1.24,5.19-.01.33.03.63-.22.81-.2.14-.48.16-.73.13-.17-.18-.6-.3-.63-.6-.04-.34-.25-.49-.61-.49h-.16c-.01-.15-.17-.22-.24-.15-.12.12-.09.31-.06.39.04.12.22.08.32.08.08.2.14.4.14.62-.12-.03-.2.1-.16.23.02.05.08.1.16.08,0,.05.02.11,0,.16-.17.48.21,1.05.13,1.54-.12.72-.19,1.3.03,2.06.07.25-.16.68.15.76-.02.1,0,.21,0,.31-.14-.04-.26,0-.3.1-.04.12.01.23,0,.37-.13,1.12-1.03,4.3-1.08,4.11.01.05.05.12.14.12-.06.12-.1.31-.14.44-.49.04-.62.67-.62,1.1,0,.1-.15.2-.17.28.16-.68-1.46,2.07-1.09,1.73-.05.05-.1.11-.16.16-.11,0-.25.02-.29.11-.06.13-.04.25-.03.36l-.14.16c-.11,0-.25.01-.3.11-.06.12-.03.25-.03.36l-.16.16c-.11,0-.25.02-.29.11-.06.13-.04.25-.03.36-.06.04-.09.13-.16.16-.29.1-.71.49-.47.78-1.44,2.38-2.43,5.06-2.29,7.93.07,1.33.27,2.68,1.06,3.72.81,1.07,3.77-2.14,4.45-2.79,1.69-1.61-.71,5.79,3.54,5.02,3.13-.57,5.76-2.43,7.98-4.85.38.73.16,1.41.69,1.83,1.55,1.25,4.51-3.05,4.99-4.25.28.44.05.94.39,1.21.98.77,3.11-1.93,3.63-2.67.95-1.33,1.55-2.77,2.19-4.24.24.4.23.78.59.8.03.23.08.36.32.26.28-.11.2-.27.29-.44.32-.56.68-1.09.93-1.69.19.97,2.01-4.97,1.39-4.36.01-.1,0-.21.03-.31.07,0,.17.03.23,0,.08-.05.07-.17.09-.3l.32-2.33c.04-.29.08-.67-.16-.78.02-.17.11-.49.06-.64.25,0,.2-.35.3-.62.55.09.94.71,1.48.72,1,.02,2.36-1.55,1.93-1.49.67-1.05,1.3-2.11,1.81-3.33,1.14-2.71,2.68-5.13,4.83-7.13.22-.2.46-.3.72-.27.22.03.44.2.58.46l.58,1.09c.11.21.1.55.18.78.54,1.66,1.11,3.28,1.93,4.89,2.49,4.85,7.93,6.29,12.9,4.04,8.88-4.02,9.49-14.69,14.11-15.67-.03.25.18.25.16,0,.14-.11.3-.05.46-.04.67.67-1.69,6.83-2.12,7.93-.67,1.7-1.26,3.34-1.56,5.14-.25,1.53.06,2.99.58,4.44,1.1,3.02,1.24,3.9.26,6.97-.83,2.61-1.94,4.98-3.11,7.46-1.5,3.17-3.15,6.13-5.21,8.96-1.18,1.62-2.57,2.84-4.49,3.46-1.17.38-2.34.62-3.52.57-1.53-3.42,1.12-4.02.3-4.71-.56-.46-2.73,2.04-1.34,4.78-.94.02-1.92.07-2.81-.24-1.73-2.55.35-3.87-.58-4.24-.13-.05-.36.06-.47.25-.7,1.19-.51,2.44-.16,3.67-1.18-.15-1.97-1.25-2.02-2.49-.08-2.24,1.58-3.95,3.83-4.05.73-.03,1.23-.24,1.59-.93,1.6-3.03,2.76-6.28,3.34-9.66.26-1.53-.96-2.65-2.08-2.97-.04-.12-.12-.24-.29-.33-1.68-.87-3.33-1.7-4.91-2.75-.38-.25-.66-.26-.97.11-2.67,3.08-5.55,5.91-8.79,8.28-3.3,2.42-6.8,4.5-10.66,6.13-9.55,4.05-20.62,6.15-30.89,5.21-.29-.53,1.71-1.81.76-2.23-.55-.24-1.22,1.31-2.05,2.11s-4.74,4.3-5.23,1.31c-1.08.63-4.69,2.85-5.86,2.3-.39-.18-.57-.42-1.04-.27l-5.01,1.54c-6.22,1.91-19.21,3.62-25.96,3.66-2.57-2.4.38-4.2-.44-4.78-.89-.63-2.17,1.8-1.48,3.93.11.33.29.57.22.86-.95,0-2.12-.14-2.93-.61l-.48-1.13c-.84-1.99.86-3.16.35-3.54-.16-.12-.45-.14-.62.06-1.06,1.24-.9,2.85-.36,4.28-1.8-.47-2.29-2.27-1.9-3.73.67-2.5,3.12-4.07,5.8-3.98,3.03.1,5.86-.23,8.72-1.32,7.4-2.82,14.88-8.05,21.13-12.91.14-.11-.2-.54-.33-.53s-.35-.05-.56.11c-2.6,1.91-5.16,3.76-7.89,5.5-.35.22-.7.08-.84-.28-.15-.38-.15-.75-.33-1.12-.69.14-.86.95-1.63.82-.2-.03-.37-.25-.51-.51-1.05-1.91.02-5.27.91-7.29-.03-.27-.54-.04-.67,0-.4-.17-1.8.05-2.06-.5-.44-.92.46-1.96.93-2.94.59-1.24.8-2.66.08-3.88s-2.22-1.43-2.99-2.14c0-.26.38-.91.06-1.12l-2.91-1.64c-2.28-1.28-5.18-5.85-4.09-8.31.74-.35,2.5-.72,2.54-1.62.05-1.01-1.51-1.42-2.31-1.46.02-.11.06-.33.23-.41,3.67-1.8,3.8-5.57,7.76-8.68.21-.16.57-.19.9-.29,1.51,2.47-.08,4.28,0,5.16ZM49.98,65.58c.01-.23-.12-.53-.4-.66-1.79-.83-3.7-1.22-5.69-1.25-.39,0-.63.21-.64.52-.01.24.18.61.54.62,3.83.1,6.14,2.07,6.2.76ZM43.83,66.19c-.35-.21-.72-.34-.97-.03-.2.26-.14.76.21.97,1.62.95,3.01,2.08,4.32,3.43.41.42,2.7-.64-3.56-4.38Z"/>
                <path class="cls-7" d="M61.45,46.18c-.3.25-.8.8-.96,1.19-.42,1.06.51,1.93,1.43,2.4.26.13.51.38.86.49,2.35.77,4.21,2.19,6.17,3.75.23.19,2.52,2.41,3.03,1.15.35-.88.56-1.76.87-2.72,1.15.66,2.11,1.66,3.16,2.52,1.74,3.51.68,6.67-.89,9.78l-.12.16c-.08.11-.16.21-.17.35-1.36,1.96-2.73,4-4.84,5.08-1.33-3.23-4-5.71-7.42-6.7l-3.62-1.05c-2.67-.78-4.68-2.69-5.76-5.25-1.79-3.74-1.02-9.48,2.98-11.51-2.26-.11-4.43-.13-6.5.43,1.37-2.75,3.81-7,6.35-8.83,3.16-2.27,4.98,7.25,5.43,8.77Z"/>
                <path class="cls-2" d="M22.39,104.28l-4.03-.04c-1.25-.01-2.46-.24-3.59-.71-1.36-.57-2.08-1.82-1.84-3.33.32-1.94,1.91-3.39,3.86-3.9,3.27-.85,5.48.58,9.39-.87,7.81-2.91,13.82-7.35,20.03-12.66.14-.04.65-.27.67,0-.89,2.03-1.96,5.38-.91,7.29.14.26.31.48.51.51.76.13.94-.68,1.63-.82.18.37.18.74.33,1.12.14.35.49.5.84.28,2.73-1.74,5.29-3.59,7.89-5.5.21-.16.42-.11.56-.11s.47.43.33.53c-6.25,4.86-13.73,10.08-21.13,12.91-2.87,1.1-5.69,1.43-8.72,1.32-2.68-.09-5.13,1.48-5.8,3.98Z"/>
                <path class="cls-3" d="M72.85,52.44c-.31.95-.52,1.84-.87,2.72-.51,1.26-2.8-.97-3.03-1.15.64-1.37,2.36-9.46.91-10.44-2.73,1.5-5.02,3.43-7.33,5.41-.29.25-.54.47-.6.79-.93-.46-1.85-1.34-1.43-2.4.16-.39.66-.94.96-1.19,2.28-1.88,5.87-4.81,8.54-5.74,1.19-.41,2.32.13,2.75,1.34,1.17,3.36.67,7.28.11,10.65Z"/>
                <path class="cls-11" d="M35.46,59.16c.8.04,2.35.44,2.31,1.46-.04.9-1.81,1.28-2.54,1.62-1.09,2.46,1.81,7.02,4.09,8.31l2.91,1.64c.32.21-.07.86-.06,1.12-4.46-1.65-8.99-6.33-7.39-11.41-.21-.46-.73-1.23-.46-1.81.18-.37.58-.96,1.15-.94Z"/>
                <path class="cls-2" d="M30.01,108.94h-1.69c.07-.28-.12-.52-.22-.85-.69-2.13.59-4.56,1.48-3.93.82.58-2.13,2.38.44,4.78Z"/>
                <path class="cls-2" d="M25.39,108.34c-.37.1-.76-.24-1.1-.33-.54-1.43-.69-3.04.36-4.28.16-.19.45-.18.62-.06.5.38-1.2,1.54-.35,3.54l.48,1.13Z"/>
                <path class="cls-2" d="M74.4,100.52l-1.28-.12c.83-.8,1.5-2.35,2.05-2.11.94.41-1.05,1.7-.76,2.23Z"/>
                <path class="cls-3" d="M49.98,65.58c-.07,1.31-2.38-.66-6.2-.76-.36,0-.55-.38-.54-.62.02-.31.26-.53.64-.52,1.99.02,3.9.42,5.69,1.25.28.13.41.43.4.66Z"/>
                <path class="cls-3" d="M43.83,66.19c6.26,3.74,3.97,4.8,3.56,4.38-1.31-1.35-2.7-2.48-4.32-3.43-.35-.21-.41-.71-.21-.97.25-.32.62-.18.97.03Z"/>
                <path class="cls-8" d="M83.09,73.61c-.31-.09-.07-.52-.15-.76-.22-.75-.16-1.34-.03-2.06.08-.48-.3-1.05-.13-1.54.32.2.19.58.24.93.14,1.16.31,2.32.08,3.43Z"/>
                <path class="cls-8" d="M83.09,73.92c-.15,1.61-.47,3.27-1.24,4.69-.09,0-.12-.07-.14-.12.06.19.95-2.99,1.08-4.11.02-.14-.04-.25,0-.37.04-.1.16-.13.3-.1Z"/>
                <path class="cls-8" d="M81.71,79.06c-.13.4-.26.87-.62,1.1,0-.43.13-1.06.62-1.1Z"/>
                <path class="cls-8" d="M80.92,80.44c-.17.65-.61,1.27-1.09,1.73-.36.34,1.25-2.41,1.09-1.73Z"/>
                <path class="cls-8" d="M82.63,67.85c.03.1-.02.22.02.31-.1,0-.28.04-.32-.08-.03-.08-.06-.26.06-.39.07-.07.23,0,.24.15Z"/>
                <path class="cls-8" d="M79.67,82.32c0,.21-.1.41-.31.47,0-.11-.03-.23.03-.36.04-.09.18-.11.29-.11Z"/>
                <path class="cls-8" d="M79.22,82.95c0,.21-.12.4-.33.47,0-.11-.03-.24.03-.36.05-.09.19-.11.3-.11Z"/>
                <path class="cls-8" d="M78.74,83.57c0,.21-.1.41-.31.47,0-.11-.03-.23.03-.36.04-.09.18-.11.29-.11Z"/>
                <path class="cls-8" d="M78.27,84.19c-.04.31-.24.57-.47.78-.24-.29.18-.68.47-.78Z"/>
                <path class="cls-8" d="M83.39,68.34c-.28-.04-.43-.29-.61-.49.36,0,.57.15.61.49Z"/>
                <path class="cls-8" d="M74.83,65.25c.01-.14.09-.24.17-.35.14.36-.1.25-.17.35Z"/>
                <path class="cls-8" d="M82.78,69.1c-.08.02-.14-.03-.16-.08-.05-.13.03-.26.16-.23v.31Z"/>
                <path class="cls-2" d="M68.95,54c-1.96-1.56-3.82-2.98-6.17-3.75-.35-.11-.6-.36-.86-.49.06-.32.32-.54.6-.79,2.31-1.98,4.6-3.91,7.33-5.41,1.45.98-.27,9.07-.91,10.44Z"/>
                <g>
                  <path class="cls-11" d="M69.99,70.33c-1.39.71-3.01.23-4.36-.81.26.83.88,2.35.11,2.86-1.07.72-3.09-.95-3.96-1.85-.18.74.22,1.47-.19,2.02-.29.38-.98.13-1.39-.04-1.22-.51-2.16-1.41-2.99-2.43l-3.41-4.22c-2.98-3.7-6.94-3.03-8.84-4.38l-.94-1.09c-.95-1.11.3-5.6.31-5.45-.09-.88,1.51-2.69,0-5.16-.33.1-.69.13-.9.29,1.77-1.7,3.84-3.18,6.23-3.83,2.07-.56,4.24-.54,6.5-.43-4,2.03-4.76,7.76-2.98,11.51,1.08,2.56,3.09,4.48,5.76,5.25l3.62,1.05c3.42,1,6.09,3.47,7.42,6.7ZM47.17,59.44c-1.7-.17-1.11-1.75-2.12-1.54-.25.05-.42.26-.42.61-.01.96.66,1.73,1.56,2.03,1.62.54,3.98-.23,3.44-1.19-.44-.79-1.4.19-2.46.09Z"/>
                  <path class="cls-3" d="M44.97,61.47c-2.03-1.44-1.84-3.75-.99-5.98.09-.25.12-.51.37-.56-.01-.15-1.27,4.34-.31,5.45l.94,1.09Z"/>
                  <path class="cls-7" d="M47.17,59.44c1.06.1,2.01-.88,2.46-.09.54.96-1.82,1.73-3.44,1.19-.9-.3-1.57-1.07-1.56-2.03,0-.35.18-.56.42-.61,1.01-.22.42,1.37,2.12,1.54Z"/>
                </g>
              </g>
            </g>
          </g>
          <path class="cls-1" d="M46.39,31.75c.28.61.56,1.08.63,1.69.16,1.5.09,3.1-.54,4.48-.52,1.15-1.63,1.74-2.64,2.17-1.89.8-3.96.05-4.97-1.79-.91-1.65-.99-3.58-.07-5.42.73-1.46,2.18-2.51,3.82-2.65,1.46-.12,2.75.47,3.76,1.52Z"/>
          <path class="cls-1" d="M77.96,51.06c-.1-.19-.1-.52-.26-.7-.14-.27-.52-.38-.43-.75-.03-.2-.2-.28-.32-.39-.55-.45-1.14-.83-1.77-1.16-.52.74-1.25,1.34-2.21,1.66,0,.42-.02.83-.02,1.25,0,.67-.14,1.3-.38,1.87.1.53.13,1.08.06,1.63,1.01.4,2,.87,2.95,1.49.32.21.59.48.94.43l.41.09c.11-.1.12-.31.22-.41-.19-.12,0-.34.05-.47.09-.22.21-.36.4-.27.06-.15.04-.32.08-.47.38-1.25.33-2.53.27-3.82Z"/>
          <path class="cls-4" d="M71.27,40c.89,0,1.66.2,2.3.53-.68-1.94-1.43-3.86-2.32-5.73-1.05-2.21-2.28-4.16-4-5.72-2.79-2.53-6.46-3.73-10.07-2.76l-1.37.37c-3.68.99-6.24,3.07-9.41,5.06.28.61.56,1.08.63,1.69.5,1.01.22,2.29-.11,3.55,1.18.49,2.36.96,3.42,1.84-1.67,2.98-3.22,5.96-4.09,9.23.36-.24.84-.46,1.24-.55.83-.49,1.72-.83,2.61-1.13.62-1.65,3.74-8.71,5.95-7.13.79.57,1.4,1.29,1.92,2.17l2.37,3.95c.68-.16,1.41-.17,2.13-.07.09-.21.18-.42.29-.6.68-1.16,1.62-1.71,2.78-2.21.73-1.1,1.92-1.9,3.56-2.02.62-.29,1.34-.47,2.18-.47Z"/>
          <path class="cls-4" d="M49.97,46.51c2.01-.15,4.02-.39,6-.73.97-.17,1.93-.39,2.91-.57.78-.14,1.81-.16,2.23.65l.06-.45c-.24.22-.82,0-1.09-.05-.48-.08-.96-.15-1.44-.2-.99-.1-1.99-.13-2.99-.11-1.99.04-3.97.27-5.94.51l.32.56c.16-.26.53-.3.81-.33.46-.06.92-.1,1.38-.14.92-.09,1.85-.15,2.77-.21,1.85-.1,3.71-.14,5.56-.1l-.19-.7c-.25.14-.61-.29-.76-.44-.25-.25-.5-.5-.74-.76-.47-.5-.92-1.03-1.34-1.58-.85-1.11-1.58-2.3-2.2-3.55l-.51.51c2.06,1.32,3.71,3.26,4.66,5.52l.55-.42c-2.58-1.74-4.72-4.09-6.23-6.81l-.59.45c1.92,1.68,3.67,3.54,5.22,5.57l.59-.45c-1.63-1.26-3.19-2.6-4.69-4.02-.29-.28-.86.1-.59.45,1.47,1.95,2.93,3.89,4.4,5.84l.51-.51c-2.14-1.49-4.15-3.16-6.01-4.99l-.53.53c1.62,1.46,3.32,2.84,5.08,4.13.34.25.78-.32.45-.59-1.56-1.29-2.96-2.78-4.14-4.43l.04.29c-.24.07-.31.13-.21.17.01,0,.03.02.04.02.05.08.13.15.19.22.14.17.27.33.41.5.28.35.57.69.85,1.04.14.17.27.33.41.5.04.05.13.14.13.2,0-.06.03-.04-.03-.02-.25.08-.54.01-.79-.01-1.58-.17-3.17.1-4.63.72l.38.65c1.31-.97,2.88-1.51,4.51-1.54l-.1-.74c-.9.18-1.83.16-2.73-.05l-.1.74c1.08-.08,2.16-.05,3.23.12l.1-.74c-.95-.01-1.84-.3-2.62-.83l-.29.69c1.44.53,2.85,1.12,4.23,1.78l.19-.7c-2.18-.1-4.36-.19-6.54-.29-.49-.02-.47.7,0,.75,2.86.33,5.72.66,8.58.99v-.75c-2.75.04-5.51.08-8.26.11v.75c2.56-.15,5.13,0,7.65.47v-.72c-2.71.74-5.56.06-8.29.64-.41.09-.32.77.1.74,2.62-.22,5.24-.29,7.87-.2v-.75c-2.73.35-5.44.78-8.15,1.28l.46.46c.04-.29.35-.37.6-.42.42-.09.86-.11,1.28-.16.97-.11,1.95-.22,2.92-.33.48-.06.48-.69,0-.75-1.67-.19-3.32.23-4.92.65l.46.46c.08-.39.46-.55.81-.65.51-.14,1.07-.17,1.6-.2,1.21-.06,2.42.04,3.61.19.42.05.51-.66.1-.74-1.77-.32-3.56-.43-5.35-.31l.27.64c1.3-1.4,2.88-2.53,4.64-3.26l-.29-.69-3.26,2.29c-.35.25-.14.77.29.69l3.83-.75c.47-.09.27-.82-.2-.72l-3.83.75.29.69,3.26-2.29c.32-.22.13-.86-.29-.69-1.89.79-3.58,1.95-4.97,3.46-.21.22-.08.66.27.64,1.72-.11,3.45-.02,5.15.28l.1-.74c-1.38-.18-2.78-.28-4.18-.15-.93.08-2.32.24-2.56,1.36-.06.28.17.54.46.46,1.54-.41,3.11-.81,4.72-.63v-.75c-1.17.13-2.33.27-3.5.4-.71.08-1.9.14-2.03,1.07-.04.29.16.52.46.46,2.64-.49,5.29-.91,7.95-1.25.47-.06.5-.73,0-.75-2.62-.09-5.25-.02-7.87.2l.1.74c2.73-.58,5.57.11,8.29-.64.34-.09.38-.65,0-.72-2.59-.48-5.22-.65-7.85-.5-.48.03-.49.76,0,.75,2.75-.04,5.51-.08,8.26-.11.49,0,.47-.7,0-.75-2.86-.33-5.72-.66-8.58-.99v.75c2.18.1,4.36.19,6.54.29.36.02.53-.54.19-.7-1.44-.68-2.91-1.3-4.41-1.86-.42-.15-.62.46-.29.69.89.6,1.93.92,3,.93.41,0,.53-.67.1-.74-1.14-.17-2.28-.23-3.43-.14-.4.03-.54.63-.1.74,1.03.24,2.08.26,3.12.05.42-.08.32-.74-.1-.74-1.75.03-3.48.59-4.89,1.64-.39.29-.07.84.38.65,1.16-.49,2.42-.72,3.68-.66.5.02,1.04.18,1.54.04s.75-.61.52-1.08c-.13-.26-.37-.5-.55-.72-.23-.29-.47-.57-.7-.86-.2-.24-.39-.48-.59-.72-.18-.22-.34-.44-.62-.53-.2-.07-.43-.05-.59.1-.25.24-.12.51.05.75.36.5.74.98,1.14,1.45.9,1.06,1.9,2.03,2.97,2.92l.45-.59c-1.71-1.25-3.35-2.6-4.93-4.02-.36-.32-.88.19-.53.53,1.9,1.88,3.97,3.59,6.16,5.11.3.21.74-.21.51-.51-1.47-1.95-2.93-3.89-4.4-5.84l-.59.45c1.49,1.42,3.06,2.76,4.69,4.02.15.12.33.15.49.03.13-.1.21-.34.1-.48-1.59-2.08-3.37-3.99-5.34-5.72-.31-.28-.8.07-.59.45,1.57,2.84,3.81,5.27,6.5,7.08.25.17.68-.12.55-.42-1.03-2.45-2.77-4.54-5.01-5.97-.34-.22-.67.2-.51.51.71,1.43,1.57,2.77,2.57,4.02.49.62,1.02,1.21,1.57,1.77.49.49,1.16,1.23,1.92.8.33-.19.18-.69-.19-.7-2.01-.03-4.02,0-6.02.13-1,.06-2,.14-3,.25-.75.08-1.7.06-2.15.78-.14.22.04.6.32.56,2.09-.25,4.18-.49,6.28-.51,1.03,0,2.07.04,3.1.16.5.06.99.18,1.49.25.41.06.81.03,1.12-.27.13-.12.13-.31.06-.45-.42-.81-1.34-1.13-2.2-1.1-.52.02-1.02.14-1.53.24s-1.05.21-1.57.31c-2.14.39-4.31.67-6.48.82-.48.03-.48.79,0,.75h0Z"/>
          <path class="cls-5" d="M75.6,53.26c.48,0,.48-.75,0-.75s-.48.75,0,.75h0Z"/>
          <path class="cls-1" d="M48.48,42.66c-2.24-.51-3.74,1.42-3.93,3.48-.08.86.06,1.85.83,2.38.89.62,2.41.44,3.42.36,1.27-.09,2.48-.38,3.71-.66,1.5-.34,2.99-.42,4.52-.43,1.12,0,2.32.2,3.29-.47,1.22-.84,2.37-1.81,3.54-2.71.5-.38.46-1.5-.38-1.4-1.98.25-3.86-.26-5.76-.76s-3.62-.86-5.48-1.07-3.83-.29-5.74-.16c-.59.04-1.14.08-1.47.64-.37.64-.44,1.56-.57,2.27-.08.45.2.98.72.95.37-.02.66-.09.94-.33.11-.09.67-.89.64-.9l-.33-1.25c-.31.25-.8.26-1.15.43-.33.16-.58.38-.8.67-.44.56-.78,1.38-.86,2.09-.21,1.82,1.48,2.72,3.05,2.85.39.03.76-.37.75-.75-.03-.74-.12-1.51-.08-2.26.05-.94.55-1.3,1.38-1.56,1.28-.41,2.64-.25,3.94-.02,1.21.22,2.4.46,3.62.58,1.36.14,2.76.21,4.03.76l-.15-1.18c-1.58,1.33-4.23.65-6.05.32-2.08-.38-4.15-.84-6.21-1.37v1.45c2.09-.3,4.18.08,6.18.68,1.63.49,3.16,1.11,4.81.39.76-.33.27-1.33-.38-1.4-.87-.09-1.74-.03-2.59.21-.9.26-1.73.98-2.68.93s-1.89-.44-2.75-.73c-1.05-.35-2.09-.75-3.1-1.19-.58-.25-1.28.16-1.1.85.19.74.38,1.49.58,2.22.13.46.23.88.71,1.08.55.23,1.31.18,1.89.23.73.06,1.46.13,2.19.19.78.07.96-1.03.38-1.4-1.41-.9-2.9-1.61-4.48-2.18v1.45c.97-.16,2.04.25,2.99.44.83.17,1.67.32,2.5.46,1.74.29,3.49.52,5.24.7.96.1.95-1.4,0-1.5-1.98-.21-3.96-.48-5.92-.84-1.68-.31-3.5-.99-5.21-.71-.8.13-.62,1.22,0,1.45,1.45.53,2.82,1.21,4.12,2.03l.38-1.4c-1.16-.1-2.58-.01-3.69-.37l.45.34c-.36-.76-.48-1.78-.69-2.59l-1.1.85c1.92.84,4,1.74,6.09,2.06.91.14,1.63-.02,2.44-.43,1.09-.55,2.12-.78,3.34-.66l-.38-1.4c-.87.38-1.84.04-2.69-.23s-1.77-.56-2.67-.75c-1.75-.38-3.5-.49-5.27-.23-.76.11-.67,1.27,0,1.45,2.52.64,5.06,1.22,7.63,1.62,2.09.32,4.36.5,6.08-.95.34-.29.27-.99-.15-1.18-1.54-.66-3.14-.79-4.79-.96-1.74-.18-3.43-.68-5.18-.79-1.43-.09-2.96.12-4.18.94-1.57,1.06-1.06,2.96-1,4.61l.75-.75c-.58-.05-1.31-.21-1.51-.83-.14-.44.13-1.1.37-1.49.41-.67,1.37-.67,1.97-1.16.45-.37.18-1.12-.33-1.25-.44-.12-.81-.06-1.19.21-.14.1-.7.97-.79.97l.72.95c.08-.42.16-.85.26-1.27.04-.15.35-.81-.03-.53.23-.17,1.14-.06,1.44-.07.36,0,.72-.01,1.08-.01,1.73,0,3.46.15,5.16.44,3.19.54,6.37,2.02,9.66,1.61l-.38-1.4c-.79.6-1.58,1.2-2.36,1.81-.38.29-.77.67-1.18.9-.48.27-.88.26-1.42.27-1.79,0-3.57-.02-5.34.33s-3.56.84-5.45.79c-.49-.01-1.07.07-1.28-.44-.14-.33-.02-.93.06-1.25.21-.92.9-1.85,1.96-1.61.94.22,1.34-1.23.4-1.45h0Z"/>
          <path class="cls-1" d="M73.78,49.95c.36-.01.71-.05,1.06-.11.07-.01.14-.02.21-.04.17-.04.32-.13.44-.25.2-.2.29-.53.21-.8-.03-.11-.08-.2-.15-.29-.11-.15-.24-.23-.42-.29s-.42-.02-.58.08-.3.27-.34.45c-.04.19-.03.41.08.58s.26.28.45.34h.01c-.06-.02-.12-.05-.18-.07h0c-.05-.03-.1-.07-.15-.11h0s-.08-.09-.12-.14c0,0,0,.01.01.02l-.08-.18h0c0-.05-.02-.12-.03-.19,0,0,0,.02,0,.03l.03-.2s0,.02,0,.03l.08-.18s0,.02-.01.02l.12-.15s-.02.02-.02.02l.15-.12s-.02.01-.03.02l.18-.08c-.07.03-.15.04-.23.05-.09.02-.17.03-.26.04l.2-.03c-.21.03-.43.05-.64.05-.2,0-.39.08-.53.22-.13.13-.23.34-.22.53s.07.4.22.53.33.23.53.22h0Z"/>
        </g>
      </g>
    </g>
  </g>
</svg>