<?xml version="1.0" encoding="UTF-8"?>
<svg id="Capa_2" data-name="Capa 2" xmlns="http://www.w3.org/2000/svg" viewBox="0 0 113.32 97.07">
  <defs>
    <style>
      .cls-1 {
        fill: #2a1410;
      }

      .cls-2 {
        fill: #c36a45;
      }

      .cls-3 {
        fill: #f9e8d1;
      }

      .cls-4 {
        fill: #c36a44;
      }

      .cls-5 {
        fill: #faf0de;
      }

      .cls-6 {
        fill: #ab582b;
      }

      .cls-7 {
        fill: #fcf9e6;
      }

      .cls-8 {
        fill: #f5a3ab;
      }

      .cls-9 {
        fill: #c46842;
      }

      .cls-10 {
        fill: #291310;
      }

      .cls-11 {
        fill: #c26a45;
      }
    </style>
  </defs>
  <g id="Capa_1-2" data-name="Capa 1">
    <g>
      <path class="cls-2" d="M29.86,75.47l-1.87,9.9c-.76,4-1.65,7.81-2.75,11.71h5.01c.77-2.76,1.4-5.5,1.9-8.03l2.62-13.47c.22-1.13-.04-3.11-1.23-3.69-7.21-3.57-13.2-3.44-19.31-6.28-2.18-1.02-4.17-2.17-5.85-3.87-1.78-1.8-3.17-3.94-3.5-6.48-.34-2.64.64-5.06,2.62-6.74,1.67-1.42,3.76-1.96,5.94-2.05,1.64-.06,3.22-.2,4.84-.11l6.3.36c2.21.13,4.31.3,6.52.48,1.9.16,6.44.64,7.53-.95,1.05-1.53-.74-3.94-1.47-5.28-3.27-6.03-4.15-13.14-2.28-19.77,2.91-10.31,11.61-16.08,22.15-16.35,8.11-.21,16.96,3.8,20.95,11.19,4.81,8.92,2.81,19.85-2.65,28.01-.32.47-.25,1.13-.1,1.58.4,1.22,2.91,1.27,4.07,1.16l9.17-.9c4.65-.46,12.75-.94,16.78,1.5,2.33,1.41,3.5,4.16,3.26,6.86-.33,3.78-2.66,6.82-5.91,8.61-2.16,1.19-4.32,2.07-6.67,2.84l-7.92,2.58c-1.91.62-3.62,1.24-5.44,2.16-1.14.58-2.73,1.78-2.68,3.22.09,2.64.85,5.11,1.36,7.69l1.99,10.06c.3,1.51.78,3.51,1.4,5.69h4.97c-.84-2.87-1.5-5.66-1.94-7.94l-1.86-9.51c-.33-1.69-.75-3.27-.98-5,2.17-1.04,4.4-1.73,6.7-2.49l7.31-2.41c2.22-.73,4.22-1.64,6.26-2.79,4.33-2.45,7.43-6.58,8.13-11.53.65-4.61-1.13-9.11-4.91-11.79-1.93-1.37-4.14-1.92-6.44-2.43-6.66-1.02-12.83-.19-19.68.5,3.85-8.45,4.67-18.54.55-26.91-1.61-3.27-3.81-6.07-6.7-8.35C66.84-.81,53.95-2.05,43.55,3.3c-4.52,2.33-8.06,5.77-10.58,10.16-5.04,8.8-5.09,19.72-.48,28.97-1.61.08-3.13-.28-4.75-.36l-11.03-.51c-1.54-.07-2.99.1-4.53.21-3.44.24-6.71,1.7-9,4.24-3.52,3.9-4.09,9.24-1.87,13.94,1.6,3.38,4.12,6.04,7.32,8.04,3.37,2.14,6.99,3.53,10.91,4.46,3.51.83,6.9,1.52,10.32,3.03Z"/>
      <path class="cls-5" d="M34.76,75.57l-2.62,13.47c-.49,2.53-1.13,5.27-1.9,8.03h1.59c.85-3.14,1.55-6.29,2.14-9.33l2.29-11.82c.32-1.66-.03-4.27-1.78-5.24-3.47-1.92-7.45-2.98-11.4-3.89-3.39-.79-6.57-1.64-9.61-3.28-.41-.22-.71-.47-.77-.91-.28-2.1,2.27-.11,3.45-.99.32-.24.57-.71.55-1.22-.02-.9-.55-1.59-1.29-2.01-.67-.38-1.8-1.3-1.37-2.03.35-.59,3.36.97,4.45-.79,1.42-2.3-3.12-3.54-2.04-4.76.55-.62,2.49.1,3.27-1.02.36-.52.33-1.04.32-1.72l6.53.34,6.2.49c1.74.14,3.46.19,5.1-.28,1.86-.53,2.93-2.18,2.55-4.1-.2-1.01-.54-2-1.12-2.9-3.67-5.79-4.72-12.7-3.17-19.31.04-.16-.1-.48.16-.52.02-.1.04-.22.03-.32-.02-.2.05-1.43.46-1.19.01-.1.04-.21.04-.31,0-.13-.08-.26-.03-.41.04-.12.19-.2.32-.12.21-.56.58-1.05.69-1.65.03-.17-.1-.37,0-.57.05-.12.24-.09.34-.12.3-.29.57-.74.66-1.15.02-.11-.07-.26,0-.41.06-.13.23-.07.35-.11.2-.07.3-.29.34-.49.03-.18.15-.32.33-.35.02-.05.01-.12.02-.17.01-.18.15-.27.3-.35.07-.04.12-.14.19-.19-.02-.46.35-.85.79-.96.16-.07.29-.2.36-.37-.07-.49.43-.8.84-.8h.13c-.02-.12.03-.23.12-.3.07-.05.17-.03.23-.08.05-.04.14-.12.17-.18.1-.4.44-.63.85-.63.09-.02.22-.1.3-.16.31-.47.8-.94,1.37-.97.29-.01.57-.25.83-.36.09-.23.41-.51.69-.48.38.04.64-.3.99-.36.43-.6,1.29-.85,2.02-.83.28.01.56-.09.82-.17,0-.21.21-.14.35-.14.34-.01.67-.1.99-.19.07-.59.95-.44,1.34-.21.07,0,.23-.06.3-.02-.09-.19.12-.32.29-.3.11.01.3.01.29.18.28-.04.65-.1.93-.04-.49-.47,2.34-.31,1.89-.13h.31c.01-.23.27-.3.44-.33.24-.04.54.03.44.32.1,0,.2,0,.3,0-.37-.14,1.94-.35,1.55.16.09-.02.21,0,.3,0-.02-.14.11-.16.2-.1.05.03.09.14.14.15.21.03.45.14.67.12.13-.02.25-.2.41-.16.17.04.38.11.29.32.29.08.71.02.97.17.09-.21.38-.13.58-.15.2-.01.34.13.26.35.27.03.51.23.82.21.82-.07,1.82.28,2.32.93.23.09.5.21.72.32-.28-.6,3.48,1.57,3.02,1.71l.21.13c.61,0,1.03.53,1.31,1.04.17.31.43.56.77.68.18.06.3.16.36.34.05.15.19.26.33.31.16.06.29.17.33.34.01.05-.01.1,0,.15.07-.02.15-.02.21.03.06.05.08.13.1.19.06.18.16.41.36.46.21.06.22.2.3.35.74,1.27,1.59,2.49,2.2,3.82.18,0,.36.08.35.26,0,.17-.02.29-.04.42,0,.05,0,.12,0,.17.52.21.57.84.5,1.35-.01.1.02.21.01.31.16,0,.26.14.32.29.04.12.08.36-.11.39.07.09.06.23.12.32.3.44.39,1,.3,1.51-.02.09,0,.24.03.33.04.08.17.13.18.25.01.11-.12.17-.15.25-.04.14.09.33.03.47.08-.1.31.06.3.21-.05,1.06.21,6.3-.47,6.06l-.02.29c.07.07.14.16.13.26,0,.11-.11.19-.17.25-.13.89-.5,1.8-.52,2.71-.01.62-.08,1.39-.62,1.8-.03.1-.08.24-.07.34,0,.16.09.33-.03.5-.05.08-.17.14-.29.17,0,.06-.02.14,0,.19.1.41-.15.75-.46,1.01-.13.28-.36.51-.38.84-.03.58-.23,1.27-.8,1.48-.43.79-1.16,1.45-1.37,2.31l-.23.92c-.05.22-.22.32-.38.29-.01.14-.02.32-.02.46.01.08.19.15.16.27-.03.09-.01.32-.17.26,0,.33.13.64.18.96.13-.1.26.05.3.14.06.13.05.26.04.38l.15.17c.16,0,.4-.06.49.1.07.13.02.29.03.41.16.1.25.3.48.31,0-.11.05-.14.11-.15.13-.02.22.03.24.09.03.08.05.18,0,.25l.31.03c1.33.15,3.39.2,4.83.08.55-.04,1.15-.35,1.56.03.17-.04.44-.08.62-.03-.17-.56,1.13-.09,1.95-.4.33-.12.58-.06.78.1.24.02.54-.08.79-.03.09-.5.85-.34,1.21-.16.09.02.21-.04.3,0-.04-.44.53-.27.88-.28.84-.04,1.66-.45,2.33-.02.03.02.1,0,.14,0,1.05.21-.53.19.03,2.53.1.06.26.22.33.31.62.11,1.34.07,1.85.47.41-.12.95.08,1.19.37.09.11.4.14.24.52-.11.27-.4.54-.65.67-.38.19-.6.58-.95.81-.16.29-.38.54-.68.69-.03.08-.14.22-.17.3-.14.53.24,1.07.02,1.56.07.11.2.28.32.33.16,0,.33-.02.52.06.13.06.16.26.16.41.42.22.85.14,1.3.18-.62-.29,2.31-.76,1.89-.18.1.04.22.08.3.17.27-.05.46.11.27.36-.08.11-.16.26-.29.32v.18c.03.18.02.46.25.39.16-.05.31-.08.45-.11,0-.04.02-.09.02-.14-.03-.45-.05-.9.03-1.34-.06-.14-.1-.35-.21-.48-.15.02-.3-.04-.34-.2-.05,0-.12,0-.17-.01-.7-.03-1.35.24-2.01.07-.49-.13-1.14.23-1.63-.28-.29-.3-.17-.72-.04-1.06.06-.14-.11-.4.1-.51.12-.07.28,0,.4-.04.47-.17.69-.65,1.01-.97,1.14-2.36.26-1.48,0-2.85-.18-.09-.46,0-.65-.05-.41,0-2.03.28-2.02-.31-.07-.13-.17-.25-.31-.32-.17.04-.22-.09-.2-.25.01-.1.1-.19.19-.25.19-.65.75-1.29,1.45-1.38-.09-.11.05-.25.13-.28.13-.06.32.03.27.18h3.96c.35-.35.98-.01,1.37.16h.3c.33-.34.9-.14,1.2.17.09.01.23.05.32.02.44-.13,3.17.4,3.02.92.43.13.78.48,1.17.7.17.1.42.06.58.2.15.13.03.39.11.49.42.55.59,1.28.97,1.83.68.99.62,2.24.34,3.53-.03.15.06.37,0,.53-.04.1-.16.2-.32.12-.01.1-.05.21-.04.31.02.17.1.36.02.56-.04.12-.25.08-.34.12-.13.25-.36.54-.36.83,0,.51-.83,1.83-1.46,2-.26.07-.41.4-.65.51,0,.15-.02.36-.19.53-.07.07-.18,0-.32-.02-.14-.02-.3.16-.34.27-.05.16-.19.2-.34.19-.12,0-.21.15-.31.18-.19.25-.38.5-.71.49-.17,0-.33.09-.46.19.02.13.01.28-.11.32-.14.04-.27.02-.4,0-.19-.04-.34.15-.5.18.27.32-.9.57-.99.43,0,0-.6-1.27-.19-1.27-.06-.07-.13-.21-.17-.3-.15-.08-.27-.21-.33-.37-.2-.13-.44-.11-.66-.19.05.23-.23.25-.35.14-.06-.06-.12-.13-.17-.23-.26.09-.55.09-.81.14.09.31-.23.34-.45.34-.23,0-.44-.02-.58-.21-.05-.07-.22-.13-.31-.15-.21-.06-.22-.22-.22-.42,0-.17.03-.35.22-.41.18-.06.2-.32.33-.41-.2-.44-.63-.06-.97.06-.03.1-.14.24-.2.34.21.28.07.67.25,1.02.81,1.56,1.28.1,3.09.66.56.18.67.53.61,1.17-.01.11.1.25.03.4-.06.13-.22.09-.34.1-.11.01-.21.12-.31.17,0,.2-.12.33-.26.34-.18.01-.31-.04-.44-.04-.23,0-.44.13-.65.18-.02.17-.16.3-.28.32-.16.03-.28.02-.4-.01-.25-.07-.44.16-.64.21.05.29-1.62.76-2.05.67-.21-.04-.43.17-.63.17.07.2-.03.38-.26.35-.14-.02-.41.06-.42-.16-.26.13-.58.15-.84.29.39.25-1.56.76-1.85.64-.08-.03-.23.04-.32.04.09.26-.11.33-.26.35-.22.03-.42-.07-.59-.03-2.07.5-4.07,1.37-6.03,2.32-1.07.52-1.85,1.21-2.55,2.12-.92,1.18-1.11,2.43-.82,3.88l1.3,6.53,2.27,11.31c.26,1.29.6,2.7,1,4.18h1.67c-.61-2.18-1.1-4.18-1.4-5.69l-1.99-10.06c-.51-2.57-1.27-5.05-1.36-7.69-.05-1.44,1.54-2.64,2.68-3.22,1.82-.93,3.53-1.54,5.44-2.16l7.92-2.58c2.35-.77,4.51-1.65,6.67-2.84,3.25-1.79,5.58-4.83,5.91-8.61.24-2.71-.94-5.45-3.26-6.86-4.03-2.44-12.13-1.96-16.78-1.5l-9.17.9c-1.15.11-3.66.06-4.07-1.16-.15-.45-.22-1.11.1-1.58,5.47-8.16,7.46-19.09,2.65-28.01-3.98-7.39-12.84-11.4-20.95-11.19-10.53.27-19.24,6.04-22.15,16.35-1.87,6.63-.99,13.74,2.28,19.77.73,1.35,2.52,3.76,1.47,5.28-1.09,1.58-5.63,1.1-7.53.95-2.21-.18-4.31-.36-6.52-.48l-6.3-.36c-1.62-.09-3.21.05-4.84.11-2.18.08-4.27.63-5.94,2.05-1.98,1.68-2.96,4.11-2.62,6.74.33,2.54,1.72,4.68,3.5,6.48,1.69,1.7,3.67,2.86,5.85,3.87,6.11,2.84,12.1,2.7,19.31,6.28,1.19.59,1.45,2.57,1.23,3.69ZM11.65,62.41c-3.87-2.42-7.47-7.94-3.81-12.06,1.17-1.32,2.86-2.06,4.66-2.22,2.09-.19,4.12-.23,6.22-.1.37.02.38.66.33.89-.07.33-.43.6-.87.62l-1.44.07c-.52.03-.92.36-1.13.63-1.09,1.42.93,2.84,1.65,3.44.48.4.76,1.21.17,1.59-1.23.79-3.25-.9-4.21.6-.35.56-.3,1.33.1,1.94.6.91,3.24,2.11,2.25,2.98-.63.55-2.16-.68-3.24.18-.36.29-.55.8-.68,1.45Z"/>
      <path class="cls-9" d="M34.49,70.69c1.75.97,2.1,3.58,1.78,5.24l-2.29,11.82c-.59,3.03-1.29,6.18-2.14,9.33h51.11c-.4-1.47-.74-2.89-1-4.18l-2.27-11.31-1.3-6.53c-.29-1.45-.1-2.7.82-3.88.7-.9,1.48-1.6,2.55-2.12,1.96-.95,3.96-1.82,6.03-2.32.15-.3.56-.3.86-.32.09,0,.23-.08.32-.04.46-.45,1.22-.56,1.85-.64.26-.15.57-.17.84-.29.23-.11.41-.2.68-.19.2,0,.42-.21.63-.17.55-.48,1.35-.52,2.05-.67.2-.04.39-.28.64-.21.06-.31.44-.26.68-.31.22-.04.42-.18.65-.18.06-.3.44-.33.7-.3.09-.06.19-.16.31-.17,0-.21.09-.43.3-.5.06-.64-.05-.99-.61-1.17l-1.68.29c-.63.11-1.14-.03-1.47-.56-.24-.38-.46-.97-.19-1.41.06-.1.17-.23.2-.34.33-1.1,1.54-1.38,2.42-2.31v-.18c.01-.23.03-.45.02-.68-.08-.09-.2-.13-.3-.17-.64,0-1.24.24-1.89.18-.45-.04-.88.04-1.3-.18-.26-.14-.56-.17-.68-.47-.12-.05-.26-.22-.32-.33-.45-.29-.41-1.18-.02-1.56.03-.08.14-.22.17-.3.1-.29.44-.53.68-.69.34-.23.57-.62.95-.81.13-.41.51-.74.41-1.19-.25-.28-.78-.49-1.19-.37-.56.17-1.55-.07-1.85-.47-.07-.09-.23-.25-.33-.31-1.1-.73.08-2.01-.03-2.53-.04,0-.11.02-.14,0-.33.11-3.09.35-3.21.3-.09-.04-.21.03-.3,0-.41.02-.79.23-1.21.16-.25-.04-.54.05-.79.03-.17.15-2.67.32-2.73.3-.17-.05-.44,0-.62.03-1.12.25-5.76.78-6.38-.12l-.31-.03c-.15-.02-.25-.19-.35-.19-.23-.01-.32-.21-.48-.31-.22-.14-.55-.17-.52-.51l-.15-.17c-.28-.05-.31-.29-.35-.53-.05-.32-.18-.63-.18-.96v-.53c0-.14.02-.32.03-.46.04-.47.18-.98.61-1.21.22-.86.95-1.52,1.37-2.31.26-.49.4-1.09.8-1.48.02-.33.24-.56.38-.84.16-.33.12-.78.46-1.01-.01-.06,0-.13,0-.19.01-.26.05-.57.31-.67,0-.1.04-.24.07-.34.2-.6.21-1.31.62-1.8.02-.91.38-1.82.52-2.71l.04-.51.02-.29.23-2.09c.15-1.38-.08-4.13-.07-4.17.06-.14-.06-.33-.03-.47l-.03-.5c-.03-.09-.04-.24-.03-.33-.31-.43-.31-1-.3-1.51-.06-.09-.06-.24-.12-.32-.15-.2-.23-.43-.21-.68,0-.1-.03-.21-.01-.31-.36-.33-.41-.89-.5-1.35-.01-.05-.01-.12,0-.17-.29-.08-.34-.41-.32-.68-.61-1.34-1.47-2.56-2.2-3.82-.16-.06-.26-.2-.3-.35-.2-.06-.31-.28-.36-.46-.15.05-.27-.09-.31-.22-.02-.05,0-.1,0-.15-.16-.06-.28-.18-.33-.34-.14-.06-.28-.17-.33-.31-.17-.06-.3-.18-.36-.34-.34-.12-.6-.37-.77-.68-.48-.26-1.01-.58-1.31-1.04l-.21-.13c-.96-.61-1.99-1.17-3.02-1.71-.22-.11-.49-.23-.72-.32-.44-.18-2.55-.83-2.32-.93-.3.03-.54-.18-.82-.21-.33-.03-.55-.03-.84-.2-.26-.15-.68-.09-.97-.17-.23-.07-.49-.02-.7-.17-.22.03-.45-.09-.67-.12-.11,0-.23-.05-.34-.04-.1,0-.21-.03-.3,0-.52.14-1.02-.15-1.55-.16-.1,0-.2,0-.3,0-.29.02-.58,0-.87,0h-.31c-.65,0-1.24.27-1.89.14-.28-.06-.65,0-.93.04-.17.02-.36.25-.57.13-.06-.04-.23.02-.3.02-.38.17-.91.23-1.34.21-.32.09-.65.18-.99.19,0,.17-.24.11-.35.14-.26.08-.54.18-.82.17.19.21-1.86.8-2.02.83-.35.06-.6.4-.99.36-.14.24-.43.38-.69.48-.26.11-.54.35-.83.36-.35.44-.92.64-1.37.97-.08.06-.21.14-.3.16-.2.3-.49.55-.85.63-.03.06-.12.14-.17.18-.03.19-.17.37-.35.37h-.13c-.19.34-.51.59-.84.8-.07.16-.19.29-.36.37-.14.4-.47.69-.79.96-.06.05-.11.16-.19.19-.05.15-.15.28-.3.35,0,.05,0,.12-.02.17-.07.15-.18.28-.33.35-.03.2-.14.42-.34.49-.01.22-.12.46-.35.51-.09.41-.36.86-.66,1.15,0,.27-.04.61-.33.69-.11.59-.48,1.09-.69,1.65-.07.18-.04.51-.3.53,0,.1-.02.21-.04.31-.06.42-.08.96-.46,1.19.01.1,0,.22-.03.32-.03.17.03.44-.16.52-1.56,6.61-.51,13.52,3.17,19.31.58.91.92,1.9,1.12,2.9.38,1.91-.69,3.56-2.55,4.1-1.64.47-3.36.42-5.1.28l-6.2-.49-6.53-.34c.02.68.05,1.2-.32,1.72-.78,1.12-2.72.39-3.27,1.02-1.07,1.22,3.46,2.47,2.04,4.76-1.09,1.77-4.11.2-4.45.79-.43.73.7,1.65,1.37,2.03.75.42,1.27,1.11,1.29,2.01.01.52-.23.99-.55,1.22-1.18.88-3.73-1.11-3.45.99.06.44.36.69.77.91,3.04,1.65,6.22,2.5,9.61,3.28,3.95.91,7.93,1.97,11.4,3.89ZM70,30.36c.75-.93,2.09-1.12,3.19-.65,1.07.45,1.62,1.82.85,2.85-.86,1.16-2.49,1.28-3.6.55-.94-.61-1.15-1.85-.44-2.74ZM60.33,83.48c-.96,1.08-2.06,1.91-3.32,2.69-1.83-1.08-3.4-2.41-4.44-4.22-.79-1.39-.67-3.16.67-4.03.68-.44,1.39-.59,2.24-.36.6.16,1.11.7,1.46,1.47.46-.74.89-1.3,1.63-1.5.92-.24,1.82.07,2.46.66,1.59,1.49.65,3.74-.7,5.27ZM56.99,64.31c-1.87-1.16-4.22-3.08-4.81-5.23-.45-1.66.51-3.18,2.19-3.47,1.17-.2,2.1.42,2.57,1.56.5-.92,1.12-1.46,1.86-1.56.95-.13,1.82.19,2.43.94,2.26,2.73-1.92,6.41-4.25,7.77ZM62.52,23.91c.28-.53.75-.8,1.28-.83.57-.03,1.11.28,1.38.87.34.75.33,1.67-.13,2.44-.31.53-.79.77-1.26.78-.49,0-.97-.21-1.25-.69-.47-.8-.45-1.75-.02-2.57ZM53.95,37.07c1.96.77,3.92.79,5.94.09,2.93-1.02,3.53-3.96,4.43-3.2,1.34,1.13-1.69,3.51-2.6,4.06-2.01,1.19-4.55,1.46-6.82.98-1.88-.4-3.37-1.39-4.68-2.72-.51-.52-1.03-1.09-.84-1.9.06-.26.34-.5.55-.51.97-.06,1.32,2.15,4.02,3.2ZM49.02,23.8c.27-.5.78-.74,1.23-.77.56-.03,1.05.29,1.35.8.5.86.52,1.86-.06,2.77-.57.55-1.5.74-2.09.19-.81-.75-.95-2.06-.43-3ZM39.95,31.42c.02-.64.39-1.21,1.01-1.6.97-.61,2.27-.61,3.2.13.86.7.85,2-.02,2.79-.95.88-2.4.97-3.44.3-.55-.35-.77-1.05-.75-1.63Z"/>
      <path class="cls-4" d="M97.64,47.05c.4.28.91.14,1.37.15h.3c.32.29.8.12,1.2.17.09.01.23.05.32.02l3.02.92c.43.13.78.48,1.17.7.23.23.39.54.69.69.42.55.59,1.28.97,1.83.57,3.02.28,1.64.01,4.19-.01.1-.05.21-.04.31-.29.06-.29.44-.32.68-.13.25-.36.54-.36.83l-1.46,2c-.26.07-.41.4-.65.51-.22.11-.38.32-.52.51-.14-.02-.3.16-.34.27-.11.04-.36.02-.34.19-.12,0-.21.15-.31.18-.29.07-.73.12-.71.49-.17,0-.33.09-.46.19-.22.01-.45.09-.51.32-.19-.04-.34.15-.5.18-.25.04-.5.09-.81.2-.07-.47-.14-.79-.37-1.05-.06-.07-.13-.21-.17-.3-.08-.17-.17-.26-.33-.37-.2-.13-.44-.11-.65-.19-.18-.07-.3-.16-.52-.09-.26.09-.55.09-.81.14-.34.06-.68.18-1.03.13-.05-.07-.22-.13-.31-.15v-.83c.18-.06.2-.32.34-.41.63-.43,2.08-1.28,2.15-1.97,0-.04.02-.09.02-.14.34-.07.33-.43.33-.74,0-.24-.07-.47-.3-.6-.06-.14-.1-.35-.21-.48-.09-.11-.19-.19-.34-.2-.05,0-.12,0-.17-.01-.62-.27-1.38-.17-2.01.07-.49-.13-1.14.23-1.63-.28-.29-.3-.17-.72-.04-1.06.23-.12.4-.31.5-.55.47-.17.69-.65,1.01-.97.42-.42.86-.78.81-1.44-.04-.56-.29-1.12-.82-1.41-.18-.09-.46,0-.65-.05-.65-.18-1.35-.25-2.02-.31-.07-.13-.17-.25-.31-.32v-.5c.18-.65.74-1.29,1.44-1.38.13-.02.29-.09.4-.1h3.96Z"/>
      <path class="cls-11" d="M17.42,55.26c-1.23.79-3.25-.9-4.21.6-.35.56-.3,1.33.1,1.94.6.91,3.24,2.11,2.25,2.98-.63.55-2.16-.68-3.24.18-.36.29-.55.8-.68,1.45-3.87-2.42-7.47-7.94-3.81-12.06,1.17-1.32,2.86-2.06,4.66-2.22,2.09-.19,4.12-.23,6.22-.1.37.02.38.66.33.89-.07.33-.43.6-.87.62l-1.44.07c-.52.03-.92.36-1.13.63-1.09,1.42.93,2.84,1.65,3.44.48.4.76,1.21.17,1.59Z"/>
      <path class="cls-3" d="M97.66,57.53c-.07.69-1.52,1.54-2.15,1.97-.2-.44-.63-.06-.97.06.33-1.1,1.54-1.38,2.42-2.31.04.18.03.46.25.39.16-.05.31-.08.45-.11Z"/>
      <path class="cls-3" d="M82.28,48.02c-1.12.25-5.76.78-6.38-.12,1.33.15,3.39.2,4.83.08.55-.04,1.15-.35,1.56.03Z"/>
      <path class="cls-3" d="M78.8,30.85l.23-2.09c.15-1.38-.08-4.13-.07-4.17.08-.1.31.06.3.21-.05,1.06.21,6.3-.47,6.06Z"/>
      <path class="cls-3" d="M106.68,55.73c.27-2.55.56-1.17-.01-4.19.68.99.62,2.24.34,3.53-.03.15.06.37,0,.53-.04.1-.16.2-.32.12Z"/>
      <path class="cls-3" d="M91.13,47.19c-.33.11-3.09.35-3.21.3-.04-.44.53-.27.88-.28.84-.04,1.66-.45,2.33-.02Z"/>
      <path class="cls-3" d="M103.84,48.32l-3.02-.92c.44-.13,3.17.4,3.02.92Z"/>
      <path class="cls-3" d="M94.82,52.56c1.14-2.36.26-1.48,0-2.85.53.29.78.85.82,1.41.05.66-.39,1.02-.81,1.44Z"/>
      <path class="cls-3" d="M97.67,61.58l-1.68.29c-.63.11-1.14-.03-1.47-.56-.24-.38-.46-.97-.19-1.41.21.28.07.67.25,1.02.81,1.56,1.28.1,3.09.66Z"/>
      <path class="cls-3" d="M67.19,8.37c-.44-.18-2.55-.83-2.32-.93.83-.07,1.82.28,2.32.93Z"/>
      <path class="cls-3" d="M100.17,62.4c.27.32-.9.57-.99.43,0,0-.6-1.27-.19-1.27.23.26.29.58.37,1.05.31-.12.55-.16.81-.2Z"/>
      <path class="cls-3" d="M85.63,47.69c-.17.15-2.67.32-2.73.3-.17-.56,1.13-.09,1.95-.4.33-.12.58-.06.78.1Z"/>
      <path class="cls-3" d="M70.92,10.4c-.96-.61-1.99-1.17-3.02-1.71-.28-.6,3.48,1.57,3.02,1.71Z"/>
      <path class="cls-3" d="M50.01,7.42c.19.21-1.86.8-2.02.83.43-.6,1.29-.85,2.02-.83Z"/>
      <path class="cls-3" d="M91.3,49.72c-1.1-.73.08-2.01-.03-2.53,1.05.21-.53.19.03,2.53Z"/>
      <path class="cls-3" d="M96.68,56.21c-.64,0-1.24.24-1.89.18-.62-.29,2.31-.76,1.89-.18Z"/>
      <path class="cls-3" d="M90.8,65.74c.39.25-1.56.76-1.85.64.46-.45,1.22-.56,1.85-.64Z"/>
      <path class="cls-3" d="M77.61,36.16c.2-.6.21-1.31.62-1.8-.01.62-.08,1.39-.62,1.8Z"/>
      <path class="cls-3" d="M94.99,64.42c.05.29-1.62.76-2.05.67.55-.48,1.35-.52,2.05-.67Z"/>
      <path class="cls-3" d="M93.48,50.5c-.56.17-1.55-.07-1.85-.47.62.11,1.34.07,1.85.47Z"/>
      <path class="cls-3" d="M75.58,40.69c.26-.49.4-1.09.8-1.48-.03.58-.23,1.27-.8,1.48Z"/>
      <path class="cls-3" d="M94.16,49.66c-.41,0-2.03.28-2.02-.31.67.06,1.37.13,2.02.31Z"/>
      <path class="cls-3" d="M57.2,6.38c-.65,0-1.24.27-1.89.13-.49-.47,2.34-.31,1.89-.13Z"/>
      <path class="cls-3" d="M92.49,55.42c-.45-.29-.41-1.18-.02-1.56-.14.53.24,1.07.02,1.56Z"/>
      <path class="cls-3" d="M97.67,57.39c-.03-.45-.05-.9.03-1.34.23.13.3.36.3.6,0,.31.01.67-.33.74Z"/>
      <path class="cls-3" d="M41.11,12.92c-.14.4-.47.69-.79.96-.02-.46.35-.85.79-.96Z"/>
      <path class="cls-3" d="M53.5,6.7c-.38.17-.91.23-1.34.21.07-.59.95-.44,1.34-.21Z"/>
      <path class="cls-3" d="M60.22,6.52c-.52.14-1.02-.15-1.55-.16-.37-.14,1.94-.35,1.55.16Z"/>
      <path class="cls-3" d="M96.99,55.35c-.7-.03-1.35.24-2.01.07.63-.24,1.38-.35,2.01-.07Z"/>
      <path class="cls-3" d="M72.44,11.57c-.48-.26-1.01-.58-1.31-1.04.61,0,1.03.53,1.31,1.04Z"/>
      <path class="cls-3" d="M78.24,20.45c-.36-.33-.41-.89-.5-1.35.52.21.57.84.5,1.35Z"/>
      <path class="cls-3" d="M36.78,20.26c-.06.42-.08.96-.46,1.19-.02-.2.05-1.43.46-1.19Z"/>
      <path class="cls-3" d="M99.01,47.2c-.46-.02-.97.12-1.37-.15.35-.36.98-.02,1.37.15Z"/>
      <path class="cls-3" d="M43.81,10.57c-.2.3-.49.55-.85.63.1-.4.44-.63.85-.63Z"/>
      <path class="cls-3" d="M76.76,38.37c.16-.33.12-.78.46-1.01.1.41-.15.75-.46,1.01Z"/>
      <path class="cls-3" d="M104.5,59.56l1.46-2c0,.51-.83,1.83-1.46,2Z"/>
      <path class="cls-3" d="M73.59,44.21c.04-.47.18-.98.61-1.21l-.23.92c-.05.22-.22.32-.38.29Z"/>
      <path class="cls-3" d="M94.26,52.05c.13-.41.51-.74.41-1.19.09.11.4.14.24.52-.11.27-.4.54-.65.67Z"/>
      <path class="cls-3" d="M100.5,47.38c-.4-.05-.88.11-1.2-.16.33-.35.9-.15,1.2.16Z"/>
      <path class="cls-3" d="M78.88,23.28c-.31-.43-.31-1-.3-1.51.3.44.39,1,.3,1.51Z"/>
      <path class="cls-3" d="M87.62,47.5c-.41.02-.79.23-1.21.16.09-.5.85-.34,1.21-.16Z"/>
      <path class="cls-3" d="M93.49,56.22c-.26-.14-.56-.17-.68-.47.16,0,.33-.02.52.06.13.06.16.26.16.41Z"/>
      <path class="cls-3" d="M58.38,6.37c-.29.02-.58,0-.87,0,.01-.23.27-.3.44-.33.24-.04.54.03.44.32Z"/>
      <path class="cls-3" d="M45.48,9.44c-.35.44-.92.64-1.37.97.31-.47.8-.94,1.37-.97Z"/>
      <path class="cls-3" d="M41.47,12.55c-.07-.49.43-.8.84-.8-.19.34-.51.59-.84.8Z"/>
      <path class="cls-3" d="M64.05,7.23c-.33-.03-.55-.03-.84-.2.09-.21.38-.13.58-.15s.34.13.26.35Z"/>
      <path class="cls-3" d="M88.63,66.43c.09.26-.11.33-.26.35-.23.03-.42-.07-.59-.03.15-.3.56-.3.86-.32Z"/>
      <path class="cls-3" d="M96.51,60.76c.09.31-.23.34-.45.34-.23,0-.44-.02-.58-.21.35.05.69-.07,1.03-.13Z"/>
      <path class="cls-3" d="M103.34,60.59c.13-.2.3-.41.52-.51,0,.15-.02.36-.19.53-.07.07-.18,0-.32-.02Z"/>
      <path class="cls-3" d="M77.73,18.93c-.29-.08-.34-.41-.32-.68.18,0,.36.08.35.26s-.02.29-.04.42Z"/>
      <path class="cls-3" d="M92.64,53.55c.1-.29.44-.53.68-.69-.16.29-.38.54-.68.69Z"/>
      <path class="cls-3" d="M74.76,47.37c-.22-.14-.55-.17-.52-.51.16,0,.4-.06.49.1.07.13.02.29.03.41Z"/>
      <path class="cls-3" d="M106.33,56.73c.03-.25.03-.62.32-.68.02.17.1.36.02.56-.04.12-.25.08-.34.12Z"/>
      <path class="cls-3" d="M97.67,63.43c0,.2-.12.33-.26.34-.18.01-.31-.04-.44-.04.06-.3.44-.33.7-.3Z"/>
      <path class="cls-3" d="M92.31,65.26c.07.2-.03.38-.26.35-.14-.02-.41.06-.42-.16.23-.11.41-.2.68-.19Z"/>
      <path class="cls-3" d="M38.14,17.09c0,.27-.04.61-.33.69.03-.17-.1-.37,0-.57.05-.12.24-.09.34-.12Z"/>
      <path class="cls-3" d="M93.81,53.53c-.1.24-.27.43-.5.55.06-.14-.11-.4.1-.51.12-.07.28,0,.4-.04Z"/>
      <path class="cls-3" d="M54.38,6.55c-.17.02-.36.25-.57.13-.09-.19.12-.32.29-.3.11.01.3.01.29.18Z"/>
      <path class="cls-3" d="M96.32,63.9c-.02.17-.16.3-.28.32-.16.03-.28.02-.4-.01.06-.31.44-.26.68-.31Z"/>
      <path class="cls-3" d="M78.46,21.44c-.15-.2-.23-.43-.21-.68.16,0,.26.14.32.29.04.12.08.36-.11.39Z"/>
      <path class="cls-3" d="M77.23,37.16c.01-.26.05-.57.31-.67,0,.16.09.33-.03.5-.05.08-.17.14-.29.17Z"/>
      <path class="cls-3" d="M62.23,6.86c-.23-.07-.49-.02-.7-.17.13-.02.25-.2.41-.16.17.04.38.11.29.32Z"/>
      <path class="cls-3" d="M96.96,57.06c0-.23.03-.45.02-.68.27-.05.46.11.27.36-.08.11-.16.26-.29.32Z"/>
      <path class="cls-3" d="M74.09,46.69c-.28-.05-.31-.29-.35-.53.13-.1.26.05.3.14.06.13.05.26.04.38Z"/>
      <path class="cls-3" d="M39.15,15.42c-.01.22-.12.46-.35.51.03-.11-.07-.26,0-.41.06-.13.23-.07.35-.11Z"/>
      <path class="cls-3" d="M105.7,49.71c-.29-.15-.45-.46-.69-.69.17.1.42.06.58.2s.03.39.11.49Z"/>
      <path class="cls-3" d="M97.98,63.25c0-.21.09-.43.3-.5-.01.11.1.25.03.4-.06.13-.22.09-.34.1Z"/>
      <path class="cls-3" d="M101.18,61.9c.02.13.01.28-.11.32-.14.04-.27.02-.4,0,.06-.23.29-.3.51-.32Z"/>
      <path class="cls-3" d="M97.84,60.7c.05.23-.23.25-.35.14-.06-.06-.12-.13-.17-.23.22-.08.33.02.52.09Z"/>
      <path class="cls-3" d="M95.17,60.74c-.21-.06-.22-.22-.22-.42,0-.17.03-.35.22-.41v.83Z"/>
      <path class="cls-3" d="M37.12,19.42c-.07.18-.04.51-.3.53,0-.13-.08-.26-.03-.41.04-.12.19-.2.32-.12Z"/>
      <path class="cls-3" d="M93.67,47.04c-.11.01-.28.09-.4.1-.09-.11.05-.25.13-.28.13-.06.32.03.27.18Z"/>
      <path class="cls-3" d="M102.34,61.23c-.19.25-.38.5-.71.49-.02-.37.42-.41.71-.49Z"/>
      <path class="cls-3" d="M75.59,47.87c-.15-.02-.25-.19-.35-.19,0-.11.05-.14.11-.15.13-.02.22.03.24.09.03.08.05.18,0,.25Z"/>
      <path class="cls-3" d="M78.94,24.12l-.03-.5c.04.08.17.13.18.25.01.11-.12.17-.15.25Z"/>
      <path class="cls-3" d="M78.75,31.65l.04-.51c.07.07.14.16.14.26,0,.11-.11.19-.17.25Z"/>
      <path class="cls-3" d="M42.79,11.38c-.03.19-.17.37-.35.37-.02-.12.03-.23.12-.3.07-.05.17-.03.23-.08Z"/>
      <path class="cls-3" d="M91.83,49.04c-.17.04-.22-.09-.2-.25.01-.1.1-.19.19-.25v.5Z"/>
      <path class="cls-3" d="M36.14,22.29c.04-.16-.1-.48.16-.52-.03.17.03.44-.16.52Z"/>
      <path class="cls-3" d="M73.57,45.21v-.53c.02.08.2.15.17.27-.03.09-.01.32-.17.26Z"/>
      <path class="cls-3" d="M46.31,9.08c.09-.23.41-.51.69-.48-.14.24-.43.38-.69.48Z"/>
      <path class="cls-3" d="M97.5,55.57c-.15.02-.3-.04-.34-.2.15,0,.25.09.34.2Z"/>
      <path class="cls-3" d="M74.54,13.62c-.15.05-.27-.09-.31-.22.07-.02.15-.02.21.03s.08.13.1.19Z"/>
      <path class="cls-3" d="M60.87,6.57c-.11,0-.23-.05-.34-.04-.02-.14.11-.16.2-.1.05.03.09.14.14.15Z"/>
      <path class="cls-3" d="M51.18,7.1c0,.17-.24.11-.35.14,0-.21.21-.14.35-.14Z"/>
      <path class="cls-3" d="M103,60.86c-.05.16-.19.2-.34.19-.02-.17.23-.15.34-.19Z"/>
      <path class="cls-3" d="M75.21,14.43c-.16-.06-.26-.2-.3-.35.21.06.22.2.3.35Z"/>
      <path class="cls-3" d="M98.82,61.26c-.15-.08-.28-.21-.33-.37.16.1.25.2.33.37Z"/>
      <path class="cls-3" d="M73.57,12.59c-.17-.06-.3-.18-.36-.34.18.06.3.16.36.34Z"/>
      <path class="cls-3" d="M74.23,13.25c-.16-.06-.28-.18-.33-.34.16.06.29.17.33.34Z"/>
      <path class="cls-3" d="M39.84,14.42c.01-.18.15-.27.3-.35-.05.15-.15.28-.3.35Z"/>
      <path class="cls-3" d="M39.49,14.94c.03-.18.15-.32.33-.35-.07.15-.18.28-.33.35Z"/>
      <path class="cls-7" d="M61.04,78.21c1.59,1.49.65,3.74-.7,5.27-.96,1.08-2.06,1.91-3.32,2.69-1.83-1.08-3.4-2.41-4.44-4.22-.79-1.39-.67-3.16.67-4.03.68-.44,1.39-.59,2.24-.36.6.16,1.11.7,1.46,1.47.46-.74.89-1.3,1.63-1.5.92-.24,1.82.07,2.46.66Z"/>
      <path class="cls-7" d="M61.24,56.54c2.26,2.73-1.92,6.41-4.25,7.77-1.87-1.16-4.22-3.08-4.81-5.23-.45-1.66.51-3.18,2.19-3.47,1.17-.2,2.1.42,2.57,1.56.5-.92,1.12-1.46,1.86-1.56.95-.13,1.82.19,2.43.94Z"/>
      <path class="cls-6" d="M64.31,33.96c1.34,1.13-1.69,3.51-2.6,4.06-2.01,1.19-4.55,1.46-6.82.98-1.88-.4-3.37-1.39-4.68-2.72-.51-.52-1.03-1.09-.84-1.9.06-.26.34-.5.55-.51.97-.06,1.32,2.15,4.02,3.2,1.96.77,3.92.79,5.94.09,2.93-1.02,3.53-3.96,4.43-3.2Z"/>
      <path class="cls-8" d="M44.14,32.75c-.95.88-2.4.97-3.44.3-.55-.35-.77-1.05-.75-1.63.02-.64.39-1.21,1.01-1.6.97-.61,2.27-.61,3.2.13.86.7.85,2-.02,2.79Z"/>
      <path class="cls-8" d="M74.05,32.55c-.86,1.16-2.49,1.28-3.6.55-.94-.61-1.15-1.85-.44-2.74.75-.93,2.09-1.12,3.19-.65s1.62,1.82.85,2.85Z"/>
      <path class="cls-1" d="M51.54,26.61c-.57.55-1.5.74-2.09.19-.81-.75-.95-2.06-.43-3,.27-.5.78-.74,1.23-.77.56-.03,1.05.29,1.35.8.5.86.52,1.86-.06,2.77Z"/>
      <path class="cls-10" d="M65.05,26.39c-.31.53-.79.77-1.26.78s-.97-.21-1.25-.69c-.47-.8-.45-1.75-.02-2.57.28-.53.75-.8,1.28-.83.57-.03,1.11.28,1.38.87.34.75.32,1.67-.13,2.44Z"/>
    </g>
  </g>
</svg>