<?xml version="1.0" encoding="UTF-8"?>
<svg id="Capa_2" data-name="Capa 2" xmlns="http://www.w3.org/2000/svg" viewBox="0 0 561.46 78.84">
  <defs>
    <style>
      .cls-1 {
        fill: #fad5dd;
        stroke: #c1272d;
        stroke-miterlimit: 10;
        stroke-width: 3px;
      }

      .cls-2 {
        fill: #c1272d;
      }

      .cls-3 {
        fill: #ffa6c9;
      }
    </style>
  </defs>
  <g id="Capa_1-2" data-name="Capa 1">
    <g>
      <rect class="cls-3" x=".15" y="0" width="561.18" height="78.84"/>
      <polygon class="cls-2" points="304.77 0 225.93 78.84 236.18 78.84 315.02 0 304.77 0"/>
      <polygon class="cls-2" points="529.7 0 450.86 78.84 460.49 78.84 539.33 0 529.7 0"/>
      <polygon class="cls-2" points="344.56 0 265.72 78.84 274.84 78.84 353.68 0 344.56 0"/>
      <polygon class="cls-2" points="324.77 0 245.93 78.84 256.18 78.84 335.02 0 324.77 0"/>
      <polygon class="cls-2" points="549.41 0 470.57 78.84 480.81 78.84 559.65 0 549.41 0"/>
      <polygon class="cls-2" points="265.81 0 186.97 78.84 197.22 78.84 276.05 0 265.81 0"/>
      <polygon class="cls-2" points="169.36 0 90.53 78.84 100.77 78.84 179.61 0 169.36 0"/>
      <polygon class="cls-2" points="285.13 0 206.29 78.84 216.54 78.84 295.37 0 285.13 0"/>
      <polygon class="cls-2" points="93.76 0 14.92 78.84 25.17 78.84 104.01 0 93.76 0"/>
      <polygon class="cls-2" points="112.08 0 33.25 78.84 43.49 78.84 122.33 0 112.08 0"/>
      <polygon class="cls-2" points="131.52 0 52.69 78.84 62.93 78.84 141.77 0 131.52 0"/>
      <polygon class="cls-2" points="149.85 0 71.01 78.84 81.26 78.84 160.1 0 149.85 0"/>
      <polygon class="cls-2" points="226.95 0 148.11 78.84 158.36 78.84 237.2 0 226.95 0"/>
      <polygon class="cls-2" points="246.82 0 167.98 78.84 178.23 78.84 257.07 0 246.82 0"/>
      <polygon class="cls-2" points="189.11 0 110.28 78.84 120.52 78.84 199.36 0 189.11 0"/>
      <polygon class="cls-2" points="207.44 0 128.6 78.84 138.85 78.84 217.69 0 207.44 0"/>
      <polygon class="cls-2" points="509.91 0 431.07 78.84 441.32 78.84 520.16 0 509.91 0"/>
      <polygon class="cls-2" points="417.18 0 338.35 78.84 348.59 78.84 427.43 0 417.18 0"/>
      <polygon class="cls-2" points="490.91 0 412.07 78.84 422.32 78.84 501.16 0 490.91 0"/>
      <polygon class="cls-2" points="435.97 0 357.13 78.84 366.87 78.84 445.71 0 435.97 0"/>
      <polygon class="cls-2" points="471.27 0 392.43 78.84 402.67 78.84 481.51 0 471.27 0"/>
      <polygon class="cls-2" points="381.54 0 302.7 78.84 312.95 78.84 391.79 0 381.54 0"/>
      <polygon class="cls-2" points="561.46 8.04 490.66 78.84 500.91 78.84 561.46 18.29 561.46 8.04"/>
      <polygon class="cls-2" points="399.19 0 320.35 78.84 330.6 78.84 409.43 0 399.19 0"/>
      <polygon class="cls-2" points="363.22 0 284.38 78.84 294.62 78.84 373.46 0 363.22 0"/>
      <polygon class="cls-2" points="74.4 0 .17 74.23 .17 78.84 5.29 78.84 84.13 0 74.4 0"/>
      <polygon class="cls-2" points=".17 65.9 66.07 0 56.34 0 .17 56.17 .17 65.9"/>
      <path class="cls-2" d="M11.89,0H1.64L0,1.64v.31c.1.41.17.84.17,1.32v8.44L11.89,0Z"/>
      <polygon class="cls-2" points="452.94 0 374.1 78.84 384.35 78.84 463.19 0 452.94 0"/>
      <polygon class="cls-2" points=".17 30.04 30.21 0 19.97 0 .17 19.8 .17 30.04"/>
      <polygon class="cls-2" points="561.46 71.41 554.03 78.84 561.46 78.84 561.46 71.41"/>
      <polygon class="cls-2" points="561.46 29.04 511.66 78.84 521.91 78.84 561.46 39.29 561.46 29.04"/>
      <polygon class="cls-2" points=".17 47.69 47.86 0 37.61 0 .17 37.44 .17 47.69"/>
      <polygon class="cls-2" points="561.46 49.83 532.45 78.84 544.28 78.84 561.46 61.66 561.46 49.83"/>
      <path class="cls-1" d="M547.06,58.3V21.93c-8.72,0-15.79-5.35-15.79-11.94H27.67c0,6.6-7.07,11.94-15.79,11.94v36.37c8.72,0,15.79,5.35,15.79,11.94h503.6c0-6.6,7.07-11.94,15.79-11.94Z"/>
    </g>
  </g>
</svg>