<?xml version="1.0" encoding="UTF-8"?>
<svg id="Capa_2" data-name="Capa 2" xmlns="http://www.w3.org/2000/svg" viewBox="0 0 279.74 143.73">
  <defs>
    <style>
      .cls-1 {
        fill: #ec2627;
      }

      .cls-2 {
        fill: #fad5dd;
        stroke: #c1272d;
        stroke-miterlimit: 10;
        stroke-width: 3px;
      }

      .cls-3 {
        fill: #c1272d;
      }

      .cls-4 {
        fill: #ffa6c9;
      }
    </style>
  </defs>
  <g id="Capa_1-2" data-name="Capa 1">
    <g>
      <g>
        <rect class="cls-4" x="0" width="279.74" height="143.57"/>
        <polygon class="cls-3" points="263.37 .16 119.8 143.73 131.38 143.73 274.95 .16 263.37 .16"/>
        <polygon class="cls-3" points="279.74 35.38 171.38 143.73 183.79 143.73 279.74 47.79 279.74 35.38"/>
        <polygon class="cls-3" points="0 .16 0 11.92 11.76 .16 0 .16"/>
        <polygon class="cls-3" points="236.42 .16 92.85 143.73 105.1 143.73 248.67 .16 236.42 .16"/>
        <polygon class="cls-3" points="279.74 10.07 146.08 143.73 156.69 143.73 279.74 20.68 279.74 10.07"/>
        <polygon class="cls-3" points="79.67 .16 0 79.84 0 90.45 90.28 .16 79.67 .16"/>
        <polygon class="cls-3" points="210.61 .16 67.04 143.73 78.16 143.73 221.73 .16 210.61 .16"/>
        <polygon class="cls-3" points="132.08 .16 0 132.25 0 143.73 .76 143.73 144.33 .16 132.08 .16"/>
        <polygon class="cls-3" points="185.31 .16 41.74 143.73 52.35 143.73 195.92 .16 185.31 .16"/>
        <polygon class="cls-3" points="104.98 .16 0 105.14 0 117.55 117.39 .16 104.98 .16"/>
        <polygon class="cls-3" points="279.74 115.7 251.71 143.73 262.32 143.73 279.74 126.32 279.74 115.7"/>
        <polygon class="cls-3" points="26.45 .16 0 26.61 0 38.86 38.7 .16 26.45 .16"/>
        <polygon class="cls-3" points="279.74 89.42 225.43 143.73 237.01 143.73 279.74 101.01 279.74 89.42"/>
        <polygon class="cls-3" points="159.03 .16 15.46 143.73 27.04 143.73 170.61 .16 159.03 .16"/>
        <polygon class="cls-1" points="279.74 141.01 277.02 143.73 279.74 143.73 279.74 141.01"/>
        <polygon class="cls-3" points="53.39 .16 0 53.56 0 65.14 64.98 .16 53.39 .16"/>
        <polygon class="cls-3" points="279.74 62.48 198.49 143.73 210.73 143.73 279.74 74.73 279.74 62.48"/>
      </g>
      <path class="cls-2" d="M266.07,116.11l.2-88.09c-9.24-.02-16.72-7.04-16.7-15.68l-219.13-.49c-.02,8.64-7.53,15.63-16.77,15.61l-.2,88.09c9.24.02,16.72,7.04,16.7,15.68l219.13.49c.02-8.64,7.53-15.63,16.77-15.61Z"/>
    </g>
  </g>
</svg>