<?xml version="1.0" encoding="UTF-8"?>
<svg id="Capa_2" data-name="Capa 2" xmlns="http://www.w3.org/2000/svg" xmlns:xlink="http://www.w3.org/1999/xlink" viewBox="0 0 342.38 199.59">
  <defs>
    <style>
      .cls-1 {
        filter: url(#drop-shadow-1);
      }

      .cls-2 {
        stroke: #35301f;
        stroke-width: .5px;
      }

      .cls-2, .cls-3 {
        fill: none;
      }

      .cls-2, .cls-3, .cls-4 {
        stroke-miterlimit: 10;
      }

      .cls-3, .cls-4 {
        stroke: #c1272d;
        stroke-width: 5px;
      }

      .cls-5 {
        font-family: Stolzl-Medium, Stolzl;
        font-size: 30px;
        font-weight: 500;
      }

      .cls-5, .cls-6 {
        fill: #c1272d;
      }

      .cls-4 {
        fill: #fad5dd;
      }

      .cls-7 {
        letter-spacing: 0em;
      }

      .cls-8 {
        fill: #ec2627;
      }

      .cls-9 {
        fill: #35301f;
        font-family: Times-Bold, Times;
        font-size: 37.34px;
        font-weight: 700;
      }

      .cls-10 {
        letter-spacing: -.03em;
      }

      .cls-11 {
        letter-spacing: -.01em;
      }

      .cls-12 {
        fill: #ffa6c9;
      }
    </style>
    <filter id="drop-shadow-1" x="-22.96" y="-8.19" width="374" height="230" filterUnits="userSpaceOnUse">
      <feOffset dx="-7" dy="7"/>
      <feGaussianBlur result="blur" stdDeviation="5"/>
      <feFlood flood-color="#540a21" flood-opacity=".35"/>
      <feComposite in2="blur" operator="in"/>
      <feComposite in="SourceGraphic"/>
    </filter>
  </defs>
  <g id="Capa_1-2" data-name="Capa 1">
    <g class="cls-1">
      <g>
        <g>
          <rect class="cls-12" x="7.46" y="15.68" width="327.43" height="168.05" transform="translate(-8.97 17.3) rotate(-5.64)"/>
          <polygon class="cls-6" points="306.8 2.07 156.07 185.82 169.57 184.48 320.29 .74 306.8 2.07"/>
          <polygon class="cls-6" points="329.92 41.21 216.16 179.88 230.61 178.46 331.34 55.66 329.92 41.21"/>
          <polygon class="cls-6" points=".02 32.36 1.37 46.05 13.71 31.01 .02 32.36"/>
          <polygon class="cls-6" points="275.41 5.17 124.69 188.91 138.95 187.51 289.68 3.76 275.41 5.17"/>
          <polygon class="cls-6" points="327.01 11.73 186.68 182.79 199.04 181.57 328.23 24.09 327.01 11.73"/>
          <polygon class="cls-6" points="92.83 23.2 9.18 125.16 10.4 137.53 105.19 21.98 92.83 23.2"/>
          <polygon class="cls-6" points="245.35 8.14 94.62 191.88 107.57 190.6 258.29 6.86 245.35 8.14"/>
          <polygon class="cls-6" points="153.87 17.17 15.21 186.21 16.53 199.59 17.42 199.5 168.14 15.76 153.87 17.17"/>
          <polygon class="cls-6" points="215.87 11.05 65.15 194.79 77.51 193.57 228.23 9.83 215.87 11.05"/>
          <polygon class="cls-6" points="122.3 20.29 12.09 154.64 13.52 169.1 136.76 18.86 122.3 20.29"/>
          <polygon class="cls-6" points="339.15 134.78 309.73 170.65 322.09 169.43 340.37 147.14 339.15 134.78"/>
          <polygon class="cls-6" points="30.83 29.32 3.06 63.17 4.47 77.44 45.1 27.91 30.83 29.32"/>
          <polygon class="cls-6" points="336.13 104.16 279.12 173.67 292.61 172.34 337.46 117.66 336.13 104.16"/>
          <polygon class="cls-6" points="185.26 14.07 34.53 197.81 48.03 196.48 198.75 12.74 185.26 14.07"/>
          <polygon class="cls-8" points="342.06 164.25 339.21 167.74 342.38 167.42 342.06 164.25"/>
          <polygon class="cls-6" points="62.21 26.22 6.16 94.55 7.49 108.05 75.71 24.89 62.21 26.22"/>
          <polygon class="cls-6" points="333.03 72.78 247.73 176.77 262 175.36 334.44 87.05 333.03 72.78"/>
        </g>
        <path class="cls-4" d="M323.28,136.83l-9.9-102.63c-10.77,1.04-20.28-6.28-21.25-16.35L36.82,42.47c.97,10.07-6.97,19.07-17.74,20.11l9.9,102.63c10.77-1.04,20.28,6.28,21.25,16.35l255.31-24.62c-.97-10.07,6.97-19.07,17.74-20.11Z"/>
      </g>
      <text class="cls-5" transform="translate(47.7 97.41) rotate(-5.64)"><tspan x="0" y="0">Gif</tspan><tspan class="cls-10" x="47.04" y="0">t</tspan><tspan class="cls-7" x="61.92" y="0">Ca</tspan><tspan class="cls-11" x="105.61" y="0">r</tspan><tspan x="118.06" y="0">d</tspan></text>
      <text class="cls-9" transform="translate(51.61 137) rotate(-5.64)"><tspan x="0" y="0">$20.000</tspan></text>
      <line class="cls-3" x1="229.58" y1="23.52" x2="243.13" y2="160.74"/>
      <line class="cls-2" x1="48.45" y1="105" x2="200.63" y2="89.98"/>
      <g id="obumhm">
        <g>
          <path class="cls-6" d="M233.58,26.95c1.53-.8,1.81-2.28,2.45-3.63.32-.66.65-1.31.95-1.97l-2.97.29c-.39,1.12-.59,3.33-.67,3.2.13.21.46.2.69.4-.33.52-.76.99-.44,1.7Z"/>
          <path class="cls-6" d="M321.37,96.58c-4.62,4.26-9.53,8.51-15.5,10.56-3.47,1.19-6.93,1.2-10.32,1.63l-8.04,1.01c-.32.04-.95-1.27-2.71.35l-3.43-.47c-3.86-.53-8.13.82-11.88-.26,1.78-.95,2.23.65,5.16-.89-2.6-.97-3.17,1.01-5.13-.97-.55-.56-1.38.02-1.95.21-.71.25-1.29-.31-2.12-.15.28.83,1.08.83,1.88.86.2,0,.2.68-.07.6-1.19-.34-2.49-.42-3.53-1.01-.68-.38-1.14-1.17-2.11-1.29-1.34-.17-2.27-1.07-3.31-1.69l-4.24-2.54c-1.9-1.14-4.45-1.08-6.34-2.38-1.6-1.1-3.12-2.81-4.28-4.36-.46-.61.13-2.29-1.27-2.56-.16-.03-.31-.6-.6-.51-.21.06-.42.5-.78.7-5.27-3.69-3.23-5.53-5.27-7.33-.26-.23-3.21-4.4-2.34-4.97.81.74,1.15,1.57,1.66,2.59.32-.17.38-.54.49-.86.09-.28-.2-.69-.53-.94-2.76-2.05-4.14-8.21-4.94-9.58l-2.05-3.5c-.5-.85-.51-1.9-1.02-2.79-.53-.92-.27-3.24.7-2.88.02-.86-.15-1.87-.62-2.59l-.34,1.34c-.61-1.17-.35-2.36-.15-3.52.08-.44-.47-.82-.45-1.25.06-1.23.36-2.35.08-3.67-.44.18-.55,1-1.02.94-.73-.63-.91-1.69-.7-2.68.44.51.3,1.16.73,1.9.69-.89,2.01-5.11.84-5.91l-.31.76c-.06.14-1.29-.31-1.47-.8-.23-.6.75-1.69.97-3.13-1.18.03-.82,1.05-1.29,1.74.45-1.55-1.18-4.74-.1-5.98.43-.5,1.45.14,1.99-4.27-2.11.48.88-2.63,1.16-3.18l1.15.37c-.31.64-.77,1.09-.68,1.71.03.18.41.29.44.41.09.37-.7.96-.67,1.7.02.31.24.51.69.78-.96,1.15-1.25,2.67-1.97,4-.43.79-.31,1.37-.38,2.21-.08,1.08-.38,1.94.72,2.55.05-1.18.85-1.93,1.36-2.89.55-1.04.44-2.18.56-3.38.61-6.05.69-2.19,2.1-5.32.25-.55,1.4-.35,1.48-1.15.29-2.98-1.86.24-.65-5.12-1.23.85-1.06,2.25-1.42,3.42-.22.74-.69,1.45-.88,2.42-.79-1.64,2.21-6.68,2.39-8.73.04-.41-.54-.82-.1-1.42.34.12.45.49.67.78,1.62-2.13.23-1.65.87-3.4l-1.04.1c-.1.47-.21.91-.46,1.14-.65.62-1.51.87-1.16,2.11.53,1.87-2.74,1.31-4.75,8.11-.3,1.02-1.84,1.98-1.18,3.29.24.48.51.87.41,1.39-.12.6-.83.5-1.17.9-2.02,2.37.21,6.09-.49,7.45-.36.7-1.09,1.21-.95,2.2.16,1.13-.51,2.13-.62,3.2-.15,1.48.15,3.03-.41,4.46-.39,1,1.06,2.54.66,6.5-.14,1.37.56,2.58.86,3.91l1.28,5.6c3.23,14.19,14.57,25.18,14.41,24.72.37,1.06,2.06,2.32,2.98,3.15,3.26,2.93,6.64,5.39,10.41,7.51.46.26,1.17.02,1.52-.18.2-.12,1.04-2.14.33-2.72-1-.82-2.11-1.23-3.12-2.44,1.06.49,2.41.54,3.45,1.17l3.99,2.42c1.05.64,2,1.56,3.34,1.75.96.14,1.44.85,2.15,1.3,1.48.92,3.36.75,4.91,1.59-.71-.12-1.01.8-1.37,1.11-.66-.14-1.28-.64-1.96-.71-.69-.07-1.15.28-1.29.83-.13.52.19.91.62,1.29.57.5,1.58.08,2.05.4.98.68,1.78.25,2.71.43,5.19.99,10.35,1.51,15.72,1.07.72-.06,1.23-.45,1.18-1.13-.04-.52-.45-.93-1.12-.92-3.28.04-6.53.31-9.71-.31-.55-.11-.88-.74-1.59-.74-1.31,0-2.32-.31-3.46-1.18,2.99.5,6.02.08,9.13.01,1.68-.03,3.13.38,4.74.59l2.69.35c5.35-2.11,11.01-1.28,17.04-2.77.84-.21,1.91-.06,2.66-.35,5.96-2.32,10.97-6.21,15.62-10.51l-.13-1.33ZM229.07,28.46c-.6,1.28-1.25,2.29-1.73,3.5-.23-.35-.1-.6-.42-.84.52-1.03,1.08-2.01,2.15-2.66ZM227.61,70.77c1.14,1.11,1.55,2.64,2.11,4.11l1.75,4.58c-1.44-1.67-2.13-3.45-2.81-5.38-.37-1.07-1.37-1.89-1.06-3.31ZM234.63,89.59c-.72-.56-.67-1.56-1.69-1.9.32.96.78,1.73.33,2.55-5.35-7.41-8.48-15.71-10.2-24.47-.19-1-.58-1.48-.42-2.52.19-1.26-.63-2.73-.33-4.14.31-1.49-1.14-1.44-.2-5.11.57.24,1.15.45,1.24.83.13,1.16-.2,2.23.24,3.28.24.12.45-.27.73-.46.42,1.45.94,2.79.9,4.49-.56-.18-.18-.66-.44-1.11-.13.05-.34.74-.47.61-.2-.22-.2-.58-.45-.8-.38.74-.34,1.57-.1,2.53l.64-.72c2.1,4.6.54,3.28,1.49,6.8.84,3.14,2.46,7.2,4.03,9.86.58.98.64,2.32,1.29,3.19.6.8.14,1.31.24,1.97.23,1.67,4.48,2.49,3.18,5.13ZM251.87,105.14c.12.43.23,1.14.06,1.59-5.18-2.96-9.77-6.4-13.6-10.79-.43-.75-.03-2.02-1.09-2.58-.21.01-.26.43-.59.63-.11-.87-.23-1.51-.77-2.01.46,0,.49-.25.59-.72l5.6,5.8c.87.9,2.05,1.4,2.54,2.66-1.3-.36-1.88-1.56-3.31-1.49.98,1.56,2.61,2.73,4.05,3.59.48-.43.95-.61,1.54-.2,1.66,1.16,3.35,2.12,4.98,3.52ZM267.79,112.85c-.15.02-.5,0-.47-.3.02-.21.08-.7.4-.88.47-.26,1.08-.08,1.78.11-1.58.68-.29.85-1.71,1.07Z"/>
          <path class="cls-6" d="M258.02,107.63c1.41,1.41,4.76,1.67,4.16,3.42-.46,1.36-2.39-.14-2.97-.04-1.69.29-2.73-.67-3.54-1.97-.26-.42-1.26-.32-1.46-.79-.25-.59-.7-1.21-.25-1.79.67-.86,1.56.11,2.16.12,1.06.02,1.24.39,1.9,1.05Z"/>
          <path class="cls-6" d="M299.5,110.48c.52.26.49.89.4,1.18-.3,1.01-2.12.76-2.44.44-.34-.33-.55-.97-.16-1.4.51-.57,1.46-.61,2.21-.22Z"/>
          <path class="cls-6" d="M244.3,40.64l-9.38-5.05c.16-.82.6-2.39,1.49-2.53,2.85-.44,5.54.06,8.53-.16l-6.45-3.37c-.4-.21-.25-.81-.12-1.04.15-.27.52-1.01.99-.76,2.98,1.62,6,3.01,8.88,4.86.47.65-.53,2.44-1.41,2.44h-8.89c2.41,1.25,4.76,2.36,7.14,3.82.38.23-.19,1.25-.78,1.77Z"/>
          <path class="cls-6" d="M287.63,105.31c-1.81.16-3.59-.03-4.58-1.54-1.2-1.82-1.58-4.2-1.11-6.33.89-4.05,6.66-4.47,8.59-2.69,1.37,1.27,1.64,3.14,1.81,4.9.29,2.99-1.52,5.39-4.71,5.66ZM289.45,97.23c-.63-1.47-2.09-1.88-3.51-1.45-2.86.87-1.83,5.59-.83,6.86.78.98,2.12,1.06,3.27.6,2.22-.88,1.78-4.37,1.07-6.02Z"/>
          <path class="cls-6" d="M259.71,93.27c-.97,1.69-2.16,3.31-4.15,3.84-2.98.8-6.66-1.63-6.73-4.88-.05-2.47,1.83-4.75,3.75-5.91s4.08-.5,5.74.72c2.02,1.49,2.75,3.88,1.4,6.23ZM258.12,90.65c.15-1.04-.6-1.9-1.23-2.33-.83-.57-1.91-.81-2.83-.24-1.46.9-2.64,2.48-2.98,4.18-.29,1.41.79,2.28,1.79,2.76,2.5,1.21,5-2.57,5.26-4.37Z"/>
          <path class="cls-6" d="M244.42,20.62c-1.51,2.02-1.53,4.62.41,6.67,1.16,1.22,2.64,2.73,4.66,2.6,2.64-.17,4.85-2.53,5.1-5,.22-2.17-1.14-3.74-2.54-5.03l-7.63.75ZM249.34,27.62c-1.8-.45-3.15-2.05-3.82-3.54-.45-1.02.03-1.97.67-2.67.5-.54,1.43-1.2,2.43-.86,1.68.57,3.26,1.98,3.82,3.76.53,1.69-1.24,3.78-3.1,3.32Z"/>
          <path class="cls-6" d="M244.32,84.3c-.38.02-1.19.73-1.18,1.1.01.65.89,1.05.82,1.83-.71-.08-1.05-.93-1.64-1.06-.74.06-1.2.35-1.7-.27-.58-.71-.41-1.01.03-1.82.21-.39-.39-1.39-.84-1.58-.79-.34-.97-1.08-.91-1.97.05-.69-1.41-.02-.22-3.54l1.31,2.89c.46,1.01.64-.54,1.75,3.47l6.71-5.48c1.23,1.18,2.3,2.38,3.1,3.74.88,1.49.47,3.15-.78,4.18-1.51,1.25-3.4,1.24-4.91-.01-.5-.42-.92-1.2-1.52-1.47ZM246.01,82.92c-.34.69,1.07,1.73,1.79,1.66.83-.09,2-.92,2.04-1.7.03-.69-.74-2.37-1.4-2.03-.84.43-2,1.27-2.43,2.07Z"/>
          <path class="cls-6" d="M255.23,19.55l2.34,3.91c.65-.23,1.77-.59,1.66-1.23-.18-1.08-1.18-1.98-1.63-2.92l-2.37.23Z"/>
          <path class="cls-6" d="M260.63,19.02c1.27,1.05,2.54,2.23,3.75.21-.01-.12-.17-.31-.41-.54l-3.34.33Z"/>
          <path class="cls-6" d="M319.35,76.13l-.17.28c-.83-.18-1.49-.71-2.3-1.12.25-1.57,2.78-3.64,1.03-4.36-.2-.08-.73-.21-.91.14-.93,1.78-1.93,3.38-2.77,5.32l5.43,2.95-.32-3.21Z"/>
          <path class="cls-6" d="M263.1,102.2c-1.61-.03-3.04-.72-4-1.84-.56-.65-.27-1.7.47-2.19.88,1.08,1.75,1.97,3.07,2.15.64.09,1.14-.29,1.38-.74.27-.49.16-1.05-.27-1.53l-1.55-1.75c-.76-.86-1.04-1.89-.7-2.98.27-.87.82-1.84,1.99-2.13,1.7-.43,3.71.21,4.75,1.68.4.57-.22,1.51-.59,1.78-.91-1.11-2.89-2.62-3.75-1.22-1.13,1.83,3.89,3.32,2.45,6.72-.51,1.19-1.54,2.09-3.25,2.05Z"/>
          <path class="cls-6" d="M320.05,83.22c-.34,1.66-1.24,3.41-3.09,3.25-1.97-.17-4-1.9-4.39-3.84-.36-1.81,1.24-2.98,2.91-3.39.19-.78-.89-1.58-1.72-1.29-2.13.73-3.59,2.91-3.38,5.15.28,3.07,4.26,6.64,7.65,5.57.84-.26,1.71-.96,2.38-1.78l-.36-3.66Z"/>
          <path class="cls-6" d="M307.62,92.5c-.77.95-1.98,1.17-2.77,1.9.51,1.29,1.72,2.27,2.03,3.64.14.63-1.01,1.07-1.67,1.26l-5.78-9.36,5-3.15c.44-.05,1.17,1.05.88,1.42-.79.99-2.06,1.26-3.08,2.13l1.63,2.52c1.02-.56,1.81-1.29,2.91-1.7.47-.18,1.25.84.84,1.35Z"/>
          <path class="cls-6" d="M299.98,97.02l-2.89,1.18c.27,1.4,1.22,2.56,1.32,3.99.04.52-1.4,1-1.91.78l-3.92-10.05c1.76-1.02,3.5-1.53,5.4-2.23.43-.16,1.07,1.1.75,1.42-.91.91-2.26.83-3.31,1.59.18.82.38,1.93,1,2.53.99.4,3.11-1.71,3.7-.48.15.3.52,1-.14,1.27Z"/>
          <path class="cls-6" d="M272.14,104.55c-.29.51-1.62.06-2.07-.25l1.66-9.02-2.66-.6c-.48-.11-.2-1.71.24-1.66,2.6.27,5.09.85,7.74,1.47.58.13.22,1.62-.3,1.65-1.01.07-1.8-.44-2.73-.31l-1.89,8.72Z"/>
          <path class="cls-6" d="M238.61,68.4l-2.06,3.95-.88-4.19-4.46-.72,3.89-2.24c-.17-1.41-.76-2.61-.58-4.11l3.06,2.72,3.88-2-1.71,3.99,3.15,3.04-4.3-.45ZM238.11,67.81c.84-.5,1.73.22,2.65.1l-1.93-1.93,1.06-2.49c-.8.17-1.53,1.19-2.44,1.11-.77-.23-1.28-1.17-1.87-1.59-.22.9.56,1.86.13,2.62s-1.54.77-2.05,1.32c.85.49,1.97-.01,2.56.65.52.59.19,1.7.76,2.25.53-.46.41-1.61,1.14-2.04Z"/>
          <path class="cls-6" d="M237.01,52.12l-1.88,3.88c-.57-1.44-.59-2.79-.92-4.16l-4.35-.75,3.68-2.15-.66-4.16,3.26,2.74,3.73-1.99-1.59,3.98,3.15,3.05-4.4-.43ZM236.71,51.44c.82-.36,1.67.4,2.38-.01-.43-.72-1.5-1.01-1.62-1.81s.77-1.42.74-2.32l-2.18,1.15-1.96-1.64c-.24.79.52,1.7.21,2.45s-1.39.7-2,1.34c.56.56,1.55.15,2.24.54.75.43.45,1.76.68,2.57.82-.44.62-1.87,1.52-2.26Z"/>
          <path class="cls-6" d="M314.4,92.48c-.2.97-.84,1.29-1.67,1.61l-6.82-8.15c-.42-.5,1.2-1.86,1.63-1.36l6.86,7.9Z"/>
          <path class="cls-6" d="M246.39,90.39c-.31.32-1.47.53-1.79-.06-.38-.71-.24-1.53-1.16-2.1.47-.16.85-.32.94-.79.29.83.71,1.04,1.37,1.2.7.17.63.93.63,1.75Z"/>
          <g>
            <path class="cls-6" d="M296.22,23.35c-.08-.04-.15-.08-.23-.12-11.27-5.28-23.86-4.33-34.03,2.09-.27.39.21.72-.02.99-.73-1.16-2.44.82-2.46,1-.06.56-.03,1.1.24,1.4.9-.51,1.23-1.06,1.7-1.67.2-.09.64-.02,1.05-.3,8.07-5.32,17.78-6.74,26.87-4.47-.17-.79-.26-.97.46-.84.06,1.02.62,1.18,1.43,1.44,2.15.69,4.19,1.59,6.12,2.67-.42-.7-.8-1.44-1.14-2.2Z"/>
            <path class="cls-6" d="M305.53,31.96c4.7,5.03,7.86,11.49,8.79,18.6.96-.04,1.33-.9,1.18-1.72-1.08-6.08-3.76-11.64-7.52-16.2-.86-.2-1.69-.43-2.46-.67Z"/>
            <path class="cls-6" d="M284.31,88.74c1.39-.56,3.07-.84,4.49-.76.33.02.74.45,1.01.52.7.17.4-1.1.7-1.2,15.02-4.7,25.34-19.12,23.97-35.01-.07-.82.18-1.48,1.27-1.65,2.47,19.89-12.23,37.93-32.31,39.34.38-.18.59-1.13.86-1.25Z"/>
            <path class="cls-6" d="M262.37,84.78l-1.76-1.18c-2.66-1.78-4.93-3.99-6.95-6.46-.3-.36.25-.99.27-1.39-.35-.22-.48.17-.82.59-2.92-3.17-6.77-11.6-6.83-16.01l-.02-1.44c0-.66-.12-.98-.25-1.6-.67-3.1-.14-6.36.64-9.34.02-.08.47-.18.54-.23.07-.05.13-.14.01-.22-.11-.07-.38.04-.61-.06.38-2.35,1.33-4.68,2.18-6.91.43.5.77.61,1.34.76-3.86,8.55-3.94,18.17-.27,26.88-.15.36-.68.18-.76.67.87.11,1.64.75,1.82,1.62.17.83.65,1.19,1.05,1.83,4.17,6.85,10.43,11.88,17.97,14.61.64.23.81.45,1.47.55,3.31.54,6.5,1.48,10.1,1.18-.04.58-.54.38-.65.66-.09.26.13.45.21.83-3.85.17-2.54-1.33-3.66-.24-5.28-.5-10.46-2.06-15.02-5.11Z"/>
            <path class="cls-6" d="M258.26,29.93c-2.5,2.44-4.78,4.95-6.6,8.2l-.84-1.36c1.94-3.18,4.32-6.14,7.33-8.53.53.57-.19.99.11,1.69Z"/>
            <path class="cls-6" d="M291.7,70.18c.07.99.38,1.72-.35,2.32-.41-.84-.84-1.89-.43-2.44.21-.27.74-.44.78.12Z"/>
            <path class="cls-6" d="M250.48,39.9c-.45.48-1.02.48-1.36.06.39-.8.6-1.46,1.16-2.08.17.78-.07,1.27.2,2.02Z"/>
            <g>
              <path class="cls-6" d="M282.4,59.11c.2,3.16-.09,6.46.62,9.6.41,1.83,2.44,3.13,3.24,4.83,0,.8.27,1.38.62,2.27-.64-.09-.58-.7-1.01-.81s-.74.19-1.11.8c-.53-.68-.86-1.37-1.64-2.12l.04,2.39c.01.72-.48,1.23-1.04,1.31-2.25.29-1.26-3.37-1.8-5.37l-2.79,3.51c-.43.54-1.36.42-1.79-.06-.35-.38-.55-1.12.03-1.68l4.27-5.95c.37-3.13-.24-6.28-.34-9.49-1.73,2.26-3.82,3.91-5.05,6.21-1.95,3.63-2.21,10.46-4.49,9.79-.76-.22-1.11-.99-.84-1.83l.83-2.57c.25-.33.98-.15,1.27-.43.31-.3.02-.48-.14-.56-1.24-.61-2.28,3.63-4.1,1.96-1.48-1.35,1.73-3.4,2.52-4.92-4.11,1.18-2.43.62-3.56.11-.27-.12-.25.52-.45.64-.49.29-.94-.37-1.03-.74-.12-.49.12-1.33.82-1.48,1.66-.37,3.33-1.1,4.98-1.17.95-.04,1.61.1,2.34-.8l4.29-5.23-5.45.6c.36-.63.38-2.01,1.1-2.43,1.5-.67,3.26-.36,4.93-.91l-4.95-4.91c-.42-.42.89-2.03,1.45-1.8l5.08,4.54c.34-.16.73-.35,1.1-.65.18-.14.09-.41,0-.58-.1-.22-.45-.03-.89.02l-.43-7.99c-.05-.88,1.47-1.17.69-2.14-.14-.18-.43-.29-.87-.21-.28.05-.24.67-.41,1.11-.47-.3-1.03-.96-.91-1.61.11-.6.29-1.58,1.16-1.59.54,0,.94-.04,1.45-.32.32-.18.14-.64.4-1.09.16-.26.65-.34.49-.69-.4-.87-1.89.62-2.25-.47-.24-.74-.68-3.5.89-3.65.68-.07,1.49.3,1.3,1.26-.42-.17-1.64-.67-1.79-.07-.24.97,1.21.87,1.84.51.41,1.37.12,2.44.35,3.71,1.38-1.1,2.66-5.24,4.44-3.05-.64.43-1.56.38-1.85.98-.33.67.56,1.06,1.21,1.14l-3.51,5.46.31,9.13,6.06-7.05-.1-7.85c0-.7.55-1.21,1.12-1.27s1.31.33,1.35,1.05l.26,4.91,3.93-4.46c.62.46,1.08.95,1.9.85.12.51-.11.92-.43,1.3l-3.42,4.12c1.38.07,2.45-.79,3.67-.57.32.12.46.77.69.89.34.18,1.01.27,1.42-.04.3-.23-.06-.49.02-1,.49.2.58.68.54,1.13-.03.41-.39.72-.84,1.02l-8.48,1.98-6.22,7.26,10.71-1.26c.65-.08,1.11-.28,1.75-.81.04,1.24.18,2.5-.45,3.83-1.07-1.24-7.17.73-9.1.38-.28-.2-.7-1.38-.93-.89l-.49,1.05-1.26.48,6.82,6.04c2,1.01,8.49-.1,8.62,2.14.13,2.31-3.99.68-5.6,1.01l3.29,2.96c.58.52.65,1.42.16,1.92-.57.58-1.51.46-2.1-.19-.22-.24-.5-.39-.6-.62-.21-.55.67-1.18.35-1.76-.62-1.14-1.73.36-2.99-.65-.42.51-1.77,1.29-2.42.78-.65-.95-.22-2.42-.59-3.57l-6.19-5.63ZM279.96,58.02c.57-.52.5-1.3.45-2.04-.06-.9-1.74-1.78-1.92-1.36-.5,1.2,1.51.24,1.46,3.4ZM296.49,70.44c.27-.45-.21-1.17-.78-1.19s-.49.69-.27,1.06c.15.26.72.68,1.05.13Z"/>
              <path class="cls-6" d="M262.77,46.96c-.44-2.48,4.02-.93,5.28-1.37-.69-1.06-3.43-2.42-2.12-3.78s2.68,1.07,3.6,1.4c.01-2.01-1.87-5.41.14-5.84.65-.14,1.35.21,1.53,1.05l1.72,8.02c.2.93.32,2.05-.68,2.42-.27-.48-.66-.62-1.36-.59-2.36.12-4.66-.21-7-.27-.63-.02-1.03-.66-1.1-1.05Z"/>
              <path class="cls-6" d="M261.23,64.51c-.98-.49-.46-2.07-.01-2.48.12-.12.55.09.77-.05.06-.74.27-1.71.29-2.51.03-1.24-1.3-1.66-2.14-2.36l2.05-.57c-.93-1.44-4.48-2.67-2.81-4.34,1.52-1.52,4.8,3.38,6.54,3.77l5.28-.28c-.98,2.16-3.2,3.15-5.5,3.02l-2.68,5.34c-.31.62-1.1.79-1.77.45Z"/>
              <path class="cls-6" d="M299.56,55.56c1.03.73,3.86,1.94,2.84,3.44-.33.49-1.1.79-1.65.41l-4.39-2.99c.77-1.22.54-3.45,1.88-3.29,1.07.12,1.31-.58,1.92-1.12.52-.46,1.53-.25,2.14-.39.9-.22,1.56.28,1.61,1.19.03.7-.48,1.2-1.35,1.31l-3.8.47-.7.99c-.21.3,0,.68.19.92.12.16.42.2.75.12.31-.07.36-.46.55-1.06Z"/>
              <path class="cls-6" d="M276.49,36.67c.33.98-.2,2.04-.16,3.16-1.19-1.25-4.33-3.17-3.19-4.59.29-.36,1.09-.79,1.63-.27.49.48,1.46.93,1.72,1.7Z"/>
              <path class="cls-6" d="M297.61,50.7c-.29.9.48.72,1.11.92-.26.45-.89.7-1.38.57-.39-.11-1.05-.84-.77-1.25.68-.98,1.5-1.71,2.25-2.55.47-.53,1.17-.44,1.53-.22.67.41.83,1.18.41,1.82-.67,1.02-1.79,1.16-3.15.72Z"/>
              <path class="cls-6" d="M260.88,59.23c-.4.31-.93.33-1.52.36-.81.04-1.29-.5-1.37-1.13-.1-.78.39-1.49,1.42-1.36-.18.64-.11,1.19.48,1.47.33.15.61.28.98.66Z"/>
            </g>
          </g>
        </g>
      </g>
    </g>
  </g>
</svg>