<?xml version="1.0" encoding="UTF-8"?>
<svg id="Capa_2" data-name="Capa 2" xmlns="http://www.w3.org/2000/svg" viewBox="0 0 522.14 220.63">
  <defs>
    <style>
      .cls-1 {
        fill: #e798a0;
      }

      .cls-2 {
        fill: #7dbfe9;
      }

      .cls-3 {
        fill: #db206b;
      }

      .cls-3, .cls-4 {
        opacity: .6;
      }

      .cls-4 {
        fill: #56609e;
      }
    </style>
  </defs>
  <g id="Capa_1-2" data-name="Capa 1">
    <g>
      <path class="cls-1" d="M267.21,0v217.67h-38.09c-1.97.22-3.67-.33-5.09-1.64-1.43-1.31-2.14-2.95-2.14-4.92v-9.52c-6.35,6.35-13.29,11.11-20.85,14.28-7.55,3.18-15.16,4.76-22.82,4.76-8.1,0-16.03-1.75-23.8-5.25-7.77-3.5-14.72-8.7-20.85-15.59-6.13-6.9-11-15.43-14.61-25.61-3.61-10.18-5.42-21.94-5.42-35.29,0-10.28,1.48-20.41,4.44-30.37,2.95-9.96,7.22-18.82,12.8-26.59,5.58-7.77,12.52-14.01,20.85-18.71,8.32-4.7,17.73-7.06,28.23-7.06,5.91,0,11.43,1.26,16.58,3.77,5.14,2.52,9.95,5.64,14.45,9.36,4.48,3.72,8.48,7.72,11.98,11.98,3.5,4.27,6.57,8.16,9.2,11.65,1.31,1.97,2.3,2.41,2.96,1.31.66-1.09.43-2.51-.66-4.27-2.85-4.38-5.09-9.25-6.73-14.61-1.64-5.36-2.91-10.67-3.78-15.92-.87-5.25-1.43-10.12-1.64-14.61-.22-4.48-.33-8.15-.33-11V0h45.31ZM221.9,113.27c0-4.16-.71-8.86-2.13-14.12-1.43-5.25-3.45-10.18-6.07-14.77-2.63-4.6-5.91-8.42-9.85-11.49-3.94-3.06-8.43-4.6-13.46-4.6-6.13,0-11.22,1.7-15.27,5.09-4.05,3.4-7.23,8.16-9.52,14.28-2.3,6.13-3.94,13.35-4.93,21.67-.99,8.32-1.48,17.29-1.48,26.92,0,12.69.87,23.64,2.62,32.83,1.75,9.19,4.16,16.74,7.23,22.66,3.06,5.91,6.62,10.23,10.67,12.97,4.05,2.74,8.37,4.1,12.96,4.1,7,0,12.97-1.91,17.9-5.74,4.92-3.83,8.7-7.39,11.32-10.67v-79.12Z"/>
      <path class="cls-2" d="M483.07,58.03c5.91,0,11.27,1.1,16.09,3.28,4.81,2.19,8.92,4.98,12.31,8.37,3.39,3.4,6.02,7.28,7.88,11.66,1.86,4.38,2.79,8.86,2.79,13.46v123.77h-45.31v-40.71c-.22-8.75.55-17.34,2.3-25.77,1.75-8.43,4.7-16.47,8.87-24.13,4.59-8.54,7.16-16.3,7.72-23.31.54-7-.17-13.02-2.14-18.06-1.97-5.03-4.98-8.91-9.03-11.65-4.05-2.74-8.37-4.11-12.96-4.11-3.51,0-6.95.61-10.34,1.81-3.4,1.21-6.52,2.74-9.36,4.6-2.84,1.86-5.42,3.72-7.72,5.58-2.3,1.86-4.1,3.45-5.42,4.76.22,1.1.38,2.3.49,3.61.11,1.31.17,2.52.17,3.61v123.77h-45.63v-40.71c0-8.75.87-17.34,2.63-25.77,1.75-8.43,4.7-16.47,8.86-24.13,4.6-8.54,7.16-16.3,7.72-23.31.55-7-.22-13.02-2.3-18.06-2.08-5.03-5.14-8.91-9.19-11.65-4.05-2.74-8.37-4.11-12.97-4.11s-8.59.99-12.64,2.96c-4.05,1.97-7.6,4.16-10.67,6.57-3.51,2.85-6.68,6.13-9.52,9.85v128.37h-45.63V61.31h34.47c3.06,0,5.69,1.1,7.88,3.28,2.19,2.19,3.28,4.82,3.28,7.88v7.55c3.5-4.16,7.55-7.88,12.15-11.16,3.72-2.62,8.32-5.09,13.79-7.39,5.47-2.3,11.6-3.45,18.39-3.45,8.75,0,16.14,2.13,22.16,6.4,6.02,4.27,10.56,9.36,13.63,15.27,2.19-2.18,4.87-4.54,8.04-7.06,3.17-2.51,6.73-4.87,10.67-7.06,3.94-2.18,8.32-3.99,13.13-5.42,4.81-1.42,9.96-2.13,15.43-2.13Z"/>
      <path class="cls-4" d="M317.71,47.97c-6.35,0-11.71-2.13-16.09-6.4-4.38-4.27-6.57-9.57-6.57-15.92s2.19-11.71,6.57-16.09c4.38-4.38,9.74-6.57,16.09-6.57s11.71,2.19,16.09,6.57c4.38,4.38,6.56,9.74,6.56,16.09s-2.19,11.66-6.56,15.92c-4.38,4.27-9.74,6.4-16.09,6.4ZM329.52,61.43c3.06,0,5.69,1.1,7.88,3.28,2.19,2.19,3.28,4.82,3.28,7.88v146.1h-45.63V61.43h34.47Z"/>
      <path class="cls-3" d="M96.32,10.73h-16.46c-6.97,17.52-13.62,34.3-19.95,50.34-2.75,6.76-5.59,13.72-8.55,20.9-2.96,7.18-5.75,14.14-8.39,20.89-2.64,6.76-5.18,13.14-7.6,19.15-2.43,6.02-4.49,11.24-6.17,15.67h-.63v.95c-1.48,3.8-2.74,7.08-3.8,9.81-1.06,2.74-1.9,4.96-2.53,6.65-1.27,2.96-3.01,7.07-5.23,12.35-2.22,5.28-4.54,10.92-6.96,16.94s-4.59,11.98-6.49,17.89c-1.9,5.91-3.06,10.98-3.48,15.2-.21.84,0,1.58.63,2.22.63.63,1.48.95,2.53.95h44.01c1.26,0,2-.58,2.22-1.74.21-1.16,0-2.16-.63-3.01-1.26-1.69-2.59-4.75-3.96-9.18-1.37-4.43-2.53-9.81-3.48-16.15-.95-6.33-1.64-13.45-2.06-21.37-.42-7.91-.21-16.19.63-24.85h.34s0-.02,0-.03c0-.17.02-.34.02-.51,0-.6.01-1.21.05-1.81.05-1.44.15-2.88.4-4.3h-.17c.63-5.91,1.59-11.82,2.85-17.73,1.27-5.91,3.06-11.82,5.38-17.73,1.05-3.37,2.58-7.6,4.59-12.66,2-5.07,4.06-10.02,6.17-14.88,2.32-5.48,4.75-11.29,7.28-17.41l30.14,79.73c.77,1.52,1.36,3.13,1.86,4.77.29.84.54,1.69.76,2.55h.17l24.69,64.9c1.26,3.38,3.48,6.12,6.65,8.23s6.65,3.16,10.45,3.16h38.62L96.32,10.73Z"/>
    </g>
  </g>
</svg>