<svg id="ad‑sprite" xmlns="http://www.w3.org/2000/svg" style="display:none">

  <symbol id="ad-menu" viewBox="0 0 448 512">
	  <g>
		  <path d="M16 288h416a16 16 0 0 0 16-16v-32a16 16 0 0 0-16-16H16a16 16 0 0 0-16 16v32a16 16 0 0 0 16 16z"></path>
		  <path d="M432 384H16a16 16 0 0 0-16 16v32a16 16 0 0 0 16 16h416a16 16 0 0 0 16-16v-32a16 16 0 0 0-16-16zm0-320H16A16 16 0 0 0 0 80v32a16 16 0 0 0 16 16h416a16 16 0 0 0 16-16V80a16 16 0 0 0-16-16z"></path>
	  </g>
  </symbol>

  <symbol id="ad-instagram" viewBox="0 0 448 512">
  <g>
    <path d="M224.1 141c-63.6 0-114.9 51.3-114.9 114.9s51.3 114.9 114.9 114.9S339 319.5 339 255.9 287.7 141 224.1 141zm0 189.6c-41.1 0-74.7-33.5-74.7-74.7s33.5-74.7 74.7-74.7 74.7 33.5 74.7 74.7-33.6 74.7-74.7 74.7zm146.4-194.3c0 14.9-12 26.8-26.8 26.8-14.9 0-26.8-12-26.8-26.8s12-26.8 26.8-26.8 26.8 12 26.8 26.8zm76.1 27.2c-1.7-35.9-9.9-67.7-36.2-93.9-26.2-26.2-58-34.4-93.9-36.2-37-2.1-147.9-2.1-184.9 0-35.8 1.7-67.6 9.9-93.9 36.1s-34.4 58-36.2 93.9c-2.1 37-2.1 147.9 0 184.9 1.7 35.9 9.9 67.7 36.2 93.9s58 34.4 93.9 36.2c37 2.1 147.9 2.1 184.9 0 35.9-1.7 67.7-9.9 93.9-36.2 26.2-26.2 34.4-58 36.2-93.9 2.1-37 2.1-147.8 0-184.8zM398.8 388c-7.8 19.6-22.9 34.7-42.6 42.6-29.5 11.7-99.5 9-132.1 9s-102.7 2.6-132.1-9c-19.6-7.8-34.7-22.9-42.6-42.6-11.7-29.5-9-99.5-9-132.1s-2.6-102.7 9-132.1c7.8-19.6 22.9-34.7 42.6-42.6 29.5-11.7 99.5-9 132.1-9s102.7-2.6 132.1 9c19.6 7.8 34.7 22.9 42.6 42.6 11.7 29.5 9 99.5 9 132.1s2.7 102.7-9 132.1z"></path>
	</g>
  </symbol>

  <symbol id="ad-whatsapp" viewBox="0 0 448 512">
    <g><path d="M380.9 97.1C339 55.1 283.2 32 223.9 32c-122.4 0-222 99.6-222 222 0 39.1 10.2 77.3 29.6 111L0 480l117.7-30.9c32.4 17.7 68.9 27 106.1 27h.1c122.3 0 224.1-99.6 224.1-222 0-59.3-25.2-115-67.1-157zm-157 341.6c-33.2 0-65.7-8.9-94-25.7l-6.7-4-69.8 18.3L72 359.2l-4.4-7c-18.5-29.4-28.2-63.3-28.2-98.2 0-101.7 82.8-184.5 184.6-184.5 49.3 0 95.6 19.2 130.4 54.1 34.8 34.9 56.2 81.2 56.1 130.5 0 101.8-84.9 184.6-186.6 184.6zm101.2-138.2c-5.5-2.8-32.8-16.2-37.9-18-5.1-1.9-8.8-2.8-12.5 2.8-3.7 5.6-14.3 18-17.6 21.8-3.2 3.7-6.5 4.2-12 1.4-32.6-16.3-54-29.1-75.5-66-5.7-9.8 5.7-9.1 16.3-30.3 1.8-3.7.9-6.9-.5-9.7-1.4-2.8-12.5-30.1-17.1-41.2-4.5-10.8-9.1-9.3-12.5-9.5-3.2-.2-6.9-.2-10.6-.2-3.7 0-9.7 1.4-14.8 6.9-5.1 5.6-19.4 19-19.4 46.3 0 27.3 19.9 53.7 22.6 57.4 2.8 3.7 39.1 59.7 94.8 83.8 35.2 15.2 49 16.5 66.6 13.9 10.7-1.6 32.8-13.4 37.4-26.4 4.6-13 4.6-24.1 3.2-26.4-1.3-2.5-5-3.9-10.5-6.6z"></path></g>
  </symbol>

  <symbol id="ad-close" viewBox="0 0 24 24">
    <path d="M17.658 6.343 6.344 17.657M17.658 17.657 6.344 6.343" stroke="currentColor" stroke-width="2" fill="none"/>
  </symbol>

  <symbol id="ad-cart" viewBox="0 0 38.91 49.52">
    <g>
	<path d="M18.82,49.48c-2.72-.16-6.09.33-9.43-.22C4.01,48.36-.1,43.61,0,38.13c.08-4.39.49-8.78.78-13.16.27-4.11.61-8.21.84-12.32.05-.93.35-1.12,1.2-1.09,1.6.06,3.2-.05,4.8.04,1.14.07,1.51-.18,1.55-1.45.14-4.41,2.31-7.64,6.39-9.3C19.64-.82,23.42,0,26.63,3.03c2.04,1.92,3.1,4.38,3.06,7.18-.02,1.23.39,1.45,1.48,1.39,1.71-.09,3.44,0,5.16-.03.59,0,.83.13.87.79.53,8.1,1.03,16.2,1.67,24.28.6,7.53-5.3,13.21-12.34,12.86-2.35-.12-4.72-.02-7.71-.02ZM19.35,46.14c2.6,0,5.2,0,7.8,0,5.02-.02,8.64-3.72,8.37-8.75-.35-6.51-.82-13.01-1.26-19.51-.2-2.98-.23-2.94-3.27-3-.96-.02-1.28.19-1.28,1.22-.02,5.45-4.09,9.85-9.42,10.3-5.33.45-9.99-3.24-11.05-8.59-.19-.96.5-2.32-.54-2.81-.85-.4-2.04-.07-3.08-.1-.6-.02-.83.15-.87.8-.46,7.26-1.02,14.52-1.42,21.78-.28,4.93,3.39,8.64,8.34,8.67,2.56.01,5.12,0,7.68,0ZM19.38,11.58c2.04,0,4.07-.02,6.11.01.63,0,.9-.11.92-.84.13-4.07-2.99-7.37-7.02-7.36-4.01,0-7.14,3.36-6.97,7.41.03.65.25.8.84.79,2.04-.03,4.07-.01,6.11-.01ZM19.43,14.91c-2.04,0-4.07.02-6.11-.01-.67-.01-.87.19-.89.87-.1,4.03,2.97,7.31,6.93,7.33,4.03.03,7.16-3.24,7.06-7.32-.02-.67-.19-.89-.88-.88-2.04.04-4.07.01-6.11.01Z"></path>
	</g>
  </symbol>
  
  <symbol id="ad-fire" viewBox="0 0 21.39 27.85">
	<g>
	  <path d="M8.35.01c.6-.09.91.27,1.29.66,2.33,2.41,5.57,8.59,5.33,12.11,2.34-1.24,1.66-4.58,3.54-4.17.84.18,1.87,3.81,2.1,4.67.99,3.76,1.29,7.27-.69,10.79-.66,1.17-3.61,5.1-4.77,3.33-.37-.57-.08-1.68-2.45-4.33-.82-.92-2.32-2.11-2.89-3.14-1.09-1.98-.12-3.69-.28-3.8-3.58,1.83-3.97,5.22-1.66,8.38.85,1.16,2.2,1.75,1.63,2.82-.89,1.66-4.95-1.19-5.87-1.98C-1.07,21.27-.82,16.29,2.17,11.21c1.42-2.42,4.4-5.75,5.08-8.34.22-.85.03-2.7,1.1-2.85Z" />
	</g>
  </symbol>
  
  <symbol id="ad-discover" viewBox="0 0 59.16 52.96">
	  <g>
		<path d="M28.17.09c1.88-.32,3.65.22,5.14,1.29,2.85,2.03,20.69,21.23,25.81,25.59.52,5.14-5.84-3.22-6.32-3.32-.31-.07-.7.56-.75.75-.48,1.84.51,19.12,0,22.7-.39,2.73-2.72,5.28-5.46,5.68-1.7.24-32.58.25-34.27,0-1.74-.25-4.3-2.03-4.82-3.75-.87-2.91.41-23.61-.43-24.84C5.8,22.31-.14,32.59,0,26.97L25.17,1.81c.85-.45,2.06-1.55,3-1.71ZM29.03,2.02c-.47.05-1.9.95-2.36,1.29-1.81,1.35-14.21,14.43-17.46,17.67.32,4.59-.51,25.03.21,27.2.46,1.4,2.28,2.15,3.53,2.68,6.45-.77,31.27.41,33.85-.21,1.56-.38,2.86-2.01,3.11-3.53.47-2.83-.35-20.5,0-26.13-2.52-2.57-17.01-17.62-18.1-18.31-.42-.27-2.25-.7-2.78-.64Z" 
		  style="fill: currentColor; stroke: currentColor; stroke-miterlimit: 10; stroke-width: 2px;" />
	  </g>
	</symbol>

<symbol id="ad-search" viewBox="0 0 72.39 72.31">
  <g>
    <path d="M1,29.47C.99,14.94,11.83,2.8,26.25,1.19c15.52-1.73,29.09,8.44,31.5,23.86,1.27,8.12-.59,15.62-5.75,22.16-1.4,1.77-1.4,1.76.24,3.4,6.02,6.02,12.03,12.04,18.04,18.05.15.15.31.3.45.45.5.54.97,1.2.37,1.83-.67.7-1.35.23-1.92-.35-3.97-3.98-7.95-7.95-11.92-11.92-2.42-2.42-4.87-4.82-7.25-7.28-.71-.73-1.22-.77-2-.1-5.48,4.69-11.93,6.88-19.07,6.72-14.02-.32-24.64-10.27-27.19-22.2-.45-2.1-.75-4.21-.75-6.35ZM56.16,29.51c0-14.7-11.97-26.7-26.61-26.7-14.57,0-26.62,12.1-26.62,26.74,0,14.55,12.11,26.6,26.75,26.6,14.54,0,26.49-12.03,26.48-26.64Z"
      style="fill: currentColor; stroke: currentColor; stroke-miterlimit: 10; stroke-width: 2px;" />
  </g>
</symbol>

<symbol id="ad-vcp" viewBox="0 0 512 512">
  <g>
    <path d="M288 359.67a47.78 47.78 0 0 1-36.51-17C231.83 319.51 210.92 293.09 192 266v182l192 64V266c-18.92 27.09-39.82 53.52-59.49 76.72A47.8 47.8 0 0 1 288 359.67zM20.12 216A32 32 0 0 0 0 245.66V496a16 16 0 0 0 21.94 14.86L160 448V214.92a302.84 302.84 0 0 1-21.25-46.42zm533.94-54.79L416 224v288l139.88-55.95A32 32 0 0 0 576 426.34V176a16 16 0 0 0-21.94-14.84z"
      style="opacity: 0.4" />
    <path d="M414 126c0 56.26-82.35 158.8-113.9 196a15.77 15.77 0 0 1-24.2 0C244.35 284.8 162 182.26 162 126a126 126 0 0 1 252 0z" />
  </g>
</symbol>

<symbol id="ad-mini-pen" viewBox="0 0 28.28 28.28">
  <g>
    <path d="M28.27,14.18c0,4.55,0,9.1,0,13.65,0,.38-.11.45-.46.45-9.12,0-18.25,0-27.37,0-.34,0-.44-.07-.44-.43C.01,18.71.01,9.57,0,.43,0,.07.1,0,.44,0,9.57,0,18.69,0,27.82,0c.36,0,.46.08.46.45-.01,4.58,0,9.15,0,13.73ZM14.15,25.7c3.72,0,7.44,0,11.16,0,.3,0,.4-.06.4-.39-.01-7.45-.01-14.9,0-22.35,0-.32-.1-.39-.4-.39-7.44,0-14.87,0-22.31,0-.33,0-.42.07-.42.41.01,7.44.01,14.87,0,22.31,0,.34.1.41.42.41,3.72-.01,7.44,0,11.16,0Z"/>
    <path d="M19.56,4.98c1.5.09,2.72.8,3.37,2.27.66,1.47.49,2.92-.6,4.12-1.22,1.35-2.55,2.6-3.83,3.88-2.22,2.22-4.45,4.45-6.67,6.67-.14.14-.27.27-.5.3-1.92.27-3.84.54-5.75.84-.33.05-.41,0-.35-.34.33-1.9.58-3.81.83-5.71.03-.2.1-.34.24-.48,3.45-3.44,6.89-6.88,10.33-10.33.79-.79,1.73-1.18,2.93-1.2ZM8.5,20.02c.56-.07,1.06-.14,1.57-.2.2-.02.35-.11.49-.25,3.24-3.26,6.49-6.52,9.74-9.79.56-.57.59-1.34.07-1.86-.51-.51-1.32-.5-1.87.05-3.27,3.26-6.54,6.52-9.81,9.77-.13.13-.21.27-.23.45-.06.5-.12,1.01-.19,1.51-.04.25-.03.41.24.31Z"/>
  </g>
</symbol>

<symbol id="ad-ticket" viewBox="0 0 169.89 94.54">
  <g><path d="M84.68,94.52q-34.49,0-69,0C4.54,94.51.09,90,.17,78.69A65,65,0,0,0,.09,70.2C-.49,65.51,1.68,63.79,6,63,14.68,61.42,20,55.45,20,47.93S14.48,34,5.64,32.6C1.21,31.88-.27,30,.09,25.67c.33-3.8.06-7.65.07-11.49C.19,4.93,5,.09,14.36,0c11.5-.06,23,0,34.49,0H154.33c11,0,15.57,4.56,15.53,15.34,0,4-.12,8,0,12,.11,3.1-1.15,4.58-4.24,4.92a22.75,22.75,0,0,0-5.76,1.5,15.38,15.38,0,0,0-9.81,15.31,15.69,15.69,0,0,0,12.06,13.7c8.64,1.72,7.63,1.17,7.7,9.57,0,2.66,0,5.33,0,8,0,9.24-4.81,14.13-14.19,14.16C132,94.57,108.34,94.52,84.68,94.52Zm22.3-7h48.47c2.55,0,5.41.12,6.65-2.45,2.09-4.36,1-9.17.74-13.74-.16-2.58-3.41-2-5.23-2.87-8.45-3.84-13.72-10.15-14.23-19.45S147,31.8,155.65,28.67c7.43-2.67,8.28-7,7.44-13.3a2.77,2.77,0,0,1,0-.5c0-6.5-1.37-7.89-8-7.89-32,0-64,0-95.93-.08-3.74,0-5.7.77-5.18,4.95.19,1.49.5,3.76-2,3.69s-2.18-2.3-2-3.81c.6-4.36-1.73-4.9-5.29-4.82-8,.17-16,.08-24,0C6.81,6.91,6.89,6.89,6.87,21c0,3.18.45,4.87,4.1,5.9A22,22,0,0,1,26.75,47.25c.27,8.81-5.1,17.8-13.69,20.7-5.29,1.78-7.14,4.41-6.15,9.59a14.88,14.88,0,0,1,0,2.5C7,86,8.41,87.51,14.26,87.55q13.23.12,26.48,0c2.79,0,6,1,8.28-.62s.6-4.69.94-7.09c.2-1.43.53-2.83,2.21-2.74s1.8,1.64,1.86,3a13.06,13.06,0,0,1,0,2.5c-.55,3.89,1,5.12,5,5.07C75,87.45,91,87.58,107,87.57Z"></path><path d="M82,72.6a3.12,3.12,0,0,1-2.63-1.74c-.92-1.9-.11-3.44,1.16-5,6.06-7.27,12-14.6,18.07-21.9s11.88-14.3,17.79-21.49c1.77-2.14,3.62-4.53,6.48-2,2.67,2.37.4,4.54-1.15,6.41q-17.73,21.54-35.54,43C85.09,71.21,84.08,72.62,82,72.6Z"></path><path d="M85.57,41.59A10.67,10.67,0,0,1,75.09,31.12,10.69,10.69,0,0,1,85.74,20.85,10.11,10.11,0,0,1,96,31.31,10.11,10.11,0,0,1,85.57,41.59Zm0-6.83c1.9-.38,3.48-1.25,3.52-3.44a3.19,3.19,0,0,0-3.38-3.48,3.26,3.26,0,0,0-3.59,3.31C82.07,33.3,83.62,34.3,85.61,34.76Z"></path><path d="M107,60.1a10.17,10.17,0,0,1,10.39-10.27,10.5,10.5,0,0,1,10.41,10.41A10.66,10.66,0,0,1,117.22,70.6,10.16,10.16,0,0,1,107,60.1Zm10.31-3.38a3.19,3.19,0,0,0-3.36,3.5,3.26,3.26,0,0,0,3.42,3.47,3.29,3.29,0,0,0,3.41-3.52C120.74,58.11,119.4,56.9,117.3,56.72Z"></path><path d="M54,28.65c0,1,.06,2,0,3-.11,1.33-.78,2.17-2.25,2.05-1.24-.1-1.68-1-1.72-2.05-.06-2-.06-4,0-6,0-1.34,0-2.81,2-2.8s2,1.44,2.06,2.8c.06,1,0,2,0,3Z"></path><path d="M54,46c0,1.46,0,2.45,0,3.44-.07,1.25-.45,2.34-2,2.38s-2-.94-2.08-2.24a11.37,11.37,0,0,1,0-3c.41-2-1.41-5.54,2.23-5.44C55.37,41.24,53.49,44.62,54,46Z"></path><path d="M54.15,64.23c-.08,1.46-.09,2.79-.25,4.1s-1,1.59-2.16,1.51a1.6,1.6,0,0,1-1.64-1.52,18.81,18.81,0,0,1-.12-4c.27-1.89-1.24-5.14,2-5.14S53.56,62.53,54.15,64.23Z"></path></g>
</symbol>

<symbol id="ad-material" viewBox="0 0 53.14 47.18">
  <g><path d="M12.07,46.68c-.21-.4-.24-.83-.24-1.28.01-1.51-.01-3.03.02-4.54.01-.5-.11-.65-.63-.65-3.06.03-6.13.01-9.19.01-1.35,0-1.81-.68-1.31-1.92,1.21-2.95,2.41-5.9,3.62-8.85q.24-.58-.42-.59c-.74,0-1.48,0-2.21,0-.94-.02-1.45-.76-1.09-1.63,1.86-4.49,3.73-8.98,5.61-13.47.21-.51.6-.76,1.17-.76,1.33.01,2.66,0,3.99,0,.3,0,.47-.03.47-.41-.01-2.67,0-5.35,0-8.02-.21-.08-.28.1-.37.19-.71.7-1.41,1.41-2.12,2.11-.6.59-1.26.63-1.75.11-.46-.48-.41-1.15.15-1.71,1.42-1.43,2.84-2.85,4.27-4.27.67-.66,1.24-.66,1.91,0,1.41,1.4,2.82,2.82,4.23,4.23.18.18.36.37.44.63.15.5-.04,1.03-.48,1.3-.46.28-.95.25-1.37-.15-.73-.7-1.44-1.43-2.16-2.15-.12-.12-.21-.3-.42-.33-.11.17-.06.36-.06.54,0,2.44,0,4.87-.01,7.31,0,.46.08.63.6.63,3.4-.03,6.79-.02,10.19,0,.45,0,.59-.1.59-.57-.02-3.49-.01-6.98-.01-10.46,0-.29-.02-.59.13-.86.24-.43.75-.7,1.21-.58.51.13.85.45.9.99.03.37.02.74.02,1.11,0,3.27,0,6.53-.01,9.8,0,.46.12.59.58.58,3.41-.02,6.83-.01,10.24,0,.32,0,.55.01.55-.44-.02-2.6-.01-5.2-.01-7.81,0-.07-.01-.14-.02-.21-.25.02-.33.2-.46.32-.71.7-1.4,1.42-2.12,2.11-.52.5-1.17.49-1.63.02-.43-.44-.45-1.12.02-1.6,1.51-1.54,3.04-3.07,4.58-4.58.46-.45,1.08-.44,1.54.02,1.54,1.52,3.06,3.04,4.58,4.58.47.47.43,1.15,0,1.59-.45.45-1.09.46-1.59,0-.43-.4-.85-.82-1.26-1.25-.41-.42-.81-.86-1.2-1.28-.24.16-.16.32-.16.46,0,2.51,0,5.02-.01,7.53,0,.44.12.56.55.55,1.27-.03,2.55,0,3.82-.02.64,0,1.04.25,1.29.84,1.84,4.44,3.7,8.88,5.54,13.32.4.97-.1,1.7-1.14,1.71-.9,0-1.8,0-2.69,0-.05.24.07.4.14.56,1.2,2.95,2.41,5.9,3.61,8.85.52,1.27.06,1.94-1.33,1.94-12.07,0-24.14,0-36.21,0-.9,0-.78-.09-.79.81,0,1.51,0,3.03,0,4.54,0,.4-.05.77-.26,1.11h-1.77ZM26.55,26.62c7.57,0,15.13,0,22.7,0,.46,0,.57-.07.37-.54-1.46-3.46-2.9-6.93-4.34-10.4-.13-.32-.31-.44-.66-.43-.94.02-1.88.03-2.82,0-.43-.02-.6.12-.69.54-.82,3.7-4.02,6.29-7.74,6.29-3.71,0-6.92-2.6-7.73-6.3-.09-.41-.24-.53-.64-.52-3.45.02-6.9.02-10.35,0-.44,0-.57.12-.56.56.02,1.62.01,3.25,0,4.87,0,.3,0,.59-.16.86-.26.42-.78.64-1.24.51-.53-.14-.85-.56-.85-1.15,0-1.72-.01-3.43,0-5.15,0-.38-.1-.51-.5-.5-.9.03-1.81.03-2.71,0-.43-.02-.64.11-.81.53-1.4,3.43-2.84,6.84-4.27,10.25-.24.58-.24.58.4.58,7.53,0,15.06,0,22.59,0ZM49.76,37.89c0-.06,0-.11-.02-.16-1.16-2.85-2.33-5.7-3.48-8.55-.12-.29-.31-.31-.56-.31-10.37,0-20.74,0-31.12,0-.4,0-.5.14-.49.51.02.94.02,1.88,0,2.82-.01.76-.46,1.23-1.13,1.22-.67,0-1.11-.48-1.12-1.24,0-.94-.02-1.88,0-2.82.01-.4-.12-.5-.5-.49-1.27.02-2.55.02-3.82,0-.37,0-.54.1-.69.46-1.08,2.68-2.18,5.36-3.28,8.03q-.24.59.42.59c15.08,0,30.16,0,45.24,0,.18,0,.36.05.54-.05ZM33.41,15.27c-1.68,0-3.36.02-5.03,0-.5,0-.55.15-.41.58.73,2.35,2.91,3.96,5.41,3.96,2.51,0,4.66-1.59,5.41-3.96.14-.43.1-.59-.4-.58-1.66.03-3.32,0-4.98,0Z" style="fill: currentColor; stroke: currentColor; stroke-miterlimit: 10"></path></g>
</symbol>

<symbol id="ad-foco" viewBox="0 0 44.21 60.63">
  <g><path d="M19.9.08c15.61-1.3,27.73,13.13,23.42,28.32-1.7,5.99-5.79,8.7-7.26,12.81-1.72,4.81.1,7.87-2.77,9.64.38,3.69-.08,9.04-4.68,9.71-.65.09-12.42.09-13.06,0-4.6-.66-5.07-6.01-4.68-9.71-3.32-2-.28-6.01-4.09-12.41-1.04-1.75-2.85-3.45-3.96-5.41C-2.29,23.98-.29,12.31,7.5,5.5,10.7,2.69,15.64.44,19.9.08ZM20.17,4.31C8.21,5.38.25,19.08,6.25,30.52c2.01,3.83,7.11,7.05,7.06,16.7h17.55c-.1-10.5,6.35-13.45,8.25-19.48,3.92-12.48-6.01-24.6-18.94-23.44ZM15.15,51.58c0,1.25-.61,4.4,1.06,4.75.57.12,11.17.12,11.75,0,1.66-.36,1.05-3.5,1.06-4.75h-13.86Z"></path><path d="M22.02,9.06c.13-.01,2.31.21,2.64.26,2.77.49,6.17,2.68,7.85,4.95,2.74,3.71,4.07,10.81-.07,9.97-2.75-.56-.19-6.05-5.54-9.51-3.04-1.97-6.47-.65-6.93-2.97-.26-1.31.7-2.58,2.05-2.71Z"></path></g>
</symbol>

<symbol id="ad-premium" viewBox="0 0 58.81 58.81">
  <g><path d="M19.9.08c15.61-1.3,27.73,13.13,23.42,28.32-1.7,5.99-5.79,8.7-7.26,12.81-1.72,4.81.1,7.87-2.77,9.64.38,3.69-.08,9.04-4.68,9.71-.65.09-12.42.09-13.06,0-4.6-.66-5.07-6.01-4.68-9.71-3.32-2-.28-6.01-4.09-12.41-1.04-1.75-2.85-3.45-3.96-5.41C-2.29,23.98-.29,12.31,7.5,5.5,10.7,2.69,15.64.44,19.9.08ZM20.17,4.31C8.21,5.38.25,19.08,6.25,30.52c2.01,3.83,7.11,7.05,7.06,16.7h17.55c-.1-10.5,6.35-13.45,8.25-19.48,3.92-12.48-6.01-24.6-18.94-23.44ZM15.15,51.58c0,1.25-.61,4.4,1.06,4.75.57.12,11.17.12,11.75,0,1.66-.36,1.05-3.5,1.06-4.75h-13.86Z"></path><path d="M22.02,9.06c.13-.01,2.31.21,2.64.26,2.77.49,6.17,2.68,7.85,4.95,2.74,3.71,4.07,10.81-.07,9.97-2.75-.56-.19-6.05-5.54-9.51-3.04-1.97-6.47-.65-6.93-2.97-.26-1.31.7-2.58,2.05-2.71Z"></path></g><g><circle cx="29.4" cy="29.4" r="28.9"></circle><path style="fill: #fff;
            stroke-width: 0px; opacity: 0.6" d="M17.24,43.34c.22-1.31.44-2.63.67-3.94.35-2.01.69-4.02,1.05-6.03.06-.35-.16-.51-.36-.71-2.28-2.24-4.57-4.47-6.84-6.72-.6-.59-.88-1.29-.62-2.15.24-.81.78-1.32,1.58-1.51.57-.14,1.16-.19,1.74-.27,2.66-.39,5.32-.79,7.98-1.16.44-.06.66-.27.84-.66,1.38-2.83,2.78-5.65,4.17-8.48.41-.84,1.07-1.24,1.98-1.25.93-.01,1.57.47,1.97,1.28,1,2.03,2,4.06,3,6.09.4.81.82,1.62,1.2,2.44.16.35.39.52.78.57,2.08.29,4.16.61,6.24.91,1.16.17,2.33.3,3.48.52.82.15,1.38.71,1.6,1.5.23.84,0,1.6-.64,2.22-1.73,1.68-3.46,3.35-5.19,5.02-.55.54-1.09,1.09-1.65,1.61-.28.26-.36.52-.29.91.54,3.13,1.07,6.25,1.59,9.38.22,1.33-.34,2.2-1.61,2.58-.6.18-1.12-.03-1.63-.29-2.76-1.43-5.52-2.87-8.26-4.34-.43-.23-.76-.23-1.18,0-2.75,1.46-5.5,2.9-8.26,4.35-1.12.59-2.24.37-2.92-.55-.29-.4-.39-.84-.41-1.33Z"></path></g>
</symbol>

<symbol id="ad-trash" viewBox="0 0 27.27 30.28">
  <g><path d="M13.62,30.28c-2,0-4,0-6,0-1.84,0-3.04-1.04-3.26-2.86-.38-3.13-.73-6.27-1.09-9.4-.34-2.93-.69-5.87-1.04-8.8-.17-1.46-.35-2.91-.5-4.37-.02-.22-.09-.31-.32-.3-.37.02-.73,0-1.1,0-.22,0-.31-.05-.3-.29.02-.82.02-1.63,0-2.45,0-.26.09-.3.32-.3,2.79,0,5.58,0,8.37.01.28,0,.49-.07.68-.28.31-.34.66-.65.97-.99C10.51.07,10.69,0,10.93,0c1.81,0,3.62,0,5.43,0,.22,0,.37.06.53.22.43.44.81,1.02,1.34,1.24.51.21,1.19.05,1.79.05,2.29,0,4.59,0,6.88,0,.29,0,.38.07.37.37-.02.79-.02,1.58,0,2.38,0,.23-.06.31-.3.3-.38-.02-.76,0-1.14,0-.19,0-.26.05-.29.25-.35,3.04-.7,6.08-1.06,9.12-.34,2.93-.69,5.87-1.03,8.8-.19,1.63-.36,3.27-.58,4.89-.22,1.6-1.44,2.65-3.08,2.66-2.06.01-4.12,0-6.17,0ZM13.67,4.55c-2.86,0-5.72,0-8.58,0-.26,0-.36.05-.32.33.11.84.2,1.69.3,2.53.37,3.13.74,6.27,1.1,9.4.39,3.34.78,6.69,1.16,10.03.04.31.12.43.47.43,3.88-.01,7.76-.02,11.63,0,.37,0,.47-.13.51-.46.42-3.67.85-7.35,1.28-11.02.42-3.61.84-7.23,1.27-10.84.03-.29,0-.41-.34-.41-2.83.02-5.65,0-8.48,0Z"></path></g>
</symbol>

<symbol id="ad-pen" viewBox="0 0 512 512">
  <g><path d="M498 142.08l-56.6 56.55-128-128 56.55-56.55a48 48 0 0 1 67.91 0L498 74.17a48 48 0 0 1 0 67.91z" style="opacity: 0.6"></path><path d="M12.85 371.11L.15 485.33a24 24 0 0 0 26.49 26.51l114.14-12.6 278-278-128-128z"></path></g>
</symbol>

<symbol id="ad-arg" viewBox="0 0 46.7 30.59">
  <g>
            <rect x="0" y="10.18" width="46.65" height="10.27"></rect>
            <path d="M0,10.18V3.08c.24-.8.53-1.62,1.17-2.19C1.68.44,2.34.22,2.99.06q20.09-.03,40.17-.06c1.7.06,3.28,1.41,3.49,3.11.13,1.09-.08,5.38-.03,7.06H0Z" style='fill: #81affe'></path>
            <path d="M23.17,11.29s.31-.01.34.03c.16.25-.33,2.17.34,2,.33-.08.28-.85.34-1.02.35-1.02,1.51-1.1.43.25.14.55-.56,1.22.03,1.08.2-.05,1.48-1.87,1.64-1.08.07.34-1.79,1.5-1.2,1.7.5.17,1.29-.88,1.91-.62.09.04.23.42.06.49-.74-.08-.86.25-1.23.49-.05.03-.93.26-.43.49.13.06,1.88-.07,1.94.03.01.02.01.31-.03.34-.25.16-2.17-.33-2.01.34.08.33.91.3,1.02.34.99.36,1.13,1.51-.25.43-.57.13-1.1-.47-1.14-.09-.03.25,1.96,1.6,1.14,1.76-.24.05-1.29-1.26-1.42-1.3-.59-.14.11.56-.03,1.08.19.47.68.74.4.96-.25.19-.6-.24-.71-.46-.18-.37-.16-1.19-.46-1.26-.68-.17-.16,1.9-.37,2.04-.61.39-.23-1.71-.34-1.94-.24-.52-.71.89-.93.99.03,1.08-.49.77-.56.62-.23-.54.78-1.56.68-1.91,0-.01-.2-.15-.22-.15-.26-.02-1.6,1.96-1.76,1.14-.06-.32,1.74-1.49,1.2-1.7-.19-.07-.35.15-.49.25-.86-.15-1.18.76-1.45.4-.19-.25.24-.6.46-.71.41-.2,1.19-.14,1.26-.46.17-.68-1.9-.16-2.04-.37-.39-.61,1.71-.23,1.94-.34.5-.23-.39-.46-.43-.49-.11-.07-.38-.35-.43-.37-.41-.18-.84-.07-.89-.22-.12-.35.29-.42.52-.4.53.04,1.45,1.01,1.64.52.14-.38-1.94-1.65-1.08-1.82.33-.06,1.47,1.72,1.7,1.2.19-.43-1.04-1.6-.52-2,.49-.38.38.47.46.71.05.14.32.39.43.56.03.05.26.93.49.43.06-.13-.07-1.88.03-1.94Z" style='fill: #f09a56'></path>
            <path d="M0,27.51C0,25.14,0,22.78,0,20.41q23.33.02,46.65.03c-.12,1.75.21,6.21-.12,7.52-.33,1.33-1.63,2.41-2.99,2.56l-40.05.06c-1.22-.09-2.59-.79-3.12-1.94-.14-.31-.21-1.01-.37-1.14Z" style='fill: #81affe'></path>
	</g>
</symbol>

<symbol id="ad-cart-plus" viewBox="0 0 48.77 55.18">
  <g><path d="M48.77,42.09c0,7.2-5.86,13.07-13.07,13.08-7.25.01-13.19-5.89-13.15-13.13.03-7.26,5.77-12.92,12.76-13.09,7.86-.19,13.57,6.21,13.47,13.14ZM25.19,42.05c0,5.79,4.69,10.49,10.47,10.5,5.75,0,10.49-4.7,10.49-10.43,0-5.83-4.69-10.56-10.47-10.56-5.79,0-10.48,4.7-10.48,10.49Z"></path><path d="M15.45,48.74c-1.93-.04-4.18.16-6.41-.27-4.55-.87-8.07-4.42-8.88-8.96-.34-1.89-.06-3.79,0-5.68.05-1.68.22-3.35.34-5.02.16-2.24.33-4.48.49-6.72.11-1.52.19-3.04.3-4.57.12-1.72.22-3.44.37-5.15.08-.83.29-.98,1.15-.98,1.57,0,3.14,0,4.71,0,1.22,0,1.44-.24,1.49-1.44.09-1.9.51-3.72,1.58-5.33C12.3,2.05,14.8.68,17.76.15c3.17-.57,5.87.51,8.22,2.62,2.25,2.02,3.34,4.52,3.31,7.54,0,.82.28,1.08,1.12,1.08,1.72,0,3.45,0,5.17,0,.81,0,.98.14,1.03.92.18,2.56.35,5.13.52,7.7.11,1.65.24,3.3.36,4.96.02.3.02.61.03.92.03.41-.13.57-.54.41-.71-.28-1.46-.43-2.22-.56-.44-.07-.62-.28-.65-.74-.16-2.81-.35-5.61-.53-8.42-.08-1.33-.49-1.73-1.8-1.8-.39-.02-.78-.1-1.17-.1-1.01,0-1.32.31-1.35,1.32-.12,3.37-1.46,6.13-4.18,8.14-5.15,3.82-12.74,1.73-15.24-4.16-.53-1.24-.87-2.49-.75-3.86.09-1.08-.33-1.45-1.43-1.46-.72,0-1.44,0-2.15.1-.47.06-.71.21-.74.71-.11,1.65-.25,3.3-.36,4.95-.17,2.48-.34,4.96-.5,7.44-.09,1.37-.19,2.74-.26,4.11-.1,1.76-.25,3.53-.27,5.29-.04,4.25,2.65,7.4,6.83,8.02.79.12,1.61.05,2.42.06,1.94,0,3.88.02,5.82,0,.51,0,.8.17,1,.64.33.76.74,1.48,1.24,2.15.11.15.32.3.19.51-.1.17-.32.1-.49.1-1.55,0-3.1,0-4.95,0ZM19.14,11.4c1.96,0,3.92,0,5.89,0,.75,0,1-.23.97-.98-.08-2.36-.96-4.34-2.92-5.73-2.21-1.56-4.61-1.75-6.99-.53-2.48,1.26-3.7,3.42-3.8,6.2-.03.85.18,1.04,1.03,1.04,1.94,0,3.88,0,5.82,0ZM19.13,22.68c3.45.17,6.77-2.65,6.87-6.89.02-.83-.27-1.11-1.09-1.1-.56.01-1.13.11-1.69.1-3.2-.05-6.4.12-9.6-.09-1.08-.07-1.37.24-1.34,1.26.1,3.79,3.09,6.73,6.85,6.72Z"></path><text xmlns="http://www.w3.org/2000/svg" style="fill: currentColor; stroke: currentColor; stroke-miterlimit: 10;font-size: 21px; transform: translate(30px, 47px);"><tspan x="0" y="0">+</tspan></text></g>
</symbol>

<symbol id="ad-caret-circle-right" viewBox="0 0 45.96 99">
  <g><path d="M45.96,49.4c.02,1.69-.49,2.99-1.35,4.08-.68.87-1.37,1.73-2.05,2.6-10.77,13.61-21.53,27.23-32.3,40.84-1.72,2.17-3.73,2.73-5.51,1.26-1.64-1.36-3.05-3.15-4.13-5.22-1-1.92-.73-4.42.47-6.19.23-.34.48-.66.74-.98,9.38-11.86,18.76-23.73,28.15-35.57.46-.58.5-.87.01-1.48C20.51,36.81,11.06,24.86,1.61,12.9-.06,10.78-.5,8.24.67,6.01,1.74,3.93,3.16,2.15,4.8.79c1.53-1.27,3.4-.96,4.83.53.24.24.46.51.68.78,11.34,14.34,22.69,28.69,34.03,43.02.97,1.23,1.67,2.59,1.62,4.28Z"></path></g>
</symbol>

<symbol id="ad-info-circle" viewBox="0 0 26.88 26.88">
  <g><path d="M13.45,26.88C6.06,26.89,0,20.84,0,13.45,0,6.06,6.03.01,13.43,0c7.38-.01,13.44,6.03,13.45,13.43.01,7.38-6.03,13.44-13.43,13.45ZM2.24,13.43c0,6.18,5,11.19,11.19,11.21,6.18.01,11.19-5,11.21-11.19.01-6.18-4.99-11.19-11.19-11.21-6.18-.01-11.19,5-11.21,11.19h0Z"></path><path d="M14.69,11.19c-.04,1.4-.08,2.79-.11,4.19,0,.26-.1.3-.33.3-.54-.01-1.07-.02-1.61,0-.27.01-.35-.06-.35-.34-.05-2.52-.12-5.04-.18-7.57,0-.27-.01-.55-.03-.82-.01-.17.04-.24.22-.24.76,0,1.53,0,2.29,0,.25,0,.21.16.2.31-.04,1.39-.07,2.77-.11,4.16h0,0Z"></path><path d="M14.91,19.06c0,.82-.56,1.31-1.47,1.32-.92,0-1.49-.51-1.48-1.34,0-.85.57-1.34,1.52-1.33.9.01,1.44.52,1.43,1.35Z"></path></g>
</symbol>

<symbol id="ad-bolsa-check" viewBox="0 0 48.77 55.18">
  <g><path d="M48.77,42.09c0,7.2-5.86,13.07-13.07,13.08-7.25.01-13.19-5.89-13.15-13.13.03-7.26,5.77-12.92,12.76-13.09,7.86-.19,13.57,6.21,13.47,13.14ZM25.19,42.05c0,5.79,4.69,10.49,10.47,10.5,5.75,0,10.49-4.7,10.49-10.43,0-5.83-4.69-10.56-10.47-10.56-5.79,0-10.48,4.7-10.48,10.49Z"></path><path d="M35,47.1c-.08-.07-.15-.12-.22-.18-1.59-1.39-3.29-2.64-4.94-3.94-.29-.23-.32-.37-.08-.65.39-.45.75-.92,1.09-1.4.19-.26.32-.27.57-.07.96.78,1.95,1.52,2.91,2.3.3.24.48.26.75-.06,1.63-1.88,3.28-3.74,4.93-5.61q.44-.5.97-.06c.4.34.78.7,1.18,1.03.23.19.22.34.02.56-2.31,2.61-4.61,5.22-6.91,7.83-.08.09-.18.16-.27.24Z"></path><path d="M15.45,48.74c-1.93-.04-4.18.16-6.41-.27-4.55-.87-8.07-4.42-8.88-8.96-.34-1.89-.06-3.79,0-5.68.05-1.68.22-3.35.34-5.02.16-2.24.33-4.48.49-6.72.11-1.52.19-3.04.3-4.57.12-1.72.22-3.44.37-5.15.08-.83.29-.98,1.15-.98,1.57,0,3.14,0,4.71,0,1.22,0,1.44-.24,1.49-1.44.09-1.9.51-3.72,1.58-5.33C12.3,2.05,14.8.68,17.76.15c3.17-.57,5.87.51,8.22,2.62,2.25,2.02,3.34,4.52,3.31,7.54,0,.82.28,1.08,1.12,1.08,1.72,0,3.45,0,5.17,0,.81,0,.98.14,1.03.92.18,2.56.35,5.13.52,7.7.11,1.65.24,3.3.36,4.96.02.3.02.61.03.92.03.41-.13.57-.54.41-.71-.28-1.46-.43-2.22-.56-.44-.07-.62-.28-.65-.74-.16-2.81-.35-5.61-.53-8.42-.08-1.33-.49-1.73-1.8-1.8-.39-.02-.78-.1-1.17-.1-1.01,0-1.32.31-1.35,1.32-.12,3.37-1.46,6.13-4.18,8.14-5.15,3.82-12.74,1.73-15.24-4.16-.53-1.24-.87-2.49-.75-3.86.09-1.08-.33-1.45-1.43-1.46-.72,0-1.44,0-2.15.1-.47.06-.71.21-.74.71-.11,1.65-.25,3.3-.36,4.95-.17,2.48-.34,4.96-.5,7.44-.09,1.37-.19,2.74-.26,4.11-.1,1.76-.25,3.53-.27,5.29-.04,4.25,2.65,7.4,6.83,8.02.79.12,1.61.05,2.42.06,1.94,0,3.88.02,5.82,0,.51,0,.8.17,1,.64.33.76.74,1.48,1.24,2.15.11.15.32.3.19.51-.1.17-.32.1-.49.1-1.55,0-3.1,0-4.95,0ZM19.14,11.4c1.96,0,3.92,0,5.89,0,.75,0,1-.23.97-.98-.08-2.36-.96-4.34-2.92-5.73-2.21-1.56-4.61-1.75-6.99-.53-2.48,1.26-3.7,3.42-3.8,6.2-.03.85.18,1.04,1.03,1.04,1.94,0,3.88,0,5.82,0ZM19.13,22.68c3.45.17,6.77-2.65,6.87-6.89.02-.83-.27-1.11-1.09-1.1-.56.01-1.13.11-1.69.1-3.2-.05-6.4.12-9.6-.09-1.08-.07-1.37.24-1.34,1.26.1,3.79,3.09,6.73,6.85,6.72Z"></path></g>
</symbol>

<symbol id="ad-entrega" viewBox="0 0 48.71 48.75">
  <g><path d="M23.65,48.73c-5.29,0-10.57,0-15.86,0-3.91,0-6.97-2.55-7.69-6.37-.09-.49-.1-.99-.1-1.49V9.29C0,4.75,3.32,1.43,7.87,1.43c7.74,0,15.49.02,23.23-.02,1.69,0,2.73,1.5,2.19,2.87-.35.87-1.11,1.33-2.26,1.33H8c-2.45,0-3.82,1.35-3.82,3.78v31.45c0,1.9.97,3.24,2.63,3.63.38.09.78.1,1.17.1h31.39c2.4,0,3.77-1.37,3.77-3.76v-23.03c0-1.31.53-2.1,1.59-2.39,1.19-.32,2.43.52,2.57,1.74.02.19.02.39.02.59,0,7.74.01,15.49,0,23.23,0,3.92-2.55,6.96-6.37,7.7-.54.1-1.08.1-1.63.1h-15.66v-.02Z"></path><path d="M18.08,30.64c.72-1.75,1.36-3.33,2.02-4.91.07-.17.24-.31.38-.44C28.64,17.13,36.8,8.96,44.97.8c.99-.99,2.24-1.06,3.12-.2.88.87.83,2.14-.15,3.12-8.18,8.18-16.35,16.36-24.54,24.53-.15.15-.31.32-.51.4-1.54.65-3.09,1.27-4.82,1.98h0Z"></path></g>
</symbol>

<symbol id="ad-pago" viewBox="0 0 58.83 41.06">
  <g><path d="M29.39,40.81H6.87c-3.27,0-5.84-2.02-6.48-5.1-.11-.52-.14-1.07-.14-1.59V6.96C.25,3.67,2.13,1.19,5.14.44c.58-.14,1.18-.19,1.78-.19h45c3.89,0,6.63,2.72,6.64,6.61.02,9.12.02,18.23,0,27.35,0,3.89-2.75,6.61-6.64,6.61-7.51,0-15.03,0-22.53,0ZM29.4,15.46c-8.65,0-17.29,0-25.94,0-.51,0-.7.07-.7.65.03,6.04,0,12.09.02,18.12,0,2.46,1.56,4.01,4.02,4.01h45.19c.37,0,.74,0,1.11-.09,1.79-.44,2.91-1.89,2.92-3.81,0-6.04,0-12.09.02-18.12,0-.6-.11-.79-.76-.79-8.63.03-17.25.02-25.87.02h0ZM29.4,9.13h26.12c.2,0,.51.12.5-.27-.02-.99.11-1.98-.07-2.96-.35-1.91-1.85-3.09-3.9-3.09H6.68c-2.3,0-3.88,1.59-3.91,3.89,0,.55.04,1.11,0,1.67-.05.61.12.79.76.79,8.63-.03,17.25-.02,25.87-.02Z"></path><path d="M19.24,21.79c-3.17,0-6.34,0-9.52,0-.5,0-.65-.14-.61-.63.04-.43.04-.87,0-1.3-.05-.48.11-.63.61-.63,3.65.02,7.3,0,10.95,0,2.7,0,5.4.02,8.1-.02.57,0,.72.17.66.69-.05.39-.05.79,0,1.17.05.53-.1.7-.66.69-3.17-.03-6.34-.02-9.52-.02v.02Z"></path></g>
</symbol>

<symbol id="ad-logo-entero" viewBox="0 0 302.63 22.72">
  <g><path d="M90.14,4.8c-.8.7-1.04,1.69-1.5,2.55-.4.75-.77,1.51-1.15,2.27-.37.75-.72,1.5-1.09,2.24-.38.77-.78,1.54-1.16,2.31-.35.69-.68,1.38-1.03,2.07-.57,1.11-1.02,2.28-1.63,3.37-.37.66-.69,1.34-1.02,2.02-.18.39-.49.54-.89.55-.41,0-.66-.24-.83-.58-.7-1.37-1.41-2.74-2.1-4.12-.51-1.02-.99-2.06-1.5-3.08-.51-1.02-1.06-2.02-1.57-3.04-.51-1.02-.99-2.06-1.5-3.07-.46-.91-.95-1.8-1.36-2.73-.06-.14-.18-.21-.34-.19-.17.03-.21.16-.22.31,0,.22-.01.43-.01.65,0,4.88,0,9.76,0,14.65,0,.38-.05.73-.19,1.09-.13.33-.35.45-.68.45-.34,0-.59-.11-.72-.46-.12-.31-.18-.62-.18-.95,0-6.51,0-13.02,0-19.53,0-.28.04-.56.14-.82.11-.29.24-.54.61-.55.34,0,.61.05.83.37.55.79.88,1.69,1.33,2.54.34.64.67,1.29,1,1.93.38.74.76,1.48,1.13,2.22.38.76.77,1.51,1.15,2.27.35.69.69,1.38,1.04,2.07.36.7.72,1.4,1.08,2.1.38.74.75,1.48,1.13,2.22.38.76.75,1.52,1.15,2.26.17.32.2.72.55.95.22.14.33.16.46-.1.7-1.42,1.43-2.83,2.13-4.25.65-1.31,1.28-2.64,1.93-3.94.65-1.29,1.33-2.57,1.98-3.87.51-1.02.97-2.06,1.51-3.07.57-1.07,1.05-2.2,1.68-3.24.24-.4.56-.52.98-.42.41.1.52.45.58.81.02.09,0,.19,0,.28,0,6.7,0,13.39,0,20.09,0,.59-.2.96-.57,1.06-.47.13-.83-.05-.99-.51-.12-.33-.11-.67-.11-1.01,0-5.18,0-10.35,0-15.53,0-.2.04-.4-.06-.64Z"></path><path d="M248.18,11.41c0,3.29,0,6.57,0,9.86,0,.37.03.74-.32,1.02-.37.3-.81.33-1.12-.03-.56-.64-1.09-1.31-1.61-1.98-.67-.85-1.32-1.71-1.98-2.57-.84-1.09-1.66-2.19-2.5-3.28-.61-.8-1.24-1.58-1.85-2.37-.86-1.11-1.7-2.24-2.56-3.35-.61-.8-1.24-1.58-1.86-2.37-.53-.68-1.07-1.36-1.59-2.05-.11-.14-.2-.28-.41-.24-.25.05-.24.25-.24.44,0,1.32,0,2.63,0,3.95,0,4.18,0,8.37,0,12.55,0,.36-.04.7-.17,1.05-.13.34-.35.49-.7.49-.34,0-.59-.12-.72-.47-.11-.3-.17-.59-.17-.91,0-6.52,0-13.05,0-19.57,0-.3.05-.59.16-.86.23-.55.83-.68,1.27-.26.52.49.93,1.08,1.36,1.64,1.57,2.05,3.17,4.07,4.73,6.13,1.11,1.47,2.22,2.93,3.35,4.38,1.24,1.58,2.39,3.23,3.7,4.76.37.43.69.91,1.04,1.36.06.08.1.21.24.17.12-.04.15-.16.16-.26.02-.23.04-.46.04-.69,0-5.42,0-10.85,0-16.27,0-.4-.03-.79.28-1.14.24-.28.51-.35.83-.25.33.1.58.32.62.68.03.25.03.49.03.74,0,3.24,0,6.48,0,9.72Z"></path><path d="M147.18,11.36c0,3.22,0,6.45,0,9.67,0,.05,0,.09,0,.14.01.52.02,1.06-.59,1.28-.63.22-.92-.24-1.24-.65-1.1-1.4-2.24-2.76-3.29-4.2-1.08-1.49-2.23-2.92-3.35-4.38-.92-1.2-1.82-2.42-2.79-3.59-1.01-1.21-1.92-2.5-2.88-3.75-.44-.58-.9-1.14-1.34-1.71-.1-.12-.23-.15-.38-.11-.14.04-.19.15-.2.28,0,.17,0,.34,0,.51,0,5.38,0,10.76,0,16.13,0,.37-.03.74-.18,1.09-.13.32-.36.45-.68.45-.34,0-.59-.11-.72-.46-.12-.33-.19-.65-.19-1,0-6.46,0-12.93,0-19.39,0-.34.04-.68.19-1,.24-.53.82-.64,1.25-.23.54.5.94,1.11,1.39,1.68,1.58,2.02,3.15,4.05,4.7,6.09,1.11,1.46,2.23,2.93,3.36,4.38,1.08,1.39,2.09,2.84,3.24,4.18.53.62,1,1.3,1.5,1.94.06.08.11.21.24.17.13-.03.15-.15.16-.26.03-.26.05-.52.05-.79,0-5.41,0-10.82,0-16.23,0-.38-.03-.76.27-1.1.24-.27.51-.36.83-.26.33.1.58.32.62.68.03.25.03.49.03.74,0,3.22,0,6.45,0,9.67Z"></path><path d="M219.78,11.51c.08,1.15-.05,2.4-.5,3.59-.48,1.27-1.07,2.49-1.97,3.54-.6.69-1.21,1.37-1.97,1.89-.95.66-1.96,1.21-3.07,1.61-1.22.44-2.5.56-3.76.58-1.26.02-2.53-.08-3.76-.51-1.32-.45-2.56-1.02-3.64-1.89-.96-.78-1.82-1.67-2.47-2.74-.56-.92-1.01-1.87-1.32-2.89-.42-1.38-.51-2.8-.42-4.23.1-1.51.53-2.93,1.18-4.3.68-1.43,1.67-2.6,2.85-3.61.74-.64,1.63-1.09,2.52-1.53,1.49-.73,3.08-.99,4.69-1,1.24,0,2.49.1,3.72.48,1.14.36,2.18.88,3.17,1.5.78.49,1.44,1.17,2.06,1.85.92,1.01,1.54,2.2,2.05,3.44.53,1.3.73,2.68.63,4.21ZM218.07,11.18c.12-1.52-.29-3.14-1.11-4.62-.93-1.67-2.24-3-3.99-3.88-1.11-.56-2.28-.95-3.48-1.06-2.34-.22-4.54.27-6.56,1.55-1.81,1.14-2.98,2.77-3.73,4.71-.64,1.65-.69,3.39-.47,5.13.12.9.43,1.76.79,2.61.49,1.16,1.23,2.14,2.14,2.99.65.6,1.39,1.05,2.18,1.48,1.2.65,2.5.88,3.82,1.07,1.22.18,2.41-.09,3.58-.39.8-.21,1.59-.54,2.29-.98,1.2-.76,2.22-1.72,3.01-2.92.72-1.1,1.19-2.3,1.42-3.58.11-.62.13-1.26.11-2.09Z"></path><path d="M28.47,11.35c0-3.16,0-6.32,0-9.48,0-.19,0-.37.01-.56.1-.9.34-1.12,1.25-1.12,1.79,0,3.58,0,5.36.04,2.72.07,5.12,1,7.16,2.81.99.88,1.75,1.94,2.33,3.14,1,2.05,1.33,4.22,1.09,6.45-.13,1.27-.43,2.51-.99,3.7-.49,1.04-1.1,1.97-1.86,2.81-.79.88-1.77,1.54-2.8,2.11-1.2.66-2.51.98-3.85,1.2-.56.09-1.15.08-1.72.09-1.62.01-3.23,0-4.85,0-.77,0-.92-.12-1.07-.87-.05-.26-.06-.52-.06-.78,0-3.18,0-6.35,0-9.53ZM30.24,11.37c0,2.93,0,5.86,0,8.78,0,.6.15.75.74.75,1.09,0,2.18.01,3.26,0,1.62-.02,3.19-.22,4.68-.97,1.62-.82,2.86-2,3.78-3.52.71-1.17,1.05-2.5,1.24-3.86.17-1.23.05-2.42-.23-3.63-.23-1-.61-1.92-1.11-2.78-.65-1.1-1.56-2-2.61-2.73-1.2-.83-2.53-1.36-4-1.5-1.63-.15-3.26-.1-4.89-.1-.75,0-.87.12-.87.86,0,2.9,0,5.79,0,8.69Z"></path><path d="M103.58,11.38c0-3.13,0-6.26,0-9.39,0-.19,0-.37,0-.56.07-1,.32-1.24,1.32-1.24,4.26,0,8.52,0,12.78,0,.17,0,.34,0,.51.02.42.03.84.35.89.68.05.32-.27.73-.71.87-.24.08-.49.07-.74.07-3.78,0-7.55,0-11.33,0-.88,0-.97.09-.97.95,0,2.39,0,4.77,0,7.16,0,.68.09.78.78.78,2.67,0,5.35,0,8.02,0,.23,0,.47,0,.7.02.48.04.82.38.82.79,0,.38-.39.76-.82.8-.14.01-.28,0-.42,0-2.74,0-5.47,0-8.21,0-.75,0-.87.13-.87.86,0,2.28,0,4.56,0,6.84,0,.77.11.88.9.88,3.82,0,7.65,0,11.47,0,.38,0,.73.02,1.05.29.22.19.4.39.31.66-.1.31-.3.59-.66.65-.23.04-.46.03-.7.03-4.27,0-8.55,0-12.82,0-.98,0-1.26-.26-1.31-1.25-.02-.36,0-.71,0-1.07,0-2.94,0-5.89,0-8.83Z"></path><path d="M160.56,5.81c-.07,1.11.57,2.04,1.63,2.76,1.15.77,2.47,1.01,3.79,1.29,1.97.43,3.95.86,5.4,2.45.93,1.03,1.33,2.26,1.47,3.62.11,1-.11,1.97-.44,2.87-.44,1.22-1.25,2.23-2.4,2.91-1.7,1.01-3.54,1.06-5.44.93-1.22-.08-2.35-.41-3.41-.97-1.34-.7-2.34-1.76-3.01-3.12-.15-.3.13-.75.5-.86.41-.13.85.02,1.09.39.55.83,1.19,1.59,2.06,2.1.32.19.65.37,1,.48,1.9.61,3.82.78,5.7,0,1.17-.49,1.99-1.35,2.34-2.64.22-.78.38-1.55.22-2.33-.31-1.48-1.17-2.55-2.53-3.23-1.07-.54-2.21-.73-3.38-.94-1.98-.36-3.81-1.1-5.19-2.65-.49-.55-.86-1.22-1-1.91-.23-1.11-.25-2.25.2-3.37.53-1.34,1.53-2.2,2.74-2.84.81-.43,1.72-.58,2.63-.69,1.05-.13,2.08.02,3.1.2.76.14,1.44.54,2.11.93.82.47,1.48,1.1,2.06,1.84.37.48.32,1.01-.11,1.36-.4.33-.99.08-1.35-.44-1.45-2.11-4.38-2.77-6.61-2.15-.86.24-1.63.58-2.24,1.23-.67.7-.92,1.3-.94,2.8Z"></path><path d="M19.19,21.58c0,.5-.31.85-.71.92-.42.06-.85-.21-1.01-.65-.5-1.35-1.1-2.65-1.68-3.97-.38-.87-.69-1.78-1.05-2.66-.34-.81-.71-1.61-1.05-2.42-.37-.88-.69-1.79-1.11-2.65-.28-.57-.49-1.16-.74-1.73-.32-.72-.61-1.45-.92-2.18-.35-.82-.69-1.65-1.03-2.48-.04-.1-.08-.23-.22-.19-.23.06-.45.16-.51.42-.09.35-.24.67-.37,1-.47,1.24-1.06,2.44-1.54,3.67-.34.86-.76,1.71-1.11,2.57-.47,1.19-1.03,2.35-1.46,3.55-.31.87-.71,1.7-1.06,2.55-.38.9-.74,1.8-1.12,2.69-.3.71-.61,1.41-.95,2.1-.18.38-.71.51-1.05.33-.32-.17-.57-.76-.43-1.08.49-1.14.98-2.29,1.45-3.43.5-1.21,1.03-2.41,1.52-3.63.46-1.16,1.04-2.28,1.48-3.45.35-.94.82-1.82,1.14-2.77.28-.83.68-1.62,1.03-2.42.51-1.19,1.02-2.39,1.54-3.58.21-.48.38-.99.66-1.43.42-.65,1.24-.58,1.54.13.62,1.45,1.27,2.88,1.85,4.35.34.85.7,1.7,1.1,2.53.37.76.65,1.56.97,2.34.37.88.75,1.76,1.12,2.64.52,1.21,1.03,2.41,1.55,3.62.36.84.73,1.67,1.08,2.51.24.56.48,1.13.69,1.71.14.39.52.68.43,1.08Z"></path><path d="M278,21.57c0,.49-.29.85-.7.92-.42.07-.86-.18-1.02-.63-.64-1.69-1.43-3.32-2.11-4.99-.5-1.24-1.01-2.48-1.52-3.72-.5-1.21-1.1-2.38-1.56-3.61-.45-1.2-.98-2.36-1.45-3.55-.3-.76-.64-1.51-.96-2.26-.05-.1-.1-.2-.24-.16-.21.07-.41.16-.47.4-.09.35-.24.67-.37,1-.47,1.24-1.06,2.44-1.54,3.67-.34.86-.74,1.72-1.11,2.57-.34.79-.66,1.6-1,2.39-.4.95-.78,1.9-1.19,2.85-.33.76-.64,1.54-.96,2.31-.47,1.11-.93,2.21-1.42,3.31-.18.41-.7.58-1.07.4-.35-.17-.59-.76-.43-1.12.48-1.13.97-2.26,1.43-3.39.49-1.2,1.02-2.39,1.5-3.59.48-1.19,1.04-2.34,1.52-3.53.2-.51.39-1.04.64-1.53.29-.58.5-1.19.75-1.78.32-.75.63-1.51.95-2.26.53-1.25,1.07-2.5,1.62-3.74.13-.3.19-.62.39-.89.46-.59,1.23-.55,1.53.14.62,1.45,1.27,2.88,1.85,4.35.34.86.71,1.73,1.12,2.57.37.76.64,1.56.97,2.35.37.88.75,1.76,1.13,2.63.51,1.19,1.02,2.39,1.53,3.58.36.84.73,1.67,1.08,2.51.24.57.48,1.13.69,1.71.14.39.51.69.43,1.09Z"></path><path d="M288.29,11.38c0-3.22,0-6.44,0-9.67,0-.41.03-.8.27-1.16.3-.44.9-.45,1.21-.02.27.38.29.81.29,1.24,0,6.04,0,12.08,0,18.13,0,.15,0,.31,0,.46,0,.32.19.48.49.52.17.02.34.01.51.01,3.45,0,6.9,0,10.35,0,.32,0,.61.06.89.22.29.17.36.42.33.71-.04.3-.17.58-.51.65-.18.04-.37.05-.55.05-4.01,0-8.02,0-12.03,0-.82,0-1.15-.3-1.23-1.12-.02-.18-.01-.37-.01-.56,0-3.16,0-6.32,0-9.48Z"></path><path d="M56.01,11.35c0-3.21,0-6.42,0-9.63,0-.38.03-.74.2-1.09.25-.52.94-.58,1.28-.1.22.3.29.65.29,1.01,0,6.54,0,13.08,0,19.62,0,.28-.06.55-.15.82-.12.35-.33.54-.71.54-.4,0-.63-.18-.76-.55-.11-.31-.14-.63-.14-.96,0-3.22,0-6.45,0-9.67Z"></path><path d="M187.28,11.36c0,3.22,0,6.45,0,9.67,0,.34-.02.67-.15,1-.14.36-.38.5-.75.5-.36,0-.57-.18-.69-.51-.12-.31-.17-.63-.17-.95,0-6.45,0-12.9,0-19.34,0-.37.04-.74.21-1.09.26-.52.94-.58,1.28-.1.24.33.27.71.27,1.11,0,3.24,0,6.48,0,9.72h0Z"></path></g>
</symbol>

<symbol id="ad-arrow-left" viewBox="0 0 379.11 346.16">
  <g><path d="M153.72,111.92c-41.7,0-76.16,0-110.62.02-1.02,0-2.52-.54-2.97.5-.47,1.09.99,1.75,1.71,2.47,21.3,21.31,42.63,42.59,63.92,63.92,2.46,2.46,4.89,5.05,5.18,8.82.39,5.1-2.06,9.4-6.6,11.58-4.19,2.01-9.22,1.18-12.96-2.22-1.29-1.17-2.49-2.45-3.73-3.69-20.77-20.78-41.56-41.55-62.31-62.36-7.17-7.19-14.28-14.43-21.31-21.75-4.73-4.93-5.3-10.58-1.71-15.34,1.2-1.59,2.54-3.09,3.95-4.5C34.32,61.27,62.39,33.19,90.43,5.08c2.58-2.59,5.31-4.82,9.16-5.06,4.59-.28,9,2.29,10.93,6.47,2.09,4.52,1.52,8.83-1.79,12.51-3.67,4.08-7.52,7.99-11.4,11.87-18.34,18.4-36.73,36.75-55.07,55.14-.72.72-2.18,1.43-1.72,2.45.43.96,1.96.43,2.99.43,67.51.02,135.02-.05,202.54.06,21.18.03,41.72,3.65,60.84,13.23,34.34,17.2,56.54,44.51,67.3,81.27,3.31,11.32,5.11,22.91,4.9,34.67-.54,29.64-9.9,56.29-28.46,79.49-20.22,25.27-46.37,40.7-78.23,46.42-7.78,1.4-15.68,1.94-23.56,2.03-17.65.19-35.3.04-52.94.08-2.84,0-5.65-.2-8.45-.55-4.83-.61-8.18-3.78-9.37-8.76-1.04-4.38.69-9.27,4.39-11.66,2.96-1.91,6.43-2.2,9.83-2.21,18.97-.01,37.95.27,56.92.05,14.99-.17,29.62-2.71,43.39-8.95,31.94-14.49,51.96-38.97,60.53-72.87,2.27-8.98,3.42-18.13,3-27.4-1.06-23.25-8.96-43.99-23.51-62.11-13.13-16.36-29.59-28.09-49.64-34.55-8.9-2.87-18.05-4.45-27.4-4.74-36.36-1.14-72.74-.05-101.87-.48Z"></path><path d="M122.21,345.67c-6.61,0-11.19-4.6-11.27-11.33-.08-6.3,4.94-11.19,11.5-11.21,6.06-.02,11.63,5.26,11.37,11.19-.33,7.59-5.56,11.62-11.6,11.36Z"></path><path d="M155.88,345.68c-6.92-.03-11.49-4.53-11.49-11.3,0-6.75,4.77-11.27,11.83-11.24,5.68.03,11.08,5.41,10.98,11.35-.1,6.32-5.93,11.82-11.32,11.19Z"></path></g>
</symbol>

<symbol id="ad-mp" viewBox="0 0 200 95">
  <g><path fill="#2B3375" d="M171.149,43.39c0-23.903-29.7-43.39-66.337-43.39C68.175,0,38.476,19.486,38.476,43.39   c0,0.616-0.008,2.321-0.008,2.54c0,25.36,25.959,45.896,66.336,45.896c40.623,0,66.346-20.533,66.346-45.893   C171.149,45.048,171.149,44.538,171.149,43.39z"></path><ellipse fill="#1F9CD8" cx="104.824" cy="43.367" rx="63.785" ry="40.805"></ellipse><path fill="#FFFFFF" d="M83.645,30.494c-0.034,0.064-0.669,0.723-0.257,1.252c1.007,1.285,4.115,2.022,7.26,1.318   c1.872-0.421,4.271-2.33,6.596-4.174c2.52-2.001,5.018-4.005,7.53-4.802c2.66-0.847,4.364-0.483,5.49-0.144   c1.236,0.369,2.688,1.182,5.005,2.921c4.365,3.281,21.914,18.599,24.946,21.247c2.441-1.103,13.295-5.775,28.044-9.025   c-1.281-7.863-6.063-15.058-13.318-20.947c-10.111,4.246-22.464,6.461-34.546,0.561c-0.063-0.025-6.601-3.12-13.051-2.968   c-9.586,0.223-13.739,4.371-18.134,8.763L83.645,30.494z"></path><path fill="#FFFFFF" d="M139.502,49.779c-0.206-0.184-20.635-18.059-25.264-21.537c-2.679-2.009-4.167-2.521-5.731-2.721   c-0.814-0.105-1.939,0.045-2.727,0.261c-2.152,0.586-4.968,2.468-7.468,4.45c-2.587,2.061-5.028,4.002-7.291,4.509   c-2.894,0.649-6.426-0.117-8.038-1.207c-0.652-0.438-1.112-0.946-1.333-1.462c-0.595-1.38,0.503-2.484,0.683-2.669l5.638-6.099   c0.655-0.652,1.316-1.308,1.991-1.952c-1.818,0.237-3.5,0.702-5.138,1.157c-2.042,0.574-4.008,1.121-5.995,1.119   c-0.829,0-5.275-0.729-6.119-0.957c-5.103-1.396-9.58-2.756-16.269-5.879c-8.015,5.966-13.374,13.426-14.923,21.643   c1.151,0.305,3.007,0.857,3.787,1.029c18.137,4.033,23.785,8.188,24.811,9.055c1.109-1.234,2.71-2.016,4.496-2.016   c2.008,0.003,3.815,1.011,4.915,2.569c1.039-0.82,2.471-1.522,4.323-1.521c0.841,0,1.713,0.155,2.594,0.455   c2.047,0.702,3.103,2.064,3.65,3.298c0.687-0.311,1.53-0.539,2.524-0.536c0.976,0,1.992,0.223,3.016,0.665   c3.345,1.436,3.865,4.72,3.562,7.196c0.238-0.027,0.479-0.039,0.722-0.039c3.964,0.003,7.189,3.226,7.188,7.192   c0,1.228-0.313,2.382-0.86,3.396c1.079,0.605,3.829,1.979,6.244,1.672c1.929-0.243,2.661-0.902,2.923-1.272   c0.18-0.256,0.369-0.554,0.193-0.767l-5.117-5.686c0,0-0.843-0.797-0.564-1.104c0.288-0.315,0.809,0.138,1.178,0.445   c2.604,2.175,5.783,5.458,5.783,5.458c0.055,0.035,0.265,0.451,1.441,0.662c1.012,0.182,2.804,0.076,4.044-0.943   c0.313-0.258,0.626-0.578,0.889-0.91c-0.021,0.017-0.038,0.039-0.058,0.046c1.309-1.675-0.146-3.369-0.146-3.369l-5.974-6.709   c0,0-0.855-0.79-0.564-1.107c0.26-0.275,0.81,0.141,1.185,0.451c1.891,1.582,4.564,4.265,7.125,6.773   c0.501,0.366,2.751,1.759,5.733-0.199c1.81-1.187,2.172-2.644,2.121-3.744c-0.126-1.456-1.262-2.493-1.262-2.493l-8.161-8.205   c0,0-0.862-0.736-0.558-1.108c0.25-0.313,0.809,0.138,1.176,0.445c2.6,2.175,9.637,8.628,9.637,8.628   c0.102,0.07,2.532,1.802,5.538-0.111c1.074-0.688,1.761-1.723,1.819-2.926C140.974,51.019,139.502,49.779,139.502,49.779z"></path><path fill="#FFFFFF" d="M99.917,60.182c-1.266-0.016-2.649,0.736-2.83,0.627c-0.101-0.066,0.077-0.574,0.195-0.867   c0.121-0.292,1.789-5.307-2.274-7.048c-3.108-1.336-5.009,0.167-5.662,0.845c-0.171,0.178-0.248,0.164-0.268-0.063   c-0.063-0.902-0.466-3.346-3.149-4.164c-3.835-1.174-6.301,1.502-6.926,2.468c-0.28-2.186-2.128-3.882-4.392-3.884   c-2.458-0.002-4.453,1.99-4.456,4.447c0,2.459,1.992,4.452,4.451,4.452c1.195,0.003,2.278-0.475,3.078-1.242   c0.025,0.023,0.035,0.065,0.022,0.151c-0.187,1.1-0.532,5.1,3.657,6.729c1.68,0.652,3.108,0.168,4.293-0.663   c0.353-0.249,0.41-0.144,0.359,0.188c-0.15,1.028,0.041,3.231,3.129,4.483c2.35,0.955,3.74-0.021,4.651-0.863   c0.396-0.362,0.505-0.304,0.524,0.256c0.112,2.977,2.586,5.34,5.589,5.343c3.095,0.003,5.603-2.498,5.604-5.592   C105.517,62.69,103.011,60.215,99.917,60.182z"></path><path fill="#2B3375" d="M140.292,47.639c-6.293-5.491-20.837-18.136-24.775-21.092c-2.251-1.693-3.786-2.587-5.133-2.988   c-0.605-0.184-1.443-0.391-2.521-0.393c-1.002,0-2.078,0.182-3.201,0.539c-2.547,0.806-5.082,2.821-7.535,4.771l-0.127,0.1   c-2.285,1.816-4.646,3.695-6.434,4.094c-0.78,0.176-1.582,0.267-2.382,0.267c-2.002-0.003-3.801-0.58-4.475-1.44   c-0.111-0.142-0.04-0.371,0.221-0.703l0.034-0.043l5.536-5.967c4.335-4.336,8.432-8.43,17.859-8.646   c0.155-0.005,0.315-0.008,0.471-0.008c5.868,0.004,11.733,2.631,12.393,2.936c5.502,2.684,11.182,4.047,16.89,4.052   c5.95,0.001,12.089-1.471,18.543-4.442c-0.721-0.607-1.471-1.197-2.242-1.775c-5.671,2.457-11.072,3.699-16.285,3.698   c-5.324-0.005-10.642-1.283-15.806-3.803c-0.272-0.13-6.749-3.185-13.489-3.188c-0.177,0-0.355,0.003-0.532,0.006   c-7.919,0.187-12.379,2.997-15.379,5.461c-2.917,0.071-5.435,0.774-7.675,1.4c-1.998,0.556-3.723,1.037-5.406,1.036   c-0.693,0-1.941-0.063-2.053-0.068c-1.937-0.059-11.688-2.45-19.445-5.387c-0.792,0.561-1.554,1.139-2.296,1.729   c8.104,3.322,17.965,5.892,21.078,6.093c0.865,0.057,1.788,0.154,2.711,0.156c2.06,0,4.114-0.577,6.103-1.134   c1.175-0.329,2.472-0.688,3.834-0.949c-0.363,0.357-0.727,0.72-1.091,1.084l-5.625,6.085c-0.442,0.447-1.404,1.639-0.77,3.108   c0.251,0.592,0.763,1.159,1.479,1.641c1.341,0.902,3.74,1.513,5.97,1.515c0.845,0.002,1.646-0.084,2.382-0.249   c2.358-0.528,4.831-2.499,7.451-4.582c2.087-1.658,5.054-3.765,7.324-4.383c0.634-0.173,1.414-0.28,2.04-0.28   c0.188,0.002,0.363,0.008,0.528,0.031c1.5,0.19,2.951,0.7,5.54,2.645c4.617,3.469,25.049,21.342,25.248,21.518   c0.014,0.012,1.317,1.136,1.227,3.004c-0.049,1.041-0.627,1.967-1.632,2.608c-0.872,0.554-1.772,0.835-2.682,0.835   c-1.366-0.003-2.306-0.642-2.368-0.686c-0.074-0.062-7.075-6.48-9.65-8.637c-0.41-0.34-0.809-0.646-1.211-0.646   c-0.216-0.001-0.406,0.092-0.535,0.252c-0.405,0.5,0.049,1.191,0.583,1.646l8.177,8.22c0.012,0.009,1.02,0.954,1.13,2.215   c0.064,1.362-0.587,2.502-1.941,3.39c-0.965,0.636-1.941,0.958-2.898,0.958c-1.257,0-2.137-0.571-2.332-0.708l-1.174-1.155   c-2.143-2.109-4.356-4.29-5.978-5.643c-0.395-0.328-0.815-0.632-1.219-0.632c-0.199,0-0.377,0.074-0.515,0.219   c-0.185,0.205-0.313,0.574,0.147,1.187c0.189,0.252,0.413,0.46,0.413,0.46l5.967,6.703c0.05,0.061,1.229,1.462,0.135,2.859   l-0.21,0.268c-0.18,0.197-0.372,0.379-0.556,0.535c-1.018,0.835-2.377,0.924-2.916,0.924c-0.288,0-0.565-0.024-0.807-0.068   c-0.588-0.105-0.985-0.27-1.176-0.495l-0.073-0.076c-0.325-0.337-3.333-3.407-5.821-5.484c-0.328-0.275-0.737-0.621-1.16-0.621   c-0.21,0-0.396,0.082-0.539,0.24c-0.492,0.539,0.247,1.347,0.56,1.642l5.09,5.612c-0.006,0.05-0.069,0.165-0.193,0.343   c-0.182,0.251-0.799,0.869-2.645,1.101c-0.222,0.029-0.45,0.041-0.676,0.041c-1.904,0-3.935-0.924-4.981-1.479   c0.477-1.007,0.724-2.114,0.724-3.226c0.002-4.189-3.4-7.597-7.588-7.6c-0.09,0-0.186,0.003-0.274,0.006   c0.137-1.912-0.134-5.534-3.851-7.128c-1.07-0.463-2.137-0.698-3.174-0.698c-0.813,0-1.593,0.139-2.327,0.42   c-0.771-1.497-2.049-2.587-3.718-3.155c-0.921-0.319-1.838-0.48-2.725-0.48c-1.547,0-2.972,0.456-4.242,1.359   c-1.219-1.515-3.058-2.411-4.994-2.411c-1.695,0-3.326,0.678-4.534,1.875c-1.584-1.21-7.868-5.201-24.688-9.021   c-0.815-0.187-2.685-0.721-3.829-1.056c-0.189,0.91-0.335,1.83-0.43,2.76c0,0,3.102,0.742,3.711,0.88   c17.183,3.815,22.86,7.784,23.819,8.534c-0.325,0.781-0.494,1.623-0.495,2.471c-0.003,3.55,2.885,6.441,6.437,6.444   c0.397,0,0.793-0.035,1.181-0.106c0.535,2.611,2.244,4.592,4.857,5.608c0.763,0.293,1.535,0.444,2.293,0.444   c0.491,0.001,0.984-0.061,1.467-0.184c0.482,1.225,1.567,2.752,3.994,3.738c0.852,0.343,1.702,0.521,2.529,0.521   c0.676,0,1.336-0.119,1.966-0.35c1.163,2.832,3.931,4.708,7.017,4.708c2.045,0.003,4.009-0.83,5.439-2.304   c1.227,0.681,3.814,1.914,6.428,1.917c0.339,0,0.656-0.023,0.974-0.062c2.595-0.328,3.805-1.343,4.358-2.133   c0.101-0.138,0.191-0.284,0.269-0.437c0.613,0.178,1.287,0.321,2.06,0.322c1.417,0,2.778-0.483,4.152-1.484   c1.352-0.974,2.313-2.373,2.451-3.563c0.003-0.017,0.004-0.034,0.007-0.052c0.456,0.094,0.923,0.142,1.39,0.142   c1.46,0,2.896-0.455,4.268-1.354c2.647-1.735,3.105-4.002,3.063-5.485c0.464,0.097,0.937,0.146,1.406,0.146   c1.371,0,2.717-0.413,3.998-1.23c1.641-1.048,2.629-2.654,2.779-4.522c0.102-1.27-0.213-2.551-0.883-3.652   c4.435-1.91,14.569-5.607,26.504-8.297c-0.071-0.926-0.205-1.84-0.371-2.75C153.765,41.775,142.99,46.438,140.292,47.639z    M99.917,70.978c-2.805-0.003-5.084-2.182-5.188-4.959c-0.007-0.237-0.031-0.87-0.567-0.87c-0.22,0-0.411,0.132-0.632,0.331   c-0.615,0.571-1.401,1.153-2.549,1.153c-0.52,0-1.084-0.122-1.679-0.365c-2.962-1.199-3.003-3.234-2.882-4.052   c0.032-0.218,0.043-0.445-0.107-0.621l-0.182-0.164h-0.185c-0.151,0-0.306,0.062-0.515,0.21c-0.857,0.602-1.679,0.893-2.514,0.893   c-0.46,0-0.932-0.092-1.403-0.273c-3.899-1.518-3.592-5.197-3.401-6.305c0.028-0.225-0.027-0.398-0.17-0.514l-0.275-0.228   l-0.258,0.246c-0.76,0.732-1.753,1.134-2.798,1.134c-2.233-0.003-4.051-1.816-4.049-4.051c0.001-2.233,1.82-4.047,4.054-4.044   c2.018,0,3.736,1.518,3.993,3.533l0.14,1.087l0.598-0.92c0.066-0.107,1.702-2.581,4.711-2.578c0.571,0,1.162,0.092,1.758,0.275   c2.397,0.732,2.803,2.906,2.866,3.812c0.042,0.528,0.418,0.554,0.491,0.554c0.207,0,0.359-0.132,0.469-0.244   c0.452-0.473,1.438-1.259,2.979-1.259c0.706,0.003,1.457,0.17,2.232,0.504c3.812,1.635,2.083,6.478,2.062,6.527   c-0.327,0.803-0.34,1.157-0.032,1.362l0.149,0.072h0.111c0.173,0,0.387-0.075,0.738-0.195c0.52-0.179,1.302-0.448,2.034-0.447   h0.002c2.868,0.031,5.202,2.366,5.2,5.202C105.118,68.649,102.784,70.978,99.917,70.978z"></path></g>
</symbol>

<symbol id="ad-clipboard-check" viewBox="0 0 384 512">
  <g><path d="M336 64h-80a64 64 0 0 1 64 64H64a64 64 0 0 1 64-64H48a48 48 0 0 0-48 48v352a48 48 0 0 0 48 48h288a48 48 0 0 0 48-48V112a48 48 0 0 0-48-48zm-22.8 207.8l-143 141.8a12 12 0 0 1-17-.1l-82.6-83.3a12 12 0 0 1 .1-17L99.1 285a12 12 0 0 1 17 .1l46 46.4 106-105.2a12 12 0 0 1 17 .1l28.2 28.4a12 12 0 0 1-.1 17z" style="opacity: 0.4"></path><path d="M285.1 226.4a12 12 0 0 0-17-.1l-106 105.2-46-46.4a12 12 0 0 0-17-.1l-28.4 28.2a12 12 0 0 0-.1 17l82.6 83.3a12 12 0 0 0 17 .1l143-141.8a12 12 0 0 0 .1-17zM256 64a64 64 0 0 0-128 0 64 64 0 0 0-64 64h256a64 64 0 0 0-64-64zm-64 24a24 24 0 1 1 24-24 23.94 23.94 0 0 1-24 24z"></path></g>
</symbol>

<symbol id="ad-exclamation-triangle" viewBox="0 0 576 512">
  <g><path d="M569.52 440L329.58 24c-18.44-32-64.69-32-83.16 0L6.48 440c-18.42 31.94 4.64 72 41.57 72h479.89c36.87 0 60.06-40 41.58-72zM288 448a32 32 0 1 1 32-32 32 32 0 0 1-32 32zm38.24-238.41l-12.8 128A16 16 0 0 1 297.52 352h-19a16 16 0 0 1-15.92-14.41l-12.8-128A16 16 0 0 1 265.68 192h44.64a16 16 0 0 1 15.92 17.59z" style="opacity: 0.4"></path><path d="M310.32 192h-44.64a16 16 0 0 0-15.92 17.59l12.8 128A16 16 0 0 0 278.48 352h19a16 16 0 0 0 15.92-14.41l12.8-128A16 16 0 0 0 310.32 192zM288 384a32 32 0 1 0 32 32 32 32 0 0 0-32-32z"></path></g>
</symbol>

<symbol id="ad-check-circle" viewBox="0 0 512 512">
  <g><path d="M256 8C119 8 8 119 8 256s111 248 248 248 248-111 248-248S393 8 256 8zm155.31 195.31l-184 184a16 16 0 0 1-22.62 0l-104-104a16 16 0 0 1 0-22.62l22.62-22.63a16 16 0 0 1 22.63 0L216 308.12l150.06-150.06a16 16 0 0 1 22.63 0l22.62 22.63a16 16 0 0 1 0 22.62z" style="opacity: 0.4"></path><path d="M227.31 387.31a16 16 0 0 1-22.62 0l-104-104a16 16 0 0 1 0-22.62l22.62-22.63a16 16 0 0 1 22.63 0L216 308.12l150.06-150.06a16 16 0 0 1 22.63 0l22.62 22.63a16 16 0 0 1 0 22.62l-184 184z"></path></g>
</symbol>

<symbol id="ad-copy" viewBox="0 0 377.1 448">
  <g><path d="M307.1,259.5V376.4c-.1,41.2-30.6,71.6-71.8,71.6H70.8C31.1,448,0,417.1,0,377.4V141.5C0,102,30.9,71,70.3,71H236.8c39.5,0,70.2,30.8,70.2,70.5S307.1,220.1,307.1,259.5ZM272,260V143.5c0-23.1-14.3-37.5-37.4-37.5H72.7C49.4,106,35,120.4,35,143.8V375.2C35,398.4,49.6,413,72.7,413H234.2c23.3,0,37.8-14.4,37.8-37.6Z"></path><path d="M377.1,199.5c0,44.7-.1,89.3,0,134,0,7.7-3.3,13.4-10.4,16.7s-12.7,1.9-18.2-2.5-6.5-9-6.5-15c.1-30.2,0-60.3,0-90.5V73.3c0-24-14.2-38.3-38.2-38.3h-190c-7.7,0-13.5-3.2-16.8-10.2S94.9,12,99.3,6.5s9-6.5,15-6.5H306.8C345.9.1,377,31,377,70.1Q377.2,134.8,377.1,199.5Z"></path></g>
</symbol>

<symbol id="ad-arrow-bottom" viewBox="0 0 512 512">
  <g><path d="M239 369.9L103.5 234.4a23.9 23.9 0 0 1 0-33.9l17-17a23.9 23.9 0 0 1 33.9 0L256 285.1l101.6-101.6a23.9 23.9 0 0 1 33.9 0l17 17a23.9 23.9 0 0 1 0 33.9L273 369.9a24 24 0 0 1-34 0z"></path></g>
</symbol>

<symbol id="ad-stream" viewBox="0 0 512 512">
  <g><path d="M512 224v64a16 16 0 0 1-16 16H80a16 16 0 0 1-16-16v-64a16 16 0 0 1 16-16h416a16 16 0 0 1 16 16z" style="opacity: 0.4"></path><path d="M432 32H16A16 16 0 0 0 0 48v64a16 16 0 0 0 16 16h416a16 16 0 0 0 16-16V48a16 16 0 0 0-16-16zm0 352H16a16 16 0 0 0-16 16v64a16 16 0 0 0 16 16h416a16 16 0 0 0 16-16v-64a16 16 0 0 0-16-16z"></path></g>
</symbol>

<symbol id="ad-circle" viewBox="0 0 512 512">
  <g><path d="M256 8C119 8 8 119 8 256s111 248 248 248 248-111 248-248S393 8 256 8zm0 448c-110.5 0-200-89.5-200-200S145.5 56 256 56s200 89.5 200 200-89.5 200-200 200z"></path></g>
</symbol>

<symbol id="ad-clipboard-error" viewBox="0 0 281.19 374.72">
  <g><path d="M196.84,46.73c15.55-.02,31.09-.16,46.64-.05,23.01.17,37.6,14.99,37.67,38.4.11,40.29.03,80.58.03,120.87,0,43.48.05,86.95-.02,130.43-.03,19.98-11.18,34.26-29.33,37.71-2.91.55-5.96.57-8.95.57-68.36.04-136.73.07-205.09.05C15.25,374.71,0,359.5,0,336.99c-.01-84.33,0-168.66.07-252.98.02-22.29,14.52-36.99,36.87-37.3,15.54-.22,31.09-.09,46.62-.12-1.21,2.01-3.43,2.11-5.3,2.83-16.48,6.31-26.74,18.07-30.63,35.26-1.95,8.63-1.22,9.44,7.51,9.45,36.5.02,72.99.01,109.49.01,20.59,0,41.18.03,61.76-.03,7.64-.02,8.46-1.1,6.94-8.71-3.63-18.07-14.3-30.04-31.58-36.23-1.71-.61-3.75-.66-4.9-2.43Z" style="opacity: 0.4"></path><path d="M196.84,46.73c1.15,1.77,3.19,1.82,4.9,2.43,17.29,6.19,27.95,18.16,31.58,36.23,1.53,7.6.7,8.68-6.94,8.71-20.59.06-41.18.03-61.76.03-36.5,0-72.99,0-109.49-.01-8.73,0-9.46-.82-7.51-9.45,3.89-17.19,14.16-28.95,30.63-35.26,1.87-.72,4.1-.83,5.3-2.83,8.63.9,9.62.29,10.64-6.57C97.31,19.14,114.43,2.45,134.96.28c21.83-2.31,41.8,9.88,49.34,30.2.97,2.62,1.78,5.34,2.33,8.08,1.67,8.28,1.88,8.51,10.21,8.16ZM123.63,46.88c-.01,9.72,7.23,17.16,16.78,17.24,9.5.07,16.98-7.38,17.07-17.01.09-9.52-7.42-17.2-16.85-17.24-9.6-.04-16.98,7.35-16.99,17.01Z"></path><path d="M127.83,225.54c-1.36-6.97-1.68-14.1-2.35-21.17-1.32-13.88-2.91-27.74-4.06-41.63-1.04-12.61,8.5-22.78,20.87-22.66,12.32.12,21.59,10.53,20.36,23.14-1.2,12.31-2.67,24.6-3.97,36.91-1.98,18.81-3.97,37.61-5.84,56.43-.48,4.8-1.69,8.99-6.39,11.27-6.58,3.2-14.44-1.03-15.29-8.33-.92-7.92-1.67-15.86-2.49-23.79-.35-3.38-1.31-6.69-.85-10.18Z"></path><path d="M141.4,319.79c-10.65,0-19.25-8.62-19.24-19.27.02-10.9,8.5-19.56,19.23-19.62,10.63-.06,19.38,8.72,19.41,19.49.04,10.76-8.61,19.4-19.41,19.4Z"></path></g>
</symbol>

<symbol id="ad-timer" viewBox="0 0 170.19 212.73">
  <g><path d="M156.95,31.66c4.56,13.42,3.44,26.66-1.93,39.51-5.42,12.98-14.94,22.14-27.84,27.75-5.17,2.25-10.36,4.46-15.53,6.7-.35.15-.66.4-1.37.86,3.31,1.42,6.22,2.73,9.18,3.93,9.42,3.83,18.58,8.08,25.6,15.81,8.99,9.89,13.98,21.42,14.37,34.85.09,3.15,0,6.31.04,9.47.04,3.75-1.05,7.18-2.88,10.41-8.96-.05-17.92-.14-26.88-.13-1.68,0-2.53-.24-3.01-2.22-2.36-9.71-8.2-16.71-17.35-20.77-7.49-3.33-15.08-6.45-22.58-9.74-1.29-.57-2.32-.41-3.53.12-7.29,3.18-14.6,6.29-21.9,9.44-9.39,4.04-15.38,11.07-17.83,20.94-.49,1.96-1.32,2.23-3,2.23-8.96,0-17.92.07-26.88.13-1.86-3.22-2.82-6.66-2.91-10.41-.23-9.85.17-19.55,4.27-28.78,5.91-13.32,15.64-22.66,28.95-28.38,4.65-2,9.31-3.95,13.96-5.94.58-.25,1.28-.36,1.75-1.35-4.48-1.93-8.89-3.95-13.4-5.73-13.34-5.27-23.69-13.89-30.1-26.87-3.5-7.08-5.46-14.6-5.36-22.54.06-5.12-.76-10.31,1.05-15.32.48-1.32.95-2.64,1.43-3.96,1.57.09,3.14.26,4.7.26,44.75.01,89.51.01,134.26,0,1.57,0,3.14-.17,4.7-.27ZM85.37,63.84c-13.2,0-26.4,0-39.6,0-2.88,0-2.9.01-2.11,2.9,2.5,9.1,7.97,15.8,16.54,19.72,7.76,3.55,15.67,6.77,23.5,10.17.99.43,1.86.45,2.85.02,7.98-3.47,16.06-6.7,23.93-10.4,8.34-3.92,13.66-10.59,16.09-19.51.79-2.89.77-2.9-2.34-2.9-12.95,0-25.9,0-38.85,0Z" style="opacity: 0.4"></path><path d="M13.64,180.93c8.96-.05,17.92-.13,26.88-.13,1.68,0,2.51-.26,3-2.23,2.46-9.88,8.44-16.9,17.83-20.94,7.3-3.14,14.61-6.26,21.9-9.44,1.21-.53,2.24-.69,3.53-.12,7.51,3.29,15.09,6.41,22.58,9.74,9.15,4.07,14.98,11.06,17.35,20.77.48,1.97,1.34,2.22,3.01,2.22,8.96,0,17.92.08,26.88.13,13.1,2.42,17.68,17.29,9.53,26.45-3.34,3.76-7.62,5.36-12.63,5.34-15.36-.05-30.72-.02-46.09-.02-30.14,0-60.28.01-90.43,0-8.69,0-15.35-5.26-16.65-13.03-1.52-9.06,3.73-16.44,13.31-18.74Z"></path><path d="M156.95,31.66c-1.57.09-3.14.27-4.7.27-44.75.01-89.51.01-134.26,0-1.57,0-3.14-.17-4.7-.26C5.21,29.78-.04,23.55,0,15.87.04,8.52,5.13,2.11,12.42.41,13.85.08,15.38.02,16.86.02,62.36,0,107.87,0,153.37,0c7.58,0,13.32,3.78,15.79,10.26,2.33,6.13.64,13.1-4.26,17.51-2.28,2.05-4.94,3.31-7.94,3.88Z"></path><path d="M85.37,63.84c12.95,0,25.9,0,38.85,0,3.11,0,3.13,0,2.34,2.9-2.43,8.92-7.75,15.59-16.09,19.51-7.87,3.7-15.95,6.93-23.93,10.4-.99.43-1.85.41-2.85-.02-7.83-3.4-15.74-6.62-23.5-10.17-8.57-3.92-14.04-10.62-16.54-19.72-.79-2.89-.78-2.9,2.11-2.9,13.2,0,26.4,0,39.6,0Z"></path></g>
</symbol>

<symbol id="ad-caret-down" viewBox="0 0 320 512">
  <g><path d="M31.3 192h257.3c17.8 0 26.7 21.5 14.1 34.1L174.1 354.8c-7.8 7.8-20.5 7.8-28.3 0L17.2 226.1C4.6 213.5 13.5 192 31.3 192z"></path></g>
</symbol>

<symbol id="ad-dec-interiores" viewBox="0 0 52.14 55.02">
  <g><path d="M26.07,55.02c-6.88,0-13.76,0-20.63,0-2.58,0-4.52-1.37-5.21-3.64-.16-.52-.22-1.06-.22-1.61,0-8.67-.01-17.33,0-26,0-3.46,1.38-6.34,4.09-8.5C9.81,10.72,15.55,6.21,21.31,1.71c2.91-2.28,6.63-2.27,9.53,0,5.74,4.49,11.46,8.99,17.16,13.53,2.75,2.19,4.13,5.1,4.13,8.62.02,8.6,0,17.2,0,25.79,0,3.2-2.15,5.36-5.37,5.37-4.07.02-8.14,0-12.22,0-2.83,0-5.66,0-8.48,0ZM26.04,50.67c6.86,0,13.71,0,20.57,0,1.05,0,1.19-.14,1.19-1.16,0-8.53,0-17.06,0-25.59,0-2.2-.85-4-2.58-5.36-5.65-4.46-11.29-8.91-16.95-13.35-1.45-1.14-2.96-1.13-4.4,0-5.61,4.42-11.22,8.85-16.84,13.27-1.79,1.41-2.68,3.23-2.68,5.51,0,8.48,0,16.97,0,25.45,0,1.11.12,1.23,1.26,1.23,6.81,0,13.62,0,20.43,0Z"></path><path d="M14.5,38.14c0-1.92,0-3.85,0-5.77,0-1.47-.47-1.95-1.94-1.97-1.29-.02-2.21-.71-2.37-1.78-.2-1.35.69-2.45,2.07-2.56.59-.04,1.18-.02,1.76.11.43.1.5-.07.49-.44-.02-.56-.01-1.13,0-1.7.05-3.78,2.75-6.58,6.52-6.65,3.37-.06,6.74-.06,10.11,0,3.74.07,6.45,2.85,6.52,6.59.01.59.02,1.18,0,1.76-.01.38.08.53.5.44.57-.13,1.17-.15,1.76-.11,1.25.1,2.11,1.02,2.09,2.23-.02,1.2-.93,2.07-2.2,2.11-.14,0-.27,0-.41,0-1.19.03-1.73.56-1.73,1.77,0,2.96,0,5.93,0,8.89,0,1,.01,1.99,0,2.99-.02,1.33-.93,2.3-2.16,2.3-1.2,0-2.14-.98-2.18-2.3-.01-.38,0-.77,0-1.15-.01-.99.11-.88-.85-.88-3.87,0-7.74,0-11.6,0-.65,0-1.48-.29-1.89.13-.38.39-.09,1.21-.11,1.84-.04,1.37-.96,2.37-2.19,2.36-1.24,0-2.15-.99-2.15-2.38,0-1.95,0-3.89,0-5.84ZM26.08,30.4c2.19,0,4.39-.01,6.58.01.48,0,.67-.1.66-.63-.03-1.92,0-3.84-.02-5.76-.01-1.43-.85-2.29-2.28-2.3-3.3-.02-6.6-.02-9.9,0-1.42,0-2.26.88-2.27,2.31-.01,1.92.02,3.84-.02,5.76,0,.54.2.62.67.62,2.19-.02,4.39,0,6.58,0ZM26,37.67c2.24,0,4.48,0,6.72,0,.43,0,.62-.1.59-.57-.04-.61-.03-1.22,0-1.83.02-.42-.15-.53-.55-.53-4.46.01-8.91.01-13.37,0-.4,0-.57.11-.55.53.03.59.04,1.18,0,1.76-.04.52.16.65.66.64,2.17-.02,4.34-.01,6.52-.01Z"></path></g>
</symbol>

<symbol id="ad-rest-caidas" viewBox="0 0 53.37 65.02">
  <g><path d="M.03,36.94c.07-2.23-.16-4.99.1-7.74.19-2.02,1.18-3.67,2.85-4.82,6.23-4.3,12.45-8.62,18.75-12.81,3.25-2.16,6.73-2.16,9.98,0,6.25,4.17,12.43,8.45,18.62,12.72,2.03,1.4,3.02,3.42,3.03,5.86.03,4.92.04,9.84,0,14.76-.02,2.51-1.1,4.52-3.18,5.95-6.07,4.16-12.14,8.33-18.22,12.47-3.34,2.27-7.19,2.26-10.53-.02-6.04-4.12-12.06-8.25-18.1-12.38C1.11,49.42.03,47.32.03,44.65c0-2.39,0-4.79,0-7.71ZM5.03,32.11c0,.42,0,.65,0,.87,0,3.83.02,7.65,0,11.48,0,1.09.39,1.86,1.3,2.48,5.87,3.99,11.73,8.01,17.58,12.02,2.07,1.42,3.5,1.42,5.59,0,5.82-3.98,11.62-7.98,17.46-11.93.99-.67,1.43-1.47,1.42-2.66-.04-3.77-.01-7.55-.02-11.32,0-.25.08-.51-.12-.83-.24.16-.47.3-.7.46-5.15,3.52-10.3,7.05-15.46,10.57-3.49,2.38-7.31,2.36-10.79-.02-3.59-2.45-7.17-4.91-10.75-7.36-1.78-1.22-3.56-2.43-5.51-3.77ZM7.21,27.52c.3.22.53.39.76.55,5.3,3.63,10.6,7.25,15.89,10.88,2.12,1.45,3.53,1.46,5.65,0,5.36-3.67,10.73-7.34,16.09-11.01.18-.12.4-.21.49-.46-.1-.08-.18-.14-.26-.2-5.57-3.82-11.15-7.64-16.73-11.45-1.6-1.09-3.26-1.07-4.87.04-4.19,2.86-8.37,5.72-12.55,8.58-1.48,1.01-2.95,2.02-4.47,3.07Z"></path><path d="M6.71,9.19c0,2.16,0,4.31,0,6.47,0,1.6-1.03,2.72-2.47,2.74-1.47.02-2.52-1.12-2.53-2.76,0-4.31,0-8.63,0-12.94C1.71,1.13,2.78,0,4.22,0c1.44,0,2.48,1.13,2.49,2.72,0,2.16,0,4.31,0,6.47Z"></path><path d="M46.68,9.2c0-2.16,0-4.31,0-6.47,0-1.59,1.04-2.72,2.48-2.73,1.44-.01,2.51,1.11,2.52,2.69,0,4.34,0,8.68,0,13.02,0,1.58-1.07,2.71-2.51,2.69-1.44-.01-2.47-1.14-2.48-2.73,0-2.16,0-4.31,0-6.47Z"></path><path d="M16.7,5.04c0,.83.02,1.66,0,2.5-.03,1.46-1.13,2.54-2.52,2.52-1.37-.02-2.44-1.08-2.46-2.5-.02-1.69-.03-3.38,0-5.07C11.73,1.09,12.84,0,14.19,0c1.36,0,2.46,1.06,2.5,2.47.03.86,0,1.72,0,2.57Z"></path><path d="M36.69,5.03c0-.83-.01-1.66,0-2.5C36.72,1.09,37.83-.01,39.21,0c1.36.01,2.45,1.08,2.47,2.5.03,1.69.03,3.38,0,5.07-.02,1.42-1.1,2.48-2.47,2.49-1.39.01-2.48-1.08-2.51-2.54-.02-.83,0-1.66,0-2.5Z"></path></g>
</symbol>

<symbol id="ad-not-water" viewBox="0 0 55.9 51.51">
  <g><path d="M37.52,31.58c0,10.04-6.65,17.81-15.62,19.18-10.44,1.59-19.97-5.55-21.25-15.96-.57-4.62.46-8.87,3.05-12.75C8.27,15.23,12.83,8.4,17.4,1.57c.66-.98,1.39-1.28,2.23-.93.38.16.66.44.88.78,4.7,7.04,9.43,14.08,14.1,21.14,1.99,3,2.88,6.36,2.91,9.03ZM3.8,32.45c.01.68.04,1.35.13,2.03,1.1,8.81,9.76,14.86,18.4,12.85,10.55-2.45,15.26-14.35,9.26-23.42-4.03-6.09-8.11-12.14-12.15-18.22-.31-.46-.47-.6-.84-.03-4.08,6.14-8.18,12.26-12.26,18.4-1.69,2.54-2.53,5.35-2.54,8.4Z" style="fill: currentColor; stroke: currentColor; stroke-miterlimit: 10"></path><path d="M55.4,38.4c0,6.93-6.04,12.84-13.27,12.6-.86-.03-1.72-.14-2.56-.37-1.03-.28-1.57-1.07-1.35-1.96.24-.97,1.06-1.46,2.11-1.22,1.46.34,2.92.37,4.38.02,6.39-1.54,9.45-8.78,5.99-14.37-2.16-3.5-4.52-6.88-6.8-10.31-.85-1.29-1.71-2.57-2.56-3.86-.64-.98-.49-2,.33-2.54.77-.5,1.81-.22,2.42.7,3.11,4.68,6.23,9.35,9.31,14.04,1.37,2.08,2.03,4.4,2.01,7.27Z" style="fill: currentColor; stroke: currentColor; stroke-miterlimit: 10;"></path></g>
</symbol>

<symbol id="ad-truck" viewBox="0 0 640 512">
  <g>
  <path d="M176 352a80 80 0 1 0 80 80 80 80 0 0 0-80-80zm288 0a80 80 0 1 0 80 80 80 80 0 0 0-80-80z" style="opacity: 0.4"></path>
  <path d="M624 352h-16V243.9a48 48 0 0 0-14.1-33.9L494 110.1A48 48 0 0 0 460.1 96H416V48a48 48 0 0 0-48-48H48A48 48 0 0 0 0 48v320a48 48 0 0 0 48 48h18.16C74 361.93 119.78 320 176 320s102.54 41.86 110.38 96h67.24c7.85-54.14 54.1-96 110.38-96s102 41.93 109.84 96H624a16 16 0 0 0 16-16v-32a16 16 0 0 0-16-16zm-64-96H416V144h44.1l99.9 99.9z"></path>
  </g>

</symbol>

<symbol id="ad-truck-solid" viewBox="0 0 900 714">
  <g transform="translate(0.000000,714.000000) scale(0.100000,-0.100000)" stroke="none">
	<path d="M630 6923 c-25 -9 -49 -17 -55 -19 -5 -2 -19 -9 -30 -16 -39 -22 -50 -28 -74 -38 -32 -14 -167 -150 -175 -177 -4 -13 -12 -23 -17 -23 -5 0 -9 -8 -9 -18 0 -10 -5 -23 -12 -30 -16 -16 -38 -78 -51 -147 -17 -86 -17 -4484 0 -4570 14 -75 29 -114 73 -190 39 -69 150 -181 207 -210 21 -10 45 -24 53 -30 45 -34 222 -64 376 -65 72 0 114 -4 122 -12 7 -7 12 -39 12 -73 0 -33 5 -76 10 -95 6 -19 15 -62 20 -95 11 -76 28 -142 46 -177 8 -14 14 -35 14 -46 0 -11 7 -25 15 -32 8 -7 15 -18 15 -25 0 -6 11 -32 25 -56 14 -24 28 -51 32 -59 3 -8 26 -41 50 -72 24 -31 43 -60 43 -65 1 -25 290 -283 318 -283 5 0 14 -6 20 -13 6 -6 41 -27 79 -46 37 -18 80 -39 95 -47 14 -8 33 -14 42 -14 8 0 30 -6 48 -14 111 -47 344 -69 543 -52 77 6 147 16 155 21 8 5 32 12 55 16 51 9 149 44 195 71 8 4 21 10 28 13 32 13 39 17 67 35 17 11 37 23 45 27 88 40 353 305 393 393 4 8 16 29 27 45 11 17 22 37 26 45 3 8 10 22 15 30 5 8 12 22 15 30 3 8 12 27 20 42 8 14 14 37 14 50 0 12 7 32 15 42 8 11 15 33 15 48 0 16 6 41 14 56 8 16 17 79 21 151 6 101 11 127 26 142 18 18 50 19 862 19 664 0 847 -3 860 -13 14 -10 20 -41 30 -147 7 -75 17 -142 22 -150 5 -8 12 -32 16 -55 12 -71 72 -216 120 -290 10 -16 22 -37 26 -45 40 -89 304 -353 393 -393 8 -4 29 -16 45 -27 17 -11 37 -22 45 -26 8 -3 22 -10 30 -15 8 -5 22 -12 30 -15 8 -3 28 -12 43 -20 16 -7 35 -14 42 -14 8 0 29 -6 47 -14 111 -47 344 -69 543 -52 77 6 147 16 155 21 8 5 32 12 55 16 80 14 290 104 317 136 6 7 15 13 20 13 19 0 165 119 228 187 85 89 162 188 183 233 4 8 18 35 32 59 14 24 25 50 25 56 0 7 7 18 15 25 8 7 15 22 15 34 0 12 7 31 15 42 8 10 14 28 15 39 0 11 6 40 14 65 22 70 46 212 46 272 0 30 5 59 12 66 9 9 98 12 337 12 352 0 385 4 446 53 56 44 65 97 65 364 0 259 -8 306 -58 357 -41 42 -56 46 -224 54 -75 4 -140 11 -145 15 -4 5 -10 369 -13 810 -4 657 -8 808 -19 837 -28 70 -74 156 -103 193 -39 49 -1406 1416 -1455 1455 -38 29 -125 76 -193 103 -26 10 -126 15 -403 19 l-369 5 -19 24 c-18 22 -19 44 -19 410 0 325 -2 390 -15 407 -8 10 -15 28 -15 40 0 11 -7 29 -15 40 -8 10 -15 24 -15 30 0 17 -61 105 -106 154 -41 44 -148 120 -169 120 -7 0 -18 7 -25 15 -7 8 -22 15 -34 15 -11 1 -32 7 -46 15 -21 12 -349 14 -2325 14 -2064 0 -2305 -2 -2345 -16z m6408 -2555 l674 -673 1 -83 c2 -64 -1 -85 -13 -92 -9 -6 -376 -9 -978 -7 -806 2 -964 4 -971 16 -13 21 -14 1467 -1 1491 10 19 21 20 313 20 l302 0 673 -672z m-4581 -2343 c19 -8 44 -15 55 -15 11 0 32 -6 46 -13 15 -8 45 -22 67 -33 105 -49 225 -171 297 -301 10 -18 18 -39 18 -47 0 -8 6 -27 14 -43 28 -54 39 -182 25 -284 -6 -52 -18 -104 -26 -116 -7 -12 -13 -28 -13 -34 0 -24 -40 -95 -93 -164 -72 -94 -232 -214 -288 -215 -8 0 -23 -7 -33 -15 -11 -8 -33 -15 -50 -15 -16 0 -55 -5 -87 -12 -44 -9 -76 -9 -145 1 -105 15 -162 35 -278 98 -50 27 -198 184 -219 233 -4 8 -11 22 -15 30 -43 74 -64 158 -69 278 -4 78 -1 115 11 152 9 27 16 55 16 64 0 8 7 27 14 43 8 15 17 35 20 43 23 61 129 184 221 256 44 34 165 94 193 95 9 0 33 7 52 14 50 19 221 19 267 0z m4333 -5 c140 -40 283 -139 368 -255 40 -53 58 -81 67 -105 4 -8 12 -28 19 -45 43 -98 60 -302 32 -370 -9 -20 -16 -45 -16 -55 0 -25 -37 -106 -78 -170 -36 -57 -161 -185 -197 -201 -11 -5 -38 -20 -60 -34 -22 -13 -48 -24 -57 -25 -9 0 -29 -6 -45 -14 -50 -26 -197 -41 -262 -28 -32 7 -71 12 -87 12 -17 0 -39 7 -50 15 -10 8 -27 15 -37 15 -38 0 -205 115 -251 173 -110 137 -146 215 -166 358 -33 240 67 467 275 625 46 35 166 94 193 94 9 0 35 7 57 15 48 18 225 15 295 -5z"/>
	</g>
</symbol>

<symbol id="ad-exclamation" viewBox="0 0 140.4 140.4">
  <g>
  <g><path d="M135.09,4.19c2.35,2.36,4.38,6.7,4.69,10.03v111.31c-1.27,9.87-7.32,13.67-16.72,14.23-34.88,2.05-71.75-1.6-106.84,0-8.67,0-15.45-5.38-16.22-14.22V14.22C.96,6.63,6.76.06,14.72,0h110.83c3.51.31,7.05,1.7,9.54,4.19ZM16.34,15.09l-1.1.9-.28,106.06.48,2.02,108.64.25.25-108.62-107.99-.6Z"></path><path d="M60.26,30.07c2.49-.57,15.46-.46,18.37-.12,4.64.55,3.36,7.44,3.26,11.26s-.88,8.51-1.04,12.43c-.27,6.72.25,14.96-.48,21.48-.18,1.61-.79,3.97-2.47,4.52-1.56.51-13.25.5-15.22.19-4.72-.74-3.09-10.06-3.25-13.71-.36-8.07-1.31-16.32-1.54-24.41-.09-3.03-1.07-10.85,2.37-11.64Z"></path><path d="M67.26,86.96c13.56-2.32,21.64,15.47,10.08,23.55s-26.21-6.32-18.15-18.15c1.55-2.28,5.33-4.93,8.07-5.4Z"></path></g>
  </g>
</symbol>
</svg>
